<?xml version="1.0" standalone="no"?>
 <!DOCTYPE svg PUBLIC "-//W3C//DTD SVG 1.1//EN" 
 "http://www.w3.org/Graphics/SVG/1.1/DTD/svg11.dtd"> 
<svg xmlns="http://www.w3.org/2000/svg" version="1.1" 
    width="2.73812cm" height="1.64084cm" viewBox="0 0 10780 6460 ">
<title>SVG Picture created as Masterproef ultrasonic transmitter-F_Fab.svg date 2021/09/03 16:05:26 </title>
  <desc>Picture generated by PCBNEW </desc>
<g style="fill:#000000; fill-opacity:1;stroke:#000000; stroke-opacity:1;
stroke-linecap:round; stroke-linejoin:round; "
 transform="translate(0 0) scale(1 1)">
</g>
<g style="fill:#000000; fill-opacity:0.0; 
stroke:#000000; stroke-width:-0.000393701; stroke-opacity:1; 
stroke-linecap:round; stroke-linejoin:round;">
</g>
<g style="fill:#848484; fill-opacity:0.0; 
stroke:#848484; stroke-width:-0.000393701; stroke-opacity:1; 
stroke-linecap:round; stroke-linejoin:round;">
</g>
<g style="fill:#848484; fill-opacity:0.0; 
stroke:#848484; stroke-width:39.3701; stroke-opacity:1; 
stroke-linecap:round; stroke-linejoin:round;">
<path d="M5281 1189
L5406 1314
" />
<path d="M4225 1189
L5281 1189
" />
<path d="M4225 1689
L4225 1189
" />
<path d="M5406 1689
L4225 1689
" />
<path d="M5406 1314
L5406 1689
" />
<path d="M5585 3817
L5710 3692
" />
<path d="M5585 4480
L5585 3817
" />
<path d="M6085 4480
L5585 4480
" />
<path d="M6085 3692
L6085 4480
" />
<path d="M5710 3692
L6085 3692
" />
<path d="M3984 3809
L5244 3809
" />
<path d="M5244 3809
L5244 4793
" />
<path d="M5244 4793
L3984 4793
" />
<path d="M3984 4793
L3984 3809
" />
<path d="M3629 2952
L3825 2756
" />
<path d="M3629 3527
L3629 2756
" />
<path d="M4203 3527
L3629 3527
" />
<path d="M4203 2756
L4203 3527
" />
<path d="M3629 2756
L4203 2756
" />
<path d="M3205 4040
L3079 4166
" />
<path d="M3205 3851
L3205 4166
" />
<path d="M2733 3851
L3205 3851
" />
<path d="M2733 4166
L2733 3851
" />
<path d="M3205 4166
L2733 4166
" />
<path d="M2400 2114
L1770 2114
" />
<path d="M2400 1799
L2400 2114
" />
<path d="M1770 1799
L2400 1799
" />
<path d="M1770 2114
L1770 1799
" />
<path d="M2820 1986
L2820 1356
" />
<path d="M3135 1986
L2820 1986
" />
<path d="M3135 1356
L3135 1986
" />
<path d="M2820 1356
L3135 1356
" />
<path d="M4723 2798
L4723 3034
" />
<path d="M4605 2798
L4723 2798
" />
<path d="M4605 3034
L4605 2798
" />
<path d="M4723 3034
L4605 3034
" />
<path d="M2863 2872
L2076 2872
" />
<path d="M2863 2400
L2863 2872
" />
<path d="M2076 2400
L2863 2400
" />
<path d="M2076 2872
L2076 2400
" />
<path d="M3398 2103
L3398 1315
" />
<path d="M3870 2103
L3398 2103
" />
<path d="M3870 1315
L3870 2103
" />
<path d="M3398 1315
L3870 1315
" />
<path d="M4412 2363
L4648 2363
" />
<path d="M4412 2481
L4412 2363
" />
<path d="M4648 2481
L4412 2481
" />
<path d="M4648 2363
L4648 2481
" />
<path d="M2409 3187
L3039 3187
" />
<path d="M2409 3502
L2409 3187
" />
<path d="M3039 3502
L2409 3502
" />
<path d="M3039 3187
L3039 3502
" />
<g >
</g>
<g >
</g>
<g >
</g>
<g >
</g>
<g >
</g>
<g >
</g>
<g >
</g>
<g >
</g>
<g >
</g>
<g >
</g>
<g >
</g>
<g >
</g>
<g >
</g>
<g >
</g>
<g >
</g>
<g >
</g>
<g >
</g>
<g >
</g>
<g >
</g>
<g >
</g>
<g >
</g>
</g>
<g style="fill:#848484; fill-opacity:0.0; 
stroke:#848484; stroke-width:39.3701; stroke-opacity:1; 
stroke-linecap:round; stroke-linejoin:round;">
</g>
<g style="fill:#848484; fill-opacity:0.0; 
stroke:#848484; stroke-width:31.4961; stroke-opacity:1; 
stroke-linecap:round; stroke-linejoin:round;">
<g transform="rotate(-90 5148.25 4667.16)">
<text x="5148.25" y="4765.58"
textLength="404.799" font-size="262.467" lengthAdjust="spacingAndGlyphs"
text-anchor="middle" opacity="0">C3</text>
</g>
<path d="M5218 4699
L5227 4709
L5237 4737
L5237 4756
L5227 4784
L5209 4803
L5190 4812
L5152 4821
L5124 4821
L5087 4812
L5068 4803
L5049 4784
L5040 4756
L5040 4737
L5049 4709
L5059 4699
" />
<path d="M5040 4634
L5040 4512
L5115 4578
L5115 4549
L5124 4531
L5134 4521
L5152 4512
L5199 4512
L5218 4521
L5227 4531
L5237 4549
L5237 4606
L5227 4624
L5218 4634
" />
</g>
<g style="fill:#848484; fill-opacity:0.0; 
stroke:#848484; stroke-width:59.0551; stroke-opacity:1; 
stroke-linecap:round; stroke-linejoin:round;">
<g transform="rotate(-90 3808.38 1439.25)">
<text x="3808.38" y="1636.1"
textLength="2178.18" font-size="524.934" lengthAdjust="spacingAndGlyphs"
text-anchor="middle" opacity="0">Control</text>
</g>
<path d="M3948 2189
L3967 2207
L3986 2264
L3986 2301
L3967 2357
L3930 2395
L3892 2414
L3817 2432
L3761 2432
L3686 2414
L3649 2395
L3611 2357
L3592 2301
L3592 2264
L3611 2207
L3630 2189
" />
<path d="M3986 1964
L3967 2001
L3948 2020
L3911 2039
L3799 2039
L3761 2020
L3742 2001
L3724 1964
L3724 1907
L3742 1870
L3761 1851
L3799 1832
L3911 1832
L3948 1851
L3967 1870
L3986 1907
L3986 1964
" />
<path d="M3724 1664
L3986 1664
" />
<path d="M3761 1664
L3742 1645
L3724 1607
L3724 1551
L3742 1514
L3780 1495
L3986 1495
" />
<path d="M3724 1364
L3724 1214
" />
<path d="M3592 1308
L3930 1308
L3967 1289
L3986 1251
L3986 1214
" />
<path d="M3986 1083
L3724 1083
" />
<path d="M3799 1083
L3761 1064
L3742 1045
L3724 1008
L3724 970
" />
<path d="M3986 783
L3967 820
L3948 839
L3911 858
L3799 858
L3761 839
L3742 820
L3724 783
L3724 726
L3742 689
L3761 670
L3799 651
L3911 651
L3948 670
L3967 689
L3986 726
L3986 783
" />
<path d="M3986 426
L3967 464
L3930 483
L3592 483
" />
</g>
<g style="fill:#848484; fill-opacity:0.0; 
stroke:#848484; stroke-width:44.8819; stroke-opacity:1; 
stroke-linecap:round; stroke-linejoin:round;">
<text x="4816.25" y="1588.86"
textLength="589.707" font-size="398.95" lengthAdjust="spacingAndGlyphs"
text-anchor="middle" opacity="0">J2</text>
<path d="M4716 1275
L4716 1489
L4702 1531
L4673 1560
L4631 1574
L4602 1574
" />
<path d="M4844 1303
L4858 1289
L4887 1275
L4958 1275
L4987 1289
L5001 1303
L5015 1332
L5015 1360
L5001 1403
L4830 1574
L5015 1574
" />
</g>
<g style="fill:#848484; fill-opacity:0.0; 
stroke:#848484; stroke-width:59.0551; stroke-opacity:1; 
stroke-linecap:round; stroke-linejoin:round;">
<text x="5835.25" y="5094.28"
textLength="1801.88" font-size="524.934" lengthAdjust="spacingAndGlyphs"
text-anchor="middle" opacity="0">Power</text>
<path d="M5057 5075
L5057 4681
L5207 4681
L5244 4700
L5263 4719
L5282 4756
L5282 4813
L5263 4850
L5244 4869
L5207 4888
L5057 4888
" />
<path d="M5507 5075
L5469 5056
L5450 5038
L5432 5000
L5432 4888
L5450 4850
L5469 4831
L5507 4813
L5563 4813
L5600 4831
L5619 4850
L5638 4888
L5638 5000
L5619 5038
L5600 5056
L5563 5075
L5507 5075
" />
<path d="M5769 4813
L5844 5075
L5919 4888
L5994 5075
L6069 4813
" />
<path d="M6369 5056
L6332 5075
L6257 5075
L6219 5056
L6200 5019
L6200 4869
L6219 4831
L6257 4813
L6332 4813
L6369 4831
L6388 4869
L6388 4906
L6200 4944
" />
<path d="M6557 5075
L6557 4813
" />
<path d="M6557 4888
L6575 4850
L6594 4831
L6632 4813
L6669 4813
" />
</g>
<g style="fill:#848484; fill-opacity:0.0; 
stroke:#848484; stroke-width:44.8819; stroke-opacity:1; 
stroke-linecap:round; stroke-linejoin:round;">
<g transform="rotate(-90 5835.25 4086.4)">
<text x="5835.25" y="4236.01"
textLength="589.707" font-size="398.95" lengthAdjust="spacingAndGlyphs"
text-anchor="middle" opacity="0">J1</text>
</g>
<path d="M5671 4186
L5885 4186
L5927 4200
L5956 4228
L5970 4271
L5970 4300
" />
<path d="M5970 3886
L5970 4057
" />
<path d="M5970 3972
L5671 3972
L5714 4000
L5742 4029
L5756 4057
" />
</g>
<g style="fill:#848484; fill-opacity:0.0; 
stroke:#848484; stroke-width:100; stroke-opacity:1; 
stroke-linecap:round; stroke-linejoin:round;">
<text x="4614.76" y="4551.25"
textLength="939.299" font-size="666.667" lengthAdjust="spacingAndGlyphs"
text-anchor="middle" opacity="0">L2</text>
<path d="M4531 4527
L4293 4527
L4293 4027
" />
<path d="M4674 4075
L4698 4051
L4745 4027
L4864 4027
L4912 4051
L4936 4075
L4959 4122
L4959 4170
L4936 4241
L4650 4527
L4959 4527
" />
<g transform="rotate(-90 3916.4 3141.83)">
<text x="3916.4" y="3391.83"
textLength="1344.29" font-size="666.667" lengthAdjust="spacingAndGlyphs"
text-anchor="middle" opacity="0">IC2</text>
</g>
<path d="M4142 3629
L3642 3629
" />
<path d="M4094 3106
L4118 3129
L4142 3201
L4142 3248
L4118 3320
L4071 3368
L4023 3391
L3928 3415
L3856 3415
L3761 3391
L3714 3368
L3666 3320
L3642 3248
L3642 3201
L3666 3129
L3690 3106
" />
<path d="M3690 2915
L3666 2891
L3642 2844
L3642 2725
L3666 2677
L3690 2653
L3737 2629
L3785 2629
L3856 2653
L4142 2939
L4142 2629
" />
<text x="2969.53" y="4259.25"
textLength="1106.19" font-size="666.667" lengthAdjust="spacingAndGlyphs"
text-anchor="middle" opacity="0">D1</text>
<path d="M2600 4235
L2600 3735
L2719 3735
L2790 3759
L2838 3806
L2862 3854
L2886 3949
L2886 4021
L2862 4116
L2838 4164
L2790 4211
L2719 4235
L2600 4235
" />
<path d="M3362 4235
L3076 4235
" />
<path d="M3219 4235
L3219 3735
L3171 3806
L3124 3854
L3076 3878
" />
</g>
<g style="fill:#848484; fill-opacity:0.0; 
stroke:#848484; stroke-width:59.0551; stroke-opacity:1; 
stroke-linecap:round; stroke-linejoin:round;">
<text x="2085.29" y="2717.09"
textLength="1573.57" font-size="524.934" lengthAdjust="spacingAndGlyphs"
text-anchor="middle" opacity="0">100k</text>
<path d="M1663 2698
L1438 2698
" />
<path d="M1550 2698
L1550 2304
L1513 2360
L1475 2398
L1438 2417
" />
<path d="M1907 2304
L1944 2304
L1982 2323
L2000 2342
L2019 2379
L2038 2454
L2038 2548
L2019 2623
L2000 2660
L1982 2679
L1944 2698
L1907 2698
L1869 2679
L1850 2660
L1832 2623
L1813 2548
L1813 2454
L1832 2379
L1850 2342
L1869 2323
L1907 2304
" />
<path d="M2282 2304
L2319 2304
L2357 2323
L2375 2342
L2394 2379
L2413 2454
L2413 2548
L2394 2623
L2375 2660
L2357 2679
L2319 2698
L2282 2698
L2244 2679
L2225 2660
L2207 2623
L2188 2548
L2188 2454
L2207 2379
L2225 2342
L2244 2323
L2282 2304
" />
<path d="M2582 2698
L2582 2304
" />
<path d="M2619 2548
L2732 2698
" />
<path d="M2732 2435
L2582 2585
" />
</g>
<g style="fill:#848484; fill-opacity:0.0; 
stroke:#848484; stroke-width:23.622; stroke-opacity:1; 
stroke-linecap:round; stroke-linejoin:round;">
<text x="2085.29" y="2035.99"
textLength="384.233" font-size="209.974" lengthAdjust="spacingAndGlyphs"
text-anchor="middle" opacity="0">R4</text>
<path d="M2059 2028
L2006 1953
" />
<path d="M1969 2028
L1969 1871
L2029 1871
L2044 1878
L2051 1886
L2059 1901
L2059 1923
L2051 1938
L2044 1946
L2029 1953
L1969 1953
" />
<path d="M2194 1923
L2194 2028
" />
<path d="M2156 1863
L2119 1975
L2216 1975
" />
</g>
<g style="fill:#848484; fill-opacity:0.0; 
stroke:#848484; stroke-width:59.0551; stroke-opacity:1; 
stroke-linecap:round; stroke-linejoin:round;">
<g transform="rotate(-90 2415.26 1671.29)">
<text x="2415.26" y="1868.14"
textLength="1474.28" font-size="524.934" lengthAdjust="spacingAndGlyphs"
text-anchor="middle" opacity="0">100k</text>
</g>
<path d="M2593 2093
L2593 2318
" />
<path d="M2593 2205
L2199 2205
L2255 2243
L2293 2280
L2312 2318
" />
<path d="M2199 1849
L2199 1811
L2218 1774
L2237 1755
L2274 1736
L2349 1718
L2443 1718
L2518 1736
L2555 1755
L2574 1774
L2593 1811
L2593 1849
L2574 1886
L2555 1905
L2518 1924
L2443 1943
L2349 1943
L2274 1924
L2237 1905
L2218 1886
L2199 1849
" />
<path d="M2199 1474
L2199 1436
L2218 1399
L2237 1380
L2274 1361
L2349 1343
L2443 1343
L2518 1361
L2555 1380
L2574 1399
L2593 1436
L2593 1474
L2574 1511
L2555 1530
L2518 1549
L2443 1568
L2349 1568
L2274 1549
L2237 1530
L2218 1511
L2199 1474
" />
<path d="M2593 1174
L2199 1174
" />
<path d="M2443 1136
L2593 1024
" />
<path d="M2330 1024
L2480 1174
" />
</g>
<g style="fill:#848484; fill-opacity:0.0; 
stroke:#848484; stroke-width:23.622; stroke-opacity:1; 
stroke-linecap:round; stroke-linejoin:round;">
<g transform="rotate(-90 2978.25 1671.29)">
<text x="2978.25" y="1750.03"
textLength="384.233" font-size="209.974" lengthAdjust="spacingAndGlyphs"
text-anchor="middle" opacity="0">R3</text>
</g>
<path d="M3049 1697
L2974 1750
" />
<path d="M3049 1787
L2892 1787
L2892 1727
L2899 1712
L2907 1705
L2922 1697
L2944 1697
L2959 1705
L2967 1712
L2974 1727
L2974 1787
" />
<path d="M2892 1645
L2892 1547
L2952 1600
L2952 1577
L2959 1562
L2967 1555
L2982 1547
L3019 1547
L3034 1555
L3041 1562
L3049 1577
L3049 1622
L3041 1637
L3034 1645
" />
</g>
<g style="fill:#848484; fill-opacity:0.0; 
stroke:#848484; stroke-width:59.0551; stroke-opacity:1; 
stroke-linecap:round; stroke-linejoin:round;">
<g transform="rotate(-90 5077.64 2916.24)">
<text x="5077.64" y="3113.09"
textLength="1155.57" font-size="524.934" lengthAdjust="spacingAndGlyphs"
text-anchor="middle" opacity="0">1µF</text>
</g>
<path d="M5255 3178
L5255 3403
" />
<path d="M5255 3291
L4862 3291
L4918 3328
L4955 3366
L4974 3403
" />
<path d="M4993 3009
L5386 3009
" />
<path d="M5199 2822
L5236 2803
L5255 2766
" />
<path d="M5199 3009
L5236 2991
L5255 2953
L5255 2878
L5236 2841
L5199 2822
L4993 2822
" />
<path d="M5049 2466
L5049 2597
" />
<path d="M5255 2597
L4862 2597
L4862 2410
" />
</g>
<g style="fill:#848484; fill-opacity:0.0; 
stroke:#848484; stroke-width:15.748; stroke-opacity:1; 
stroke-linecap:round; stroke-linejoin:round;">
<g transform="rotate(-90 4464.25 2916.24)">
<text x="4464.25" y="2965.45"
textLength="268.935" font-size="131.233" lengthAdjust="spacingAndGlyphs"
text-anchor="middle" opacity="0">C9</text>
</g>
<path d="M4499 2932
L4504 2937
L4508 2951
L4508 2960
L4504 2974
L4494 2984
L4485 2988
L4466 2993
L4452 2993
L4433 2988
L4424 2984
L4415 2974
L4410 2960
L4410 2951
L4415 2937
L4419 2932
" />
<path d="M4508 2885
L4508 2867
L4504 2857
L4499 2852
L4485 2843
L4466 2838
L4429 2838
L4419 2843
L4415 2848
L4410 2857
L4410 2876
L4415 2885
L4419 2890
L4429 2895
L4452 2895
L4461 2890
L4466 2885
L4471 2876
L4471 2857
L4466 2848
L4461 2843
L4452 2838
" />
</g>
<g style="fill:#848484; fill-opacity:0.0; 
stroke:#848484; stroke-width:59.0551; stroke-opacity:1; 
stroke-linecap:round; stroke-linejoin:round;">
<text x="2470.16" y="3482.71"
textLength="1520.29" font-size="524.934" lengthAdjust="spacingAndGlyphs"
text-anchor="middle" opacity="0">10µF</text>
<path d="M2020 3463
L1795 3463
" />
<path d="M1907 3463
L1907 3070
L1870 3126
L1832 3163
L1795 3182
" />
<path d="M2263 3070
L2301 3070
L2338 3089
L2357 3107
L2376 3145
L2395 3220
L2395 3313
L2376 3388
L2357 3426
L2338 3445
L2301 3463
L2263 3463
L2226 3445
L2207 3426
L2188 3388
L2170 3313
L2170 3220
L2188 3145
L2207 3107
L2226 3089
L2263 3070
" />
<path d="M2563 3201
L2563 3595
" />
<path d="M2751 3407
L2770 3445
L2807 3463
" />
<path d="M2563 3407
L2582 3445
L2620 3463
L2695 3463
L2732 3445
L2751 3407
L2751 3201
" />
<path d="M3107 3257
L2976 3257
" />
<path d="M2976 3463
L2976 3070
L3163 3070
" />
</g>
<g style="fill:#848484; fill-opacity:0.0; 
stroke:#848484; stroke-width:31.4961; stroke-opacity:1; 
stroke-linecap:round; stroke-linejoin:round;">
<g transform="rotate(-90 2470.16 2636.25)">
<text x="2470.16" y="2734.68"
textLength="461.098" font-size="262.467" lengthAdjust="spacingAndGlyphs"
text-anchor="middle" opacity="0">C8</text>
</g>
<path d="M2540 2669
L2549 2678
L2559 2706
L2559 2725
L2549 2753
L2531 2772
L2512 2781
L2474 2790
L2446 2790
L2409 2781
L2390 2772
L2371 2753
L2362 2725
L2362 2706
L2371 2678
L2381 2669
" />
<path d="M2446 2556
L2437 2575
L2427 2584
L2409 2594
L2399 2594
L2381 2584
L2371 2575
L2362 2556
L2362 2519
L2371 2500
L2381 2490
L2399 2481
L2409 2481
L2427 2490
L2437 2500
L2446 2519
L2446 2556
L2456 2575
L2465 2584
L2484 2594
L2521 2594
L2540 2584
L2549 2575
L2559 2556
L2559 2519
L2549 2500
L2540 2490
L2521 2481
L2484 2481
L2465 2490
L2456 2500
L2446 2519
" />
</g>
<g style="fill:#848484; fill-opacity:0.0; 
stroke:#848484; stroke-width:59.0551; stroke-opacity:1; 
stroke-linecap:round; stroke-linejoin:round;">
<g transform="rotate(-90 2984.65 1709.35)">
<text x="2984.65" y="1906.2"
textLength="1540.76" font-size="524.934" lengthAdjust="spacingAndGlyphs"
text-anchor="middle" opacity="0">10µF</text>
</g>
<path d="M3162 2159
L3162 2384
" />
<path d="M3162 2271
L2769 2271
L2825 2309
L2862 2346
L2881 2384
" />
<path d="M2769 1915
L2769 1878
L2787 1840
L2806 1821
L2844 1803
L2919 1784
L3012 1784
L3087 1803
L3125 1821
L3144 1840
L3162 1878
L3162 1915
L3144 1953
L3125 1971
L3087 1990
L3012 2009
L2919 2009
L2844 1990
L2806 1971
L2787 1953
L2769 1915
" />
<path d="M2900 1615
L3293 1615
" />
<path d="M3106 1428
L3144 1409
L3162 1371
" />
<path d="M3106 1615
L3144 1596
L3162 1559
L3162 1484
L3144 1446
L3106 1428
L2900 1428
" />
<path d="M2956 1071
L2956 1203
" />
<path d="M3162 1203
L2769 1203
L2769 1015
" />
</g>
<g style="fill:#848484; fill-opacity:0.0; 
stroke:#848484; stroke-width:31.4961; stroke-opacity:1; 
stroke-linecap:round; stroke-linejoin:round;">
<g transform="rotate(-90 3634.25 1709.35)">
<text x="3634.25" y="1807.77"
textLength="461.098" font-size="262.467" lengthAdjust="spacingAndGlyphs"
text-anchor="middle" opacity="0">C7</text>
</g>
<path d="M3704 1742
L3713 1751
L3723 1779
L3723 1798
L3713 1826
L3695 1845
L3676 1854
L3638 1864
L3610 1864
L3573 1854
L3554 1845
L3535 1826
L3526 1798
L3526 1779
L3535 1751
L3545 1742
" />
<path d="M3526 1676
L3526 1545
L3723 1629
" />
</g>
<g style="fill:#848484; fill-opacity:0.0; 
stroke:#848484; stroke-width:59.0551; stroke-opacity:1; 
stroke-linecap:round; stroke-linejoin:round;">
<text x="4530.25" y="2205.72"
textLength="1165.8" font-size="524.934" lengthAdjust="spacingAndGlyphs"
text-anchor="middle" opacity="0">1µF</text>
<path d="M4267 2186
L4042 2186
" />
<path d="M4155 2186
L4155 1793
L4117 1849
L4080 1887
L4042 1905
" />
<path d="M4436 1924
L4436 2318
" />
<path d="M4623 2130
L4642 2168
L4680 2186
" />
<path d="M4436 2130
L4455 2168
L4492 2186
L4567 2186
L4605 2168
L4623 2130
L4623 1924
" />
<path d="M4980 1980
L4848 1980
" />
<path d="M4848 2186
L4848 1793
L5036 1793
" />
</g>
<g style="fill:#848484; fill-opacity:0.0; 
stroke:#848484; stroke-width:15.748; stroke-opacity:1; 
stroke-linecap:round; stroke-linejoin:round;">
<text x="4530.25" y="2739.18"
textLength="268.935" font-size="131.233" lengthAdjust="spacingAndGlyphs"
text-anchor="middle" opacity="0">C6</text>
<path d="M4513 2725
L4509 2729
L4495 2734
L4485 2734
L4471 2729
L4462 2720
L4457 2711
L4452 2692
L4452 2678
L4457 2659
L4462 2650
L4471 2640
L4485 2636
L4495 2636
L4509 2640
L4513 2645
" />
<path d="M4598 2636
L4579 2636
L4570 2640
L4565 2645
L4556 2659
L4551 2678
L4551 2715
L4556 2725
L4560 2729
L4570 2734
L4588 2734
L4598 2729
L4602 2725
L4607 2715
L4607 2692
L4602 2682
L4598 2678
L4588 2673
L4570 2673
L4560 2678
L4556 2682
L4551 2692
" />
</g>
<g style="fill:#848484; fill-opacity:0.0; 
stroke:#848484; stroke-width:59.0551; stroke-opacity:1; 
stroke-linecap:round; stroke-linejoin:round;">
<text x="2724.21" y="2979.11"
textLength="1145.33" font-size="524.934" lengthAdjust="spacingAndGlyphs"
text-anchor="middle" opacity="0">1µF</text>
<path d="M2461 2960
L2236 2960
" />
<path d="M2349 2960
L2349 2566
L2311 2622
L2274 2660
L2236 2679
" />
<path d="M2630 2697
L2630 3091
" />
<path d="M2817 2904
L2836 2941
L2874 2960
" />
<path d="M2630 2904
L2649 2941
L2686 2960
L2761 2960
L2799 2941
L2817 2904
L2817 2697
" />
<path d="M3174 2754
L3042 2754
" />
<path d="M3042 2960
L3042 2566
L3230 2566
" />
</g>
<g style="fill:#848484; fill-opacity:0.0; 
stroke:#848484; stroke-width:23.622; stroke-opacity:1; 
stroke-linecap:round; stroke-linejoin:round;">
<text x="2738.25" y="3425.99"
textLength="384.233" font-size="209.974" lengthAdjust="spacingAndGlyphs"
text-anchor="middle" opacity="0">C5</text>
<path d="M2712 3403
L2704 3410
L2682 3418
L2667 3418
L2644 3410
L2629 3395
L2622 3380
L2614 3351
L2614 3328
L2622 3298
L2629 3283
L2644 3268
L2667 3261
L2682 3261
L2704 3268
L2712 3276
" />
<path d="M2854 3261
L2779 3261
L2771 3336
L2779 3328
L2794 3321
L2831 3321
L2846 3328
L2854 3336
L2861 3351
L2861 3388
L2854 3403
L2846 3410
L2831 3418
L2794 3418
L2779 3410
L2771 3403
" />
<g >
</g>
</g>
<g style="fill:#000000; fill-opacity:0.0; 
stroke:#000000; stroke-width:23.622; stroke-opacity:1; 
stroke-linecap:round; stroke-linejoin:round;">
</g>
<g style="fill:#C2C200; fill-opacity:0.0; 
stroke:#C2C200; stroke-width:23.622; stroke-opacity:1; 
stroke-linecap:round; stroke-linejoin:round;">
</g>
<g style="fill:#C2C200; fill-opacity:0.0; 
stroke:#C2C200; stroke-width:19.685; stroke-opacity:1; 
stroke-linecap:round; stroke-linejoin:round;">
<path d="M984 984
L984 5484
" />
<path d="M7484 5484
L984 5484
" />
<path d="M7484 984
L7484 5484
" />
<path d="M7484 5484
L7484 984
" />
<path d="M984 984
L7484 984
" />
<circle cx="984.252" cy="984.252" r="656.168" /> 
<path d="M0 984
L1968 984
" />
<path d="M984 0
L984 1968
" />
<circle cx="7484.25" cy="5484.25" r="656.168" /> 
<path d="M6500 5484
L8468 5484
" />
<path d="M7484 4500
L7484 6468
" />
<circle cx="7484.25" cy="984.252" r="656.168" /> 
<path d="M6500 984
L8468 984
" />
<path d="M7484 0
L7484 1968
" />
<circle cx="984.252" cy="5484.25" r="656.168" /> 
<path d="M0 5484
L1968 5484
" />
<path d="M984 4500
L984 6468
" />
<g >
</g>
<g >
</g>
<g >
</g>
<g >
</g>
<g >
</g>
<g >
</g>
<g >
</g>
<g >
</g>
<g >
</g>
<g >
</g>
<g >
</g>
<g >
</g>
<g >
</g>
<g >
</g>
<g >
</g>
<g >
</g>
<g >
</g>
<g >
</g>
<g >
</g>
<g >
</g>
<g >
</g>
<g >
</g>
</g> 
</svg>
