<?xml version="1.0" standalone="no"?>
 <!DOCTYPE svg PUBLIC "-//W3C//DTD SVG 1.1//EN" 
 "http://www.w3.org/Graphics/SVG/1.1/DTD/svg11.dtd"> 
<svg xmlns="http://www.w3.org/2000/svg" version="1.1" 
    width="2.73812cm" height="1.64084cm" viewBox="0 0 10780 6460 ">
<title>SVG Picture created as Masterproef ultrasonic transmitter-F_SilkS.svg date 2021/09/03 16:05:26 </title>
  <desc>Picture generated by PCBNEW </desc>
<g style="fill:#000000; fill-opacity:1;stroke:#000000; stroke-opacity:1;
stroke-linecap:round; stroke-linejoin:round; "
 transform="translate(0 0) scale(1 1)">
</g>
<g style="fill:#000000; fill-opacity:0.0; 
stroke:#000000; stroke-width:-0.000393701; stroke-opacity:1; 
stroke-linecap:round; stroke-linejoin:round;">
</g>
<g style="fill:#FFFF00; fill-opacity:0.0; 
stroke:#FFFF00; stroke-width:-0.000393701; stroke-opacity:1; 
stroke-linecap:round; stroke-linejoin:round;">
</g>
<g style="fill:#FFFF00; fill-opacity:0.0; 
stroke:#FFFF00; stroke-width:47.2441; stroke-opacity:1; 
stroke-linecap:round; stroke-linejoin:round;">
<path d="M5479 1165
L5479 1439
" />
<path d="M5209 1165
L5479 1165
" />
<path d="M4940 1678
L4940 1712
" />
<path d="M4940 1165
L4940 1199
" />
<path d="M4940 1712
L4202 1712
" />
<path d="M4940 1165
L4202 1165
" />
<path d="M4202 1594
L4202 1712
" />
<path d="M4202 1165
L4202 1283
" />
<path d="M5561 3619
L5835 3619
" />
<path d="M5561 3889
L5561 3619
" />
<path d="M6074 4159
L6108 4159
" />
<path d="M5561 4159
L5595 4159
" />
<path d="M6108 4159
L6108 4503
" />
<path d="M5561 4159
L5561 4503
" />
<path d="M5990 4503
L6108 4503
" />
<path d="M5561 4503
L5679 4503
" />
</g>
<g style="fill:#FFFF00; fill-opacity:0.0; 
stroke:#FFFF00; stroke-width:78.7402; stroke-opacity:1; 
stroke-linecap:round; stroke-linejoin:round;">
<path d="M4614 3848
L4614 4754
" />
<circle cx="3521.52" cy="2648.52" r="39.3701" /> 
<path d="M3521 2846
L3719 2648
" />
<path d="M3521 3635
L3521 2846
" />
<path d="M4311 3635
L3521 3635
" />
<path d="M4311 2648
L4311 3635
" />
<path d="M3719 2648
L4311 2648
" />
<path d="M3205 3851
L2733 3851
" />
<path d="M3390 4166
L2733 4166
" />
</g>
<g style="fill:#FFFF00; fill-opacity:0.0; 
stroke:#FFFF00; stroke-width:47.2441; stroke-opacity:1; 
stroke-linecap:round; stroke-linejoin:round;">
<path d="M2021 2158
L2149 2158
" />
<path d="M2021 1756
L2149 1756
" />
<path d="M2777 1607
L2777 1735
" />
<path d="M3179 1607
L3179 1735
" />
<path d="M2368 2915
L2571 2915
" />
<path d="M2368 2356
L2571 2356
" />
<path d="M3354 1607
L3354 1811
" />
<path d="M3913 1607
L3913 1811
" />
<path d="M2788 3144
L2660 3144
" />
<path d="M2788 3546
L2660 3546
" />
</g>
<g style="fill:#FFFF00; fill-opacity:0.0; 
stroke:#FFFF00; stroke-width:59.0551; stroke-opacity:1; 
stroke-linecap:round; stroke-linejoin:round;">
<text x="5824.13" y="1636.1"
textLength="751.687" font-size="524.934" lengthAdjust="spacingAndGlyphs"
text-anchor="middle" opacity="0">J2</text>
<path d="M5692 1223
L5692 1504
L5674 1561
L5636 1598
L5580 1617
L5542 1617
" />
<path d="M5861 1261
L5880 1242
L5917 1223
L6011 1223
L6049 1242
L6067 1261
L6086 1298
L6086 1336
L6067 1392
L5842 1617
L6086 1617
" />
<text x="6450.25" y="4833.1"
textLength="751.687" font-size="524.934" lengthAdjust="spacingAndGlyphs"
text-anchor="middle" opacity="0">J1</text>
<path d="M6319 4420
L6319 4701
L6300 4758
L6262 4795
L6206 4814
L6169 4814
" />
<path d="M6712 4814
L6487 4814
" />
<path d="M6600 4814
L6600 4420
L6562 4476
L6525 4514
L6487 4533
" />
</g>
<g style="fill:#FFFF00; fill-opacity:0.0; 
stroke:#FFFF00; stroke-width:78.7402; stroke-opacity:1; 
stroke-linecap:round; stroke-linejoin:round;">
<text x="4638.25" y="5375.1"
textLength="770.435" font-size="524.934" lengthAdjust="spacingAndGlyphs"
text-anchor="middle" opacity="0">L2</text>
<path d="M4572 5356
L4385 5356
L4385 4962
" />
<path d="M4685 5000
L4703 4981
L4741 4962
L4835 4962
L4872 4981
L4891 5000
L4910 5037
L4910 5075
L4891 5131
L4666 5356
L4910 5356
" />
<text x="4892.25" y="3715.1"
textLength="1058.49" font-size="524.934" lengthAdjust="spacingAndGlyphs"
text-anchor="middle" opacity="0">IC2</text>
<path d="M4507 3696
L4507 3302
" />
<path d="M4920 3658
L4901 3677
L4845 3696
L4807 3696
L4751 3677
L4714 3640
L4695 3602
L4676 3527
L4676 3471
L4695 3396
L4714 3358
L4751 3321
L4807 3302
L4845 3302
L4901 3321
L4920 3340
" />
<path d="M5070 3340
L5089 3321
L5126 3302
L5220 3302
L5257 3321
L5276 3340
L5295 3377
L5295 3415
L5276 3471
L5051 3696
L5295 3696
" />
<text x="2974.25" y="4755.1"
textLength="871.016" font-size="524.934" lengthAdjust="spacingAndGlyphs"
text-anchor="middle" opacity="0">D1</text>
<path d="M2683 4736
L2683 4342
L2777 4342
L2833 4361
L2871 4398
L2889 4436
L2908 4511
L2908 4567
L2889 4642
L2871 4680
L2833 4717
L2777 4736
L2683 4736
" />
<path d="M3283 4736
L3058 4736
" />
<path d="M3171 4736
L3171 4342
L3133 4398
L3096 4436
L3058 4455
" />
</g>
<g style="fill:#FFFF00; fill-opacity:0.0; 
stroke:#FFFF00; stroke-width:59.0551; stroke-opacity:1; 
stroke-linecap:round; stroke-linejoin:round;">
<text x="1209.33" y="2170.1"
textLength="871.016" font-size="524.934" lengthAdjust="spacingAndGlyphs"
text-anchor="middle" opacity="0">R4</text>
<path d="M1143 2151
L1012 1963
" />
<path d="M918 2151
L918 1757
L1068 1757
L1106 1776
L1124 1795
L1143 1832
L1143 1888
L1124 1926
L1106 1945
L1068 1963
L918 1963
" />
<path d="M1481 1888
L1481 2151
" />
<path d="M1387 1738
L1293 2020
L1537 2020
" />
<text x="2339.25" y="1526.18"
textLength="845.426" font-size="524.934" lengthAdjust="spacingAndGlyphs"
text-anchor="middle" opacity="0">R3</text>
<path d="M2273 1507
L2142 1319
" />
<path d="M2048 1507
L2048 1113
L2198 1113
L2236 1132
L2254 1151
L2273 1188
L2273 1244
L2254 1282
L2236 1301
L2198 1319
L2048 1319
" />
<path d="M2404 1113
L2648 1113
L2517 1263
L2573 1263
L2611 1282
L2629 1301
L2648 1338
L2648 1432
L2629 1469
L2611 1488
L2573 1507
L2461 1507
L2423 1488
L2404 1469
" />
<text x="5171.25" y="3252.1"
textLength="845.426" font-size="524.934" lengthAdjust="spacingAndGlyphs"
text-anchor="middle" opacity="0">C9</text>
<path d="M5105 3195
L5086 3214
L5030 3233
L4993 3233
L4936 3214
L4899 3177
L4880 3139
L4861 3064
L4861 3008
L4880 2933
L4899 2895
L4936 2858
L4993 2839
L5030 2839
L5086 2858
L5105 2877
" />
<path d="M5293 3233
L5368 3233
L5405 3214
L5424 3195
L5461 3139
L5480 3064
L5480 2914
L5461 2877
L5443 2858
L5405 2839
L5330 2839
L5293 2858
L5274 2877
L5255 2914
L5255 3008
L5274 3045
L5293 3064
L5330 3083
L5405 3083
L5443 3064
L5461 3045
L5480 3008
" />
<text x="1464.25" y="2896.1"
textLength="845.426" font-size="524.934" lengthAdjust="spacingAndGlyphs"
text-anchor="middle" opacity="0">C8</text>
<path d="M1398 2839
L1379 2858
L1323 2877
L1286 2877
L1229 2858
L1192 2821
L1173 2783
L1154 2708
L1154 2652
L1173 2577
L1192 2539
L1229 2502
L1286 2483
L1323 2483
L1379 2502
L1398 2521
" />
<path d="M1623 2652
L1586 2633
L1567 2614
L1548 2577
L1548 2558
L1567 2521
L1586 2502
L1623 2483
L1698 2483
L1736 2502
L1754 2521
L1773 2558
L1773 2577
L1754 2614
L1736 2633
L1698 2652
L1623 2652
L1586 2671
L1567 2689
L1548 2727
L1548 2802
L1567 2839
L1586 2858
L1623 2877
L1698 2877
L1736 2858
L1754 2839
L1773 2802
L1773 2727
L1754 2689
L1736 2671
L1698 2652
" />
<text x="4290.25" y="2266.1"
textLength="845.426" font-size="524.934" lengthAdjust="spacingAndGlyphs"
text-anchor="middle" opacity="0">C7</text>
<path d="M4224 2209
L4205 2228
L4149 2247
L4112 2247
L4055 2228
L4018 2191
L3999 2153
L3980 2078
L3980 2022
L3999 1947
L4018 1909
L4055 1872
L4112 1853
L4149 1853
L4205 1872
L4224 1891
" />
<path d="M4355 1853
L4618 1853
L4449 2247
" />
<text x="5169.25" y="2769.1"
textLength="845.426" font-size="524.934" lengthAdjust="spacingAndGlyphs"
text-anchor="middle" opacity="0">C6</text>
<path d="M5103 2712
L5084 2731
L5028 2750
L4991 2750
L4934 2731
L4897 2694
L4878 2656
L4859 2581
L4859 2525
L4878 2450
L4897 2412
L4934 2375
L4991 2356
L5028 2356
L5084 2375
L5103 2394
" />
<path d="M5441 2356
L5366 2356
L5328 2375
L5309 2394
L5272 2450
L5253 2525
L5253 2675
L5272 2712
L5291 2731
L5328 2750
L5403 2750
L5441 2731
L5459 2712
L5478 2675
L5478 2581
L5459 2544
L5441 2525
L5403 2506
L5328 2506
L5291 2525
L5272 2544
L5253 2581
" />
<text x="1825.21" y="3927.1"
textLength="845.426" font-size="524.934" lengthAdjust="spacingAndGlyphs"
text-anchor="middle" opacity="0">C5</text>
<path d="M1759 3870
L1740 3889
L1684 3908
L1647 3908
L1590 3889
L1553 3852
L1534 3814
L1515 3739
L1515 3683
L1534 3608
L1553 3570
L1590 3533
L1647 3514
L1684 3514
L1740 3533
L1759 3552
" />
<path d="M2115 3514
L1928 3514
L1909 3702
L1928 3683
L1965 3664
L2059 3664
L2097 3683
L2115 3702
L2134 3739
L2134 3833
L2115 3870
L2097 3889
L2059 3908
L1965 3908
L1928 3889
L1909 3870
" />
<g >
</g>
</g>
<g style="fill:#000000; fill-opacity:0.0; 
stroke:#000000; stroke-width:59.0551; stroke-opacity:1; 
stroke-linecap:round; stroke-linejoin:round;">
</g>
<g style="fill:#C2C200; fill-opacity:0.0; 
stroke:#C2C200; stroke-width:59.0551; stroke-opacity:1; 
stroke-linecap:round; stroke-linejoin:round;">
</g>
<g style="fill:#C2C200; fill-opacity:0.0; 
stroke:#C2C200; stroke-width:19.685; stroke-opacity:1; 
stroke-linecap:round; stroke-linejoin:round;">
<path d="M984 984
L984 5484
" />
<path d="M7484 5484
L984 5484
" />
<path d="M7484 984
L7484 5484
" />
<path d="M7484 5484
L7484 984
" />
<path d="M984 984
L7484 984
" />
<circle cx="984.252" cy="984.252" r="656.168" /> 
<path d="M0 984
L1968 984
" />
<path d="M984 0
L984 1968
" />
<circle cx="7484.25" cy="5484.25" r="656.168" /> 
<path d="M6500 5484
L8468 5484
" />
<path d="M7484 4500
L7484 6468
" />
<circle cx="7484.25" cy="984.252" r="656.168" /> 
<path d="M6500 984
L8468 984
" />
<path d="M7484 0
L7484 1968
" />
<circle cx="984.252" cy="5484.25" r="656.168" /> 
<path d="M0 5484
L1968 5484
" />
<path d="M984 4500
L984 6468
" />
<g >
</g>
<g >
</g>
<g >
</g>
<g >
</g>
<g >
</g>
<g >
</g>
<g >
</g>
<g >
</g>
<g >
</g>
<g >
</g>
<g >
</g>
<g >
</g>
<g >
</g>
<g >
</g>
<g >
</g>
<g >
</g>
<g >
</g>
<g >
</g>
<g >
</g>
<g >
</g>
<g >
</g>
<g >
</g>
</g> 
</svg>
