<?xml version="1.0" standalone="no"?>
 <!DOCTYPE svg PUBLIC "-//W3C//DTD SVG 1.1//EN" 
 "http://www.w3.org/Graphics/SVG/1.1/DTD/svg11.dtd"> 
<svg xmlns="http://www.w3.org/2000/svg" version="1.1" 
    width="2.73812cm" height="1.64084cm" viewBox="0 0 10780 6460 ">
<title>SVG Picture created as Masterproef ultrasonic transmitter-B_Cu.svg date 2021/09/03 16:05:26 </title>
  <desc>Picture generated by PCBNEW </desc>
<g style="fill:#000000; fill-opacity:1;stroke:#000000; stroke-opacity:1;
stroke-linecap:round; stroke-linejoin:round; "
 transform="translate(0 0) scale(1 1)">
</g>
<g style="fill:#000000; fill-opacity:0.0; 
stroke:#000000; stroke-width:-0.000393701; stroke-opacity:1; 
stroke-linecap:round; stroke-linejoin:round;">
<g >
</g>
<g style="fill:#008400; fill-opacity:0.0; 
stroke:#008400; stroke-width:-0.000393701; stroke-opacity:1; 
stroke-linecap:round; stroke-linejoin:round;">
</g>
<g style="fill:#008400; fill-opacity:0.0; 
stroke:#008400; stroke-width:0; stroke-opacity:1; 
stroke-linecap:round; stroke-linejoin:round;">
</g>
<g style="fill:#008400; fill-opacity:1.0; 
stroke:#008400; stroke-width:0; stroke-opacity:1; 
stroke-linecap:round; stroke-linejoin:round;">
<path style="fill:#008400; fill-opacity:1.0; 
stroke:#008400; stroke-width:0; stroke-opacity:1; 
stroke-linecap:round; stroke-linejoin:round;fill-rule:evenodd;"
d="M 5337.28,4844.79
5346.6,4846.17
5355.74,4848.46
5364.6,4851.63
5373.12,4855.65
5381.19,4860.5
5388.76,4866.11
5395.74,4872.43
5402.06,4879.41
5407.67,4886.97
5412.51,4895.05
5416.54,4903.56
5419.71,4912.43
5422,4921.57
5423.38,4930.88
5423.84,4940.29
5423.84,5132.22
5423.38,5141.62
5422,5150.94
5419.71,5160.07
5416.54,5168.94
5412.51,5177.45
5407.67,5185.53
5402.06,5193.1
5395.74,5200.07
5388.76,5206.4
5381.19,5212.01
5373.12,5216.85
5364.6,5220.88
5355.74,5224.05
5346.6,5226.34
5337.28,5227.72
5327.88,5228.18
4968.63,5228.18
4959.22,5227.72
4949.9,5226.34
4940.77,5224.05
4931.9,5220.88
4923.39,5216.85
4915.31,5212.01
4907.75,5206.4
4900.77,5200.07
4894.44,5193.1
4888.83,5185.53
4883.99,5177.45
4879.97,5168.94
4876.79,5160.07
4874.51,5150.94
4873.12,5141.62
4872.66,5132.22
4872.66,4940.29
4873.12,4930.88
4874.51,4921.57
4876.79,4912.43
4879.97,4903.56
4883.99,4895.05
4888.83,4886.97
4894.44,4879.41
4900.77,4872.43
4907.75,4866.11
4915.31,4860.5
4923.39,4855.65
4931.9,4851.63
4940.77,4848.46
4949.9,4846.17
4959.22,4844.79
4968.63,4844.32
5327.88,4844.32
Z" /> 
<path style="fill:#008400; fill-opacity:1.0; 
stroke:#008400; stroke-width:0; stroke-opacity:1; 
stroke-linecap:round; stroke-linejoin:round;fill-rule:evenodd;"
d="M 5337.28,4106.6
5346.6,4107.98
5355.74,4110.27
5364.6,4113.44
5373.12,4117.47
5381.19,4122.31
5388.76,4127.92
5395.74,4134.24
5402.06,4141.22
5407.67,4148.78
5412.51,4156.86
5416.54,4165.37
5419.71,4174.24
5422,4183.38
5423.38,4192.69
5423.84,4202.1
5423.84,4394.03
5423.38,4403.43
5422,4412.75
5419.71,4421.88
5416.54,4430.75
5412.51,4439.26
5407.67,4447.34
5402.06,4454.91
5395.74,4461.88
5388.76,4468.21
5381.19,4473.82
5373.12,4478.66
5364.6,4482.69
5355.74,4485.86
5346.6,4488.15
5337.28,4489.53
5327.88,4489.99
4968.63,4489.99
4959.22,4489.53
4949.9,4488.15
4940.77,4485.86
4931.9,4482.69
4923.39,4478.66
4915.31,4473.82
4907.75,4468.21
4900.77,4461.88
4894.44,4454.91
4888.83,4447.34
4883.99,4439.26
4879.97,4430.75
4876.79,4421.88
4874.51,4412.75
4873.12,4403.43
4872.66,4394.03
4872.66,4202.1
4873.12,4192.69
4874.51,4183.38
4876.79,4174.24
4879.97,4165.37
4883.99,4156.86
4888.83,4148.78
4894.44,4141.22
4900.77,4134.24
4907.75,4127.92
4915.31,4122.31
4923.39,4117.47
4931.9,4113.44
4940.77,4110.27
4949.9,4107.98
4959.22,4106.6
4968.63,4106.13
5327.88,4106.13
Z" /> 
</g>
<g >
</g>
<g style="fill:#008400; fill-opacity:1.0; 
stroke:#008400; stroke-width:0; stroke-opacity:1; 
stroke-linecap:round; stroke-linejoin:round;">
<circle cx="3109.23" cy="3907.93" r="196.85" /> 
</g>
<g style="fill:#008400; fill-opacity:1.0; 
stroke:#008400; stroke-width:39.3701; stroke-opacity:1; 
stroke-linecap:round; stroke-linejoin:round;">
</g>
<g style="fill:#008400; fill-opacity:1.0; 
stroke:#008400; stroke-width:0; stroke-opacity:1; 
stroke-linecap:round; stroke-linejoin:round;">
<path style="fill:#008400; fill-opacity:1.0; 
stroke:#008400; stroke-width:0; stroke-opacity:1; 
stroke-linecap:round; stroke-linejoin:round;fill-rule:evenodd;"
d="M 1554.11,1919.74
1554.11,1565.41
1908.44,1565.41
1908.44,1919.74
Z" /> 
</g>
<g >
</g>
<g style="fill:#848400; fill-opacity:1.0; 
stroke:#848400; stroke-width:0; stroke-opacity:1; 
stroke-linecap:round; stroke-linejoin:round;">
</g>
<g style="fill:#848400; fill-opacity:1.0; 
stroke:#848400; stroke-width:334.646; stroke-opacity:1; 
stroke-linecap:round; stroke-linejoin:round;">
</g>
<g style="fill:#848400; fill-opacity:0.0; 
stroke:#848400; stroke-width:334.646; stroke-opacity:1; 
stroke-linecap:round; stroke-linejoin:round;">
<path d="M4422 1439
L4422 1439
" />
<path d="M4816 1439
L4816 1439
" />
</g>
<g style="fill:#848400; fill-opacity:0.0; 
stroke:#848400; stroke-width:0; stroke-opacity:1; 
stroke-linecap:round; stroke-linejoin:round;">
</g>
<g style="fill:#848400; fill-opacity:1.0; 
stroke:#848400; stroke-width:0; stroke-opacity:1; 
stroke-linecap:round; stroke-linejoin:round;">
<path style="fill:#848400; fill-opacity:1.0; 
stroke:#848400; stroke-width:0; stroke-opacity:1; 
stroke-linecap:round; stroke-linejoin:round;fill-rule:evenodd;"
d="M 5042.63,1271.93
5377.28,1271.93
5377.28,1606.57
5042.63,1606.57
Z" /> 
</g>
<g >
</g>
<g style="fill:#848400; fill-opacity:1.0; 
stroke:#848400; stroke-width:0; stroke-opacity:1; 
stroke-linecap:round; stroke-linejoin:round;">
</g>
<g style="fill:#848400; fill-opacity:1.0; 
stroke:#848400; stroke-width:334.646; stroke-opacity:1; 
stroke-linecap:round; stroke-linejoin:round;">
</g>
<g style="fill:#848400; fill-opacity:0.0; 
stroke:#848400; stroke-width:334.646; stroke-opacity:1; 
stroke-linecap:round; stroke-linejoin:round;">
<path d="M5835 4283
L5835 4283
" />
</g>
<g style="fill:#848400; fill-opacity:0.0; 
stroke:#848400; stroke-width:0; stroke-opacity:1; 
stroke-linecap:round; stroke-linejoin:round;">
</g>
<g style="fill:#848400; fill-opacity:1.0; 
stroke:#848400; stroke-width:0; stroke-opacity:1; 
stroke-linecap:round; stroke-linejoin:round;">
<path style="fill:#848400; fill-opacity:1.0; 
stroke:#848400; stroke-width:0; stroke-opacity:1; 
stroke-linecap:round; stroke-linejoin:round;fill-rule:evenodd;"
d="M 5667.93,4056.87
5667.93,3722.23
6002.57,3722.23
6002.57,4056.87
Z" /> 
</g>
<g >
</g>
<g style="fill:#008400; fill-opacity:1.0; 
stroke:#008400; stroke-width:0; stroke-opacity:1; 
stroke-linecap:round; stroke-linejoin:round;">
<path style="fill:#008400; fill-opacity:1.0; 
stroke:#008400; stroke-width:0; stroke-opacity:1; 
stroke-linecap:round; stroke-linejoin:round;fill-rule:evenodd;"
d="M 4277.32,4225.7
4281.15,4226.27
4284.89,4227.21
4288.53,4228.51
4292.02,4230.16
4295.34,4232.15
4298.44,4234.45
4301.3,4237.04
4303.9,4239.91
4306.2,4243.01
4308.19,4246.32
4309.84,4249.82
4311.14,4253.45
4312.08,4257.2
4312.64,4261.02
4312.83,4264.88
4312.83,4343.62
4312.64,4347.48
4312.08,4351.3
4311.14,4355.05
4309.84,4358.69
4308.19,4362.18
4306.2,4365.49
4303.9,4368.6
4301.3,4371.46
4298.44,4374.06
4295.34,4376.36
4292.02,4378.34
4288.53,4380
4284.89,4381.3
4281.15,4382.24
4277.32,4382.8
4273.46,4382.99
4171.1,4382.99
4167.24,4382.8
4163.42,4382.24
4159.67,4381.3
4156.04,4380
4152.54,4378.34
4149.23,4376.36
4146.13,4374.06
4143.26,4371.46
4140.67,4368.6
4138.37,4365.49
4136.38,4362.18
4134.73,4358.69
4133.43,4355.05
4132.49,4351.3
4131.92,4347.48
4131.73,4343.62
4131.73,4264.88
4131.92,4261.02
4132.49,4257.2
4133.43,4253.45
4134.73,4249.82
4136.38,4246.32
4138.37,4243.01
4140.67,4239.91
4143.26,4237.04
4146.13,4234.45
4149.23,4232.15
4152.54,4230.16
4156.04,4228.51
4159.67,4227.21
4163.42,4226.27
4167.24,4225.7
4171.1,4225.51
4273.46,4225.51
Z" /> 
<path style="fill:#008400; fill-opacity:1.0; 
stroke:#008400; stroke-width:0; stroke-opacity:1; 
stroke-linecap:round; stroke-linejoin:round;fill-rule:evenodd;"
d="M 4529.29,4225.7
4533.11,4226.27
4536.86,4227.21
4540.5,4228.51
4543.99,4230.16
4547.31,4232.15
4550.41,4234.45
4553.27,4237.04
4555.87,4239.91
4558.17,4243.01
4560.15,4246.32
4561.81,4249.82
4563.11,4253.45
4564.05,4257.2
4564.61,4261.02
4564.8,4264.88
4564.8,4343.62
4564.61,4347.48
4564.05,4351.3
4563.11,4355.05
4561.81,4358.69
4560.15,4362.18
4558.17,4365.49
4555.87,4368.6
4553.27,4371.46
4550.41,4374.06
4547.31,4376.36
4543.99,4378.34
4540.5,4380
4536.86,4381.3
4533.11,4382.24
4529.29,4382.8
4525.43,4382.99
4423.07,4382.99
4419.21,4382.8
4415.39,4382.24
4411.64,4381.3
4408,4380
4404.51,4378.34
4401.2,4376.36
4398.09,4374.06
4395.23,4371.46
4392.64,4368.6
4390.34,4365.49
4388.35,4362.18
4386.7,4358.69
4385.4,4355.05
4384.46,4351.3
4383.89,4347.48
4383.7,4343.62
4383.7,4264.88
4383.89,4261.02
4384.46,4257.2
4385.4,4253.45
4386.7,4249.82
4388.35,4246.32
4390.34,4243.01
4392.64,4239.91
4395.23,4237.04
4398.09,4234.45
4401.2,4232.15
4404.51,4230.16
4408,4228.51
4411.64,4227.21
4415.39,4226.27
4419.21,4225.7
4423.07,4225.51
4525.43,4225.51
Z" /> 
</g>
<g >
</g>
<g style="fill:#008400; fill-opacity:1.0; 
stroke:#008400; stroke-width:0; stroke-opacity:1; 
stroke-linecap:round; stroke-linejoin:round;">
<circle cx="5036.99" cy="3186.77" r="39.3701" /> 
</g>
<g style="fill:#008400; fill-opacity:1.0; 
stroke:#008400; stroke-width:39.3701; stroke-opacity:1; 
stroke-linecap:round; stroke-linejoin:round;">
</g>
<g style="fill:#008400; fill-opacity:1.0; 
stroke:#008400; stroke-width:0; stroke-opacity:1; 
stroke-linecap:round; stroke-linejoin:round;">
<circle cx="4879.51" cy="3186.77" r="39.3701" /> 
</g>
<g style="fill:#008400; fill-opacity:1.0; 
stroke:#008400; stroke-width:39.3701; stroke-opacity:1; 
stroke-linecap:round; stroke-linejoin:round;">
</g>
<g style="fill:#008400; fill-opacity:1.0; 
stroke:#008400; stroke-width:0; stroke-opacity:1; 
stroke-linecap:round; stroke-linejoin:round;">
<circle cx="5036.99" cy="3344.25" r="39.3701" /> 
</g>
<g style="fill:#008400; fill-opacity:1.0; 
stroke:#008400; stroke-width:39.3701; stroke-opacity:1; 
stroke-linecap:round; stroke-linejoin:round;">
</g>
<g style="fill:#008400; fill-opacity:1.0; 
stroke:#008400; stroke-width:0; stroke-opacity:1; 
stroke-linecap:round; stroke-linejoin:round;">
<circle cx="4879.51" cy="3344.25" r="39.3701" /> 
</g>
<g style="fill:#008400; fill-opacity:1.0; 
stroke:#008400; stroke-width:39.3701; stroke-opacity:1; 
stroke-linecap:round; stroke-linejoin:round;">
</g>
<g style="fill:#008400; fill-opacity:1.0; 
stroke:#008400; stroke-width:0; stroke-opacity:1; 
stroke-linecap:round; stroke-linejoin:round;">
<circle cx="5036.99" cy="3501.73" r="39.3701" /> 
</g>
<g style="fill:#008400; fill-opacity:1.0; 
stroke:#008400; stroke-width:39.3701; stroke-opacity:1; 
stroke-linecap:round; stroke-linejoin:round;">
</g>
<g style="fill:#008400; fill-opacity:1.0; 
stroke:#008400; stroke-width:0; stroke-opacity:1; 
stroke-linecap:round; stroke-linejoin:round;">
<circle cx="4879.51" cy="3501.73" r="39.3701" /> 
</g>
<g style="fill:#008400; fill-opacity:1.0; 
stroke:#008400; stroke-width:39.3701; stroke-opacity:1; 
stroke-linecap:round; stroke-linejoin:round;">
</g>
<g >
</g>
<g >
</g>
<g style="fill:#008400; fill-opacity:1.0; 
stroke:#008400; stroke-width:39.3701; stroke-opacity:1; 
stroke-linecap:round; stroke-linejoin:round;">
</g>
<g style="fill:#008400; fill-opacity:1.0; 
stroke:#008400; stroke-width:0; stroke-opacity:1; 
stroke-linecap:round; stroke-linejoin:round;">
<path style="fill:#008400; fill-opacity:1.0; 
stroke:#008400; stroke-width:0; stroke-opacity:1; 
stroke-linecap:round; stroke-linejoin:round;fill-rule:evenodd;"
d="M 5793.92,2340.81
5793.92,3285.69
5242.74,3285.69
5242.74,2340.81
Z" /> 
<path style="fill:#008400; fill-opacity:1.0; 
stroke:#008400; stroke-width:0; stroke-opacity:1; 
stroke-linecap:round; stroke-linejoin:round;fill-rule:evenodd;"
d="M 7053.76,2340.81
7053.76,3285.69
6502.58,3285.69
6502.58,2340.81
Z" /> 
</g>
<g >
</g>
<g >
</g>
<g >
</g>
<g >
</g>
<g >
</g>
<g style="fill:#008400; fill-opacity:1.0; 
stroke:#008400; stroke-width:0; stroke-opacity:1; 
stroke-linecap:round; stroke-linejoin:round;">
<path style="fill:#008400; fill-opacity:1.0; 
stroke:#008400; stroke-width:0; stroke-opacity:1; 
stroke-linecap:round; stroke-linejoin:round;fill-rule:evenodd;"
d="M 3975.78,3695.66
3984.14,3696.9
3992.33,3698.95
4000.29,3701.8
4007.93,3705.41
4015.18,3709.76
4021.97,3714.79
4028.23,3720.47
4033.91,3726.73
4038.94,3733.52
4043.29,3740.77
4046.9,3748.41
4049.75,3756.37
4051.8,3764.56
4053.04,3772.92
4053.46,3781.37
4053.46,3983.14
4053.04,3991.58
4051.8,3999.94
4049.75,4008.14
4046.9,4016.1
4043.29,4023.74
4038.94,4030.98
4033.91,4037.77
4028.23,4044.04
4021.97,4049.71
4015.18,4054.75
4007.93,4059.09
4000.29,4062.7
3992.33,4065.55
3984.14,4067.61
3975.78,4068.85
3967.33,4069.26
3795.09,4069.26
3786.65,4068.85
3778.29,4067.61
3770.09,4065.55
3762.13,4062.7
3754.49,4059.09
3747.24,4054.75
3740.46,4049.71
3734.19,4044.04
3728.52,4037.77
3723.48,4030.98
3719.14,4023.74
3715.52,4016.1
3712.68,4008.14
3710.62,3999.94
3709.38,3991.58
3708.97,3983.14
3708.97,3781.37
3709.38,3772.92
3710.62,3764.56
3712.68,3756.37
3715.52,3748.41
3719.14,3740.77
3723.48,3733.52
3728.52,3726.73
3734.19,3720.47
3740.46,3714.79
3747.24,3709.76
3754.49,3705.41
3762.13,3701.8
3770.09,3698.95
3778.29,3696.9
3786.65,3695.66
3795.09,3695.24
3967.33,3695.24
Z" /> 
<path style="fill:#008400; fill-opacity:1.0; 
stroke:#008400; stroke-width:0; stroke-opacity:1; 
stroke-linecap:round; stroke-linejoin:round;fill-rule:evenodd;"
d="M 4595.85,3695.66
4604.21,3696.9
4612.41,3698.95
4620.37,3701.8
4628.01,3705.41
4635.26,3709.76
4642.05,3714.79
4648.31,3720.47
4653.99,3726.73
4659.02,3733.52
4663.37,3740.77
4666.98,3748.41
4669.83,3756.37
4671.88,3764.56
4673.12,3772.92
4673.54,3781.37
4673.54,3983.14
4673.12,3991.58
4671.88,3999.94
4669.83,4008.14
4666.98,4016.1
4663.37,4023.74
4659.02,4030.98
4653.99,4037.77
4648.31,4044.04
4642.05,4049.71
4635.26,4054.75
4628.01,4059.09
4620.37,4062.7
4612.41,4065.55
4604.21,4067.61
4595.85,4068.85
4587.41,4069.26
4415.17,4069.26
4406.73,4068.85
4398.37,4067.61
4390.17,4065.55
4382.21,4062.7
4374.57,4059.09
4367.32,4054.75
4360.53,4049.71
4354.27,4044.04
4348.6,4037.77
4343.56,4030.98
4339.22,4023.74
4335.6,4016.1
4332.76,4008.14
4330.7,3999.94
4329.46,3991.58
4329.05,3983.14
4329.05,3781.37
4329.46,3772.92
4330.7,3764.56
4332.76,3756.37
4335.6,3748.41
4339.22,3740.77
4343.56,3733.52
4348.6,3726.73
4354.27,3720.47
4360.53,3714.79
4367.32,3709.76
4374.57,3705.41
4382.21,3701.8
4390.17,3698.95
4398.37,3696.9
4406.73,3695.66
4415.17,3695.24
4587.41,3695.24
Z" /> 
</g>
<g >
</g>
<g style="fill:#008400; fill-opacity:1.0; 
stroke:#008400; stroke-width:0; stroke-opacity:1; 
stroke-linecap:round; stroke-linejoin:round;">
<path style="fill:#008400; fill-opacity:1.0; 
stroke:#008400; stroke-width:0; stroke-opacity:1; 
stroke-linecap:round; stroke-linejoin:round;fill-rule:evenodd;"
d="M 4603.58,3249.42
4611.94,3250.66
4620.14,3252.72
4628.1,3255.56
4635.74,3259.18
4642.98,3263.52
4649.77,3268.56
4656.04,3274.23
4661.71,3280.49
4666.75,3287.28
4671.09,3294.53
4674.7,3302.17
4677.55,3310.13
4679.61,3318.33
4680.85,3326.69
4681.26,3335.13
4681.26,3507.37
4680.85,3515.82
4679.61,3524.18
4677.55,3532.37
4674.7,3540.33
4671.09,3547.97
4666.75,3555.22
4661.71,3562.01
4656.04,3568.27
4649.77,3573.95
4642.98,3578.98
4635.74,3583.33
4628.1,3586.94
4620.14,3589.79
4611.94,3591.84
4603.58,3593.08
4595.14,3593.5
4393.37,3593.5
4384.92,3593.08
4376.56,3591.84
4368.37,3589.79
4360.41,3586.94
4352.77,3583.33
4345.52,3578.98
4338.73,3573.95
4332.47,3568.27
4326.79,3562.01
4321.76,3555.22
4317.41,3547.97
4313.8,3540.33
4310.95,3532.37
4308.9,3524.18
4307.66,3515.82
4307.24,3507.37
4307.24,3335.13
4307.66,3326.69
4308.9,3318.33
4310.95,3310.13
4313.8,3302.17
4317.41,3294.53
4321.76,3287.28
4326.79,3280.49
4332.47,3274.23
4338.73,3268.56
4345.52,3263.52
4352.77,3259.18
4360.41,3255.56
4368.37,3252.72
4376.56,3250.66
4384.92,3249.42
4393.37,3249.01
4595.14,3249.01
Z" /> 
<path style="fill:#008400; fill-opacity:1.0; 
stroke:#008400; stroke-width:0; stroke-opacity:1; 
stroke-linecap:round; stroke-linejoin:round;fill-rule:evenodd;"
d="M 4603.58,2629.34
4611.94,2630.58
4620.14,2632.64
4628.1,2635.48
4635.74,2639.1
4642.98,2643.44
4649.77,2648.48
4656.04,2654.15
4661.71,2660.42
4666.75,2667.2
4671.09,2674.45
4674.7,2682.09
4677.55,2690.05
4679.61,2698.25
4680.85,2706.61
4681.26,2715.05
4681.26,2887.3
4680.85,2895.74
4679.61,2904.1
4677.55,2912.3
4674.7,2920.25
4671.09,2927.89
4666.75,2935.14
4661.71,2941.93
4656.04,2948.19
4649.77,2953.87
4642.98,2958.9
4635.74,2963.25
4628.1,2966.86
4620.14,2969.71
4611.94,2971.76
4603.58,2973
4595.14,2973.42
4393.37,2973.42
4384.92,2973
4376.56,2971.76
4368.37,2969.71
4360.41,2966.86
4352.77,2963.25
4345.52,2958.9
4338.73,2953.87
4332.47,2948.19
4326.79,2941.93
4321.76,2935.14
4317.41,2927.89
4313.8,2920.25
4310.95,2912.3
4308.9,2904.1
4307.66,2895.74
4307.24,2887.3
4307.24,2715.05
4307.66,2706.61
4308.9,2698.25
4310.95,2690.05
4313.8,2682.09
4317.41,2674.45
4321.76,2667.2
4326.79,2660.42
4332.47,2654.15
4338.73,2648.48
4345.52,2643.44
4352.77,2639.1
4360.41,2635.48
4368.37,2632.64
4376.56,2630.58
4384.92,2629.34
4393.37,2628.93
4595.14,2628.93
Z" /> 
</g>
<g >
</g>
<g >
</g>
<g >
</g>
<g >
</g>
<g >
</g>
<g >
</g>
<g style="fill:#008400; fill-opacity:1.0; 
stroke:#008400; stroke-width:0; stroke-opacity:1; 
stroke-linecap:round; stroke-linejoin:round;">
<path style="fill:#008400; fill-opacity:1.0; 
stroke:#008400; stroke-width:0; stroke-opacity:1; 
stroke-linecap:round; stroke-linejoin:round;fill-rule:evenodd;"
d="M 4270.31,4478.7
4274.13,4479.27
4277.88,4480.21
4281.51,4481.51
4285.01,4483.16
4288.32,4485.15
4291.42,4487.45
4294.29,4490.04
4296.88,4492.91
4299.18,4496.01
4301.17,4499.32
4302.82,4502.82
4304.12,4506.45
4305.06,4510.2
4305.63,4514.02
4305.82,4517.88
4305.82,4596.62
4305.63,4600.48
4305.06,4604.3
4304.12,4608.05
4302.82,4611.69
4301.17,4615.18
4299.18,4618.49
4296.88,4621.6
4294.29,4624.46
4291.42,4627.06
4288.32,4629.36
4285.01,4631.34
4281.51,4633
4277.88,4634.3
4274.13,4635.24
4270.31,4635.8
4266.45,4635.99
4164.09,4635.99
4160.23,4635.8
4156.41,4635.24
4152.66,4634.3
4149.02,4633
4145.53,4631.34
4142.21,4629.36
4139.11,4627.06
4136.25,4624.46
4133.65,4621.6
4131.35,4618.49
4129.37,4615.18
4127.71,4611.69
4126.41,4608.05
4125.47,4604.3
4124.91,4600.48
4124.72,4596.62
4124.72,4517.88
4124.91,4514.02
4125.47,4510.2
4126.41,4506.45
4127.71,4502.82
4129.37,4499.32
4131.35,4496.01
4133.65,4492.91
4136.25,4490.04
4139.11,4487.45
4142.21,4485.15
4145.53,4483.16
4149.02,4481.51
4152.66,4480.21
4156.41,4479.27
4160.23,4478.7
4164.09,4478.51
4266.45,4478.51
Z" /> 
<path style="fill:#008400; fill-opacity:1.0; 
stroke:#008400; stroke-width:0; stroke-opacity:1; 
stroke-linecap:round; stroke-linejoin:round;fill-rule:evenodd;"
d="M 4522.28,4478.7
4526.1,4479.27
4529.85,4480.21
4533.48,4481.51
4536.98,4483.16
4540.29,4485.15
4543.39,4487.45
4546.26,4490.04
4548.85,4492.91
4551.15,4496.01
4553.14,4499.32
4554.79,4502.82
4556.09,4506.45
4557.03,4510.2
4557.6,4514.02
4557.79,4517.88
4557.79,4596.62
4557.6,4600.48
4557.03,4604.3
4556.09,4608.05
4554.79,4611.69
4553.14,4615.18
4551.15,4618.49
4548.85,4621.6
4546.26,4624.46
4543.39,4627.06
4540.29,4629.36
4536.98,4631.34
4533.48,4633
4529.85,4634.3
4526.1,4635.24
4522.28,4635.8
4518.42,4635.99
4416.06,4635.99
4412.2,4635.8
4408.37,4635.24
4404.63,4634.3
4400.99,4633
4397.5,4631.34
4394.18,4629.36
4391.08,4627.06
4388.22,4624.46
4385.62,4621.6
4383.32,4618.49
4381.33,4615.18
4379.68,4611.69
4378.38,4608.05
4377.44,4604.3
4376.87,4600.48
4376.69,4596.62
4376.69,4517.88
4376.87,4514.02
4377.44,4510.2
4378.38,4506.45
4379.68,4502.82
4381.33,4499.32
4383.32,4496.01
4385.62,4492.91
4388.22,4490.04
4391.08,4487.45
4394.18,4485.15
4397.5,4483.16
4400.99,4481.51
4404.63,4480.21
4408.37,4479.27
4412.2,4478.7
4416.06,4478.51
4518.42,4478.51
Z" /> 
</g>
<g >
</g>
<g style="fill:#008400; fill-opacity:1.0; 
stroke:#008400; stroke-width:0; stroke-opacity:1; 
stroke-linecap:round; stroke-linejoin:round;">
<path style="fill:#008400; fill-opacity:1.0; 
stroke:#008400; stroke-width:0; stroke-opacity:1; 
stroke-linecap:round; stroke-linejoin:round;fill-rule:evenodd;"
d="M 4528.32,2285.7
4532.15,2286.27
4535.89,2287.21
4539.53,2288.51
4543.02,2290.16
4546.34,2292.15
4549.44,2294.45
4552.3,2297.04
4554.9,2299.91
4557.2,2303.01
4559.19,2306.32
4560.84,2309.82
4562.14,2313.45
4563.08,2317.2
4563.64,2321.02
4563.83,2324.88
4563.83,2403.62
4563.64,2407.48
4563.08,2411.3
4562.14,2415.05
4560.84,2418.69
4559.19,2422.18
4557.2,2425.49
4554.9,2428.6
4552.3,2431.46
4549.44,2434.06
4546.34,2436.36
4543.02,2438.34
4539.53,2440
4535.89,2441.3
4532.15,2442.24
4528.32,2442.8
4524.46,2442.99
4422.1,2442.99
4418.24,2442.8
4414.42,2442.24
4410.67,2441.3
4407.04,2440
4403.54,2438.34
4400.23,2436.36
4397.13,2434.06
4394.26,2431.46
4391.67,2428.6
4389.37,2425.49
4387.38,2422.18
4385.73,2418.69
4384.43,2415.05
4383.49,2411.3
4382.92,2407.48
4382.73,2403.62
4382.73,2324.88
4382.92,2321.02
4383.49,2317.2
4384.43,2313.45
4385.73,2309.82
4387.38,2306.32
4389.37,2303.01
4391.67,2299.91
4394.26,2297.04
4397.13,2294.45
4400.23,2292.15
4403.54,2290.16
4407.04,2288.51
4410.67,2287.21
4414.42,2286.27
4418.24,2285.7
4422.1,2285.51
4524.46,2285.51
Z" /> 
<path style="fill:#008400; fill-opacity:1.0; 
stroke:#008400; stroke-width:0; stroke-opacity:1; 
stroke-linecap:round; stroke-linejoin:round;fill-rule:evenodd;"
d="M 4780.29,2285.7
4784.11,2286.27
4787.86,2287.21
4791.5,2288.51
4794.99,2290.16
4798.31,2292.15
4801.41,2294.45
4804.27,2297.04
4806.87,2299.91
4809.17,2303.01
4811.15,2306.32
4812.81,2309.82
4814.11,2313.45
4815.05,2317.2
4815.61,2321.02
4815.8,2324.88
4815.8,2403.62
4815.61,2407.48
4815.05,2411.3
4814.11,2415.05
4812.81,2418.69
4811.15,2422.18
4809.17,2425.49
4806.87,2428.6
4804.27,2431.46
4801.41,2434.06
4798.31,2436.36
4794.99,2438.34
4791.5,2440
4787.86,2441.3
4784.11,2442.24
4780.29,2442.8
4776.43,2442.99
4674.07,2442.99
4670.21,2442.8
4666.39,2442.24
4662.64,2441.3
4659,2440
4655.51,2438.34
4652.2,2436.36
4649.09,2434.06
4646.23,2431.46
4643.64,2428.6
4641.34,2425.49
4639.35,2422.18
4637.7,2418.69
4636.4,2415.05
4635.46,2411.3
4634.89,2407.48
4634.7,2403.62
4634.7,2324.88
4634.89,2321.02
4635.46,2317.2
4636.4,2313.45
4637.7,2309.82
4639.35,2306.32
4641.34,2303.01
4643.64,2299.91
4646.23,2297.04
4649.09,2294.45
4652.2,2292.15
4655.51,2290.16
4659,2288.51
4662.64,2287.21
4666.39,2286.27
4670.21,2285.7
4674.07,2285.51
4776.43,2285.51
Z" /> 
</g>
<g >
</g>
<g style="fill:#C2C2C2; fill-opacity:1.0; 
stroke:#C2C2C2; stroke-width:0; stroke-opacity:1; 
stroke-linecap:round; stroke-linejoin:round;">
<circle cx="4113.25" cy="3437.25" r="59.0551" /> 
</g>
<g style="fill:#C2C2C2; fill-opacity:1.0; 
stroke:#C2C2C2; stroke-width:39.3701; stroke-opacity:1; 
stroke-linecap:round; stroke-linejoin:round;">
</g>
<g style="fill:#C2C2C2; fill-opacity:1.0; 
stroke:#C2C2C2; stroke-width:0; stroke-opacity:1; 
stroke-linecap:round; stroke-linejoin:round;">
<circle cx="3916.25" cy="2846.25" r="59.0551" /> 
</g>
<g style="fill:#C2C2C2; fill-opacity:1.0; 
stroke:#C2C2C2; stroke-width:39.3701; stroke-opacity:1; 
stroke-linecap:round; stroke-linejoin:round;">
</g>
<g style="fill:#C2C2C2; fill-opacity:1.0; 
stroke:#C2C2C2; stroke-width:0; stroke-opacity:1; 
stroke-linecap:round; stroke-linejoin:round;">
<circle cx="1962.25" cy="3344.25" r="59.0551" /> 
</g>
<g style="fill:#C2C2C2; fill-opacity:1.0; 
stroke:#C2C2C2; stroke-width:39.3701; stroke-opacity:1; 
stroke-linecap:round; stroke-linejoin:round;">
</g>
<g style="fill:#C2C2C2; fill-opacity:1.0; 
stroke:#C2C2C2; stroke-width:0; stroke-opacity:1; 
stroke-linecap:round; stroke-linejoin:round;">
<circle cx="5040.25" cy="3502.25" r="59.0551" /> 
</g>
<g style="fill:#C2C2C2; fill-opacity:1.0; 
stroke:#C2C2C2; stroke-width:39.3701; stroke-opacity:1; 
stroke-linecap:round; stroke-linejoin:round;">
</g>
<g style="fill:#C2C2C2; fill-opacity:1.0; 
stroke:#C2C2C2; stroke-width:0; stroke-opacity:1; 
stroke-linecap:round; stroke-linejoin:round;">
<circle cx="5204.25" cy="3503.25" r="59.0551" /> 
</g>
<g style="fill:#C2C2C2; fill-opacity:1.0; 
stroke:#C2C2C2; stroke-width:39.3701; stroke-opacity:1; 
stroke-linecap:round; stroke-linejoin:round;">
</g>
<g style="fill:#C2C2C2; fill-opacity:1.0; 
stroke:#C2C2C2; stroke-width:0; stroke-opacity:1; 
stroke-linecap:round; stroke-linejoin:round;">
<circle cx="5346.25" cy="3503.25" r="59.0551" /> 
</g>
<g style="fill:#C2C2C2; fill-opacity:1.0; 
stroke:#C2C2C2; stroke-width:39.3701; stroke-opacity:1; 
stroke-linecap:round; stroke-linejoin:round;">
</g>
<g style="fill:#C2C2C2; fill-opacity:1.0; 
stroke:#C2C2C2; stroke-width:0; stroke-opacity:1; 
stroke-linecap:round; stroke-linejoin:round;">
<circle cx="3949.25" cy="2596.25" r="59.0551" /> 
</g>
<g style="fill:#C2C2C2; fill-opacity:1.0; 
stroke:#C2C2C2; stroke-width:39.3701; stroke-opacity:1; 
stroke-linecap:round; stroke-linejoin:round;">
</g>
<g style="fill:#C2C2C2; fill-opacity:1.0; 
stroke:#C2C2C2; stroke-width:0; stroke-opacity:1; 
stroke-linecap:round; stroke-linejoin:round;">
<circle cx="4094.25" cy="2595.25" r="59.0551" /> 
</g>
<g style="fill:#C2C2C2; fill-opacity:1.0; 
stroke:#C2C2C2; stroke-width:39.3701; stroke-opacity:1; 
stroke-linecap:round; stroke-linejoin:round;">
</g>
<g style="fill:#C2C2C2; fill-opacity:1.0; 
stroke:#C2C2C2; stroke-width:0; stroke-opacity:1; 
stroke-linecap:round; stroke-linejoin:round;">
<circle cx="5029.25" cy="2204.25" r="98.4252" /> 
</g>
<g style="fill:#C2C2C2; fill-opacity:1.0; 
stroke:#C2C2C2; stroke-width:39.3701; stroke-opacity:1; 
stroke-linecap:round; stroke-linejoin:round;">
</g>
<g style="fill:#C2C2C2; fill-opacity:1.0; 
stroke:#C2C2C2; stroke-width:0; stroke-opacity:1; 
stroke-linecap:round; stroke-linejoin:round;">
<circle cx="2509.25" cy="1393.25" r="59.0551" /> 
</g>
<g style="fill:#C2C2C2; fill-opacity:1.0; 
stroke:#C2C2C2; stroke-width:39.3701; stroke-opacity:1; 
stroke-linecap:round; stroke-linejoin:round;">
</g>
<g style="fill:#C2C2C2; fill-opacity:1.0; 
stroke:#C2C2C2; stroke-width:0; stroke-opacity:1; 
stroke-linecap:round; stroke-linejoin:round;">
<circle cx="1679.25" cy="2462.25" r="59.0551" /> 
</g>
<g style="fill:#C2C2C2; fill-opacity:1.0; 
stroke:#C2C2C2; stroke-width:39.3701; stroke-opacity:1; 
stroke-linecap:round; stroke-linejoin:round;">
</g>
<g style="fill:#C2C2C2; fill-opacity:1.0; 
stroke:#C2C2C2; stroke-width:0; stroke-opacity:1; 
stroke-linecap:round; stroke-linejoin:round;">
<circle cx="3916.25" cy="3240.25" r="59.0551" /> 
</g>
<g style="fill:#C2C2C2; fill-opacity:1.0; 
stroke:#C2C2C2; stroke-width:39.3701; stroke-opacity:1; 
stroke-linecap:round; stroke-linejoin:round;">
</g>
<g style="fill:#C2C2C2; fill-opacity:1.0; 
stroke:#C2C2C2; stroke-width:0; stroke-opacity:1; 
stroke-linecap:round; stroke-linejoin:round;">
<circle cx="3916.25" cy="3043.25" r="59.0551" /> 
</g>
<g style="fill:#C2C2C2; fill-opacity:1.0; 
stroke:#C2C2C2; stroke-width:39.3701; stroke-opacity:1; 
stroke-linecap:round; stroke-linejoin:round;">
</g>
<g >
</g>
<g style="fill:#008400; fill-opacity:1.0; 
stroke:#008400; stroke-width:39.3701; stroke-opacity:1; 
stroke-linecap:round; stroke-linejoin:round;">
</g>
<g style="fill:#008400; fill-opacity:1.0; 
stroke:#008400; stroke-width:98.4252; stroke-opacity:1; 
stroke-linecap:round; stroke-linejoin:round;">
</g>
<g style="fill:#008400; fill-opacity:0.0; 
stroke:#008400; stroke-width:98.4252; stroke-opacity:1; 
stroke-linecap:round; stroke-linejoin:round;">
<path d="M4222 4223
L3881 3882
" />
<path d="M4222 4304
L4222 4223
" />
<path d="M4215 4311
L4222 4304
" />
<path d="M4215 4557
L4215 4311
" />
<path d="M4215 4557
L4215 4635
" />
<path d="M3881 3669
L4113 3437
" />
<path d="M5487 4631
L5835 4283
" />
<path d="M3881 3882
L3881 3669
" />
<path d="M3875 3876
L3881 3882
" />
<path d="M3551 3876
L3875 3876
" />
<path d="M5835 4283
L6286 4283
" />
<path d="M7249 2305
L7249 3399
" />
<path d="M7234 3335
L7249 3399
" />
<path d="M7249 2305
L7249 2044
" />
<path d="M7249 3399
L7249 5219
" />
<path d="M7249 2044
L7249 1269
" />
</g>
<g style="fill:#008400; fill-opacity:0.0; 
stroke:#008400; stroke-width:59.0551; stroke-opacity:1; 
stroke-linecap:round; stroke-linejoin:round;">
<path d="M5038 3503
L5204 3503
" />
<path d="M5036 3501
L5038 3503
" />
<path d="M5040 3502
L5129 3591
" />
<path d="M5129 3591
L5194 3591
" />
</g>
<g style="fill:#008400; fill-opacity:0.0; 
stroke:#008400; stroke-width:98.4252; stroke-opacity:1; 
stroke-linecap:round; stroke-linejoin:round;">
<path d="M4912 1980
L6923 1980
" />
<path d="M6923 1980
L7249 2305
" />
<path d="M4496 2095
L4317 2095
" />
<path d="M4317 2095
L4278 2134
" />
<path d="M5225 5305
L4743 5305
" />
<path d="M4743 5305
L4744 5306
" />
<path d="M5148 5228
L5148 5304
" />
<path d="M5148 5036
L5148 5228
" />
<path d="M4744 5306
L5148 5304
" />
<path d="M5148 5304
L5592 5306
" />
<path d="M4869 3611
L4869 3511
" />
<path d="M4740 4304
L4474 4304
" />
<path d="M4467 4311
L4474 4304
" />
<path d="M4467 4557
L4467 4311
" />
<path d="M6778 2813
L6778 3384
" />
<path d="M4641 4304
L4740 4304
" />
<path d="M4467 4557
L4467 4478
" />
<path d="M5835 3889
L6313 3889
" />
<path d="M6313 3889
L6764 3439
" />
<path d="M5215 3893
L5559 3549
" />
<path d="M5559 3549
L5559 3646
" />
<path d="M5539 3666
L5539 3895
" />
<path d="M5559 3646
L5539 3666
" />
<path d="M5840 3893
L5539 3895
" />
</g>
<g style="fill:#008400; fill-opacity:0.0; 
stroke:#008400; stroke-width:59.0551; stroke-opacity:1; 
stroke-linecap:round; stroke-linejoin:round;">
<path d="M5539 3895
L5539 3949
" />
<path d="M5539 3949
L5528 3960
" />
<path d="M5528 3960
L5528 4187
" />
</g>
<g style="fill:#008400; fill-opacity:0.0; 
stroke:#008400; stroke-width:98.4252; stroke-opacity:1; 
stroke-linecap:round; stroke-linejoin:round;">
<path d="M4740 4374
L4740 4304
" />
<path d="M4557 4557
L4740 4374
" />
<path d="M4467 4557
L4557 4557
" />
<path d="M4869 3611
L4869 3822
" />
<path d="M4869 3822
L4963 3916
" />
<path d="M4474 4304
L4483 4304
" />
<path d="M4474 4304
L4486 4304
" />
</g>
<g style="fill:#008400; fill-opacity:0.0; 
stroke:#008400; stroke-width:59.0551; stroke-opacity:1; 
stroke-linecap:round; stroke-linejoin:round;">
<path d="M4474 4304
L4481 4304
" />
<path d="M4481 4304
L4607 4177
" />
<path d="M4607 4177
L4641 4177
" />
</g>
<g style="fill:#008400; fill-opacity:0.0; 
stroke:#008400; stroke-width:98.4252; stroke-opacity:1; 
stroke-linecap:round; stroke-linejoin:round;">
<path d="M5046 3103
L5046 3176
" />
<path d="M4484 2791
L4494 2801
" />
<path d="M4899 2955
L5046 3103
" />
<path d="M5044 3100
L5046 3103
" />
<path d="M5044 2211
L5044 3100
" />
<path d="M4494 2801
L4521 2801
" />
<path d="M4521 2801
L4674 2954
" />
<path d="M4674 2954
L4839 2954
" />
<path d="M4483 2790
L4494 2801
" />
<path d="M4725 2364
L4725 2510
" />
<path d="M4494 2801
L4494 2797
" />
<path d="M4725 2566
L4731 2566
" />
<path d="M4494 2797
L4725 2566
" />
<path d="M4725 2510
L4731 2566
" />
<path d="M4731 2566
L4780 2565
" />
<path d="M5046 3176
L5046 3176
" />
<path d="M5094 2238
L5094 3108
" />
<path d="M5029 2204
L5080 2204
" />
<path d="M5094 3129
L5046 3176
" />
<path d="M5094 3108
L5094 3129
" />
<path d="M1731 1565
L1731 1742
" />
<path d="M1903 1393
L1731 1565
" />
<path d="M2509 1393
L1903 1393
" />
<path d="M1679 2477
L1679 2462
" />
<path d="M3109 3907
L1679 2477
" />
<path d="M4494 3421
L4554 3421
" />
<path d="M4554 3421
L4631 3344
" />
<path d="M4631 3344
L4786 3344
" />
</g>
<g style="fill:#008400; fill-opacity:0.0; 
stroke:#008400; stroke-width:59.0551; stroke-opacity:1; 
stroke-linecap:round; stroke-linejoin:round;">
<path d="M4786 3344
L4879 3344
" />
</g>
<g style="fill:#008400; fill-opacity:0.0; 
stroke:#008400; stroke-width:98.4252; stroke-opacity:1; 
stroke-linecap:round; stroke-linejoin:round;">
<path d="M4494 3875
L4501 3882
" />
<path d="M4494 3421
L4494 3875
" />
<path d="M4869 3176
L4825 3133
" />
<path d="M3456 2400
L4360 1496
" />
<path d="M3456 3027
L3456 2400
" />
<path d="M3916 3240
L3669 3240
" />
<path d="M3669 3240
L3456 3027
" />
<path d="M3916 3240
L4185 3240
" />
<path d="M4825 3133
L4312 3133
" />
<path d="M4292 3133
L4312 3133
" />
<path d="M4185 3240
L4292 3133
" />
<path d="M5518 2813
L5518 3010
" />
<path d="M5518 2955
L5158 3316
" />
<path d="M5518 2813
L5518 2955
" />
</g>
<g style="fill:#008400; fill-opacity:0.0; 
stroke:#008400; stroke-width:59.0551; stroke-opacity:1; 
stroke-linecap:round; stroke-linejoin:round;">
<path d="M5158 3316
L5158 3329
" />
<path d="M5036 3334
L5161 3334
" />
<path d="M5158 3329
L5163 3333
" />
<path d="M5161 3334
L5163 3333
" />
<path d="M5163 3333
L5152 3334
" />
</g>
<g style="fill:#008400; fill-opacity:0.0; 
stroke:#008400; stroke-width:98.4252; stroke-opacity:1; 
stroke-linecap:round; stroke-linejoin:round;">
<path d="M3826 3033
L3864 3033
" />
<path d="M4816 1675
L4743 1748
" />
<path d="M3719 2926
L3826 3033
" />
<path d="M3719 2387
L3719 2926
" />
<path d="M4816 1439
L4816 1675
" />
<path d="M4743 1748
L4358 1748
" />
<path d="M4358 1748
L3719 2387
" />
</g>
<g >
</g>
<g style="fill:#008400; fill-opacity:0.0; 
stroke:#008400; stroke-width:98.4252; stroke-opacity:1; 
stroke-linecap:round; stroke-linejoin:round;">
</g>
<g style="fill:#008400; fill-opacity:1.0; 
stroke:#008400; stroke-width:39.3701; stroke-opacity:1; 
stroke-linecap:round; stroke-linejoin:round;">
<path style="fill:#008400; fill-opacity:1.0; 
stroke:#008400; stroke-width:39.3701; stroke-opacity:1; 
stroke-linecap:round; stroke-linejoin:round;fill-rule:evenodd;"
d="M 6424.98,2325.38
6423.46,2340.81
6423.84,2771.91
6443.53,2791.6
6756.52,2791.6
6756.52,2783.72
6799.83,2783.72
6799.83,2791.6
6807.7,2791.6
6807.7,2834.91
6799.83,2834.91
6799.83,3344.75
6819.51,3364.43
7011.76,3364.75
6406.13,3959.64
6081.41,3962.47
6081.31,3930.89
6061.63,3911.2
5856.91,3911.2
5856.91,3919.08
5813.6,3919.08
5813.6,3911.2
5608.87,3911.2
5589.19,3930.89
5589.08,3966.76
5554.08,3967.07
5550.24,3967.48
5546.56,3968.63
5543.17,3970.48
5540.21,3972.95
5537.79,3975.96
5536,3979.38
5534.91,3983.08
5534.57,3986.64
5532.33,4377.38
5502.75,4406.96
5502.58,4339.4
5482.9,4319.72
5169.91,4319.72
5169.91,4327.59
5126.6,4327.59
5126.6,4319.72
4813.61,4319.72
4793.92,4339.4
4793.57,4479
4765.55,4478.57
4764.2,4478.6
4636.84,4485.42
4636.91,4478.51
4635.39,4463.08
4630.89,4448.23
4623.88,4435.13
4630.59,4426.95
4637.9,4413.27
4642.4,4398.43
4643.92,4382.99
4643.54,4345.59
4623.86,4325.91
4519.27,4325.91
4519.11,4316.57
4565.23,4282.6
4623.86,4282.6
4643.54,4262.91
4643.92,4225.51
4642.4,4210.08
4637.9,4195.23
4630.94,4182.2
4630.94,4162.35
4658.22,4154.08
4690.21,4136.98
4718.24,4113.97
4724.67,4106.13
4793.54,4106.13
4793.92,4256.72
4813.61,4276.41
5126.6,4276.41
5126.6,4047.08
5169.91,4047.08
5169.91,4276.41
5482.9,4276.41
5502.58,4256.72
5502.96,4106.13
5501.44,4090.7
5496.94,4075.86
5489.63,4062.18
5479.79,4050.19
5467.8,4040.35
5454.12,4033.04
5439.28,4028.53
5423.84,4027.01
5189.59,4027.39
5169.91,4047.08
5126.6,4047.08
5106.91,4027.39
4872.66,4027.01
4857.23,4028.53
4842.38,4033.04
4828.7,4040.35
4816.71,4050.19
4806.87,4062.18
4799.56,4075.86
4795.06,4090.7
4793.54,4106.13
4724.67,4106.13
4741.25,4085.93
4758.35,4053.94
4768.88,4019.23
4772.44,3983.14
4772.44,3781.37
4770.43,3760.96
5384.24,3761.44
5388.08,3761.06
5391.77,3759.94
5395.18,3758.13
5398.16,3755.68
5400.63,3752.67
5420.93,3722.23
5588.81,3722.23
5589.19,3848.21
5608.87,3867.9
5813.6,3867.9
5813.6,3663.17
5856.91,3663.17
5856.91,3867.9
6061.63,3867.9
6081.31,3848.21
6081.7,3722.23
6080.18,3706.79
6075.67,3691.95
6068.36,3678.27
6058.52,3666.28
6046.53,3656.44
6032.85,3649.13
6018.01,3644.63
6002.57,3643.11
5876.59,3643.49
5856.91,3663.17
5813.6,3663.17
5793.91,3643.49
5667.93,3643.11
5652.49,3644.63
5637.65,3649.13
5623.97,3656.44
5611.98,3666.28
5602.14,3678.27
5594.83,3691.95
5590.33,3706.79
5588.81,3722.23
5420.93,3722.23
5564.95,3506.19
5979.71,3496.43
5983.55,3495.96
5987.21,3494.76
5990.57,3492.86
5993.49,3490.34
5995.87,3487.3
5997.61,3483.86
5998.64,3480.14
5998.93,3477.25
6003.8,3285.69
6423.46,3285.69
6424.98,3301.13
6429.48,3315.97
6436.8,3329.65
6446.64,3341.64
6458.63,3351.48
6472.3,3358.79
6487.15,3363.29
6502.58,3364.81
6736.83,3364.43
6756.52,3344.75
6756.52,2834.91
6443.53,2834.91
6423.84,2854.59
6423.46,3285.69
6003.8,3285.69
6028.44,2316.44
6427.69,2316.44
Z" /> 
</g>
<g style="fill:#008400; fill-opacity:1.0; 
stroke:#008400; stroke-width:78.7402; stroke-opacity:1; 
stroke-linecap:round; stroke-linejoin:round;">
<path style="fill:#008400; fill-opacity:1.0; 
stroke:#008400; stroke-width:78.7402; stroke-opacity:1; 
stroke-linecap:round; stroke-linejoin:round;fill-rule:evenodd;"
d="M 5075.38,2167.74
5084.24,3032.31
5074.86,3029.06
5043.36,3024.7
5011.62,3026.57
4980.85,3034.6
4969.48,3040.11
4949.88,3020.51
4944.64,3014.13
4919.17,2993.22
4890.1,2977.68
4858.56,2968.11
4833.97,2965.69
4833.97,2965.69
4825.76,2964.88
4817.54,2965.69
4803.86,2965.69
4803.31,2833.65
4772.8,2803.14
4496.22,2803.14
4496.22,2811.02
4492.28,2811.02
4492.28,2803.14
4484.41,2803.14
4484.41,2799.2
4492.28,2799.2
4492.28,2791.33
4496.22,2791.33
4496.22,2799.2
4772.8,2799.2
4803.31,2768.69
4803.9,2628.93
4801.54,2605
4794.56,2582
4785.65,2565.32
4815.8,2565.63
4839.73,2563.27
4862.73,2556.29
4883.94,2544.96
4902.52,2529.71
4917.77,2511.13
4929.11,2489.92
4936.08,2466.92
4938.44,2442.99
4937.85,2396.73
4907.34,2366.22
4727.22,2366.22
4727.22,2374.09
4723.28,2374.09
4723.28,2366.22
4715.41,2366.22
4715.41,2362.28
4723.28,2362.28
4723.28,2354.41
4727.22,2354.41
4727.22,2362.28
4907.34,2362.28
4937.85,2331.77
4938.44,2285.51
4936.08,2261.59
4929.11,2238.58
4917.77,2217.38
4902.52,2198.79
4883.94,2183.54
4862.73,2172.21
4844.68,2166.73
Z" /> 
<path style="fill:#008400; fill-opacity:1.0; 
stroke:#008400; stroke-width:78.7402; stroke-opacity:1; 
stroke-linecap:round; stroke-linejoin:round;fill-rule:evenodd;"
d="M 4215.5,1186.96
4170.26,1232.2
4134.71,1285.4
4110.23,1344.51
4097.75,1407.26
4097.75,1466.34
3317.28,2246.81
3309.39,2253.28
3302.92,2261.17
3283.56,2284.75
3264.37,2320.66
3252.55,2359.62
3248.56,2400.14
3249.56,2410.3
3249.56,3017.1
3248.56,3027.25
3249.56,3037.4
3249.56,3037.4
3252.55,3067.77
3264.37,3106.73
3283.56,3142.64
3309.39,3174.11
3317.28,3180.59
3515.92,3379.23
3522.39,3387.11
3530.28,3393.58
3530.28,3393.59
3548.44,3408.49
3553.86,3412.94
3589.77,3432.14
3628.73,3443.95
3659.1,3446.94
3659.1,3446.94
3669.25,3447.94
3679.4,3446.94
3849.42,3446.94
3853.09,3448.47
3894.93,3456.79
3937.58,3456.79
3979.41,3448.47
3983.09,3446.94
4149,3446.94
4149,3507.37
4153.7,3555.05
4167.6,3600.89
4190.18,3643.14
4204.19,3660.2
4189.41,3687.85
4175.95,3732.2
4176.09,3695.24
4173.74,3671.32
4166.76,3648.31
4155.43,3627.11
4140.17,3608.53
4121.59,3593.27
4100.39,3581.94
4077.38,3574.96
4053.46,3572.61
3913.69,3573.2
3883.18,3603.71
3883.18,3880.28
3891.06,3880.28
3891.06,3884.22
3883.18,3884.22
3883.18,4160.8
3913.69,4191.31
4014.44,4191.73
4011.45,4201.59
4009.09,4225.51
4009.69,4271.77
4040.2,4302.28
4220.31,4302.28
4220.31,4294.41
4224.25,4294.41
4224.25,4302.28
4225.46,4302.28
4225.46,4306.22
4224.25,4306.22
4224.25,4314.09
4220.31,4314.09
4220.31,4306.22
4040.2,4306.22
4009.69,4336.73
4009.09,4382.99
4011.45,4406.92
4016.21,4422.61
4011.41,4431.58
4004.44,4454.59
4002.08,4478.51
4002.67,4524.77
4033.18,4555.28
4213.3,4555.28
4213.3,4547.41
4217.24,4547.41
4217.24,4555.28
4218.44,4555.28
4218.44,4559.22
4217.24,4559.22
4217.24,4727.53
4247.75,4758.04
4303.43,4758.61
4306.27,4760.93
4340.43,4779.19
4377.5,4790.44
4416.06,4794.23
4518.42,4794.23
4556.97,4790.44
4594.04,4779.19
4628.2,4760.93
4652.5,4741
4673.18,4729.94
4704.65,4704.11
4711.12,4696.22
4753.66,4653.69
4917.92,4643.01
4919.03,4643.35
4968.63,4648.23
5327.88,4648.23
5377.47,4643.35
5425.16,4628.88
5465.66,4607.23
5471.42,4606.29
5478.65,4603.57
5485.2,4599.5
5490.47,4594.64
5609.63,4462.74
5637.39,4494.4
5682.38,4528.95
5733.25,4554.05
5788.04,4568.74
5833.28,4542.1
5833.28,4285.22
5837.22,4285.22
5837.22,4542.1
5882.46,4568.74
5937.25,4554.05
5988.12,4528.95
6033.12,4494.4
6070.51,4451.74
6098.86,4402.61
6117.08,4348.89
6120.74,4330.46
6094.1,4285.22
5837.22,4285.22
5833.28,4285.22
5825.41,4285.22
5825.41,4281.28
5833.28,4281.28
5833.28,4273.41
5837.22,4273.41
5837.22,4281.28
6094.1,4281.28
6120.74,4236.04
6117.08,4217.62
6103.55,4177.73
6114.47,4168.77
6134.15,4144.79
6148.77,4117.43
6155.2,4096.24
6303.8,4096.24
6313.95,4097.24
6324.1,4096.24
6324.11,4096.24
6354.47,4093.25
6393.43,4081.43
6417.4,4068.62
6445.25,4068.62
6452.93,4067.87
6460.32,4065.63
6467.12,4061.99
6472.6,4057.57
7127.93,3424.61
7141.68,3417.27
7165.66,3397.59
7185.34,3373.61
7199.96,3346.25
7208.97,3316.56
7212.01,3285.69
7212.01,2340.81
7208.97,2309.94
7199.96,2280.25
7185.34,2252.9
7165.66,2228.92
7141.68,2209.24
7114.32,2194.61
7084.64,2185.61
7053.76,2182.57
6502.58,2182.57
6471.71,2185.61
6442.03,2194.61
6414.67,2209.24
6407.79,2214.88
5911.75,2214.88
5904.07,2215.64
5896.69,2217.88
5894.07,2219.28
5881.84,2209.24
5854.48,2194.61
5824.79,2185.61
5793.92,2182.57
5293.29,2182.57
5286.14,2158.97
5278.53,2144.74
5277.96,2142.85
5275.32,2129.61
5256.03,2083.04
5228.03,2041.12
5192.38,2005.48
5150.47,1977.47
5103.9,1958.18
5054.46,1948.35
5004.05,1948.35
4954.61,1958.18
4908.04,1977.47
4866.12,2005.48
4830.48,2041.12
4802.47,2083.04
4783.85,2128
4776.43,2127.27
4674.07,2127.27
4635.52,2131.07
4598.45,2142.31
4564.28,2160.57
4561.45,2162.9
4505.76,2163.46
4475.25,2193.98
4475.25,2362.28
4476.46,2362.28
4476.46,2366.22
4475.25,2366.22
4475.25,2374.09
4471.31,2374.09
4471.31,2366.22
4291.2,2366.22
4260.69,2396.73
4260.09,2442.99
4262.45,2466.92
4269.43,2489.92
4275.93,2502.08
4257.6,2511.87
4220.57,2542.26
4190.18,2579.29
4167.6,2621.54
4153.7,2667.38
4149,2715.05
4149,2887.3
4153.7,2934.97
4164.57,2970.81
4145.87,2986.16
4139.39,2994.04
4129.26,3004.18
4124.47,2980.09
4108.14,2940.68
4084.45,2905.22
4054.29,2875.06
4018.82,2851.36
3979.41,2835.04
3937.58,2826.72
3925.94,2826.72
3925.94,2473.31
4113.74,2285.51
4260.09,2285.51
4260.69,2331.77
4291.2,2362.28
4471.31,2362.28
4471.31,2193.98
4440.8,2163.46
4382.73,2162.87
4358.81,2165.23
4335.8,2172.21
4314.6,2183.54
4296.01,2198.79
4280.76,2217.38
4269.43,2238.58
4262.45,2261.59
4260.09,2285.51
4113.74,2285.51
4444.31,1954.94
4733.73,1954.94
4743.88,1955.94
4754.03,1954.94
4754.03,1954.94
4784.4,1951.95
4823.36,1940.14
4859.27,1920.94
4890.74,1895.11
4897.22,1887.22
4955.23,1829.22
4963.11,1822.74
4988.94,1791.27
5005.69,1759.94
5011.76,1761.78
5042.63,1764.82
5377.28,1764.82
5408.15,1761.78
5437.83,1752.77
5465.19,1738.15
5489.17,1718.47
5508.85,1694.49
5523.47,1667.13
5532.48,1637.45
5535.52,1606.57
5535.52,1271.93
5532.48,1241.06
5523.47,1211.37
5508.85,1184.01
5489.17,1160.04
5478.86,1151.57
7316.93,1151.57
7316.93,5316.93
5508.09,5316.93
5510.56,5314.9
5525.81,5296.31
5537.14,5275.11
5544.12,5252.11
5546.48,5228.18
5545.89,5068.73
5515.38,5038.22
5150.22,5038.22
5150.22,5046.09
5146.28,5046.09
5146.28,5038.22
4781.13,5038.22
4750.61,5068.73
4750.02,5228.18
4752.38,5252.11
4759.36,5275.11
4770.69,5296.31
4785.94,5314.9
4788.42,5316.93
1151.57,5316.93
1151.57,4844.32
4750.02,4844.32
4750.61,5003.77
4781.13,5034.28
5146.28,5034.28
5146.28,4752.79
5150.22,4752.79
5150.22,5034.28
5515.38,5034.28
5545.89,5003.77
5546.48,4844.32
5544.12,4820.4
5537.14,4797.39
5525.81,4776.19
5510.56,4757.6
5491.98,4742.35
5470.77,4731.02
5447.77,4724.04
5423.84,4721.69
5180.73,4722.28
5150.22,4752.79
5146.28,4752.79
5115.77,4722.28
4872.66,4721.69
4848.74,4724.04
4825.73,4731.02
4804.53,4742.35
4785.94,4757.6
4770.69,4776.19
4759.36,4797.39
4752.38,4820.4
4750.02,4844.32
1151.57,4844.32
1151.57,4635.99
4002.08,4635.99
4004.44,4659.92
4011.41,4682.92
4022.75,4704.13
4038,4722.71
4056.58,4737.96
4077.79,4749.29
4100.79,4756.27
4124.72,4758.63
4182.79,4758.04
4213.3,4727.53
4213.3,4559.22
4033.18,4559.22
4002.67,4589.73
4002.08,4635.99
1151.57,4635.99
1151.57,2440.93
1462.72,2440.93
1462.72,2483.58
1471.04,2525.41
1487.36,2564.82
1511.06,2600.29
1517.77,2606.99
1532.39,2624.81
1540.28,2631.29
2759.4,3850.41
2754.9,3873.03
2754.9,3942.83
2768.51,4011.28
2795.22,4075.77
2834,4133.8
2883.36,4183.16
2941.39,4221.93
3005.87,4248.64
3074.33,4262.26
3144.13,4262.26
3212.58,4248.64
3277.07,4221.93
3335.1,4183.16
3384.46,4133.8
3423.23,4075.77
3425.93,4069.26
3586.33,4069.26
3588.69,4093.19
3595.67,4116.19
3607,4137.39
3622.25,4155.98
3640.83,4171.23
3662.04,4182.56
3685.04,4189.54
3708.97,4191.9
3848.73,4191.31
3879.24,4160.8
3879.24,3884.22
3617.43,3884.22
3586.92,3914.73
3586.33,4069.26
3425.93,4069.26
3449.94,4011.28
3463.56,3942.83
3463.56,3873.03
3449.94,3804.57
3423.23,3740.09
3393.27,3695.24
3586.33,3695.24
3586.92,3849.77
3617.43,3880.28
3879.24,3880.28
3879.24,3603.71
3848.73,3573.2
3708.97,3572.61
3685.04,3574.96
3662.04,3581.94
3640.83,3593.27
3622.25,3608.53
3607,3627.11
3595.67,3648.31
3588.69,3671.32
3586.33,3695.24
3393.27,3695.24
3384.46,3682.06
3335.1,3632.7
3277.07,3593.93
3212.58,3567.21
3144.13,3553.6
3074.33,3553.6
3051.71,3558.1
1883.77,2390.16
1871.14,2359.68
1847.45,2324.22
1817.29,2294.06
1781.82,2270.36
1742.41,2254.04
1700.58,2245.72
1657.93,2245.72
1616.09,2254.04
1576.68,2270.36
1541.22,2294.06
1511.06,2324.22
1487.36,2359.68
1471.04,2399.09
1462.72,2440.93
1151.57,2440.93
1151.57,1565.41
1395.87,1565.41
1395.87,1919.74
1398.91,1950.61
1407.91,1980.3
1422.54,2007.65
1442.22,2031.63
1466.2,2051.31
1493.55,2065.94
1523.24,2074.94
1554.11,2077.98
1908.44,2077.98
1939.31,2074.94
1969,2065.94
1996.36,2051.31
2020.34,2031.63
2040.01,2007.65
2054.64,1980.3
2063.64,1950.61
2066.68,1919.74
2066.68,1599.94
2442.42,1599.94
2446.09,1601.47
2487.93,1609.79
2530.58,1609.79
2572.41,1601.47
2611.82,1585.14
2647.29,1561.45
2677.45,1531.29
2701.14,1495.82
2717.47,1456.41
2725.79,1414.58
2725.79,1371.93
2717.47,1330.09
2701.14,1290.68
2677.45,1255.22
2647.29,1225.06
2611.82,1201.36
2572.41,1185.04
2530.58,1176.72
2487.93,1176.72
2446.09,1185.04
2442.42,1186.56
1913.58,1186.56
1903.43,1185.56
1893.28,1186.56
1893.28,1186.56
1862.91,1189.55
1823.95,1201.37
1788.04,1220.56
1756.57,1246.39
1750.1,1254.28
1597.21,1407.17
1554.11,1407.17
1523.24,1410.21
1493.55,1419.21
1466.2,1433.84
1442.22,1453.52
1422.54,1477.49
1407.91,1504.85
1398.91,1534.54
1395.87,1565.41
1151.57,1565.41
1151.57,1151.57
4268.46,1151.57
Z" /> 
</g>
<g style="fill:#008400; fill-opacity:1.0; 
stroke:#008400; stroke-width:10; stroke-opacity:1; 
stroke-linecap:round; stroke-linejoin:round;">
<path style="fill:#008400; fill-opacity:1.0; 
stroke:#008400; stroke-width:10; stroke-opacity:1; 
stroke-linecap:round; stroke-linejoin:round;fill-rule:evenodd;"
d="M 5491.75,3434.58
5485.03,3438.17
5469.86,3450.62
5469.85,3450.63
5464.79,3454.79
5460.63,3459.85
5240.26,3680.22
5002.62,3676.84
5002.62,3541.19
5004.87,3545.97
5014.12,3551.39
5024.25,3554.9
5034.87,3556.36
5045.56,3555.73
5055.93,3553.02
5065.58,3548.34
5069.11,3545.97
5072.98,3537.75
5036.99,3501.76
5031.42,3507.33
5031.4,3507.3
5036.96,3501.73
5037.02,3501.73
5073.01,3537.72
5081.23,3533.85
5086.65,3524.6
5090.16,3514.48
5091.62,3503.86
5090.99,3493.16
5088.28,3482.79
5083.6,3473.15
5081.23,3469.61
5073.01,3465.75
5037.02,3501.73
5036.96,3501.73
5000.98,3465.75
4998.14,3467.08
4997.89,3465.82
4995.63,3460.37
5001.08,3462.63
5002.34,3462.88
5001.01,3465.72
5036.99,3501.7
5072.98,3465.72
5071.65,3462.88
5072.9,3462.63
5095.31,3453.35
5103.02,3448.2
5141.4,3448.2
5158.08,3449.84
5184.14,3447.27
5209.2,3439.67
5232.3,3427.32
5247.47,3414.87
5292.51,3369.84
5491.42,3369.84
Z" /> 
</g>
</g>
<g style="fill:#FFFFFF; fill-opacity:1.0; 
stroke:#FFFFFF; stroke-width:10; stroke-opacity:1; 
stroke-linecap:round; stroke-linejoin:round;">
</g>
<g style="fill:#FFFFFF; fill-opacity:1.0; 
stroke:#FFFFFF; stroke-width:0; stroke-opacity:1; 
stroke-linecap:round; stroke-linejoin:round;">
<circle cx="4113.25" cy="3437.25" r="19.685" /> 
</g>
<g style="fill:#FFFFFF; fill-opacity:1.0; 
stroke:#FFFFFF; stroke-width:39.3701; stroke-opacity:1; 
stroke-linecap:round; stroke-linejoin:round;">
</g>
<g style="fill:#FFFFFF; fill-opacity:1.0; 
stroke:#FFFFFF; stroke-width:0; stroke-opacity:1; 
stroke-linecap:round; stroke-linejoin:round;">
<circle cx="3916.25" cy="2846.25" r="19.685" /> 
</g>
<g style="fill:#FFFFFF; fill-opacity:1.0; 
stroke:#FFFFFF; stroke-width:39.3701; stroke-opacity:1; 
stroke-linecap:round; stroke-linejoin:round;">
</g>
<g style="fill:#FFFFFF; fill-opacity:1.0; 
stroke:#FFFFFF; stroke-width:0; stroke-opacity:1; 
stroke-linecap:round; stroke-linejoin:round;">
<circle cx="1962.25" cy="3344.25" r="19.685" /> 
</g>
<g style="fill:#FFFFFF; fill-opacity:1.0; 
stroke:#FFFFFF; stroke-width:39.3701; stroke-opacity:1; 
stroke-linecap:round; stroke-linejoin:round;">
</g>
<g style="fill:#FFFFFF; fill-opacity:1.0; 
stroke:#FFFFFF; stroke-width:0; stroke-opacity:1; 
stroke-linecap:round; stroke-linejoin:round;">
<circle cx="5040.25" cy="3502.25" r="19.685" /> 
</g>
<g style="fill:#FFFFFF; fill-opacity:1.0; 
stroke:#FFFFFF; stroke-width:39.3701; stroke-opacity:1; 
stroke-linecap:round; stroke-linejoin:round;">
</g>
<g style="fill:#FFFFFF; fill-opacity:1.0; 
stroke:#FFFFFF; stroke-width:0; stroke-opacity:1; 
stroke-linecap:round; stroke-linejoin:round;">
<circle cx="5204.25" cy="3503.25" r="19.685" /> 
</g>
<g style="fill:#FFFFFF; fill-opacity:1.0; 
stroke:#FFFFFF; stroke-width:39.3701; stroke-opacity:1; 
stroke-linecap:round; stroke-linejoin:round;">
</g>
<g style="fill:#FFFFFF; fill-opacity:1.0; 
stroke:#FFFFFF; stroke-width:0; stroke-opacity:1; 
stroke-linecap:round; stroke-linejoin:round;">
<circle cx="5346.25" cy="3503.25" r="19.685" /> 
</g>
<g style="fill:#FFFFFF; fill-opacity:1.0; 
stroke:#FFFFFF; stroke-width:39.3701; stroke-opacity:1; 
stroke-linecap:round; stroke-linejoin:round;">
</g>
<g style="fill:#FFFFFF; fill-opacity:1.0; 
stroke:#FFFFFF; stroke-width:0; stroke-opacity:1; 
stroke-linecap:round; stroke-linejoin:round;">
<circle cx="3949.25" cy="2596.25" r="19.685" /> 
</g>
<g style="fill:#FFFFFF; fill-opacity:1.0; 
stroke:#FFFFFF; stroke-width:39.3701; stroke-opacity:1; 
stroke-linecap:round; stroke-linejoin:round;">
</g>
<g style="fill:#FFFFFF; fill-opacity:1.0; 
stroke:#FFFFFF; stroke-width:0; stroke-opacity:1; 
stroke-linecap:round; stroke-linejoin:round;">
<circle cx="4094.25" cy="2595.25" r="19.685" /> 
</g>
<g style="fill:#FFFFFF; fill-opacity:1.0; 
stroke:#FFFFFF; stroke-width:39.3701; stroke-opacity:1; 
stroke-linecap:round; stroke-linejoin:round;">
</g>
<g style="fill:#FFFFFF; fill-opacity:1.0; 
stroke:#FFFFFF; stroke-width:0; stroke-opacity:1; 
stroke-linecap:round; stroke-linejoin:round;">
<circle cx="5029.25" cy="2204.25" r="39.3701" /> 
</g>
<g style="fill:#FFFFFF; fill-opacity:1.0; 
stroke:#FFFFFF; stroke-width:39.3701; stroke-opacity:1; 
stroke-linecap:round; stroke-linejoin:round;">
</g>
<g style="fill:#FFFFFF; fill-opacity:1.0; 
stroke:#FFFFFF; stroke-width:0; stroke-opacity:1; 
stroke-linecap:round; stroke-linejoin:round;">
<circle cx="2509.25" cy="1393.25" r="19.685" /> 
</g>
<g style="fill:#FFFFFF; fill-opacity:1.0; 
stroke:#FFFFFF; stroke-width:39.3701; stroke-opacity:1; 
stroke-linecap:round; stroke-linejoin:round;">
</g>
<g style="fill:#FFFFFF; fill-opacity:1.0; 
stroke:#FFFFFF; stroke-width:0; stroke-opacity:1; 
stroke-linecap:round; stroke-linejoin:round;">
<circle cx="1679.25" cy="2462.25" r="19.685" /> 
</g>
<g style="fill:#FFFFFF; fill-opacity:1.0; 
stroke:#FFFFFF; stroke-width:39.3701; stroke-opacity:1; 
stroke-linecap:round; stroke-linejoin:round;">
</g>
<g style="fill:#FFFFFF; fill-opacity:1.0; 
stroke:#FFFFFF; stroke-width:0; stroke-opacity:1; 
stroke-linecap:round; stroke-linejoin:round;">
<circle cx="3916.25" cy="3240.25" r="19.685" /> 
</g>
<g style="fill:#FFFFFF; fill-opacity:1.0; 
stroke:#FFFFFF; stroke-width:39.3701; stroke-opacity:1; 
stroke-linecap:round; stroke-linejoin:round;">
</g>
<g style="fill:#FFFFFF; fill-opacity:1.0; 
stroke:#FFFFFF; stroke-width:0; stroke-opacity:1; 
stroke-linecap:round; stroke-linejoin:round;">
<circle cx="3916.25" cy="3043.25" r="19.685" /> 
</g>
<g style="fill:#FFFFFF; fill-opacity:1.0; 
stroke:#FFFFFF; stroke-width:39.3701; stroke-opacity:1; 
stroke-linecap:round; stroke-linejoin:round;">
</g>
<g style="fill:#FFFFFF; fill-opacity:1.0; 
stroke:#FFFFFF; stroke-width:0; stroke-opacity:1; 
stroke-linecap:round; stroke-linejoin:round;">
<circle cx="4422.55" cy="1439.25" r="98.4252" /> 
</g>
<g style="fill:#FFFFFF; fill-opacity:1.0; 
stroke:#FFFFFF; stroke-width:39.3701; stroke-opacity:1; 
stroke-linecap:round; stroke-linejoin:round;">
</g>
<g style="fill:#FFFFFF; fill-opacity:1.0; 
stroke:#FFFFFF; stroke-width:0; stroke-opacity:1; 
stroke-linecap:round; stroke-linejoin:round;">
<circle cx="4816.25" cy="1439.25" r="98.4252" /> 
</g>
<g style="fill:#FFFFFF; fill-opacity:1.0; 
stroke:#FFFFFF; stroke-width:39.3701; stroke-opacity:1; 
stroke-linecap:round; stroke-linejoin:round;">
</g>
<g style="fill:#FFFFFF; fill-opacity:1.0; 
stroke:#FFFFFF; stroke-width:0; stroke-opacity:1; 
stroke-linecap:round; stroke-linejoin:round;">
<circle cx="5209.95" cy="1439.25" r="98.4252" /> 
</g>
<g style="fill:#FFFFFF; fill-opacity:1.0; 
stroke:#FFFFFF; stroke-width:39.3701; stroke-opacity:1; 
stroke-linecap:round; stroke-linejoin:round;">
</g>
<g style="fill:#FFFFFF; fill-opacity:1.0; 
stroke:#FFFFFF; stroke-width:0; stroke-opacity:1; 
stroke-linecap:round; stroke-linejoin:round;">
<circle cx="5835.25" cy="4283.25" r="98.4252" /> 
</g>
<g style="fill:#FFFFFF; fill-opacity:1.0; 
stroke:#FFFFFF; stroke-width:39.3701; stroke-opacity:1; 
stroke-linecap:round; stroke-linejoin:round;">
</g>
<g style="fill:#FFFFFF; fill-opacity:1.0; 
stroke:#FFFFFF; stroke-width:0; stroke-opacity:1; 
stroke-linecap:round; stroke-linejoin:round;">
<circle cx="5835.25" cy="3889.55" r="98.4252" /> 
</g>
<g style="fill:#FFFFFF; fill-opacity:1.0; 
stroke:#FFFFFF; stroke-width:39.3701; stroke-opacity:1; 
stroke-linecap:round; stroke-linejoin:round;">
</g>
<g style="fill:#000000; fill-opacity:1.0; 
stroke:#000000; stroke-width:39.3701; stroke-opacity:1; 
stroke-linecap:round; stroke-linejoin:round;">
</g>
<g style="fill:#C2C200; fill-opacity:1.0; 
stroke:#C2C200; stroke-width:39.3701; stroke-opacity:1; 
stroke-linecap:round; stroke-linejoin:round;">
</g>
<g style="fill:#C2C200; fill-opacity:1.0; 
stroke:#C2C200; stroke-width:19.685; stroke-opacity:1; 
stroke-linecap:round; stroke-linejoin:round;">
</g>
<g style="fill:#C2C200; fill-opacity:0.0; 
stroke:#C2C200; stroke-width:19.685; stroke-opacity:1; 
stroke-linecap:round; stroke-linejoin:round;">
<path d="M984 984
L984 5484
" />
<path d="M7484 5484
L984 5484
" />
<path d="M7484 984
L7484 5484
" />
<path d="M7484 5484
L7484 984
" />
<path d="M984 984
L7484 984
" />
<circle cx="984.252" cy="984.252" r="656.168" /> 
<path d="M0 984
L1968 984
" />
<path d="M984 0
L984 1968
" />
<circle cx="7484.25" cy="5484.25" r="656.168" /> 
<path d="M6500 5484
L8468 5484
" />
<path d="M7484 4500
L7484 6468
" />
<circle cx="7484.25" cy="984.252" r="656.168" /> 
<path d="M6500 984
L8468 984
" />
<path d="M7484 0
L7484 1968
" />
<circle cx="984.252" cy="5484.25" r="656.168" /> 
<path d="M0 5484
L1968 5484
" />
<path d="M984 4500
L984 6468
" />
<g >
</g>
<g >
</g>
<g >
</g>
<g >
</g>
<g >
</g>
<g >
</g>
<g >
</g>
<g >
</g>
<g >
</g>
<g >
</g>
<g >
</g>
<g >
</g>
<g >
</g>
<g >
</g>
<g >
</g>
<g >
</g>
<g >
</g>
<g >
</g>
<g >
</g>
<g >
</g>
<g >
</g>
<g >
</g>
</g> 
</svg>
