<?xml version="1.0" standalone="no"?>
 <!DOCTYPE svg PUBLIC "-//W3C//DTD SVG 1.1//EN" 
 "http://www.w3.org/Graphics/SVG/1.1/DTD/svg11.dtd"> 
<svg xmlns="http://www.w3.org/2000/svg" version="1.1" 
    width="2.73812cm" height="1.64084cm" viewBox="0 0 10780 6460 ">
<title>SVG Picture created as Masterproef ultrasonic transmitter-F_Mask.svg date 2021/09/03 16:05:26 </title>
  <desc>Picture generated by PCBNEW </desc>
<g style="fill:#000000; fill-opacity:1;stroke:#000000; stroke-opacity:1;
stroke-linecap:round; stroke-linejoin:round; "
 transform="translate(0 0) scale(1 1)">
</g>
<g style="fill:#000000; fill-opacity:0.0; 
stroke:#000000; stroke-width:-0.000393701; stroke-opacity:1; 
stroke-linecap:round; stroke-linejoin:round;">
</g>
<g style="fill:#840084; fill-opacity:0.0; 
stroke:#840084; stroke-width:-0.000393701; stroke-opacity:1; 
stroke-linecap:round; stroke-linejoin:round;">
</g>
<g style="fill:#840084; fill-opacity:1.0; 
stroke:#840084; stroke-width:0; stroke-opacity:1; 
stroke-linecap:round; stroke-linejoin:round;">
<path style="fill:#840084; fill-opacity:1.0; 
stroke:#840084; stroke-width:0; stroke-opacity:1; 
stroke-linecap:round; stroke-linejoin:round;fill-rule:evenodd;"
d="M 5441.92,4852.83
4850.58,4852.83
4850.58,3749.68
5441.92,3749.68
Z" /> 
<path style="fill:#840084; fill-opacity:1.0; 
stroke:#840084; stroke-width:0; stroke-opacity:1; 
stroke-linecap:round; stroke-linejoin:round;fill-rule:evenodd;"
d="M 4378.93,4852.83
3787.59,4852.83
3787.59,3749.68
4378.93,3749.68
Z" /> 
<path style="fill:#840084; fill-opacity:1.0; 
stroke:#840084; stroke-width:0; stroke-opacity:1; 
stroke-linecap:round; stroke-linejoin:round;fill-rule:evenodd;"
d="M 6022.65,4076.95
6012.79,4076.95
6003.19,4077.9
5993.95,4080.7
5985.45,4085.25
5977.99,4091.37
5971.87,4098.82
5967.32,4107.33
5964.52,4116.56
5963.58,4126.16
5964.52,4135.77
5967.32,4145
5971.87,4153.51
5977.99,4160.96
5980.82,4163.79
6001.33,4194.48
6001.33,4194.48
6015.45,4228.59
6022.65,4264.79
6022.65,4301.71
6015.45,4337.91
6007.18,4357.89
6001.33,4372.02
5980.82,4402.71
5954.71,4428.82
5924.02,4449.33
5909.89,4455.18
5889.91,4463.45
5853.71,4470.65
5816.79,4470.65
5780.59,4463.45
5760.61,4455.18
5746.48,4449.33
5715.79,4428.82
5689.69,4402.71
5669.18,4372.02
5663.33,4357.89
5655.05,4337.91
5647.85,4301.71
5647.85,4264.79
5655.05,4228.59
5669.18,4194.48
5669.18,4194.48
5689.69,4163.79
5692.51,4160.96
5698.64,4153.51
5703.18,4145
5705.98,4135.77
5706.93,4126.16
5705.98,4116.56
5703.18,4107.33
5698.64,4098.82
5692.51,4091.37
5685.06,4085.25
5676.55,4080.7
5667.32,4077.9
5657.72,4076.95
5647.85,4076.95
5647.85,3702.15
6022.65,3702.15
Z" /> 
<path style="fill:#840084; fill-opacity:1.0; 
stroke:#840084; stroke-width:0; stroke-opacity:1; 
stroke-linecap:round; stroke-linejoin:round;fill-rule:evenodd;"
d="M 3410.87,4112.01
3118.74,4112.01
3118.74,3906.5
3410.87,3906.5
Z" /> 
<path style="fill:#840084; fill-opacity:1.0; 
stroke:#840084; stroke-width:0; stroke-opacity:1; 
stroke-linecap:round; stroke-linejoin:round;fill-rule:evenodd;"
d="M 2820.31,4112.01
2528.19,4112.01
2528.19,3906.5
2820.31,3906.5
Z" /> 
<path style="fill:#840084; fill-opacity:1.0; 
stroke:#840084; stroke-width:0; stroke-opacity:1; 
stroke-linecap:round; stroke-linejoin:round;fill-rule:evenodd;"
d="M 3168.93,3139.77
3182.31,3143.83
3194.64,3150.42
3205.45,3159.29
3214.32,3170.1
3220.91,3182.43
3224.97,3195.81
3226.57,3212.14
3226.57,3478.37
3224.97,3494.7
3220.91,3508.07
3214.32,3520.41
3205.45,3531.21
3194.64,3540.08
3182.31,3546.67
3168.93,3550.73
3152.6,3552.34
2915.9,3552.34
2899.57,3550.73
2886.19,3546.67
2873.86,3540.08
2863.06,3531.21
2854.19,3520.41
2847.6,3508.07
2843.54,3494.7
2841.93,3478.37
2841.93,3212.14
2843.54,3195.81
2847.6,3182.43
2854.19,3170.1
2863.06,3159.29
2873.86,3150.42
2886.19,3143.83
2899.57,3139.77
2915.9,3138.17
3152.6,3138.17
Z" /> 
<path style="fill:#840084; fill-opacity:1.0; 
stroke:#840084; stroke-width:0; stroke-opacity:1; 
stroke-linecap:round; stroke-linejoin:round;fill-rule:evenodd;"
d="M 2548.85,3139.77
2562.23,3143.83
2574.56,3150.42
2585.37,3159.29
2594.24,3170.1
2600.83,3182.43
2604.89,3195.81
2606.5,3212.14
2606.5,3478.37
2604.89,3494.7
2600.83,3508.07
2594.24,3520.41
2585.37,3531.21
2574.56,3540.08
2562.23,3546.67
2548.85,3550.73
2532.52,3552.34
2295.82,3552.34
2279.49,3550.73
2266.11,3546.67
2253.78,3540.08
2242.98,3531.21
2234.11,3520.41
2227.52,3508.07
2223.46,3494.7
2221.85,3478.37
2221.85,3212.14
2223.46,3195.81
2227.52,3182.43
2234.11,3170.1
2242.98,3159.29
2253.78,3150.42
2266.11,3143.83
2279.49,3139.77
2295.82,3138.17
2532.52,3138.17
Z" /> 
<path style="fill:#840084; fill-opacity:1.0; 
stroke:#840084; stroke-width:0; stroke-opacity:1; 
stroke-linecap:round; stroke-linejoin:round;fill-rule:evenodd;"
d="M 3742.98,2769.32
3742.98,2769.32
3742.98,2769.32
3748.38,2771.56
3757.59,2775.38
3770.75,2784.17
3783.18,2796.6
3790.64,2802.72
3799.14,2807.26
3808.38,2810.06
3817.98,2811.01
3827.58,2810.06
3836.81,2807.26
3845.32,2802.72
3852.77,2796.6
3865.2,2784.17
3878.36,2775.38
3887.58,2771.56
3892.97,2769.32
3892.97,2769.32
3892.98,2769.32
3908.49,2766.24
3924.31,2766.24
3939.83,2769.32
3939.83,2769.32
3939.83,2769.32
3945.23,2771.56
3954.45,2775.38
3967.6,2784.17
3980.03,2796.6
3987.49,2802.72
3995.99,2807.26
4005.23,2810.06
4014.83,2811.01
4024.43,2810.06
4033.66,2807.26
4042.17,2802.72
4049.63,2796.6
4062.05,2784.17
4075.21,2775.38
4084.43,2771.56
4089.82,2769.32
4089.83,2769.32
4089.83,2769.32
4105.34,2766.24
4121.16,2766.24
4136.68,2769.32
4136.68,2769.32
4136.68,2769.32
4142.08,2771.56
4151.3,2775.38
4164.45,2784.17
4175.64,2795.35
4184.43,2808.51
4190.48,2823.13
4193.57,2838.64
4193.57,2854.46
4191.2,2866.36
4190.48,2869.98
4188.95,2873.66
4184.43,2884.59
4175.64,2897.75
4163.21,2910.18
4157.09,2917.64
4152.54,2926.14
4149.74,2935.38
4148.79,2944.98
4149.74,2954.58
4152.54,2963.81
4157.09,2972.32
4163.21,2979.77
4175.64,2992.2
4184.43,3005.36
4190.48,3019.98
4193.57,3035.49
4193.57,3051.31
4190.48,3066.83
4184.43,3081.45
4175.64,3094.6
4163.21,3107.03
4157.09,3114.49
4152.54,3122.99
4149.74,3132.23
4148.79,3141.83
4149.74,3151.43
4152.54,3160.66
4157.09,3169.17
4163.21,3176.63
4175.64,3189.05
4184.43,3202.21
4190.48,3216.83
4193.57,3232.34
4193.57,3248.16
4190.48,3263.68
4184.43,3278.3
4175.64,3291.45
4163.21,3303.88
4157.09,3311.34
4152.54,3319.84
4149.74,3329.08
4148.79,3338.68
4149.74,3348.28
4152.54,3357.51
4157.09,3366.02
4163.21,3373.48
4175.64,3385.91
4184.43,3399.06
4190.48,3413.68
4193.57,3429.19
4193.57,3445.01
4190.48,3460.53
4184.43,3475.15
4175.64,3488.3
4164.45,3499.49
4151.3,3508.28
4142.08,3512.09
4136.68,3514.33
4136.68,3514.33
4136.68,3514.33
4121.16,3517.42
4105.34,3517.42
4089.83,3514.33
4089.83,3514.33
4089.82,3514.33
4084.43,3512.09
4075.21,3508.28
4062.05,3499.49
4049.63,3487.06
4042.17,3480.94
4033.66,3476.39
4024.43,3473.59
4014.83,3472.64
4005.23,3473.59
3995.99,3476.39
3987.49,3480.94
3980.03,3487.06
3967.6,3499.49
3954.45,3508.28
3945.23,3512.09
3939.83,3514.33
3939.83,3514.33
3939.83,3514.33
3924.31,3517.42
3908.49,3517.42
3892.98,3514.33
3892.97,3514.33
3892.97,3514.33
3887.58,3512.09
3878.36,3508.28
3865.2,3499.49
3852.77,3487.06
3845.32,3480.94
3836.81,3476.39
3827.58,3473.59
3817.98,3472.64
3808.38,3473.59
3799.14,3476.39
3790.64,3480.94
3783.18,3487.06
3770.75,3499.49
3757.59,3508.28
3748.38,3512.09
3742.98,3514.33
3742.98,3514.33
3742.98,3514.33
3727.46,3517.42
3711.64,3517.42
3696.13,3514.33
3696.12,3514.33
3696.12,3514.33
3690.73,3512.09
3681.51,3508.28
3668.35,3499.49
3657.17,3488.3
3648.38,3475.15
3642.32,3460.53
3639.24,3445.01
3639.24,3429.19
3642.32,3413.68
3648.38,3399.06
3657.17,3385.91
3669.6,3373.48
3675.72,3366.02
3680.26,3357.51
3683.06,3348.28
3684.01,3338.68
3755.09,3338.68
3756.04,3348.28
3758.84,3357.51
3763.39,3366.02
3769.51,3373.48
3783.18,3387.15
3790.64,3393.27
3799.14,3397.81
3808.38,3400.61
3817.98,3401.56
3827.58,3400.61
3836.81,3397.81
3845.32,3393.27
3852.77,3387.15
3866.45,3373.48
3872.57,3366.02
3877.11,3357.51
3879.91,3348.28
3880.86,3338.68
3951.94,3338.68
3952.89,3348.28
3955.69,3357.51
3960.24,3366.02
3966.36,3373.48
3980.03,3387.15
3987.49,3393.27
3995.99,3397.81
4005.23,3400.61
4014.83,3401.56
4024.43,3400.61
4033.66,3397.81
4042.17,3393.27
4049.63,3387.15
4063.3,3373.48
4069.42,3366.02
4073.96,3357.51
4076.76,3348.28
4077.71,3338.68
4076.76,3329.08
4073.96,3319.84
4069.42,3311.34
4063.3,3303.88
4049.63,3290.21
4042.17,3284.09
4033.66,3279.54
4024.43,3276.74
4014.83,3275.79
4005.23,3276.74
3995.99,3279.54
3987.49,3284.09
3980.03,3290.21
3966.36,3303.88
3960.24,3311.34
3955.69,3319.84
3952.89,3329.08
3951.94,3338.68
3880.86,3338.68
3879.91,3329.08
3877.11,3319.84
3872.57,3311.34
3866.45,3303.88
3852.77,3290.21
3845.32,3284.09
3836.81,3279.54
3827.58,3276.74
3817.98,3275.79
3808.38,3276.74
3799.14,3279.54
3790.64,3284.09
3783.18,3290.21
3769.51,3303.88
3763.39,3311.34
3758.84,3319.84
3756.04,3329.08
3755.09,3338.68
3684.01,3338.68
3683.06,3329.08
3680.26,3319.84
3675.72,3311.34
3669.6,3303.88
3657.17,3291.45
3648.38,3278.3
3642.32,3263.68
3639.24,3248.16
3639.24,3232.34
3642.32,3216.83
3648.38,3202.21
3657.17,3189.05
3669.6,3176.63
3675.72,3169.17
3680.26,3160.66
3683.06,3151.43
3684.01,3141.83
3755.09,3141.83
3756.04,3151.43
3758.84,3160.66
3763.39,3169.17
3769.51,3176.63
3783.18,3190.3
3790.64,3196.42
3799.14,3200.96
3808.38,3203.76
3817.98,3204.71
3827.58,3203.76
3836.81,3200.96
3845.32,3196.42
3852.77,3190.3
3866.45,3176.63
3872.57,3169.17
3877.11,3160.66
3879.91,3151.43
3880.86,3141.83
3951.94,3141.83
3952.89,3151.43
3955.69,3160.66
3960.24,3169.17
3966.36,3176.63
3980.03,3190.3
3987.49,3196.42
3995.99,3200.96
4005.23,3203.76
4014.83,3204.71
4024.43,3203.76
4033.66,3200.96
4042.17,3196.42
4049.63,3190.3
4063.3,3176.63
4069.42,3169.17
4073.96,3160.66
4076.76,3151.43
4077.71,3141.83
4076.76,3132.23
4073.96,3122.99
4069.42,3114.49
4063.3,3107.03
4049.63,3093.36
4042.17,3087.24
4033.66,3082.69
4024.43,3079.89
4014.83,3078.94
4005.23,3079.89
3995.99,3082.69
3987.49,3087.24
3980.03,3093.36
3966.36,3107.03
3960.24,3114.49
3955.69,3122.99
3952.89,3132.23
3951.94,3141.83
3880.86,3141.83
3879.91,3132.23
3877.11,3122.99
3872.57,3114.49
3866.45,3107.03
3852.77,3093.36
3845.32,3087.24
3836.81,3082.69
3827.58,3079.89
3817.98,3078.94
3808.38,3079.89
3799.14,3082.69
3790.64,3087.24
3783.18,3093.36
3769.51,3107.03
3763.39,3114.49
3758.84,3122.99
3756.04,3132.23
3755.09,3141.83
3684.01,3141.83
3683.06,3132.23
3680.26,3122.99
3675.72,3114.49
3669.6,3107.03
3657.17,3094.6
3648.38,3081.45
3642.32,3066.83
3639.24,3051.31
3639.24,3035.49
3642.32,3019.98
3648.38,3005.36
3657.17,2992.2
3669.6,2979.77
3675.72,2972.32
3680.26,2963.81
3683.06,2954.58
3684.01,2944.98
3755.09,2944.98
3756.04,2954.58
3758.84,2963.81
3763.39,2972.32
3769.51,2979.77
3783.18,2993.45
3790.64,2999.57
3799.14,3004.11
3808.38,3006.91
3817.98,3007.86
3827.58,3006.91
3836.81,3004.11
3845.32,2999.57
3852.77,2993.45
3866.45,2979.77
3872.57,2972.32
3877.11,2963.81
3879.91,2954.58
3880.86,2944.98
3951.94,2944.98
3952.89,2954.58
3955.69,2963.81
3960.24,2972.32
3966.36,2979.77
3980.03,2993.45
3987.49,2999.57
3995.99,3004.11
4005.23,3006.91
4014.83,3007.86
4024.43,3006.91
4033.66,3004.11
4042.17,2999.57
4049.63,2993.45
4063.3,2979.77
4069.42,2972.32
4073.96,2963.81
4076.76,2954.58
4077.71,2944.98
4076.76,2935.38
4073.96,2926.14
4069.42,2917.64
4063.3,2910.18
4049.63,2896.51
4042.17,2890.39
4033.66,2885.84
4024.43,2883.04
4014.83,2882.09
4005.23,2883.04
3995.99,2885.84
3987.49,2890.39
3980.03,2896.51
3966.36,2910.18
3960.24,2917.64
3955.69,2926.14
3952.89,2935.38
3951.94,2944.98
3880.86,2944.98
3879.91,2935.38
3877.11,2926.14
3872.57,2917.64
3866.45,2910.18
3852.77,2896.51
3845.32,2890.39
3836.81,2885.84
3827.58,2883.04
3817.98,2882.09
3808.38,2883.04
3799.14,2885.84
3790.64,2890.39
3783.18,2896.51
3769.51,2910.18
3763.39,2917.64
3758.84,2926.14
3756.04,2935.38
3755.09,2944.98
3684.01,2944.98
3683.06,2935.38
3680.26,2926.14
3675.72,2917.64
3669.6,2910.18
3657.17,2897.75
3648.38,2884.59
3643.85,2873.66
3642.32,2869.98
3641.6,2866.36
3639.24,2854.46
3639.24,2838.64
3642.32,2823.13
3648.38,2808.51
3657.17,2795.35
3668.35,2784.17
3681.51,2775.38
3690.73,2771.56
3696.12,2769.32
3696.12,2769.32
3696.13,2769.32
3711.64,2766.24
3727.46,2766.24
Z" /> 
<path style="fill:#840084; fill-opacity:1.0; 
stroke:#840084; stroke-width:0; stroke-opacity:1; 
stroke-linecap:round; stroke-linejoin:round;fill-rule:evenodd;"
d="M 4743.06,2680.33
4747.67,2681.73
4751.92,2684
4755.64,2687.06
4758.69,2690.78
4760.96,2695.03
4762.36,2699.63
4763.07,2706.84
4763.07,2873.66
4762.36,2880.87
4760.96,2885.48
4756.92,2893.04
4753.23,2901.95
4751.35,2911.41
4751.35,2921.06
4753.23,2930.52
4756.92,2939.43
4760.96,2946.99
4762.36,2951.6
4763.07,2958.81
4763.07,3125.63
4762.36,3132.84
4760.96,3137.45
4758.69,3141.69
4755.64,3145.42
4751.92,3148.47
4747.67,3150.74
4743.06,3152.14
4735.85,3152.85
4592.65,3152.85
4585.44,3152.14
4580.84,3150.74
4576.59,3148.47
4572.87,3145.42
4569.81,3141.69
4567.54,3137.45
4566.14,3132.84
4565.43,3125.63
4565.43,2958.81
4566.14,2951.6
4567.54,2946.99
4571.58,2939.43
4575.27,2930.52
4577.16,2921.06
4577.16,2911.41
4575.27,2901.95
4571.58,2893.04
4567.54,2885.48
4566.14,2880.87
4565.43,2873.66
4565.43,2706.84
4566.14,2699.63
4567.54,2695.03
4569.81,2690.78
4572.87,2687.06
4576.59,2684
4580.84,2681.73
4585.44,2680.33
4592.65,2679.62
4735.85,2679.62
Z" /> 
<path style="fill:#840084; fill-opacity:1.0; 
stroke:#840084; stroke-width:0; stroke-opacity:1; 
stroke-linecap:round; stroke-linejoin:round;fill-rule:evenodd;"
d="M 2247.51,2342.38
2262.73,2347
2276.76,2354.5
2289.06,2364.59
2299.16,2376.89
2306.66,2390.92
2311.27,2406.15
2313.07,2424.4
2313.07,2848.11
2311.27,2866.36
2306.66,2881.58
2299.16,2895.61
2289.06,2907.91
2276.76,2918.01
2262.73,2925.51
2247.51,2930.12
2229.26,2931.92
1972.87,2931.92
1954.62,2930.12
1939.39,2925.51
1925.36,2918.01
1913.06,2907.91
1902.97,2895.61
1895.47,2881.58
1890.85,2866.36
1889.06,2848.11
1889.06,2424.4
1890.85,2406.15
1895.47,2390.92
1902.97,2376.89
1913.06,2364.59
1925.36,2354.5
1939.39,2347
1954.62,2342.38
1972.87,2340.58
2229.26,2340.58
Z" /> 
<path style="fill:#840084; fill-opacity:1.0; 
stroke:#840084; stroke-width:0; stroke-opacity:1; 
stroke-linecap:round; stroke-linejoin:round;fill-rule:evenodd;"
d="M 2985.7,2342.38
3000.92,2347
3014.95,2354.5
3027.25,2364.59
3037.34,2376.89
3044.84,2390.92
3049.46,2406.15
3051.26,2424.4
3051.26,2848.11
3049.46,2866.36
3044.84,2881.58
3037.34,2895.61
3027.25,2907.91
3014.95,2918.01
3000.92,2925.51
2985.7,2930.12
2967.45,2931.92
2711.06,2931.92
2692.81,2930.12
2677.58,2925.51
2663.55,2918.01
2651.25,2907.91
2641.16,2895.61
2633.66,2881.58
2629.04,2866.36
2627.24,2848.11
2627.24,2424.4
2629.04,2406.15
2633.66,2390.92
2641.16,2376.89
2651.25,2364.59
2663.55,2354.5
2677.58,2347
2692.81,2342.38
2711.06,2340.58
2967.45,2340.58
Z" /> 
<path style="fill:#840084; fill-opacity:1.0; 
stroke:#840084; stroke-width:0; stroke-opacity:1; 
stroke-linecap:round; stroke-linejoin:round;fill-rule:evenodd;"
d="M 4494.89,2324.14
4499.49,2325.54
4507.05,2329.58
4515.97,2333.27
4525.43,2335.16
4535.08,2335.16
4544.54,2333.27
4553.45,2329.58
4561.01,2325.54
4565.62,2324.14
4572.83,2323.43
4739.65,2323.43
4746.85,2324.14
4751.46,2325.54
4755.71,2327.81
4759.43,2330.87
4762.49,2334.59
4764.76,2338.84
4766.16,2343.44
4766.87,2350.65
4766.87,2493.85
4766.16,2501.06
4764.76,2505.67
4762.49,2509.92
4759.43,2513.64
4755.71,2516.69
4751.46,2518.96
4746.85,2520.36
4739.65,2521.07
4572.83,2521.07
4565.62,2520.36
4561.01,2518.96
4553.45,2514.92
4544.54,2511.23
4535.08,2509.35
4525.43,2509.35
4515.97,2511.23
4507.05,2514.92
4499.49,2518.96
4494.89,2520.36
4487.68,2521.07
4320.86,2521.07
4313.65,2520.36
4309.04,2518.96
4304.79,2516.69
4301.07,2513.64
4298.02,2509.92
4295.75,2505.67
4294.35,2501.06
4293.64,2493.85
4293.64,2350.65
4294.35,2343.44
4295.75,2338.84
4298.02,2334.59
4301.07,2330.87
4304.79,2327.81
4309.04,2325.54
4313.65,2324.14
4320.86,2323.43
4487.68,2323.43
Z" /> 
<path style="fill:#840084; fill-opacity:1.0; 
stroke:#840084; stroke-width:0; stroke-opacity:1; 
stroke-linecap:round; stroke-linejoin:round;fill-rule:evenodd;"
d="M 3864.36,1868.23
3879.58,1872.85
3893.61,1880.35
3905.91,1890.44
3916.01,1902.74
3923.51,1916.77
3928.12,1932
3929.92,1950.25
3929.92,2206.63
3928.12,2224.89
3923.51,2240.11
3916.01,2254.14
3905.91,2266.44
3893.61,2276.53
3879.58,2284.03
3864.36,2288.65
3846.11,2290.45
3422.4,2290.45
3404.15,2288.65
3388.92,2284.03
3374.89,2276.53
3362.59,2266.44
3352.5,2254.14
3345,2240.11
3340.38,2224.89
3338.58,2206.63
3338.58,1950.25
3340.38,1932
3345,1916.77
3352.5,1902.74
3362.59,1890.44
3374.89,1880.35
3388.92,1872.85
3404.15,1868.23
3422.4,1866.43
3846.11,1866.43
Z" /> 
<path style="fill:#840084; fill-opacity:1.0; 
stroke:#840084; stroke-width:0; stroke-opacity:1; 
stroke-linecap:round; stroke-linejoin:round;fill-rule:evenodd;"
d="M 3127.7,1790.62
3141.07,1794.67
3153.41,1801.27
3164.21,1810.13
3173.08,1820.94
3179.67,1833.27
3183.73,1846.65
3185.34,1862.98
3185.34,2099.68
3183.73,2116.01
3179.67,2129.39
3173.08,2141.72
3164.21,2152.53
3153.41,2161.4
3141.07,2167.99
3127.7,2172.05
3111.37,2173.65
2845.14,2173.65
2828.81,2172.05
2815.43,2167.99
2803.1,2161.4
2792.29,2152.53
2783.42,2141.72
2776.83,2129.39
2772.77,2116.01
2771.17,2099.68
2771.17,1862.98
2772.77,1846.65
2776.83,1833.27
2783.42,1820.94
2792.29,1810.13
2803.1,1801.27
2815.43,1794.67
2828.81,1790.62
2845.14,1789.01
3111.37,1789.01
Z" /> 
<path style="fill:#840084; fill-opacity:1.0; 
stroke:#840084; stroke-width:0; stroke-opacity:1; 
stroke-linecap:round; stroke-linejoin:round;fill-rule:evenodd;"
d="M 2530.01,1751.77
2543.39,1755.83
2555.72,1762.42
2566.53,1771.29
2575.4,1782.1
2581.99,1794.43
2586.05,1807.81
2587.65,1824.14
2587.65,2090.37
2586.05,2106.7
2581.99,2120.07
2575.4,2132.41
2566.53,2143.21
2555.72,2152.08
2543.39,2158.67
2530.01,2162.73
2513.68,2164.34
2276.98,2164.34
2260.65,2162.73
2247.27,2158.67
2234.94,2152.08
2224.13,2143.21
2215.27,2132.41
2208.67,2120.07
2204.62,2106.7
2203.01,2090.37
2203.01,1824.14
2204.62,1807.81
2208.67,1794.43
2215.27,1782.1
2224.13,1771.29
2234.94,1762.42
2247.27,1755.83
2260.65,1751.77
2276.98,1750.17
2513.68,1750.17
Z" /> 
<path style="fill:#840084; fill-opacity:1.0; 
stroke:#840084; stroke-width:0; stroke-opacity:1; 
stroke-linecap:round; stroke-linejoin:round;fill-rule:evenodd;"
d="M 1909.93,1751.77
1923.31,1755.83
1935.64,1762.42
1946.45,1771.29
1955.32,1782.1
1961.91,1794.43
1965.97,1807.81
1967.57,1824.14
1967.57,2090.37
1965.97,2106.7
1961.91,2120.07
1955.32,2132.41
1946.45,2143.21
1935.64,2152.08
1923.31,2158.67
1909.93,2162.73
1893.6,2164.34
1656.9,2164.34
1640.57,2162.73
1627.19,2158.67
1614.86,2152.08
1604.06,2143.21
1595.19,2132.41
1588.6,2120.07
1584.54,2106.7
1582.93,2090.37
1582.93,1824.14
1584.54,1807.81
1588.6,1794.43
1595.19,1782.1
1604.06,1771.29
1614.86,1762.42
1627.19,1755.83
1640.57,1751.77
1656.9,1750.17
1893.6,1750.17
Z" /> 
<path style="fill:#840084; fill-opacity:1.0; 
stroke:#840084; stroke-width:0; stroke-opacity:1; 
stroke-linecap:round; stroke-linejoin:round;fill-rule:evenodd;"
d="M 4477.21,1259.05
4497.19,1267.33
4511.32,1273.18
4542.01,1293.69
4568.12,1319.79
4578.48,1335.31
4584.6,1342.76
4592.06,1348.88
4600.57,1353.43
4609.8,1356.23
4619.4,1357.18
4629,1356.23
4638.23,1353.43
4646.74,1348.88
4654.2,1342.76
4660.32,1335.31
4670.69,1319.79
4696.79,1293.69
4727.48,1273.18
4741.61,1267.33
4761.59,1259.05
4797.79,1251.85
4834.71,1251.85
4870.91,1259.05
4890.89,1267.33
4905.02,1273.18
4935.71,1293.69
4938.54,1296.51
4946,1302.64
4954.51,1307.18
4963.74,1309.98
4973.34,1310.93
4982.94,1309.98
4992.17,1307.18
5000.68,1302.64
5008.14,1296.51
5014.26,1289.06
5018.81,1280.55
5021.61,1271.32
5022.55,1261.72
5022.55,1251.85
5397.35,1251.85
5397.35,1626.65
5022.55,1626.65
5022.55,1616.79
5021.61,1607.19
5018.81,1597.95
5014.26,1589.45
5008.14,1581.99
5000.68,1575.87
4992.17,1571.32
4982.94,1568.52
4973.34,1567.58
4963.74,1568.52
4954.51,1571.32
4946,1575.87
4938.54,1581.99
4935.71,1584.82
4905.02,1605.33
4900.53,1607.19
4870.91,1619.45
4834.71,1626.65
4797.79,1626.65
4761.59,1619.45
4731.98,1607.19
4727.48,1605.33
4696.79,1584.82
4670.69,1558.71
4660.32,1543.2
4654.2,1535.74
4646.74,1529.62
4638.23,1525.07
4629,1522.27
4619.4,1521.33
4609.8,1522.27
4600.57,1525.07
4592.06,1529.62
4584.6,1535.74
4578.48,1543.2
4568.12,1558.71
4542.01,1584.82
4511.32,1605.33
4506.82,1607.19
4477.21,1619.45
4441.01,1626.65
4404.09,1626.65
4367.89,1619.45
4338.28,1607.19
4333.78,1605.33
4303.09,1584.82
4276.99,1558.71
4256.48,1528.02
4249.36,1510.84
4242.35,1493.91
4235.15,1457.71
4235.15,1420.79
4242.35,1384.59
4254.1,1356.23
4256.48,1350.48
4276.99,1319.79
4303.09,1293.69
4333.78,1273.18
4347.91,1267.33
4367.89,1259.05
4404.09,1251.85
4441.01,1251.85
Z" /> 
<path style="fill:#840084; fill-opacity:1.0; 
stroke:#840084; stroke-width:0; stroke-opacity:1; 
stroke-linecap:round; stroke-linejoin:round;fill-rule:evenodd;"
d="M 3127.7,1170.54
3141.07,1174.6
3153.41,1181.19
3164.21,1190.06
3173.08,1200.86
3179.67,1213.19
3183.73,1226.57
3185.34,1242.9
3185.34,1479.6
3183.73,1495.93
3179.67,1509.31
3173.08,1521.64
3164.21,1532.45
3153.41,1541.32
3141.07,1547.91
3127.7,1551.97
3111.37,1553.57
2845.14,1553.57
2828.81,1551.97
2815.43,1547.91
2803.1,1541.32
2792.29,1532.45
2783.42,1521.64
2776.83,1509.31
2772.77,1495.93
2771.17,1479.6
2771.17,1242.9
2772.77,1226.57
2776.83,1213.19
2783.42,1200.86
2792.29,1190.06
2803.1,1181.19
2815.43,1174.6
2828.81,1170.54
2845.14,1168.93
3111.37,1168.93
Z" /> 
<path style="fill:#840084; fill-opacity:1.0; 
stroke:#840084; stroke-width:0; stroke-opacity:1; 
stroke-linecap:round; stroke-linejoin:round;fill-rule:evenodd;"
d="M 3864.36,1130.04
3879.58,1134.66
3893.61,1142.16
3905.91,1152.25
3916.01,1164.55
3923.51,1178.58
3928.12,1193.81
3929.92,1212.06
3929.92,1468.45
3928.12,1486.7
3923.51,1501.92
3916.01,1515.95
3905.91,1528.25
3893.61,1538.34
3879.58,1545.84
3864.36,1550.46
3846.11,1552.26
3422.4,1552.26
3404.15,1550.46
3388.92,1545.84
3374.89,1538.34
3362.59,1528.25
3352.5,1515.95
3345,1501.92
3340.38,1486.7
3338.58,1468.45
3338.58,1212.06
3340.38,1193.81
3345,1178.58
3352.5,1164.55
3362.59,1152.25
3374.89,1142.16
3388.92,1134.66
3404.15,1130.04
3422.4,1128.24
3846.11,1128.24
Z" /> 
</g>
<g style="fill:#000000; fill-opacity:1.0; 
stroke:#000000; stroke-width:0; stroke-opacity:1; 
stroke-linecap:round; stroke-linejoin:round;">
</g>
<g style="fill:#C2C200; fill-opacity:1.0; 
stroke:#C2C200; stroke-width:0; stroke-opacity:1; 
stroke-linecap:round; stroke-linejoin:round;">
</g>
<g style="fill:#C2C200; fill-opacity:1.0; 
stroke:#C2C200; stroke-width:19.685; stroke-opacity:1; 
stroke-linecap:round; stroke-linejoin:round;">
</g>
<g style="fill:#C2C200; fill-opacity:0.0; 
stroke:#C2C200; stroke-width:19.685; stroke-opacity:1; 
stroke-linecap:round; stroke-linejoin:round;">
<path d="M984 984
L984 5484
" />
<path d="M7484 5484
L984 5484
" />
<path d="M7484 984
L7484 5484
" />
<path d="M7484 5484
L7484 984
" />
<path d="M984 984
L7484 984
" />
<circle cx="984.252" cy="984.252" r="656.168" /> 
<path d="M0 984
L1968 984
" />
<path d="M984 0
L984 1968
" />
<circle cx="7484.25" cy="5484.25" r="656.168" /> 
<path d="M6500 5484
L8468 5484
" />
<path d="M7484 4500
L7484 6468
" />
<circle cx="7484.25" cy="984.252" r="656.168" /> 
<path d="M6500 984
L8468 984
" />
<path d="M7484 0
L7484 1968
" />
<circle cx="984.252" cy="5484.25" r="656.168" /> 
<path d="M0 5484
L1968 5484
" />
<path d="M984 4500
L984 6468
" />
<g >
</g>
<g >
</g>
<g >
</g>
<g >
</g>
<g >
</g>
<g >
</g>
<g >
</g>
<g >
</g>
<g >
</g>
<g >
</g>
<g >
</g>
<g >
</g>
<g >
</g>
<g >
</g>
<g >
</g>
<g >
</g>
<g >
</g>
<g >
</g>
<g >
</g>
<g >
</g>
<g >
</g>
<g >
</g>
</g> 
</svg>
