<?xml version="1.0" standalone="no"?>
 <!DOCTYPE svg PUBLIC "-//W3C//DTD SVG 1.1//EN" 
 "http://www.w3.org/Graphics/SVG/1.1/DTD/svg11.dtd"> 
<svg xmlns="http://www.w3.org/2000/svg" version="1.1" 
    width="2.73812cm" height="1.64084cm" viewBox="0 0 10780 6460 ">
<title>SVG Picture created as Masterproef ultrasonic transmitter-B_Paste.svg date 2021/09/03 16:05:26 </title>
  <desc>Picture generated by PCBNEW </desc>
<g style="fill:#000000; fill-opacity:1;stroke:#000000; stroke-opacity:1;
stroke-linecap:round; stroke-linejoin:round; "
 transform="translate(0 0) scale(1 1)">
</g>
<g style="fill:#000000; fill-opacity:0.0; 
stroke:#000000; stroke-width:-0.000393701; stroke-opacity:1; 
stroke-linecap:round; stroke-linejoin:round;">
<g >
</g>
<g style="fill:#008400; fill-opacity:0.0; 
stroke:#008400; stroke-width:-0.000393701; stroke-opacity:1; 
stroke-linecap:round; stroke-linejoin:round;">
</g>
<g style="fill:#008400; fill-opacity:0.0; 
stroke:#008400; stroke-width:0; stroke-opacity:1; 
stroke-linecap:round; stroke-linejoin:round;">
</g>
<g style="fill:#008400; fill-opacity:1.0; 
stroke:#008400; stroke-width:0; stroke-opacity:1; 
stroke-linecap:round; stroke-linejoin:round;">
<path style="fill:#008400; fill-opacity:1.0; 
stroke:#008400; stroke-width:0; stroke-opacity:1; 
stroke-linecap:round; stroke-linejoin:round;fill-rule:evenodd;"
d="M 5299.48,4883.08
5306.93,4884.18
5314.24,4886.01
5321.33,4888.55
5328.14,4891.77
5334.6,4895.65
5340.66,4900.14
5346.24,4905.19
5351.3,4910.78
5355.79,4916.83
5359.66,4923.29
5362.88,4930.1
5365.42,4937.19
5367.25,4944.5
5368.35,4951.96
5368.72,4959.48
5368.72,5113.02
5368.35,5120.55
5367.25,5128
5365.42,5135.31
5362.88,5142.4
5359.66,5149.21
5355.79,5155.68
5351.3,5161.73
5346.24,5167.31
5340.66,5172.37
5334.6,5176.86
5328.14,5180.73
5321.33,5183.95
5314.24,5186.49
5306.93,5188.32
5299.48,5189.43
5291.95,5189.8
5004.55,5189.8
4997.03,5189.43
4989.57,5188.32
4982.27,5186.49
4975.17,5183.95
4968.36,5180.73
4961.9,5176.86
4955.85,5172.37
4950.27,5167.31
4945.21,5161.73
4940.72,5155.68
4936.84,5149.21
4933.62,5142.4
4931.09,5135.31
4929.25,5128
4928.15,5120.55
4927.78,5113.02
4927.78,4959.48
4928.15,4951.96
4929.25,4944.5
4931.09,4937.19
4933.62,4930.1
4936.84,4923.29
4940.72,4916.83
4945.21,4910.78
4950.27,4905.19
4955.85,4900.14
4961.9,4895.65
4968.36,4891.77
4975.17,4888.55
4982.27,4886.01
4989.57,4884.18
4997.03,4883.08
5004.55,4882.71
5291.95,4882.71
Z" /> 
<path style="fill:#008400; fill-opacity:1.0; 
stroke:#008400; stroke-width:0; stroke-opacity:1; 
stroke-linecap:round; stroke-linejoin:round;fill-rule:evenodd;"
d="M 5299.48,4144.89
5306.93,4145.99
5314.24,4147.83
5321.33,4150.36
5328.14,4153.58
5334.6,4157.46
5340.66,4161.95
5346.24,4167.01
5351.3,4172.59
5355.79,4178.64
5359.66,4185.1
5362.88,4191.91
5365.42,4199.01
5367.25,4206.31
5368.35,4213.77
5368.72,4221.29
5368.72,4374.83
5368.35,4382.36
5367.25,4389.81
5365.42,4397.12
5362.88,4404.21
5359.66,4411.02
5355.79,4417.49
5351.3,4423.54
5346.24,4429.12
5340.66,4434.18
5334.6,4438.67
5328.14,4442.54
5321.33,4445.76
5314.24,4448.3
5306.93,4450.13
5299.48,4451.24
5291.95,4451.61
5004.55,4451.61
4997.03,4451.24
4989.57,4450.13
4982.27,4448.3
4975.17,4445.76
4968.36,4442.54
4961.9,4438.67
4955.85,4434.18
4950.27,4429.12
4945.21,4423.54
4940.72,4417.49
4936.84,4411.02
4933.62,4404.21
4931.09,4397.12
4929.25,4389.81
4928.15,4382.36
4927.78,4374.83
4927.78,4221.29
4928.15,4213.77
4929.25,4206.31
4931.09,4199.01
4933.62,4191.91
4936.84,4185.1
4940.72,4178.64
4945.21,4172.59
4950.27,4167.01
4955.85,4161.95
4961.9,4157.46
4968.36,4153.58
4975.17,4150.36
4982.27,4147.83
4989.57,4145.99
4997.03,4144.89
5004.55,4144.52
5291.95,4144.52
Z" /> 
</g>
<g >
</g>
<g style="fill:#008400; fill-opacity:1.0; 
stroke:#008400; stroke-width:0; stroke-opacity:1; 
stroke-linecap:round; stroke-linejoin:round;">
<circle cx="3109.23" cy="3907.93" r="157.48" /> 
</g>
<g style="fill:#008400; fill-opacity:1.0; 
stroke:#008400; stroke-width:39.3701; stroke-opacity:1; 
stroke-linecap:round; stroke-linejoin:round;">
</g>
<g style="fill:#008400; fill-opacity:1.0; 
stroke:#008400; stroke-width:0; stroke-opacity:1; 
stroke-linecap:round; stroke-linejoin:round;">
<path style="fill:#008400; fill-opacity:1.0; 
stroke:#008400; stroke-width:0; stroke-opacity:1; 
stroke-linecap:round; stroke-linejoin:round;fill-rule:evenodd;"
d="M 1589.54,1884.31
1589.54,1600.84
1873.01,1600.84
1873.01,1884.31
Z" /> 
</g>
<g >
</g>
<g >
</g>
<g >
</g>
<g style="fill:#000000; fill-opacity:1.0; 
stroke:#000000; stroke-width:0; stroke-opacity:1; 
stroke-linecap:round; stroke-linejoin:round;">
<path style="fill:#000000; fill-opacity:1.0; 
stroke:#000000; stroke-width:0; stroke-opacity:1; 
stroke-linecap:round; stroke-linejoin:round;fill-rule:evenodd;"
d="M 4246.81,4233.54
4249.85,4233.99
4252.83,4234.73
4255.72,4235.77
4258.49,4237.08
4261.13,4238.66
4263.6,4240.49
4265.87,4242.55
4267.93,4244.83
4269.76,4247.3
4271.34,4249.93
4272.66,4252.71
4273.69,4255.6
4274.44,4258.58
4274.89,4261.62
4275.04,4264.69
4275.04,4343.82
4274.89,4346.89
4274.44,4349.93
4273.69,4352.9
4272.66,4355.8
4271.34,4358.57
4269.76,4361.21
4267.93,4363.67
4265.87,4365.95
4263.6,4368.01
4261.13,4369.84
4258.49,4371.42
4255.72,4372.74
4252.83,4373.77
4249.85,4374.52
4246.81,4374.97
4243.74,4375.12
4181.14,4375.12
4178.07,4374.97
4175.04,4374.52
4172.06,4373.77
4169.16,4372.74
4166.39,4371.42
4163.75,4369.84
4161.29,4368.01
4159.01,4365.95
4156.95,4363.67
4155.12,4361.21
4153.54,4358.57
4152.23,4355.8
4151.19,4352.9
4150.44,4349.93
4149.99,4346.89
4149.84,4343.82
4149.84,4264.69
4149.99,4261.62
4150.44,4258.58
4151.19,4255.6
4152.23,4252.71
4153.54,4249.93
4155.12,4247.3
4156.95,4244.83
4159.01,4242.55
4161.29,4240.49
4163.75,4238.66
4166.39,4237.08
4169.16,4235.77
4172.06,4234.73
4175.04,4233.99
4178.07,4233.54
4181.14,4233.39
4243.74,4233.39
Z" /> 
<path style="fill:#000000; fill-opacity:1.0; 
stroke:#000000; stroke-width:0; stroke-opacity:1; 
stroke-linecap:round; stroke-linejoin:round;fill-rule:evenodd;"
d="M 4518.46,4233.54
4521.5,4233.99
4524.48,4234.73
4527.37,4235.77
4530.15,4237.08
4532.78,4238.66
4535.25,4240.49
4537.53,4242.55
4539.59,4244.83
4541.42,4247.3
4543,4249.93
4544.31,4252.71
4545.35,4255.6
4546.09,4258.58
4546.54,4261.62
4546.69,4264.69
4546.69,4343.82
4546.54,4346.89
4546.09,4349.93
4545.35,4352.9
4544.31,4355.8
4543,4358.57
4541.42,4361.21
4539.59,4363.67
4537.53,4365.95
4535.25,4368.01
4532.78,4369.84
4530.15,4371.42
4527.37,4372.74
4524.48,4373.77
4521.5,4374.52
4518.46,4374.97
4515.39,4375.12
4452.8,4375.12
4449.73,4374.97
4446.69,4374.52
4443.71,4373.77
4440.82,4372.74
4438.04,4371.42
4435.41,4369.84
4432.94,4368.01
4430.66,4365.95
4428.6,4363.67
4426.77,4361.21
4425.19,4358.57
4423.88,4355.8
4422.84,4352.9
4422.1,4349.93
4421.65,4346.89
4421.5,4343.82
4421.5,4264.69
4421.65,4261.62
4422.1,4258.58
4422.84,4255.6
4423.88,4252.71
4425.19,4249.93
4426.77,4247.3
4428.6,4244.83
4430.66,4242.55
4432.94,4240.49
4435.41,4238.66
4438.04,4237.08
4440.82,4235.77
4443.71,4234.73
4446.69,4233.99
4449.73,4233.54
4452.8,4233.39
4515.39,4233.39
Z" /> 
</g>
<g >
</g>
<g style="fill:#008400; fill-opacity:1.0; 
stroke:#008400; stroke-width:0; stroke-opacity:1; 
stroke-linecap:round; stroke-linejoin:round;">
<circle cx="5036.99" cy="3186.77" r="31.4961" /> 
</g>
<g style="fill:#008400; fill-opacity:1.0; 
stroke:#008400; stroke-width:39.3701; stroke-opacity:1; 
stroke-linecap:round; stroke-linejoin:round;">
</g>
<g style="fill:#008400; fill-opacity:1.0; 
stroke:#008400; stroke-width:0; stroke-opacity:1; 
stroke-linecap:round; stroke-linejoin:round;">
<circle cx="4879.51" cy="3186.77" r="31.4961" /> 
</g>
<g style="fill:#008400; fill-opacity:1.0; 
stroke:#008400; stroke-width:39.3701; stroke-opacity:1; 
stroke-linecap:round; stroke-linejoin:round;">
</g>
<g style="fill:#008400; fill-opacity:1.0; 
stroke:#008400; stroke-width:0; stroke-opacity:1; 
stroke-linecap:round; stroke-linejoin:round;">
<circle cx="5036.99" cy="3344.25" r="31.4961" /> 
</g>
<g style="fill:#008400; fill-opacity:1.0; 
stroke:#008400; stroke-width:39.3701; stroke-opacity:1; 
stroke-linecap:round; stroke-linejoin:round;">
</g>
<g style="fill:#008400; fill-opacity:1.0; 
stroke:#008400; stroke-width:0; stroke-opacity:1; 
stroke-linecap:round; stroke-linejoin:round;">
<circle cx="4879.51" cy="3344.25" r="31.4961" /> 
</g>
<g style="fill:#008400; fill-opacity:1.0; 
stroke:#008400; stroke-width:39.3701; stroke-opacity:1; 
stroke-linecap:round; stroke-linejoin:round;">
</g>
<g style="fill:#008400; fill-opacity:1.0; 
stroke:#008400; stroke-width:0; stroke-opacity:1; 
stroke-linecap:round; stroke-linejoin:round;">
<circle cx="5036.99" cy="3501.73" r="31.4961" /> 
</g>
<g style="fill:#008400; fill-opacity:1.0; 
stroke:#008400; stroke-width:39.3701; stroke-opacity:1; 
stroke-linecap:round; stroke-linejoin:round;">
</g>
<g style="fill:#008400; fill-opacity:1.0; 
stroke:#008400; stroke-width:0; stroke-opacity:1; 
stroke-linecap:round; stroke-linejoin:round;">
<circle cx="4879.51" cy="3501.73" r="31.4961" /> 
</g>
<g style="fill:#008400; fill-opacity:1.0; 
stroke:#008400; stroke-width:39.3701; stroke-opacity:1; 
stroke-linecap:round; stroke-linejoin:round;">
</g>
<g >
</g>
<g >
</g>
<g style="fill:#008400; fill-opacity:1.0; 
stroke:#008400; stroke-width:39.3701; stroke-opacity:1; 
stroke-linecap:round; stroke-linejoin:round;">
</g>
<g style="fill:#008400; fill-opacity:1.0; 
stroke:#008400; stroke-width:0; stroke-opacity:1; 
stroke-linecap:round; stroke-linejoin:round;">
<path style="fill:#008400; fill-opacity:1.0; 
stroke:#008400; stroke-width:0; stroke-opacity:1; 
stroke-linecap:round; stroke-linejoin:round;fill-rule:evenodd;"
d="M 5738.8,2435.3
5738.8,3191.2
5297.86,3191.2
5297.86,2435.3
Z" /> 
<path style="fill:#008400; fill-opacity:1.0; 
stroke:#008400; stroke-width:0; stroke-opacity:1; 
stroke-linecap:round; stroke-linejoin:round;fill-rule:evenodd;"
d="M 6998.65,2435.3
6998.65,3191.2
6557.7,3191.2
6557.7,2435.3
Z" /> 
</g>
<g >
</g>
<g >
</g>
<g >
</g>
<g >
</g>
<g >
</g>
<g style="fill:#008400; fill-opacity:1.0; 
stroke:#008400; stroke-width:0; stroke-opacity:1; 
stroke-linecap:round; stroke-linejoin:round;">
<path style="fill:#008400; fill-opacity:1.0; 
stroke:#008400; stroke-width:0; stroke-opacity:1; 
stroke-linecap:round; stroke-linejoin:round;fill-rule:evenodd;"
d="M 3956.86,3732.98
3963.55,3733.97
3970.11,3735.61
3976.48,3737.89
3982.59,3740.78
3988.39,3744.26
3993.82,3748.28
3998.83,3752.83
4003.37,3757.84
4007.4,3763.27
4010.87,3769.07
4013.76,3775.18
4016.04,3781.54
4017.68,3788.1
4018.68,3794.79
4019.01,3801.54
4019.01,3962.96
4018.68,3969.71
4017.68,3976.4
4016.04,3982.96
4013.76,3989.33
4010.87,3995.44
4007.4,4001.24
4003.37,4006.67
3998.83,4011.68
3993.82,4016.22
3988.39,4020.25
3982.59,4023.72
3976.48,4026.61
3970.11,4028.89
3963.55,4030.53
3956.86,4031.53
3950.11,4031.86
3812.31,4031.86
3805.56,4031.53
3798.87,4030.53
3792.31,4028.89
3785.95,4026.61
3779.84,4023.72
3774.04,4020.25
3768.61,4016.22
3763.6,4011.68
3759.06,4006.67
3755.03,4001.24
3751.55,3995.44
3748.66,3989.33
3746.38,3982.96
3744.74,3976.4
3743.75,3969.71
3743.42,3962.96
3743.42,3801.54
3743.75,3794.79
3744.74,3788.1
3746.38,3781.54
3748.66,3775.18
3751.55,3769.07
3755.03,3763.27
3759.06,3757.84
3763.6,3752.83
3768.61,3748.28
3774.04,3744.26
3779.84,3740.78
3785.95,3737.89
3792.31,3735.61
3798.87,3733.97
3805.56,3732.98
3812.31,3732.65
3950.11,3732.65
Z" /> 
<path style="fill:#008400; fill-opacity:1.0; 
stroke:#008400; stroke-width:0; stroke-opacity:1; 
stroke-linecap:round; stroke-linejoin:round;fill-rule:evenodd;"
d="M 4576.94,3732.98
4583.63,3733.97
4590.19,3735.61
4596.56,3737.89
4602.67,3740.78
4608.47,3744.26
4613.9,3748.28
4618.91,3752.83
4623.45,3757.84
4627.48,3763.27
4630.95,3769.07
4633.84,3775.18
4636.12,3781.54
4637.76,3788.1
4638.75,3794.79
4639.09,3801.54
4639.09,3962.96
4638.75,3969.71
4637.76,3976.4
4636.12,3982.96
4633.84,3989.33
4630.95,3995.44
4627.48,4001.24
4623.45,4006.67
4618.91,4011.68
4613.9,4016.22
4608.47,4020.25
4602.67,4023.72
4596.56,4026.61
4590.19,4028.89
4583.63,4030.53
4576.94,4031.53
4570.19,4031.86
4432.39,4031.86
4425.64,4031.53
4418.95,4030.53
4412.39,4028.89
4406.03,4026.61
4399.92,4023.72
4394.12,4020.25
4388.69,4016.22
4383.68,4011.68
4379.14,4006.67
4375.11,4001.24
4371.63,3995.44
4368.74,3989.33
4366.46,3982.96
4364.82,3976.4
4363.83,3969.71
4363.5,3962.96
4363.5,3801.54
4363.83,3794.79
4364.82,3788.1
4366.46,3781.54
4368.74,3775.18
4371.63,3769.07
4375.11,3763.27
4379.14,3757.84
4383.68,3752.83
4388.69,3748.28
4394.12,3744.26
4399.92,3740.78
4406.03,3737.89
4412.39,3735.61
4418.95,3733.97
4425.64,3732.98
4432.39,3732.65
4570.19,3732.65
Z" /> 
</g>
<g >
</g>
<g style="fill:#008400; fill-opacity:1.0; 
stroke:#008400; stroke-width:0; stroke-opacity:1; 
stroke-linecap:round; stroke-linejoin:round;">
<path style="fill:#008400; fill-opacity:1.0; 
stroke:#008400; stroke-width:0; stroke-opacity:1; 
stroke-linecap:round; stroke-linejoin:round;fill-rule:evenodd;"
d="M 4581.71,3283.79
4588.4,3284.78
4594.96,3286.42
4601.33,3288.7
4607.44,3291.59
4613.24,3295.07
4618.67,3299.1
4623.68,3303.64
4628.22,3308.65
4632.25,3314.08
4635.72,3319.88
4638.61,3325.99
4640.89,3332.35
4642.53,3338.91
4643.53,3345.6
4643.86,3352.35
4643.86,3490.15
4643.53,3496.9
4642.53,3503.59
4640.89,3510.15
4638.61,3516.52
4635.72,3522.63
4632.25,3528.43
4628.22,3533.86
4623.68,3538.87
4618.67,3543.41
4613.24,3547.44
4607.44,3550.91
4601.33,3553.8
4594.96,3556.08
4588.4,3557.72
4581.71,3558.72
4574.96,3559.05
4413.54,3559.05
4406.79,3558.72
4400.1,3557.72
4393.54,3556.08
4387.18,3553.8
4381.07,3550.91
4375.27,3547.44
4369.84,3543.41
4364.83,3538.87
4360.28,3533.86
4356.26,3528.43
4352.78,3522.63
4349.89,3516.52
4347.61,3510.15
4345.97,3503.59
4344.98,3496.9
4344.65,3490.15
4344.65,3352.35
4344.98,3345.6
4345.97,3338.91
4347.61,3332.35
4349.89,3325.99
4352.78,3319.88
4356.26,3314.08
4360.28,3308.65
4364.83,3303.64
4369.84,3299.1
4375.27,3295.07
4381.07,3291.59
4387.18,3288.7
4393.54,3286.42
4400.1,3284.78
4406.79,3283.79
4413.54,3283.46
4574.96,3283.46
Z" /> 
<path style="fill:#008400; fill-opacity:1.0; 
stroke:#008400; stroke-width:0; stroke-opacity:1; 
stroke-linecap:round; stroke-linejoin:round;fill-rule:evenodd;"
d="M 4581.71,2663.71
4588.4,2664.7
4594.96,2666.34
4601.33,2668.62
4607.44,2671.51
4613.24,2674.99
4618.67,2679.02
4623.68,2683.56
4628.22,2688.57
4632.25,2694
4635.72,2699.8
4638.61,2705.91
4640.89,2712.28
4642.53,2718.83
4643.53,2725.52
4643.86,2732.28
4643.86,2870.07
4643.53,2876.82
4642.53,2883.51
4640.89,2890.07
4638.61,2896.44
4635.72,2902.55
4632.25,2908.35
4628.22,2913.78
4623.68,2918.79
4618.67,2923.33
4613.24,2927.36
4607.44,2930.83
4601.33,2933.72
4594.96,2936
4588.4,2937.64
4581.71,2938.64
4574.96,2938.97
4413.54,2938.97
4406.79,2938.64
4400.1,2937.64
4393.54,2936
4387.18,2933.72
4381.07,2930.83
4375.27,2927.36
4369.84,2923.33
4364.83,2918.79
4360.28,2913.78
4356.26,2908.35
4352.78,2902.55
4349.89,2896.44
4347.61,2890.07
4345.97,2883.51
4344.98,2876.82
4344.65,2870.07
4344.65,2732.28
4344.98,2725.52
4345.97,2718.83
4347.61,2712.28
4349.89,2705.91
4352.78,2699.8
4356.26,2694
4360.28,2688.57
4364.83,2683.56
4369.84,2679.02
4375.27,2674.99
4381.07,2671.51
4387.18,2668.62
4393.54,2666.34
4400.1,2664.7
4406.79,2663.71
4413.54,2663.38
4574.96,2663.38
Z" /> 
</g>
<g >
</g>
<g >
</g>
<g >
</g>
<g >
</g>
<g >
</g>
<g >
</g>
<g style="fill:#000000; fill-opacity:1.0; 
stroke:#000000; stroke-width:0; stroke-opacity:1; 
stroke-linecap:round; stroke-linejoin:round;">
<path style="fill:#000000; fill-opacity:1.0; 
stroke:#000000; stroke-width:0; stroke-opacity:1; 
stroke-linecap:round; stroke-linejoin:round;fill-rule:evenodd;"
d="M 4239.79,4486.54
4242.83,4486.99
4245.81,4487.73
4248.7,4488.77
4251.48,4490.08
4254.11,4491.66
4256.58,4493.49
4258.86,4495.55
4260.92,4497.83
4262.75,4500.3
4264.33,4502.93
4265.64,4505.71
4266.68,4508.6
4267.42,4511.58
4267.87,4514.62
4268.02,4517.69
4268.02,4596.82
4267.87,4599.89
4267.42,4602.93
4266.68,4605.9
4265.64,4608.8
4264.33,4611.57
4262.75,4614.21
4260.92,4616.67
4258.86,4618.95
4256.58,4621.01
4254.11,4622.84
4251.48,4624.42
4248.7,4625.74
4245.81,4626.77
4242.83,4627.52
4239.79,4627.97
4236.72,4628.12
4174.13,4628.12
4171.06,4627.97
4168.02,4627.52
4165.04,4626.77
4162.15,4625.74
4159.37,4624.42
4156.74,4622.84
4154.27,4621.01
4151.99,4618.95
4149.93,4616.67
4148.1,4614.21
4146.52,4611.57
4145.21,4608.8
4144.17,4605.9
4143.43,4602.93
4142.98,4599.89
4142.83,4596.82
4142.83,4517.69
4142.98,4514.62
4143.43,4511.58
4144.17,4508.6
4145.21,4505.71
4146.52,4502.93
4148.1,4500.3
4149.93,4497.83
4151.99,4495.55
4154.27,4493.49
4156.74,4491.66
4159.37,4490.08
4162.15,4488.77
4165.04,4487.73
4168.02,4486.99
4171.06,4486.54
4174.13,4486.39
4236.72,4486.39
Z" /> 
<path style="fill:#000000; fill-opacity:1.0; 
stroke:#000000; stroke-width:0; stroke-opacity:1; 
stroke-linecap:round; stroke-linejoin:round;fill-rule:evenodd;"
d="M 4511.45,4486.54
4514.48,4486.99
4517.46,4487.73
4520.36,4488.77
4523.13,4490.08
4525.77,4491.66
4528.23,4493.49
4530.51,4495.55
4532.57,4497.83
4534.4,4500.3
4535.98,4502.93
4537.29,4505.71
4538.33,4508.6
4539.08,4511.58
4539.53,4514.62
4539.68,4517.69
4539.68,4596.82
4539.53,4599.89
4539.08,4602.93
4538.33,4605.9
4537.29,4608.8
4535.98,4611.57
4534.4,4614.21
4532.57,4616.67
4530.51,4618.95
4528.23,4621.01
4525.77,4622.84
4523.13,4624.42
4520.36,4625.74
4517.46,4626.77
4514.48,4627.52
4511.45,4627.97
4508.38,4628.12
4445.78,4628.12
4442.71,4627.97
4439.67,4627.52
4436.69,4626.77
4433.8,4625.74
4431.03,4624.42
4428.39,4622.84
4425.92,4621.01
4423.65,4618.95
4421.59,4616.67
4419.76,4614.21
4418.18,4611.57
4416.86,4608.8
4415.83,4605.9
4415.08,4602.93
4414.63,4599.89
4414.48,4596.82
4414.48,4517.69
4414.63,4514.62
4415.08,4511.58
4415.83,4508.6
4416.86,4505.71
4418.18,4502.93
4419.76,4500.3
4421.59,4497.83
4423.65,4495.55
4425.92,4493.49
4428.39,4491.66
4431.03,4490.08
4433.8,4488.77
4436.69,4487.73
4439.67,4486.99
4442.71,4486.54
4445.78,4486.39
4508.38,4486.39
Z" /> 
</g>
<g >
</g>
<g style="fill:#000000; fill-opacity:1.0; 
stroke:#000000; stroke-width:0; stroke-opacity:1; 
stroke-linecap:round; stroke-linejoin:round;">
<path style="fill:#000000; fill-opacity:1.0; 
stroke:#000000; stroke-width:0; stroke-opacity:1; 
stroke-linecap:round; stroke-linejoin:round;fill-rule:evenodd;"
d="M 4497.81,2293.54
4500.85,2293.99
4503.83,2294.73
4506.72,2295.77
4509.49,2297.08
4512.13,2298.66
4514.6,2300.49
4516.87,2302.55
4518.93,2304.83
4520.76,2307.3
4522.34,2309.93
4523.66,2312.71
4524.69,2315.6
4525.44,2318.58
4525.89,2321.62
4526.04,2324.69
4526.04,2403.82
4525.89,2406.89
4525.44,2409.93
4524.69,2412.9
4523.66,2415.8
4522.34,2418.57
4520.76,2421.21
4518.93,2423.67
4516.87,2425.95
4514.6,2428.01
4512.13,2429.84
4509.49,2431.42
4506.72,2432.74
4503.83,2433.77
4500.85,2434.52
4497.81,2434.97
4494.74,2435.12
4432.14,2435.12
4429.07,2434.97
4426.04,2434.52
4423.06,2433.77
4420.16,2432.74
4417.39,2431.42
4414.75,2429.84
4412.29,2428.01
4410.01,2425.95
4407.95,2423.67
4406.12,2421.21
4404.54,2418.57
4403.23,2415.8
4402.19,2412.9
4401.44,2409.93
4400.99,2406.89
4400.84,2403.82
4400.84,2324.69
4400.99,2321.62
4401.44,2318.58
4402.19,2315.6
4403.23,2312.71
4404.54,2309.93
4406.12,2307.3
4407.95,2304.83
4410.01,2302.55
4412.29,2300.49
4414.75,2298.66
4417.39,2297.08
4420.16,2295.77
4423.06,2294.73
4426.04,2293.99
4429.07,2293.54
4432.14,2293.39
4494.74,2293.39
Z" /> 
<path style="fill:#000000; fill-opacity:1.0; 
stroke:#000000; stroke-width:0; stroke-opacity:1; 
stroke-linecap:round; stroke-linejoin:round;fill-rule:evenodd;"
d="M 4769.46,2293.54
4772.5,2293.99
4775.48,2294.73
4778.37,2295.77
4781.15,2297.08
4783.78,2298.66
4786.25,2300.49
4788.53,2302.55
4790.59,2304.83
4792.42,2307.3
4794,2309.93
4795.31,2312.71
4796.35,2315.6
4797.09,2318.58
4797.54,2321.62
4797.69,2324.69
4797.69,2403.82
4797.54,2406.89
4797.09,2409.93
4796.35,2412.9
4795.31,2415.8
4794,2418.57
4792.42,2421.21
4790.59,2423.67
4788.53,2425.95
4786.25,2428.01
4783.78,2429.84
4781.15,2431.42
4778.37,2432.74
4775.48,2433.77
4772.5,2434.52
4769.46,2434.97
4766.39,2435.12
4703.8,2435.12
4700.73,2434.97
4697.69,2434.52
4694.71,2433.77
4691.82,2432.74
4689.04,2431.42
4686.41,2429.84
4683.94,2428.01
4681.66,2425.95
4679.6,2423.67
4677.77,2421.21
4676.19,2418.57
4674.88,2415.8
4673.84,2412.9
4673.1,2409.93
4672.65,2406.89
4672.5,2403.82
4672.5,2324.69
4672.65,2321.62
4673.1,2318.58
4673.84,2315.6
4674.88,2312.71
4676.19,2309.93
4677.77,2307.3
4679.6,2304.83
4681.66,2302.55
4683.94,2300.49
4686.41,2298.66
4689.04,2297.08
4691.82,2295.77
4694.71,2294.73
4697.69,2293.99
4700.73,2293.54
4703.8,2293.39
4766.39,2293.39
Z" /> 
</g>
<g >
</g>
<g >
</g>
<g >
</g>
</g>
<g style="fill:#000000; fill-opacity:1.0; 
stroke:#000000; stroke-width:0; stroke-opacity:1; 
stroke-linecap:round; stroke-linejoin:round;">
</g>
<g style="fill:#C2C200; fill-opacity:1.0; 
stroke:#C2C200; stroke-width:0; stroke-opacity:1; 
stroke-linecap:round; stroke-linejoin:round;">
</g>
<g style="fill:#C2C200; fill-opacity:1.0; 
stroke:#C2C200; stroke-width:19.685; stroke-opacity:1; 
stroke-linecap:round; stroke-linejoin:round;">
</g>
<g style="fill:#C2C200; fill-opacity:0.0; 
stroke:#C2C200; stroke-width:19.685; stroke-opacity:1; 
stroke-linecap:round; stroke-linejoin:round;">
<path d="M984 984
L984 5484
" />
<path d="M7484 5484
L984 5484
" />
<path d="M7484 984
L7484 5484
" />
<path d="M7484 5484
L7484 984
" />
<path d="M984 984
L7484 984
" />
<circle cx="984.252" cy="984.252" r="656.168" /> 
<path d="M0 984
L1968 984
" />
<path d="M984 0
L984 1968
" />
<circle cx="7484.25" cy="5484.25" r="656.168" /> 
<path d="M6500 5484
L8468 5484
" />
<path d="M7484 4500
L7484 6468
" />
<circle cx="7484.25" cy="984.252" r="656.168" /> 
<path d="M6500 984
L8468 984
" />
<path d="M7484 0
L7484 1968
" />
<circle cx="984.252" cy="5484.25" r="656.168" /> 
<path d="M0 5484
L1968 5484
" />
<path d="M984 4500
L984 6468
" />
<g >
</g>
<g >
</g>
<g >
</g>
<g >
</g>
<g >
</g>
<g >
</g>
<g >
</g>
<g >
</g>
<g >
</g>
<g >
</g>
<g >
</g>
<g >
</g>
<g >
</g>
<g >
</g>
<g >
</g>
<g >
</g>
<g >
</g>
<g >
</g>
<g >
</g>
<g >
</g>
<g >
</g>
<g >
</g>
</g> 
</svg>
