<?xml version="1.0" standalone="no"?>
 <!DOCTYPE svg PUBLIC "-//W3C//DTD SVG 1.1//EN" 
 "http://www.w3.org/Graphics/SVG/1.1/DTD/svg11.dtd"> 
<svg xmlns="http://www.w3.org/2000/svg" version="1.1" 
    width="2.73812cm" height="1.64084cm" viewBox="0 0 10780 6460 ">
<title>SVG Picture created as Masterproef ultrasonic transmitter-B_Fab.svg date 2021/09/03 16:05:26 </title>
  <desc>Picture generated by PCBNEW </desc>
<g style="fill:#000000; fill-opacity:1;stroke:#000000; stroke-opacity:1;
stroke-linecap:round; stroke-linejoin:round; "
 transform="translate(0 0) scale(1 1)">
</g>
<g style="fill:#000000; fill-opacity:0.0; 
stroke:#000000; stroke-width:-0.000393701; stroke-opacity:1; 
stroke-linecap:round; stroke-linejoin:round;">
</g>
<g style="fill:#000084; fill-opacity:0.0; 
stroke:#000084; stroke-width:-0.000393701; stroke-opacity:1; 
stroke-linecap:round; stroke-linejoin:round;">
</g>
<g style="fill:#000084; fill-opacity:0.0; 
stroke:#000084; stroke-width:39.3701; stroke-opacity:1; 
stroke-linecap:round; stroke-linejoin:round;">
<path d="M5384 5060
L5384 4273
" />
<path d="M4912 5060
L5384 5060
" />
<path d="M4912 4273
L4912 5060
" />
<path d="M5384 4273
L4912 4273
" />
</g>
<g style="fill:#000084; fill-opacity:0.0; 
stroke:#000084; stroke-width:47.2441; stroke-opacity:1; 
stroke-linecap:round; stroke-linejoin:round;">
<path d="M1495 1506
L1495 4144
" />
<path d="M3345 4144
L1495 4144
" />
<path d="M3345 1506
L1495 1506
" />
<path d="M3345 1506
L3345 4144
" />
</g>
<g style="fill:#000084; fill-opacity:0.0; 
stroke:#000084; stroke-width:39.3701; stroke-opacity:1; 
stroke-linecap:round; stroke-linejoin:round;">
<path d="M4230 4363
L4466 4363
" />
<path d="M4230 4245
L4230 4363
" />
<path d="M4466 4245
L4230 4245
" />
<path d="M4466 4363
L4466 4245
" />
<path d="M4802 3458
L4922 3578
" />
<path d="M4802 3109
L4802 3578
" />
<path d="M5114 3109
L4802 3109
" />
<path d="M5114 3578
L5114 3109
" />
<path d="M4802 3578
L5114 3578
" />
<path d="M6935 3600
L6935 2025
" />
<path d="M5360 3600
L6935 3600
" />
<path d="M5360 2025
L5360 3600
" />
<path d="M6935 2025
L5360 2025
" />
<path d="M3876 4039
L4506 4039
" />
<path d="M3876 3724
L3876 4039
" />
<path d="M4506 3724
L3876 3724
" />
<path d="M4506 4039
L4506 3724
" />
<path d="M4651 3426
L4651 2796
" />
<path d="M4336 3426
L4651 3426
" />
<path d="M4336 2796
L4336 3426
" />
<path d="M4651 2796
L4336 2796
" />
<path d="M4223 4616
L4459 4616
" />
<path d="M4223 4498
L4223 4616
" />
<path d="M4459 4498
L4223 4498
" />
<path d="M4459 4616
L4459 4498
" />
<path d="M4481 2423
L4717 2423
" />
<path d="M4481 2305
L4481 2423
" />
<path d="M4717 2305
L4481 2305
" />
<path d="M4717 2423
L4717 2305
" />
<g >
</g>
<g >
</g>
<g >
</g>
<g >
</g>
<g >
</g>
<g >
</g>
<g >
</g>
<g >
</g>
<g >
</g>
<g >
</g>
<g >
</g>
<g >
</g>
<g >
</g>
<g >
</g>
<g >
</g>
<g >
</g>
<g >
</g>
<g >
</g>
<g >
</g>
<g >
</g>
<g >
</g>
</g>
<g style="fill:#000084; fill-opacity:0.0; 
stroke:#000084; stroke-width:39.3701; stroke-opacity:1; 
stroke-linecap:round; stroke-linejoin:round;">
</g>
<g style="fill:#000084; fill-opacity:0.0; 
stroke:#000084; stroke-width:59.0551; stroke-opacity:1; 
stroke-linecap:round; stroke-linejoin:round;">
<g transform="rotate(-90 5797.86 4667.16)">
<text x="5797.86" y="4864.01"
textLength="-1423.04" font-size="-524.934" lengthAdjust="spacingAndGlyphs"
text-anchor="middle" opacity="0">10µF</text>
</g>
<path d="M5975 4217
L5975 3992
" />
<path d="M5975 4104
L5582 4104
L5638 4067
L5675 4029
L5694 3992
" />
<path d="M5582 4460
L5582 4498
L5601 4535
L5619 4554
L5657 4573
L5732 4592
L5825 4592
L5900 4573
L5938 4554
L5957 4535
L5975 4498
L5975 4460
L5957 4423
L5938 4404
L5900 4385
L5825 4367
L5732 4367
L5657 4385
L5619 4404
L5601 4423
L5582 4460
" />
<path d="M5713 4760
L6107 4760
" />
<path d="M5919 4948
L5957 4967
L5975 5004
" />
<path d="M5919 4760
L5957 4779
L5975 4817
L5975 4892
L5957 4929
L5919 4948
L5713 4948
" />
<path d="M5769 5304
L5769 5173
" />
<path d="M5975 5173
L5582 5173
L5582 5360
" />
<g transform="rotate(-90 3596.63 2846.15)">
<text x="3596.63" y="3043"
textLength="-4535.15" font-size="-524.934" lengthAdjust="spacingAndGlyphs"
text-anchor="middle" opacity="0">Adap_UT_P2019</text>
</g>
<path d="M3662 615
L3662 802
" />
<path d="M3774 577
L3381 708
L3774 840
" />
<path d="M3774 1140
L3381 1140
" />
<path d="M3755 1140
L3774 1102
L3774 1027
L3755 990
L3737 971
L3699 952
L3587 952
L3549 971
L3531 990
L3512 1027
L3512 1102
L3531 1140
" />
<path d="M3774 1496
L3568 1496
L3531 1477
L3512 1440
L3512 1365
L3531 1327
" />
<path d="M3755 1496
L3774 1458
L3774 1365
L3755 1327
L3718 1308
L3680 1308
L3643 1327
L3624 1365
L3624 1458
L3606 1496
" />
<path d="M3512 1683
L3905 1683
" />
<path d="M3531 1683
L3512 1721
L3512 1796
L3531 1833
L3549 1852
L3587 1871
L3699 1871
L3737 1852
L3755 1833
L3774 1796
L3774 1721
L3755 1683
" />
<path d="M3812 1946
L3812 2246
" />
<path d="M3381 2339
L3699 2339
L3737 2358
L3755 2377
L3774 2414
L3774 2489
L3755 2527
L3737 2546
L3699 2564
L3381 2564
" />
<path d="M3381 2696
L3381 2921
" />
<path d="M3774 2808
L3381 2808
" />
<path d="M3812 2958
L3812 3258
" />
<path d="M3774 3352
L3381 3352
L3381 3502
L3399 3539
L3418 3558
L3456 3577
L3512 3577
L3549 3558
L3568 3539
L3587 3502
L3587 3352
" />
<path d="M3418 3727
L3399 3746
L3381 3783
L3381 3877
L3399 3914
L3418 3933
L3456 3952
L3493 3952
L3549 3933
L3774 3708
L3774 3952
" />
<path d="M3381 4195
L3381 4233
L3399 4270
L3418 4289
L3456 4308
L3531 4327
L3624 4327
L3699 4308
L3737 4289
L3755 4270
L3774 4233
L3774 4195
L3755 4158
L3737 4139
L3699 4120
L3624 4102
L3531 4102
L3456 4120
L3418 4139
L3399 4158
L3381 4195
" />
<path d="M3774 4702
L3774 4477
" />
<path d="M3774 4589
L3381 4589
L3437 4552
L3474 4514
L3493 4477
" />
<path d="M3774 4889
L3774 4964
L3755 5002
L3737 5020
L3680 5058
L3606 5077
L3456 5077
L3418 5058
L3399 5039
L3381 5002
L3381 4927
L3399 4889
L3418 4870
L3456 4852
L3549 4852
L3587 4870
L3606 4889
L3624 4927
L3624 5002
L3606 5039
L3587 5058
L3549 5077
" />
<text x="4348.27" y="4914.49"
textLength="-1048.09" font-size="-524.934" lengthAdjust="spacingAndGlyphs"
text-anchor="middle" opacity="0">1µF</text>
<path d="M4610 4895
L4835 4895
" />
<path d="M4723 4895
L4723 4502
L4760 4558
L4798 4595
L4835 4614
" />
<path d="M4442 4633
L4442 5026
" />
<path d="M4254 4839
L4235 4876
L4198 4895
" />
<path d="M4442 4839
L4423 4876
L4385 4895
L4310 4895
L4273 4876
L4254 4839
L4254 4633
" />
<path d="M3898 4689
L4029 4689
" />
<path d="M4029 4895
L4029 4502
L3842 4502
" />
</g>
<g style="fill:#000084; fill-opacity:0.0; 
stroke:#000084; stroke-width:15.748; stroke-opacity:1; 
stroke-linecap:round; stroke-linejoin:round;">
<text x="4348.27" y="4085.75"
textLength="-115.392" font-size="-131.233" lengthAdjust="spacingAndGlyphs"
text-anchor="middle" opacity="0">C1</text>
<path d="M4364 4071
L4369 4076
L4383 4081
L4392 4081
L4406 4076
L4416 4067
L4420 4057
L4425 4038
L4425 4024
L4420 4006
L4416 3996
L4406 3987
L4392 3982
L4383 3982
L4369 3987
L4364 3992
" />
<path d="M4270 4081
L4327 4081
" />
<path d="M4299 4081
L4299 3982
L4308 3996
L4317 4006
L4327 4010
" />
</g>
<g style="fill:#000084; fill-opacity:0.0; 
stroke:#000084; stroke-width:56.1024; stroke-opacity:1; 
stroke-linecap:round; stroke-linejoin:round;">
<text x="4508.25" y="3606.46"
textLength="-524.522" font-size="-299.213" lengthAdjust="spacingAndGlyphs"
text-anchor="middle" opacity="0">IC1</text>
<path d="M4727 3595
L4727 3371
" />
<path d="M4492 3574
L4502 3585
L4534 3595
L4556 3595
L4588 3585
L4609 3563
L4620 3542
L4631 3499
L4631 3467
L4620 3424
L4609 3403
L4588 3382
L4556 3371
L4534 3371
L4502 3382
L4492 3392
" />
<path d="M4278 3595
L4406 3595
" />
<path d="M4342 3595
L4342 3371
L4363 3403
L4385 3424
L4406 3435
" />
</g>
<g style="fill:#000084; fill-opacity:0.0; 
stroke:#000084; stroke-width:100; stroke-opacity:1; 
stroke-linecap:round; stroke-linejoin:round;">
<text x="4898.25" y="2113.25"
textLength="-808.019" font-size="-666.667" lengthAdjust="spacingAndGlyphs"
text-anchor="middle" opacity="0">L1</text>
<path d="M4981 2089
L5219 2089
L5219 1589
" />
<path d="M4553 2089
L4838 2089
" />
<path d="M4695 2089
L4695 1589
L4743 1660
L4791 1708
L4838 1732
" />
</g>
<g style="fill:#000084; fill-opacity:0.0; 
stroke:#000084; stroke-width:59.0551; stroke-opacity:1; 
stroke-linecap:round; stroke-linejoin:round;">
<text x="4131.21" y="4079.1"
textLength="-938.617" font-size="-524.934" lengthAdjust="spacingAndGlyphs"
text-anchor="middle" opacity="0">30k</text>
<path d="M4609 3666
L4365 3666
L4496 3816
L4440 3816
L4403 3835
L4384 3854
L4365 3891
L4365 3985
L4384 4022
L4403 4041
L4440 4060
L4553 4060
L4590 4041
L4609 4022
" />
<path d="M4121 3666
L4084 3666
L4046 3685
L4028 3704
L4009 3741
L3990 3816
L3990 3910
L4009 3985
L4028 4022
L4046 4041
L4084 4060
L4121 4060
L4159 4041
L4178 4022
L4196 3985
L4215 3910
L4215 3816
L4196 3741
L4178 3704
L4159 3685
L4121 3666
" />
<path d="M3821 4060
L3821 3666
" />
<path d="M3784 3910
L3671 4060
" />
<path d="M3671 3797
L3821 3947
" />
</g>
<g style="fill:#000084; fill-opacity:0.0; 
stroke:#000084; stroke-width:23.622; stroke-opacity:1; 
stroke-linecap:round; stroke-linejoin:round;">
<g transform="rotate(-90 4191.25 3882.25)">
<text x="4191.25" y="3960.99"
textLength="-230.69" font-size="-209.974" lengthAdjust="spacingAndGlyphs"
text-anchor="middle" opacity="0">R2</text>
</g>
<path d="M4262 3856
L4187 3803
" />
<path d="M4262 3766
L4105 3766
L4105 3826
L4112 3841
L4120 3848
L4135 3856
L4157 3856
L4172 3848
L4180 3841
L4187 3826
L4187 3766
" />
<path d="M4120 3915
L4112 3923
L4105 3938
L4105 3975
L4112 3990
L4120 3998
L4135 4005
L4150 4005
L4172 3998
L4262 3908
L4262 4005
" />
</g>
<g style="fill:#000084; fill-opacity:0.0; 
stroke:#000084; stroke-width:59.0551; stroke-opacity:1; 
stroke-linecap:round; stroke-linejoin:round;">
<g transform="rotate(-90 5057.24 3111.21)">
<text x="5057.24" y="3308.06"
textLength="-1412.86" font-size="-524.934" lengthAdjust="spacingAndGlyphs"
text-anchor="middle" opacity="0">536k</text>
</g>
<path d="M4841 2670
L4841 2483
L5029 2464
L5010 2483
L4991 2520
L4991 2614
L5010 2651
L5029 2670
L5066 2689
L5160 2689
L5197 2670
L5216 2651
L5235 2614
L5235 2520
L5216 2483
L5197 2464
" />
<path d="M4841 2820
L4841 3064
L4991 2933
L4991 2989
L5010 3026
L5029 3045
L5066 3064
L5160 3064
L5197 3045
L5216 3026
L5235 2989
L5235 2876
L5216 2839
L5197 2820
" />
<path d="M4841 3401
L4841 3326
L4860 3289
L4879 3270
L4935 3233
L5010 3214
L5160 3214
L5197 3233
L5216 3251
L5235 3289
L5235 3364
L5216 3401
L5197 3420
L5160 3439
L5066 3439
L5029 3420
L5010 3401
L4991 3364
L4991 3289
L5010 3251
L5029 3233
L5066 3214
" />
<path d="M5235 3608
L4841 3608
" />
<path d="M5085 3645
L5235 3758
" />
<path d="M4972 3758
L5122 3608
" />
</g>
<g style="fill:#000084; fill-opacity:0.0; 
stroke:#000084; stroke-width:23.622; stroke-opacity:1; 
stroke-linecap:round; stroke-linejoin:round;">
<text x="4494.25" y="3197.83"
textLength="-230.69" font-size="-209.974" lengthAdjust="spacingAndGlyphs"
text-anchor="middle" opacity="0">R1</text>
<path d="M4520 3190
L4572 3115
" />
<path d="M4610 3190
L4610 3032
L4550 3032
L4535 3040
L4527 3047
L4520 3062
L4520 3085
L4527 3100
L4535 3107
L4550 3115
L4610 3115
" />
<path d="M4370 3190
L4460 3190
" />
<path d="M4415 3190
L4415 3032
L4430 3055
L4445 3070
L4460 3077
" />
</g>
<g style="fill:#000084; fill-opacity:0.0; 
stroke:#000084; stroke-width:59.0551; stroke-opacity:1; 
stroke-linecap:round; stroke-linejoin:round;">
<text x="4341.25" y="5167.49"
textLength="-1094.15" font-size="-524.934" lengthAdjust="spacingAndGlyphs"
text-anchor="middle" opacity="0">1µF</text>
<path d="M4603 5148
L4828 5148
" />
<path d="M4716 5148
L4716 4755
L4753 4811
L4791 4848
L4828 4867
" />
<path d="M4434 4886
L4434 5279
" />
<path d="M4247 5092
L4228 5129
L4191 5148
" />
<path d="M4434 5092
L4416 5129
L4378 5148
L4303 5148
L4266 5129
L4247 5092
L4247 4886
" />
<path d="M3891 4942
L4022 4942
" />
<path d="M4022 5148
L4022 4755
L3835 4755
" />
</g>
<g style="fill:#000084; fill-opacity:0.0; 
stroke:#000084; stroke-width:15.748; stroke-opacity:1; 
stroke-linecap:round; stroke-linejoin:round;">
<text x="4765.27" y="4506.46"
textLength="-115.392" font-size="-131.233" lengthAdjust="spacingAndGlyphs"
text-anchor="middle" opacity="0">C4</text>
<path d="M4781 4492
L4786 4497
L4800 4501
L4809 4501
L4823 4497
L4833 4487
L4837 4478
L4842 4459
L4842 4445
L4837 4426
L4833 4417
L4823 4408
L4809 4403
L4800 4403
L4786 4408
L4781 4412
" />
<path d="M4697 4436
L4697 4501
" />
<path d="M4720 4398
L4744 4468
L4683 4468
" />
</g>
<g style="fill:#000084; fill-opacity:0.0; 
stroke:#000084; stroke-width:59.0551; stroke-opacity:1; 
stroke-linecap:round; stroke-linejoin:round;">
<text x="4599.27" y="2974.49"
textLength="-1666.82" font-size="-524.934" lengthAdjust="spacingAndGlyphs"
text-anchor="middle" opacity="0">2,2µF</text>
<path d="M5367 2599
L5349 2580
L5311 2562
L5217 2562
L5180 2580
L5161 2599
L5142 2637
L5142 2674
L5161 2730
L5386 2955
L5142 2955
" />
<path d="M4955 2936
L4955 2955
L4974 2993
L4992 3011
" />
<path d="M4805 2599
L4786 2580
L4749 2562
L4655 2562
L4618 2580
L4599 2599
L4580 2637
L4580 2674
L4599 2730
L4824 2955
L4580 2955
" />
<path d="M4411 2693
L4411 3086
" />
<path d="M4224 2899
L4205 2936
L4168 2955
" />
<path d="M4411 2899
L4393 2936
L4355 2955
L4280 2955
L4243 2936
L4224 2899
L4224 2693
" />
<path d="M3868 2749
L3999 2749
" />
<path d="M3999 2955
L3999 2562
L3811 2562
" />
</g>
<g style="fill:#000084; fill-opacity:0.0; 
stroke:#000084; stroke-width:15.748; stroke-opacity:1; 
stroke-linecap:round; stroke-linejoin:round;">
<text x="4599.27" y="2145.75"
textLength="-115.392" font-size="-131.233" lengthAdjust="spacingAndGlyphs"
text-anchor="middle" opacity="0">C2</text>
<path d="M4615 2131
L4620 2136
L4634 2141
L4643 2141
L4657 2136
L4667 2127
L4671 2117
L4676 2098
L4676 2084
L4671 2066
L4667 2056
L4657 2047
L4643 2042
L4634 2042
L4620 2047
L4615 2052
" />
<path d="M4578 2052
L4573 2047
L4564 2042
L4540 2042
L4531 2047
L4526 2052
L4521 2061
L4521 2070
L4526 2084
L4582 2141
L4521 2141
" />
<g >
</g>
</g>
<g style="fill:#000000; fill-opacity:0.0; 
stroke:#000000; stroke-width:15.748; stroke-opacity:1; 
stroke-linecap:round; stroke-linejoin:round;">
</g>
<g style="fill:#C2C200; fill-opacity:0.0; 
stroke:#C2C200; stroke-width:15.748; stroke-opacity:1; 
stroke-linecap:round; stroke-linejoin:round;">
</g>
<g style="fill:#C2C200; fill-opacity:0.0; 
stroke:#C2C200; stroke-width:19.685; stroke-opacity:1; 
stroke-linecap:round; stroke-linejoin:round;">
<path d="M984 984
L984 5484
" />
<path d="M7484 5484
L984 5484
" />
<path d="M7484 984
L7484 5484
" />
<path d="M7484 5484
L7484 984
" />
<path d="M984 984
L7484 984
" />
<circle cx="984.252" cy="984.252" r="656.168" /> 
<path d="M0 984
L1968 984
" />
<path d="M984 0
L984 1968
" />
<circle cx="7484.25" cy="5484.25" r="656.168" /> 
<path d="M6500 5484
L8468 5484
" />
<path d="M7484 4500
L7484 6468
" />
<circle cx="7484.25" cy="984.252" r="656.168" /> 
<path d="M6500 984
L8468 984
" />
<path d="M7484 0
L7484 1968
" />
<circle cx="984.252" cy="5484.25" r="656.168" /> 
<path d="M0 5484
L1968 5484
" />
<path d="M984 4500
L984 6468
" />
<g >
</g>
<g >
</g>
<g >
</g>
<g >
</g>
<g >
</g>
<g >
</g>
<g >
</g>
<g >
</g>
<g >
</g>
<g >
</g>
<g >
</g>
<g >
</g>
<g >
</g>
<g >
</g>
<g >
</g>
<g >
</g>
<g >
</g>
<g >
</g>
<g >
</g>
<g >
</g>
<g >
</g>
<g >
</g>
</g> 
</svg>
