<?xml version="1.0" standalone="no"?>
 <!DOCTYPE svg PUBLIC "-//W3C//DTD SVG 1.1//EN" 
 "http://www.w3.org/Graphics/SVG/1.1/DTD/svg11.dtd"> 
<svg xmlns="http://www.w3.org/2000/svg" version="1.1" 
    width="2.73812cm" height="1.64084cm" viewBox="0 0 10780 6460 ">
<title>SVG Picture created as Masterproef ultrasonic transmitter-B_SilkS.svg date 2021/09/03 16:05:26 </title>
  <desc>Picture generated by PCBNEW </desc>
<g style="fill:#000000; fill-opacity:1;stroke:#000000; stroke-opacity:1;
stroke-linecap:round; stroke-linejoin:round; "
 transform="translate(0 0) scale(1 1)">
</g>
<g style="fill:#000000; fill-opacity:0.0; 
stroke:#000000; stroke-width:-0.000393701; stroke-opacity:1; 
stroke-linecap:round; stroke-linejoin:round;">
</g>
<g style="fill:#FFFF00; fill-opacity:0.0; 
stroke:#FFFF00; stroke-width:-0.000393701; stroke-opacity:1; 
stroke-linecap:round; stroke-linejoin:round;">
</g>
<g style="fill:#FFFF00; fill-opacity:0.0; 
stroke:#FFFF00; stroke-width:47.2441; stroke-opacity:1; 
stroke-linecap:round; stroke-linejoin:round;">
<path d="M5427 4565
L5427 4768
" />
<path d="M4868 4565
L4868 4768
" />
</g>
<g style="fill:#FFFF00; fill-opacity:0.0; 
stroke:#FFFF00; stroke-width:78.7402; stroke-opacity:1; 
stroke-linecap:round; stroke-linejoin:round;">
<circle cx="4702.35" cy="3678.9" r="39.3701" /> 
<path d="M4702 3501
L4879 3678
" />
<path d="M4702 3009
L4702 3501
" />
<path d="M5214 3009
L4702 3009
" />
<path d="M5214 3678
L5214 3009
" />
<path d="M4879 3678
L5214 3678
" />
<path d="M6935 3600
L5360 3600
" />
<path d="M5360 2025
L6935 2025
" />
</g>
<g style="fill:#FFFF00; fill-opacity:0.0; 
stroke:#FFFF00; stroke-width:47.2441; stroke-opacity:1; 
stroke-linecap:round; stroke-linejoin:round;">
<path d="M4255 4083
L4127 4083
" />
<path d="M4255 3681
L4127 3681
" />
<path d="M4695 3047
L4695 3175
" />
<path d="M4293 3047
L4293 3175
" />
</g>
<g style="fill:#FFFF00; fill-opacity:0.0; 
stroke:#FFFF00; stroke-width:59.0551; stroke-opacity:1; 
stroke-linecap:round; stroke-linejoin:round;">
<text x="5897.25" y="5261.1"
textLength="-737.945" font-size="-524.934" lengthAdjust="spacingAndGlyphs"
text-anchor="middle" opacity="0">C3</text>
<path d="M5962 5204
L5981 5223
L6037 5242
L6075 5242
L6131 5223
L6169 5186
L6187 5148
L6206 5073
L6206 5017
L6187 4942
L6169 4904
L6131 4867
L6075 4848
L6037 4848
L5981 4867
L5962 4886
" />
<path d="M5831 4848
L5587 4848
L5719 4998
L5662 4998
L5625 5017
L5606 5036
L5587 5073
L5587 5167
L5606 5204
L5625 5223
L5662 5242
L5775 5242
L5812 5223
L5831 5204
" />
<text x="3677.25" y="2022.1"
textLength="-673.135" font-size="-524.934" lengthAdjust="spacingAndGlyphs"
text-anchor="middle" opacity="0">X1</text>
<path d="M3995 1609
L3733 2003
" />
<path d="M3733 1609
L3995 2003
" />
<path d="M3377 2003
L3602 2003
" />
<path d="M3489 2003
L3489 1609
L3527 1665
L3564 1703
L3602 1722
" />
<text x="3748.25" y="4543.1"
textLength="-691.882" font-size="-524.934" lengthAdjust="spacingAndGlyphs"
text-anchor="middle" opacity="0">C1</text>
<path d="M3813 4486
L3832 4505
L3888 4524
L3926 4524
L3982 4505
L4020 4468
L4038 4430
L4057 4355
L4057 4299
L4038 4224
L4020 4186
L3982 4149
L3926 4130
L3888 4130
L3832 4149
L3813 4168
" />
<path d="M3438 4524
L3663 4524
" />
<path d="M3551 4524
L3551 4130
L3588 4186
L3626 4224
L3663 4243
" />
</g>
<g style="fill:#FFFF00; fill-opacity:0.0; 
stroke:#FFFF00; stroke-width:100; stroke-opacity:1; 
stroke-linecap:round; stroke-linejoin:round;">
<text x="4958.25" y="3594.25"
textLength="-1137.51" font-size="-666.667" lengthAdjust="spacingAndGlyphs"
text-anchor="middle" opacity="0">IC1</text>
<path d="M5446 3570
L5446 3070
" />
<path d="M4922 3522
L4946 3546
L5017 3570
L5065 3570
L5136 3546
L5184 3499
L5208 3451
L5232 3356
L5232 3284
L5208 3189
L5184 3141
L5136 3094
L5065 3070
L5017 3070
L4946 3094
L4922 3118
" />
<path d="M4446 3570
L4732 3570
" />
<path d="M4589 3570
L4589 3070
L4636 3141
L4684 3189
L4732 3213
" />
<text x="6844.25" y="4286.25"
textLength="-750.952" font-size="-666.667" lengthAdjust="spacingAndGlyphs"
text-anchor="middle" opacity="0">L1</text>
<path d="M6927 4262
L7165 4262
L7165 3762
" />
<path d="M6499 4262
L6784 4262
" />
<path d="M6641 4262
L6641 3762
L6689 3833
L6737 3881
L6784 3905
" />
</g>
<g style="fill:#FFFF00; fill-opacity:0.0; 
stroke:#FFFF00; stroke-width:59.0551; stroke-opacity:1; 
stroke-linecap:round; stroke-linejoin:round;">
<text x="3799.25" y="3617.1"
textLength="-638.654" font-size="-524.934" lengthAdjust="spacingAndGlyphs"
text-anchor="middle" opacity="0">R2</text>
<path d="M3864 3598
L3996 3410
" />
<path d="M4089 3598
L4089 3204
L3939 3204
L3902 3223
L3883 3242
L3864 3279
L3864 3335
L3883 3373
L3902 3392
L3939 3410
L4089 3410
" />
<path d="M3714 3242
L3696 3223
L3658 3204
L3564 3204
L3527 3223
L3508 3242
L3489 3279
L3489 3317
L3508 3373
L3733 3598
L3489 3598
" />
<g transform="rotate(-90 4053.25 2829.25)">
<text x="4053.25" y="3026.1"
textLength="-691.882" font-size="-524.934" lengthAdjust="spacingAndGlyphs"
text-anchor="middle" opacity="0">R1</text>
</g>
<path d="M4231 2763
L4043 2632
" />
<path d="M4231 2538
L3837 2538
L3837 2688
L3856 2726
L3875 2744
L3912 2763
L3968 2763
L4006 2744
L4025 2726
L4043 2688
L4043 2538
" />
<path d="M4231 3138
L4231 2913
" />
<path d="M4231 3026
L3837 3026
L3893 2988
L3931 2951
L3950 2913
" />
<text x="3780.25" y="5069.1"
textLength="-691.882" font-size="-524.934" lengthAdjust="spacingAndGlyphs"
text-anchor="middle" opacity="0">C4</text>
<path d="M3845 5012
L3864 5031
L3920 5050
L3958 5050
L4014 5031
L4052 4994
L4070 4956
L4089 4881
L4089 4825
L4070 4750
L4052 4712
L4014 4675
L3958 4656
L3920 4656
L3864 4675
L3845 4694
" />
<path d="M3508 4787
L3508 5050
" />
<path d="M3602 4637
L3695 4919
L3452 4919
" />
<text x="4478.27" y="2151.1"
textLength="-691.882" font-size="-524.934" lengthAdjust="spacingAndGlyphs"
text-anchor="middle" opacity="0">C2</text>
<path d="M4543 2094
L4562 2113
L4618 2132
L4656 2132
L4712 2113
L4750 2076
L4768 2038
L4787 1963
L4787 1907
L4768 1832
L4750 1794
L4712 1757
L4656 1738
L4618 1738
L4562 1757
L4543 1776
" />
<path d="M4393 1776
L4375 1757
L4337 1738
L4243 1738
L4206 1757
L4187 1776
L4168 1813
L4168 1851
L4187 1907
L4412 2132
L4168 2132
" />
<g >
</g>
</g>
<g style="fill:#000000; fill-opacity:0.0; 
stroke:#000000; stroke-width:59.0551; stroke-opacity:1; 
stroke-linecap:round; stroke-linejoin:round;">
</g>
<g style="fill:#C2C200; fill-opacity:0.0; 
stroke:#C2C200; stroke-width:59.0551; stroke-opacity:1; 
stroke-linecap:round; stroke-linejoin:round;">
</g>
<g style="fill:#C2C200; fill-opacity:0.0; 
stroke:#C2C200; stroke-width:19.685; stroke-opacity:1; 
stroke-linecap:round; stroke-linejoin:round;">
<path d="M984 984
L984 5484
" />
<path d="M7484 5484
L984 5484
" />
<path d="M7484 984
L7484 5484
" />
<path d="M7484 5484
L7484 984
" />
<path d="M984 984
L7484 984
" />
<circle cx="984.252" cy="984.252" r="656.168" /> 
<path d="M0 984
L1968 984
" />
<path d="M984 0
L984 1968
" />
<circle cx="7484.25" cy="5484.25" r="656.168" /> 
<path d="M6500 5484
L8468 5484
" />
<path d="M7484 4500
L7484 6468
" />
<circle cx="7484.25" cy="984.252" r="656.168" /> 
<path d="M6500 984
L8468 984
" />
<path d="M7484 0
L7484 1968
" />
<circle cx="984.252" cy="5484.25" r="656.168" /> 
<path d="M0 5484
L1968 5484
" />
<path d="M984 4500
L984 6468
" />
<g >
</g>
<g >
</g>
<g >
</g>
<g >
</g>
<g >
</g>
<g >
</g>
<g >
</g>
<g >
</g>
<g >
</g>
<g >
</g>
<g >
</g>
<g >
</g>
<g >
</g>
<g >
</g>
<g >
</g>
<g >
</g>
<g >
</g>
<g >
</g>
<g >
</g>
<g >
</g>
<g >
</g>
<g >
</g>
</g> 
</svg>
