<?xml version="1.0" standalone="no"?>
 <!DOCTYPE svg PUBLIC "-//W3C//DTD SVG 1.1//EN" 
 "http://www.w3.org/Graphics/SVG/1.1/DTD/svg11.dtd"> 
<svg xmlns="http://www.w3.org/2000/svg" version="1.1" 
    width="2.73812cm" height="1.64084cm" viewBox="0 0 10780 6460 ">
<title>SVG Picture created as Masterproef ultrasonic transmitter-Edge_Cuts.svg date 2021/09/03 16:05:26 </title>
  <desc>Picture generated by PCBNEW </desc>
<g style="fill:#000000; fill-opacity:1;stroke:#000000; stroke-opacity:1;
stroke-linecap:round; stroke-linejoin:round; "
 transform="translate(0 0) scale(1 1)">
</g>
<g style="fill:#000000; fill-opacity:0.0; 
stroke:#000000; stroke-width:-0.000393701; stroke-opacity:1; 
stroke-linecap:round; stroke-linejoin:round;">
</g>
<g style="fill:#C2C200; fill-opacity:0.0; 
stroke:#C2C200; stroke-width:-0.000393701; stroke-opacity:1; 
stroke-linecap:round; stroke-linejoin:round;">
</g>
<g style="fill:#C2C200; fill-opacity:0.0; 
stroke:#C2C200; stroke-width:19.685; stroke-opacity:1; 
stroke-linecap:round; stroke-linejoin:round;">
<path d="M984 984
L984 5484
" />
<path d="M7484 5484
L984 5484
" />
<path d="M7484 984
L7484 5484
" />
<path d="M7484 5484
L7484 984
" />
<path d="M984 984
L7484 984
" />
<circle cx="984.252" cy="984.252" r="656.168" /> 
<path d="M0 984
L1968 984
" />
<path d="M984 0
L984 1968
" />
<circle cx="7484.25" cy="5484.25" r="656.168" /> 
<path d="M6500 5484
L8468 5484
" />
<path d="M7484 4500
L7484 6468
" />
<circle cx="7484.25" cy="984.252" r="656.168" /> 
<path d="M6500 984
L8468 984
" />
<path d="M7484 0
L7484 1968
" />
<circle cx="984.252" cy="5484.25" r="656.168" /> 
<path d="M0 5484
L1968 5484
" />
<path d="M984 4500
L984 6468
" />
<g >
</g>
<g >
</g>
<g >
</g>
<g >
</g>
<g >
</g>
<g >
</g>
<g >
</g>
<g >
</g>
<g >
</g>
<g >
</g>
<g >
</g>
<g >
</g>
<g >
</g>
<g >
</g>
<g >
</g>
<g >
</g>
<g >
</g>
<g >
</g>
<g >
</g>
<g >
</g>
<g >
</g>
<g >
</g>
</g> 
</svg>
