<?xml version="1.0" standalone="no"?>
 <!DOCTYPE svg PUBLIC "-//W3C//DTD SVG 1.1//EN" 
 "http://www.w3.org/Graphics/SVG/1.1/DTD/svg11.dtd"> 
<svg xmlns="http://www.w3.org/2000/svg" version="1.1" 
    width="2.73812cm" height="1.64084cm" viewBox="0 0 10780 6460 ">
<title>SVG Picture created as Masterproef ultrasonic transmitter-F_Cu.svg date 2021/09/03 16:05:26 </title>
  <desc>Picture generated by PCBNEW </desc>
<g style="fill:#000000; fill-opacity:1;stroke:#000000; stroke-opacity:1;
stroke-linecap:round; stroke-linejoin:round; "
 transform="translate(0 0) scale(1 1)">
</g>
<g style="fill:#000000; fill-opacity:0.0; 
stroke:#000000; stroke-width:-0.000393701; stroke-opacity:1; 
stroke-linecap:round; stroke-linejoin:round;">
<g >
</g>
<g >
</g>
<g >
</g>
<g style="fill:#848400; fill-opacity:0.0; 
stroke:#848400; stroke-width:-0.000393701; stroke-opacity:1; 
stroke-linecap:round; stroke-linejoin:round;">
</g>
<g style="fill:#848400; fill-opacity:0.0; 
stroke:#848400; stroke-width:334.646; stroke-opacity:1; 
stroke-linecap:round; stroke-linejoin:round;">
<path d="M4422 1439
L4422 1439
" />
<path d="M4816 1439
L4816 1439
" />
</g>
<g style="fill:#848400; fill-opacity:0.0; 
stroke:#848400; stroke-width:0; stroke-opacity:1; 
stroke-linecap:round; stroke-linejoin:round;">
</g>
<g style="fill:#848400; fill-opacity:1.0; 
stroke:#848400; stroke-width:0; stroke-opacity:1; 
stroke-linecap:round; stroke-linejoin:round;">
<path style="fill:#848400; fill-opacity:1.0; 
stroke:#848400; stroke-width:0; stroke-opacity:1; 
stroke-linecap:round; stroke-linejoin:round;fill-rule:evenodd;"
d="M 5042.63,1271.93
5377.28,1271.93
5377.28,1606.57
5042.63,1606.57
Z" /> 
</g>
<g >
</g>
<g style="fill:#848400; fill-opacity:1.0; 
stroke:#848400; stroke-width:0; stroke-opacity:1; 
stroke-linecap:round; stroke-linejoin:round;">
</g>
<g style="fill:#848400; fill-opacity:1.0; 
stroke:#848400; stroke-width:334.646; stroke-opacity:1; 
stroke-linecap:round; stroke-linejoin:round;">
</g>
<g style="fill:#848400; fill-opacity:0.0; 
stroke:#848400; stroke-width:334.646; stroke-opacity:1; 
stroke-linecap:round; stroke-linejoin:round;">
<path d="M5835 4283
L5835 4283
" />
</g>
<g style="fill:#848400; fill-opacity:0.0; 
stroke:#848400; stroke-width:0; stroke-opacity:1; 
stroke-linecap:round; stroke-linejoin:round;">
</g>
<g style="fill:#848400; fill-opacity:1.0; 
stroke:#848400; stroke-width:0; stroke-opacity:1; 
stroke-linecap:round; stroke-linejoin:round;">
<path style="fill:#848400; fill-opacity:1.0; 
stroke:#848400; stroke-width:0; stroke-opacity:1; 
stroke-linecap:round; stroke-linejoin:round;fill-rule:evenodd;"
d="M 5667.93,4056.87
5667.93,3722.23
6002.57,3722.23
6002.57,4056.87
Z" /> 
</g>
<g >
</g>
<g >
</g>
<g >
</g>
<g style="fill:#840000; fill-opacity:1.0; 
stroke:#840000; stroke-width:0; stroke-opacity:1; 
stroke-linecap:round; stroke-linejoin:round;">
<path style="fill:#840000; fill-opacity:1.0; 
stroke:#840000; stroke-width:0; stroke-opacity:1; 
stroke-linecap:round; stroke-linejoin:round;fill-rule:evenodd;"
d="M 3807.67,4832.75
3807.67,3769.76
4358.85,3769.76
4358.85,4832.75
Z" /> 
<path style="fill:#840000; fill-opacity:1.0; 
stroke:#840000; stroke-width:0; stroke-opacity:1; 
stroke-linecap:round; stroke-linejoin:round;fill-rule:evenodd;"
d="M 4870.66,4832.75
4870.66,3769.76
5421.84,3769.76
5421.84,4832.75
Z" /> 
</g>
<g >
</g>
<g >
</g>
<g style="fill:#840000; fill-opacity:1.0; 
stroke:#840000; stroke-width:0; stroke-opacity:1; 
stroke-linecap:round; stroke-linejoin:round;">
<circle cx="4113.25" cy="3437.1" r="60.2362" /> 
</g>
<g style="fill:#840000; fill-opacity:1.0; 
stroke:#840000; stroke-width:39.3701; stroke-opacity:1; 
stroke-linecap:round; stroke-linejoin:round;">
</g>
<g style="fill:#840000; fill-opacity:1.0; 
stroke:#840000; stroke-width:0; stroke-opacity:1; 
stroke-linecap:round; stroke-linejoin:round;">
<circle cx="3916.4" cy="3437.1" r="60.2362" /> 
</g>
<g style="fill:#840000; fill-opacity:1.0; 
stroke:#840000; stroke-width:39.3701; stroke-opacity:1; 
stroke-linecap:round; stroke-linejoin:round;">
</g>
<g style="fill:#840000; fill-opacity:1.0; 
stroke:#840000; stroke-width:0; stroke-opacity:1; 
stroke-linecap:round; stroke-linejoin:round;">
<circle cx="3719.55" cy="3437.1" r="60.2362" /> 
</g>
<g style="fill:#840000; fill-opacity:1.0; 
stroke:#840000; stroke-width:39.3701; stroke-opacity:1; 
stroke-linecap:round; stroke-linejoin:round;">
</g>
<g style="fill:#840000; fill-opacity:1.0; 
stroke:#840000; stroke-width:0; stroke-opacity:1; 
stroke-linecap:round; stroke-linejoin:round;">
<circle cx="4113.25" cy="3240.25" r="60.2362" /> 
</g>
<g style="fill:#840000; fill-opacity:1.0; 
stroke:#840000; stroke-width:39.3701; stroke-opacity:1; 
stroke-linecap:round; stroke-linejoin:round;">
</g>
<g style="fill:#840000; fill-opacity:1.0; 
stroke:#840000; stroke-width:0; stroke-opacity:1; 
stroke-linecap:round; stroke-linejoin:round;">
<circle cx="3916.4" cy="3240.25" r="60.2362" /> 
</g>
<g style="fill:#840000; fill-opacity:1.0; 
stroke:#840000; stroke-width:39.3701; stroke-opacity:1; 
stroke-linecap:round; stroke-linejoin:round;">
</g>
<g style="fill:#840000; fill-opacity:1.0; 
stroke:#840000; stroke-width:0; stroke-opacity:1; 
stroke-linecap:round; stroke-linejoin:round;">
<circle cx="3719.55" cy="3240.25" r="60.2362" /> 
</g>
<g style="fill:#840000; fill-opacity:1.0; 
stroke:#840000; stroke-width:39.3701; stroke-opacity:1; 
stroke-linecap:round; stroke-linejoin:round;">
</g>
<g style="fill:#840000; fill-opacity:1.0; 
stroke:#840000; stroke-width:0; stroke-opacity:1; 
stroke-linecap:round; stroke-linejoin:round;">
<circle cx="4113.25" cy="3043.4" r="60.2362" /> 
</g>
<g style="fill:#840000; fill-opacity:1.0; 
stroke:#840000; stroke-width:39.3701; stroke-opacity:1; 
stroke-linecap:round; stroke-linejoin:round;">
</g>
<g style="fill:#840000; fill-opacity:1.0; 
stroke:#840000; stroke-width:0; stroke-opacity:1; 
stroke-linecap:round; stroke-linejoin:round;">
<circle cx="3916.4" cy="3043.4" r="60.2362" /> 
</g>
<g style="fill:#840000; fill-opacity:1.0; 
stroke:#840000; stroke-width:39.3701; stroke-opacity:1; 
stroke-linecap:round; stroke-linejoin:round;">
</g>
<g style="fill:#840000; fill-opacity:1.0; 
stroke:#840000; stroke-width:0; stroke-opacity:1; 
stroke-linecap:round; stroke-linejoin:round;">
<circle cx="3719.55" cy="3043.4" r="60.2362" /> 
</g>
<g style="fill:#840000; fill-opacity:1.0; 
stroke:#840000; stroke-width:39.3701; stroke-opacity:1; 
stroke-linecap:round; stroke-linejoin:round;">
</g>
<g style="fill:#840000; fill-opacity:1.0; 
stroke:#840000; stroke-width:0; stroke-opacity:1; 
stroke-linecap:round; stroke-linejoin:round;">
<circle cx="4113.25" cy="2846.55" r="60.2362" /> 
</g>
<g style="fill:#840000; fill-opacity:1.0; 
stroke:#840000; stroke-width:39.3701; stroke-opacity:1; 
stroke-linecap:round; stroke-linejoin:round;">
</g>
<g style="fill:#840000; fill-opacity:1.0; 
stroke:#840000; stroke-width:0; stroke-opacity:1; 
stroke-linecap:round; stroke-linejoin:round;">
<circle cx="3916.4" cy="2846.55" r="60.2362" /> 
</g>
<g style="fill:#840000; fill-opacity:1.0; 
stroke:#840000; stroke-width:39.3701; stroke-opacity:1; 
stroke-linecap:round; stroke-linejoin:round;">
</g>
<g style="fill:#840000; fill-opacity:1.0; 
stroke:#840000; stroke-width:0; stroke-opacity:1; 
stroke-linecap:round; stroke-linejoin:round;">
<circle cx="3719.55" cy="2846.55" r="60.2362" /> 
</g>
<g style="fill:#840000; fill-opacity:1.0; 
stroke:#840000; stroke-width:39.3701; stroke-opacity:1; 
stroke-linecap:round; stroke-linejoin:round;">
</g>
<g >
</g>
<g style="fill:#840000; fill-opacity:1.0; 
stroke:#840000; stroke-width:39.3701; stroke-opacity:1; 
stroke-linecap:round; stroke-linejoin:round;">
</g>
<g style="fill:#840000; fill-opacity:1.0; 
stroke:#840000; stroke-width:0; stroke-opacity:1; 
stroke-linecap:round; stroke-linejoin:round;">
<path style="fill:#840000; fill-opacity:1.0; 
stroke:#840000; stroke-width:0; stroke-opacity:1; 
stroke-linecap:round; stroke-linejoin:round;fill-rule:evenodd;"
d="M 2548.27,3926.57
2800.24,3926.57
2800.24,4091.93
2548.27,4091.93
Z" /> 
<path style="fill:#840000; fill-opacity:1.0; 
stroke:#840000; stroke-width:0; stroke-opacity:1; 
stroke-linecap:round; stroke-linejoin:round;fill-rule:evenodd;"
d="M 3138.82,3926.57
3390.79,3926.57
3390.79,4091.93
3138.82,4091.93
Z" /> 
</g>
<g >
</g>
<g style="fill:#840000; fill-opacity:1.0; 
stroke:#840000; stroke-width:0; stroke-opacity:1; 
stroke-linecap:round; stroke-linejoin:round;">
<path style="fill:#840000; fill-opacity:1.0; 
stroke:#840000; stroke-width:0; stroke-opacity:1; 
stroke-linecap:round; stroke-linejoin:round;fill-rule:evenodd;"
d="M 2489.89,1770.66
2498.25,1771.9
2506.45,1773.95
2514.41,1776.8
2522.05,1780.41
2529.3,1784.76
2536.09,1789.79
2542.35,1795.47
2548.03,1801.73
2553.06,1808.52
2557.41,1815.77
2561.02,1823.41
2563.87,1831.37
2565.92,1839.56
2567.16,1847.92
2567.57,1856.37
2567.57,2058.14
2567.16,2066.58
2565.92,2074.94
2563.87,2083.14
2561.02,2091.1
2557.41,2098.74
2553.06,2105.98
2548.03,2112.77
2542.35,2119.04
2536.09,2124.71
2529.3,2129.75
2522.05,2134.09
2514.41,2137.7
2506.45,2140.55
2498.25,2142.61
2489.89,2143.85
2481.45,2144.26
2309.21,2144.26
2300.77,2143.85
2292.41,2142.61
2284.21,2140.55
2276.25,2137.7
2268.61,2134.09
2261.36,2129.75
2254.57,2124.71
2248.31,2119.04
2242.64,2112.77
2237.6,2105.98
2233.26,2098.74
2229.64,2091.1
2226.79,2083.14
2224.74,2074.94
2223.5,2066.58
2223.09,2058.14
2223.09,1856.37
2223.5,1847.92
2224.74,1839.56
2226.79,1831.37
2229.64,1823.41
2233.26,1815.77
2237.6,1808.52
2242.64,1801.73
2248.31,1795.47
2254.57,1789.79
2261.36,1784.76
2268.61,1780.41
2276.25,1776.8
2284.21,1773.95
2292.41,1771.9
2300.77,1770.66
2309.21,1770.24
2481.45,1770.24
Z" /> 
<path style="fill:#840000; fill-opacity:1.0; 
stroke:#840000; stroke-width:0; stroke-opacity:1; 
stroke-linecap:round; stroke-linejoin:round;fill-rule:evenodd;"
d="M 1869.82,1770.66
1878.18,1771.9
1886.37,1773.95
1894.33,1776.8
1901.97,1780.41
1909.22,1784.76
1916.01,1789.79
1922.27,1795.47
1927.95,1801.73
1932.98,1808.52
1937.33,1815.77
1940.94,1823.41
1943.79,1831.37
1945.84,1839.56
1947.08,1847.92
1947.5,1856.37
1947.5,2058.14
1947.08,2066.58
1945.84,2074.94
1943.79,2083.14
1940.94,2091.1
1937.33,2098.74
1932.98,2105.98
1927.95,2112.77
1922.27,2119.04
1916.01,2124.71
1909.22,2129.75
1901.97,2134.09
1894.33,2137.7
1886.37,2140.55
1878.18,2142.61
1869.82,2143.85
1861.37,2144.26
1689.13,2144.26
1680.69,2143.85
1672.33,2142.61
1664.13,2140.55
1656.17,2137.7
1648.53,2134.09
1641.28,2129.75
1634.49,2124.71
1628.23,2119.04
1622.56,2112.77
1617.52,2105.98
1613.18,2098.74
1609.56,2091.1
1606.72,2083.14
1604.66,2074.94
1603.42,2066.58
1603.01,2058.14
1603.01,1856.37
1603.42,1847.92
1604.66,1839.56
1606.72,1831.37
1609.56,1823.41
1613.18,1815.77
1617.52,1808.52
1622.56,1801.73
1628.23,1795.47
1634.49,1789.79
1641.28,1784.76
1648.53,1780.41
1656.17,1776.8
1664.13,1773.95
1672.33,1771.9
1680.69,1770.66
1689.13,1770.24
1861.37,1770.24
Z" /> 
</g>
<g >
</g>
<g style="fill:#840000; fill-opacity:1.0; 
stroke:#840000; stroke-width:0; stroke-opacity:1; 
stroke-linecap:round; stroke-linejoin:round;">
<path style="fill:#840000; fill-opacity:1.0; 
stroke:#840000; stroke-width:0; stroke-opacity:1; 
stroke-linecap:round; stroke-linejoin:round;fill-rule:evenodd;"
d="M 3087.58,1809.5
3095.94,1810.74
3104.14,1812.79
3112.1,1815.64
3119.74,1819.26
3126.98,1823.6
3133.77,1828.64
3140.04,1834.31
3145.71,1840.57
3150.75,1847.36
3155.09,1854.61
3158.7,1862.25
3161.55,1870.21
3163.61,1878.41
3164.85,1886.77
3165.26,1895.21
3165.26,2067.45
3164.85,2075.89
3163.61,2084.25
3161.55,2092.45
3158.7,2100.41
3155.09,2108.05
3150.75,2115.3
3145.71,2122.09
3140.04,2128.35
3133.77,2134.03
3126.98,2139.06
3119.74,2143.41
3112.1,2147.02
3104.14,2149.87
3095.94,2151.92
3087.58,2153.16
3079.14,2153.57
2877.37,2153.57
2868.92,2153.16
2860.56,2151.92
2852.37,2149.87
2844.41,2147.02
2836.77,2143.41
2829.52,2139.06
2822.73,2134.03
2816.47,2128.35
2810.79,2122.09
2805.76,2115.3
2801.41,2108.05
2797.8,2100.41
2794.95,2092.45
2792.9,2084.25
2791.66,2075.89
2791.24,2067.45
2791.24,1895.21
2791.66,1886.77
2792.9,1878.41
2794.95,1870.21
2797.8,1862.25
2801.41,1854.61
2805.76,1847.36
2810.79,1840.57
2816.47,1834.31
2822.73,1828.64
2829.52,1823.6
2836.77,1819.26
2844.41,1815.64
2852.37,1812.79
2860.56,1810.74
2868.92,1809.5
2877.37,1809.09
3079.14,1809.09
Z" /> 
<path style="fill:#840000; fill-opacity:1.0; 
stroke:#840000; stroke-width:0; stroke-opacity:1; 
stroke-linecap:round; stroke-linejoin:round;fill-rule:evenodd;"
d="M 3087.58,1189.42
3095.94,1190.66
3104.14,1192.72
3112.1,1195.56
3119.74,1199.18
3126.98,1203.52
3133.77,1208.56
3140.04,1214.23
3145.71,1220.49
3150.75,1227.28
3155.09,1234.53
3158.7,1242.17
3161.55,1250.13
3163.61,1258.33
3164.85,1266.69
3165.26,1275.13
3165.26,1447.37
3164.85,1455.82
3163.61,1464.18
3161.55,1472.37
3158.7,1480.33
3155.09,1487.97
3150.75,1495.22
3145.71,1502.01
3140.04,1508.27
3133.77,1513.95
3126.98,1518.98
3119.74,1523.33
3112.1,1526.94
3104.14,1529.79
3095.94,1531.84
3087.58,1533.08
3079.14,1533.5
2877.37,1533.5
2868.92,1533.08
2860.56,1531.84
2852.37,1529.79
2844.41,1526.94
2836.77,1523.33
2829.52,1518.98
2822.73,1513.95
2816.47,1508.27
2810.79,1502.01
2805.76,1495.22
2801.41,1487.97
2797.8,1480.33
2794.95,1472.37
2792.9,1464.18
2791.66,1455.82
2791.24,1447.37
2791.24,1275.13
2791.66,1266.69
2792.9,1258.33
2794.95,1250.13
2797.8,1242.17
2801.41,1234.53
2805.76,1227.28
2810.79,1220.49
2816.47,1214.23
2822.73,1208.56
2829.52,1203.52
2836.77,1199.18
2844.41,1195.56
2852.37,1192.72
2860.56,1190.66
2868.92,1189.42
2877.37,1189.01
3079.14,1189.01
Z" /> 
</g>
<g >
</g>
<g >
</g>
<g >
</g>
<g style="fill:#840000; fill-opacity:1.0; 
stroke:#840000; stroke-width:0; stroke-opacity:1; 
stroke-linecap:round; stroke-linejoin:round;">
<path style="fill:#840000; fill-opacity:1.0; 
stroke:#840000; stroke-width:0; stroke-opacity:1; 
stroke-linecap:round; stroke-linejoin:round;fill-rule:evenodd;"
d="M 4707.48,2699.89
4711.3,2700.46
4715.05,2701.4
4718.69,2702.7
4722.18,2704.35
4725.49,2706.34
4728.6,2708.64
4731.46,2711.23
4734.06,2714.09
4736.36,2717.2
4738.34,2720.51
4740,2724
4741.3,2727.64
4742.24,2731.39
4742.8,2735.21
4742.99,2739.07
4742.99,2841.43
4742.8,2845.29
4742.24,2849.11
4741.3,2852.86
4740,2856.5
4738.34,2859.99
4736.36,2863.31
4734.06,2866.41
4731.46,2869.27
4728.6,2871.87
4725.49,2874.17
4722.18,2876.15
4718.69,2877.81
4715.05,2879.11
4711.3,2880.05
4707.48,2880.61
4703.62,2880.8
4624.88,2880.8
4621.02,2880.61
4617.2,2880.05
4613.45,2879.11
4609.82,2877.81
4606.32,2876.15
4603.01,2874.17
4599.91,2871.87
4597.04,2869.27
4594.45,2866.41
4592.15,2863.31
4590.16,2859.99
4588.51,2856.5
4587.21,2852.86
4586.27,2849.11
4585.7,2845.29
4585.51,2841.43
4585.51,2739.07
4585.7,2735.21
4586.27,2731.39
4587.21,2727.64
4588.51,2724
4590.16,2720.51
4592.15,2717.2
4594.45,2714.09
4597.04,2711.23
4599.91,2708.64
4603.01,2706.34
4606.32,2704.35
4609.82,2702.7
4613.45,2701.4
4617.2,2700.46
4621.02,2699.89
4624.88,2699.7
4703.62,2699.7
Z" /> 
<path style="fill:#840000; fill-opacity:1.0; 
stroke:#840000; stroke-width:0; stroke-opacity:1; 
stroke-linecap:round; stroke-linejoin:round;fill-rule:evenodd;"
d="M 4707.48,2951.86
4711.3,2952.43
4715.05,2953.36
4718.69,2954.67
4722.18,2956.32
4725.49,2958.3
4728.6,2960.61
4731.46,2963.2
4734.06,2966.06
4736.36,2969.17
4738.34,2972.48
4740,2975.97
4741.3,2979.61
4742.24,2983.36
4742.8,2987.18
4742.99,2991.04
4742.99,3093.4
4742.8,3097.26
4742.24,3101.08
4741.3,3104.83
4740,3108.47
4738.34,3111.96
4736.36,3115.27
4734.06,3118.38
4731.46,3121.24
4728.6,3123.84
4725.49,3126.14
4722.18,3128.12
4718.69,3129.77
4715.05,3131.08
4711.3,3132.02
4707.48,3132.58
4703.62,3132.77
4624.88,3132.77
4621.02,3132.58
4617.2,3132.02
4613.45,3131.08
4609.82,3129.77
4606.32,3128.12
4603.01,3126.14
4599.91,3123.84
4597.04,3121.24
4594.45,3118.38
4592.15,3115.27
4590.16,3111.96
4588.51,3108.47
4587.21,3104.83
4586.27,3101.08
4585.7,3097.26
4585.51,3093.4
4585.51,2991.04
4585.7,2987.18
4586.27,2983.36
4587.21,2979.61
4588.51,2975.97
4590.16,2972.48
4592.15,2969.17
4594.45,2966.06
4597.04,2963.2
4599.91,2960.61
4603.01,2958.3
4606.32,2956.32
4609.82,2954.67
4613.45,2953.36
4617.2,2952.43
4621.02,2951.86
4624.88,2951.67
4703.62,2951.67
Z" /> 
</g>
<g >
</g>
<g style="fill:#840000; fill-opacity:1.0; 
stroke:#840000; stroke-width:0; stroke-opacity:1; 
stroke-linecap:round; stroke-linejoin:round;">
<path style="fill:#840000; fill-opacity:1.0; 
stroke:#840000; stroke-width:0; stroke-opacity:1; 
stroke-linecap:round; stroke-linejoin:round;fill-rule:evenodd;"
d="M 2944.62,2361.12
2953.94,2362.51
2963.07,2364.79
2971.94,2367.97
2980.45,2371.99
2988.53,2376.83
2996.1,2382.44
3003.07,2388.77
3009.4,2395.75
3015.01,2403.31
3019.85,2411.39
3023.88,2419.9
3027.05,2428.77
3029.34,2437.9
3030.72,2447.22
3031.18,2456.63
3031.18,2815.88
3030.72,2825.28
3029.34,2834.6
3027.05,2843.74
3023.88,2852.6
3019.85,2861.12
3015.01,2869.19
3009.4,2876.76
3003.07,2883.74
2996.1,2890.06
2988.53,2895.67
2980.45,2900.51
2971.94,2904.54
2963.07,2907.71
2953.94,2910
2944.62,2911.38
2935.22,2911.84
2743.29,2911.84
2733.88,2911.38
2724.57,2910
2715.43,2907.71
2706.56,2904.54
2698.05,2900.51
2689.97,2895.67
2682.41,2890.06
2675.43,2883.74
2669.11,2876.76
2663.5,2869.19
2658.65,2861.12
2654.63,2852.6
2651.46,2843.74
2649.17,2834.6
2647.79,2825.28
2647.32,2815.88
2647.32,2456.63
2647.79,2447.22
2649.17,2437.9
2651.46,2428.77
2654.63,2419.9
2658.65,2411.39
2663.5,2403.31
2669.11,2395.75
2675.43,2388.77
2682.41,2382.44
2689.97,2376.83
2698.05,2371.99
2706.56,2367.97
2715.43,2364.79
2724.57,2362.51
2733.88,2361.12
2743.29,2360.66
2935.22,2360.66
Z" /> 
<path style="fill:#840000; fill-opacity:1.0; 
stroke:#840000; stroke-width:0; stroke-opacity:1; 
stroke-linecap:round; stroke-linejoin:round;fill-rule:evenodd;"
d="M 2206.43,2361.12
2215.75,2362.51
2224.88,2364.79
2233.75,2367.97
2242.26,2371.99
2250.34,2376.83
2257.91,2382.44
2264.88,2388.77
2271.21,2395.75
2276.82,2403.31
2281.66,2411.39
2285.69,2419.9
2288.86,2428.77
2291.15,2437.9
2292.53,2447.22
2292.99,2456.63
2292.99,2815.88
2292.53,2825.28
2291.15,2834.6
2288.86,2843.74
2285.69,2852.6
2281.66,2861.12
2276.82,2869.19
2271.21,2876.76
2264.88,2883.74
2257.91,2890.06
2250.34,2895.67
2242.26,2900.51
2233.75,2904.54
2224.88,2907.71
2215.75,2910
2206.43,2911.38
2197.03,2911.84
2005.1,2911.84
1995.69,2911.38
1986.38,2910
1977.24,2907.71
1968.37,2904.54
1959.86,2900.51
1951.78,2895.67
1944.22,2890.06
1937.24,2883.74
1930.92,2876.76
1925.31,2869.19
1920.47,2861.12
1916.44,2852.6
1913.27,2843.74
1910.98,2834.6
1909.6,2825.28
1909.13,2815.88
1909.13,2456.63
1909.6,2447.22
1910.98,2437.9
1913.27,2428.77
1916.44,2419.9
1920.47,2411.39
1925.31,2403.31
1930.92,2395.75
1937.24,2388.77
1944.22,2382.44
1951.78,2376.83
1959.86,2371.99
1968.37,2367.97
1977.24,2364.79
1986.38,2362.51
1995.69,2361.12
2005.1,2360.66
2197.03,2360.66
Z" /> 
</g>
<g >
</g>
<g style="fill:#840000; fill-opacity:1.0; 
stroke:#840000; stroke-width:0; stroke-opacity:1; 
stroke-linecap:round; stroke-linejoin:round;">
<path style="fill:#840000; fill-opacity:1.0; 
stroke:#840000; stroke-width:0; stroke-opacity:1; 
stroke-linecap:round; stroke-linejoin:round;fill-rule:evenodd;"
d="M 3823.28,1886.97
3832.6,1888.36
3841.74,1890.64
3850.6,1893.82
3859.12,1897.84
3867.19,1902.68
3874.76,1908.29
3881.74,1914.62
3888.06,1921.6
3893.67,1929.16
3898.51,1937.24
3902.54,1945.75
3905.71,1954.62
3908,1963.75
3909.38,1973.07
3909.84,1982.48
3909.84,2174.41
3909.38,2183.81
3908,2193.13
3905.71,2202.26
3902.54,2211.13
3898.51,2219.64
3893.67,2227.72
3888.06,2235.28
3881.74,2242.26
3874.76,2248.59
3867.19,2254.2
3859.12,2259.04
3850.6,2263.07
3841.74,2266.24
3832.6,2268.53
3823.28,2269.91
3813.88,2270.37
3454.63,2270.37
3445.22,2269.91
3435.9,2268.53
3426.77,2266.24
3417.9,2263.07
3409.39,2259.04
3401.31,2254.2
3393.75,2248.59
3386.77,2242.26
3380.44,2235.28
3374.83,2227.72
3369.99,2219.64
3365.97,2211.13
3362.79,2202.26
3360.51,2193.13
3359.12,2183.81
3358.66,2174.41
3358.66,1982.48
3359.12,1973.07
3360.51,1963.75
3362.79,1954.62
3365.97,1945.75
3369.99,1937.24
3374.83,1929.16
3380.44,1921.6
3386.77,1914.62
3393.75,1908.29
3401.31,1902.68
3409.39,1897.84
3417.9,1893.82
3426.77,1890.64
3435.9,1888.36
3445.22,1886.97
3454.63,1886.51
3813.88,1886.51
Z" /> 
<path style="fill:#840000; fill-opacity:1.0; 
stroke:#840000; stroke-width:0; stroke-opacity:1; 
stroke-linecap:round; stroke-linejoin:round;fill-rule:evenodd;"
d="M 3823.28,1148.79
3832.6,1150.17
3841.74,1152.46
3850.6,1155.63
3859.12,1159.65
3867.19,1164.5
3874.76,1170.11
3881.74,1176.43
3888.06,1183.41
3893.67,1190.97
3898.51,1199.05
3902.54,1207.56
3905.71,1216.43
3908,1225.57
3909.38,1234.88
3909.84,1244.29
3909.84,1436.22
3909.38,1445.62
3908,1454.94
3905.71,1464.07
3902.54,1472.94
3898.51,1481.45
3893.67,1489.53
3888.06,1497.1
3881.74,1504.07
3874.76,1510.4
3867.19,1516.01
3859.12,1520.85
3850.6,1524.88
3841.74,1528.05
3832.6,1530.34
3823.28,1531.72
3813.88,1532.18
3454.63,1532.18
3445.22,1531.72
3435.9,1530.34
3426.77,1528.05
3417.9,1524.88
3409.39,1520.85
3401.31,1516.01
3393.75,1510.4
3386.77,1504.07
3380.44,1497.1
3374.83,1489.53
3369.99,1481.45
3365.97,1472.94
3362.79,1464.07
3360.51,1454.94
3359.12,1445.62
3358.66,1436.22
3358.66,1244.29
3359.12,1234.88
3360.51,1225.57
3362.79,1216.43
3365.97,1207.56
3369.99,1199.05
3374.83,1190.97
3380.44,1183.41
3386.77,1176.43
3393.75,1170.11
3401.31,1164.5
3409.39,1159.65
3417.9,1155.63
3426.77,1152.46
3435.9,1150.17
3445.22,1148.79
3454.63,1148.32
3813.88,1148.32
Z" /> 
</g>
<g >
</g>
<g style="fill:#840000; fill-opacity:1.0; 
stroke:#840000; stroke-width:0; stroke-opacity:1; 
stroke-linecap:round; stroke-linejoin:round;">
<path style="fill:#840000; fill-opacity:1.0; 
stroke:#840000; stroke-width:0; stroke-opacity:1; 
stroke-linecap:round; stroke-linejoin:round;fill-rule:evenodd;"
d="M 4459.31,2343.7
4463.13,2344.27
4466.88,2345.21
4470.51,2346.51
4474.01,2348.16
4477.32,2350.15
4480.42,2352.45
4483.29,2355.04
4485.88,2357.91
4488.18,2361.01
4490.17,2364.32
4491.82,2367.82
4493.12,2371.45
4494.06,2375.2
4494.63,2379.02
4494.82,2382.88
4494.82,2461.62
4494.63,2465.48
4494.06,2469.3
4493.12,2473.05
4491.82,2476.69
4490.17,2480.18
4488.18,2483.49
4485.88,2486.6
4483.29,2489.46
4480.42,2492.06
4477.32,2494.36
4474.01,2496.34
4470.51,2498
4466.88,2499.3
4463.13,2500.24
4459.31,2500.8
4455.45,2500.99
4353.09,2500.99
4349.23,2500.8
4345.41,2500.24
4341.66,2499.3
4338.02,2498
4334.53,2496.34
4331.21,2494.36
4328.11,2492.06
4325.25,2489.46
4322.65,2486.6
4320.35,2483.49
4318.37,2480.18
4316.71,2476.69
4315.41,2473.05
4314.47,2469.3
4313.91,2465.48
4313.72,2461.62
4313.72,2382.88
4313.91,2379.02
4314.47,2375.2
4315.41,2371.45
4316.71,2367.82
4318.37,2364.32
4320.35,2361.01
4322.65,2357.91
4325.25,2355.04
4328.11,2352.45
4331.21,2350.15
4334.53,2348.16
4338.02,2346.51
4341.66,2345.21
4345.41,2344.27
4349.23,2343.7
4353.09,2343.51
4455.45,2343.51
Z" /> 
<path style="fill:#840000; fill-opacity:1.0; 
stroke:#840000; stroke-width:0; stroke-opacity:1; 
stroke-linecap:round; stroke-linejoin:round;fill-rule:evenodd;"
d="M 4711.28,2343.7
4715.1,2344.27
4718.85,2345.21
4722.48,2346.51
4725.98,2348.16
4729.29,2350.15
4732.39,2352.45
4735.26,2355.04
4737.85,2357.91
4740.15,2361.01
4742.14,2364.32
4743.79,2367.82
4745.09,2371.45
4746.03,2375.2
4746.6,2379.02
4746.79,2382.88
4746.79,2461.62
4746.6,2465.48
4746.03,2469.3
4745.09,2473.05
4743.79,2476.69
4742.14,2480.18
4740.15,2483.49
4737.85,2486.6
4735.26,2489.46
4732.39,2492.06
4729.29,2494.36
4725.98,2496.34
4722.48,2498
4718.85,2499.3
4715.1,2500.24
4711.28,2500.8
4707.42,2500.99
4605.06,2500.99
4601.2,2500.8
4597.37,2500.24
4593.63,2499.3
4589.99,2498
4586.5,2496.34
4583.18,2494.36
4580.08,2492.06
4577.22,2489.46
4574.62,2486.6
4572.32,2483.49
4570.33,2480.18
4568.68,2476.69
4567.38,2473.05
4566.44,2469.3
4565.87,2465.48
4565.69,2461.62
4565.69,2382.88
4565.87,2379.02
4566.44,2375.2
4567.38,2371.45
4568.68,2367.82
4570.33,2364.32
4572.32,2361.01
4574.62,2357.91
4577.22,2355.04
4580.08,2352.45
4583.18,2350.15
4586.5,2348.16
4589.99,2346.51
4593.63,2345.21
4597.37,2344.27
4601.2,2343.7
4605.06,2343.51
4707.42,2343.51
Z" /> 
</g>
<g >
</g>
<g style="fill:#840000; fill-opacity:1.0; 
stroke:#840000; stroke-width:0; stroke-opacity:1; 
stroke-linecap:round; stroke-linejoin:round;">
<path style="fill:#840000; fill-opacity:1.0; 
stroke:#840000; stroke-width:0; stroke-opacity:1; 
stroke-linecap:round; stroke-linejoin:round;fill-rule:evenodd;"
d="M 2508.74,3158.66
2517.1,3159.9
2525.3,3161.95
2533.25,3164.8
2540.89,3168.41
2548.14,3172.76
2554.93,3177.79
2561.19,3183.47
2566.87,3189.73
2571.9,3196.52
2576.25,3203.77
2579.86,3211.41
2582.71,3219.37
2584.76,3227.56
2586,3235.92
2586.42,3244.37
2586.42,3446.14
2586,3454.58
2584.76,3462.94
2582.71,3471.14
2579.86,3479.1
2576.25,3486.74
2571.9,3493.98
2566.87,3500.77
2561.19,3507.04
2554.93,3512.71
2548.14,3517.75
2540.89,3522.09
2533.25,3525.7
2525.3,3528.55
2517.1,3530.61
2508.74,3531.85
2500.3,3532.26
2328.05,3532.26
2319.61,3531.85
2311.25,3530.61
2303.05,3528.55
2295.09,3525.7
2287.45,3522.09
2280.2,3517.75
2273.42,3512.71
2267.15,3507.04
2261.48,3500.77
2256.44,3493.98
2252.1,3486.74
2248.48,3479.1
2245.64,3471.14
2243.58,3462.94
2242.34,3454.58
2241.93,3446.14
2241.93,3244.37
2242.34,3235.92
2243.58,3227.56
2245.64,3219.37
2248.48,3211.41
2252.1,3203.77
2256.44,3196.52
2261.48,3189.73
2267.15,3183.47
2273.42,3177.79
2280.2,3172.76
2287.45,3168.41
2295.09,3164.8
2303.05,3161.95
2311.25,3159.9
2319.61,3158.66
2328.05,3158.24
2500.3,3158.24
Z" /> 
<path style="fill:#840000; fill-opacity:1.0; 
stroke:#840000; stroke-width:0; stroke-opacity:1; 
stroke-linecap:round; stroke-linejoin:round;fill-rule:evenodd;"
d="M 3128.82,3158.66
3137.18,3159.9
3145.37,3161.95
3153.33,3164.8
3160.97,3168.41
3168.22,3172.76
3175.01,3177.79
3181.27,3183.47
3186.95,3189.73
3191.98,3196.52
3196.33,3203.77
3199.94,3211.41
3202.79,3219.37
3204.84,3227.56
3206.08,3235.92
3206.5,3244.37
3206.5,3446.14
3206.08,3454.58
3204.84,3462.94
3202.79,3471.14
3199.94,3479.1
3196.33,3486.74
3191.98,3493.98
3186.95,3500.77
3181.27,3507.04
3175.01,3512.71
3168.22,3517.75
3160.97,3522.09
3153.33,3525.7
3145.37,3528.55
3137.18,3530.61
3128.82,3531.85
3120.37,3532.26
2948.13,3532.26
2939.69,3531.85
2931.33,3530.61
2923.13,3528.55
2915.17,3525.7
2907.53,3522.09
2900.28,3517.75
2893.49,3512.71
2887.23,3507.04
2881.56,3500.77
2876.52,3493.98
2872.18,3486.74
2868.56,3479.1
2865.72,3471.14
2863.66,3462.94
2862.42,3454.58
2862.01,3446.14
2862.01,3244.37
2862.42,3235.92
2863.66,3227.56
2865.72,3219.37
2868.56,3211.41
2872.18,3203.77
2876.52,3196.52
2881.56,3189.73
2887.23,3183.47
2893.49,3177.79
2900.28,3172.76
2907.53,3168.41
2915.17,3164.8
2923.13,3161.95
2931.33,3159.9
2939.69,3158.66
2948.13,3158.24
3120.37,3158.24
Z" /> 
</g>
<g >
</g>
<g >
</g>
<g >
</g>
<g style="fill:#C2C2C2; fill-opacity:1.0; 
stroke:#C2C2C2; stroke-width:0; stroke-opacity:1; 
stroke-linecap:round; stroke-linejoin:round;">
<circle cx="4113.25" cy="3437.25" r="59.0551" /> 
</g>
<g style="fill:#C2C2C2; fill-opacity:1.0; 
stroke:#C2C2C2; stroke-width:39.3701; stroke-opacity:1; 
stroke-linecap:round; stroke-linejoin:round;">
</g>
<g style="fill:#C2C2C2; fill-opacity:1.0; 
stroke:#C2C2C2; stroke-width:0; stroke-opacity:1; 
stroke-linecap:round; stroke-linejoin:round;">
<circle cx="3916.25" cy="2846.25" r="59.0551" /> 
</g>
<g style="fill:#C2C2C2; fill-opacity:1.0; 
stroke:#C2C2C2; stroke-width:39.3701; stroke-opacity:1; 
stroke-linecap:round; stroke-linejoin:round;">
</g>
<g style="fill:#C2C2C2; fill-opacity:1.0; 
stroke:#C2C2C2; stroke-width:0; stroke-opacity:1; 
stroke-linecap:round; stroke-linejoin:round;">
<circle cx="1962.25" cy="3344.25" r="59.0551" /> 
</g>
<g style="fill:#C2C2C2; fill-opacity:1.0; 
stroke:#C2C2C2; stroke-width:39.3701; stroke-opacity:1; 
stroke-linecap:round; stroke-linejoin:round;">
</g>
<g style="fill:#C2C2C2; fill-opacity:1.0; 
stroke:#C2C2C2; stroke-width:0; stroke-opacity:1; 
stroke-linecap:round; stroke-linejoin:round;">
<circle cx="5040.25" cy="3502.25" r="59.0551" /> 
</g>
<g style="fill:#C2C2C2; fill-opacity:1.0; 
stroke:#C2C2C2; stroke-width:39.3701; stroke-opacity:1; 
stroke-linecap:round; stroke-linejoin:round;">
</g>
<g style="fill:#C2C2C2; fill-opacity:1.0; 
stroke:#C2C2C2; stroke-width:0; stroke-opacity:1; 
stroke-linecap:round; stroke-linejoin:round;">
<circle cx="5204.25" cy="3503.25" r="59.0551" /> 
</g>
<g style="fill:#C2C2C2; fill-opacity:1.0; 
stroke:#C2C2C2; stroke-width:39.3701; stroke-opacity:1; 
stroke-linecap:round; stroke-linejoin:round;">
</g>
<g style="fill:#C2C2C2; fill-opacity:1.0; 
stroke:#C2C2C2; stroke-width:0; stroke-opacity:1; 
stroke-linecap:round; stroke-linejoin:round;">
<circle cx="5346.25" cy="3503.25" r="59.0551" /> 
</g>
<g style="fill:#C2C2C2; fill-opacity:1.0; 
stroke:#C2C2C2; stroke-width:39.3701; stroke-opacity:1; 
stroke-linecap:round; stroke-linejoin:round;">
</g>
<g style="fill:#C2C2C2; fill-opacity:1.0; 
stroke:#C2C2C2; stroke-width:0; stroke-opacity:1; 
stroke-linecap:round; stroke-linejoin:round;">
<circle cx="3949.25" cy="2596.25" r="59.0551" /> 
</g>
<g style="fill:#C2C2C2; fill-opacity:1.0; 
stroke:#C2C2C2; stroke-width:39.3701; stroke-opacity:1; 
stroke-linecap:round; stroke-linejoin:round;">
</g>
<g style="fill:#C2C2C2; fill-opacity:1.0; 
stroke:#C2C2C2; stroke-width:0; stroke-opacity:1; 
stroke-linecap:round; stroke-linejoin:round;">
<circle cx="4094.25" cy="2595.25" r="59.0551" /> 
</g>
<g style="fill:#C2C2C2; fill-opacity:1.0; 
stroke:#C2C2C2; stroke-width:39.3701; stroke-opacity:1; 
stroke-linecap:round; stroke-linejoin:round;">
</g>
<g style="fill:#C2C2C2; fill-opacity:1.0; 
stroke:#C2C2C2; stroke-width:0; stroke-opacity:1; 
stroke-linecap:round; stroke-linejoin:round;">
<circle cx="5029.25" cy="2204.25" r="98.4252" /> 
</g>
<g style="fill:#C2C2C2; fill-opacity:1.0; 
stroke:#C2C2C2; stroke-width:39.3701; stroke-opacity:1; 
stroke-linecap:round; stroke-linejoin:round;">
</g>
<g style="fill:#C2C2C2; fill-opacity:1.0; 
stroke:#C2C2C2; stroke-width:0; stroke-opacity:1; 
stroke-linecap:round; stroke-linejoin:round;">
<circle cx="2509.25" cy="1393.25" r="59.0551" /> 
</g>
<g style="fill:#C2C2C2; fill-opacity:1.0; 
stroke:#C2C2C2; stroke-width:39.3701; stroke-opacity:1; 
stroke-linecap:round; stroke-linejoin:round;">
</g>
<g style="fill:#C2C2C2; fill-opacity:1.0; 
stroke:#C2C2C2; stroke-width:0; stroke-opacity:1; 
stroke-linecap:round; stroke-linejoin:round;">
<circle cx="1679.25" cy="2462.25" r="59.0551" /> 
</g>
<g style="fill:#C2C2C2; fill-opacity:1.0; 
stroke:#C2C2C2; stroke-width:39.3701; stroke-opacity:1; 
stroke-linecap:round; stroke-linejoin:round;">
</g>
<g style="fill:#C2C2C2; fill-opacity:1.0; 
stroke:#C2C2C2; stroke-width:0; stroke-opacity:1; 
stroke-linecap:round; stroke-linejoin:round;">
<circle cx="3916.25" cy="3240.25" r="59.0551" /> 
</g>
<g style="fill:#C2C2C2; fill-opacity:1.0; 
stroke:#C2C2C2; stroke-width:39.3701; stroke-opacity:1; 
stroke-linecap:round; stroke-linejoin:round;">
</g>
<g style="fill:#C2C2C2; fill-opacity:1.0; 
stroke:#C2C2C2; stroke-width:0; stroke-opacity:1; 
stroke-linecap:round; stroke-linejoin:round;">
<circle cx="3916.25" cy="3043.25" r="59.0551" /> 
</g>
<g style="fill:#C2C2C2; fill-opacity:1.0; 
stroke:#C2C2C2; stroke-width:39.3701; stroke-opacity:1; 
stroke-linecap:round; stroke-linejoin:round;">
</g>
<g >
</g>
<g style="fill:#840000; fill-opacity:1.0; 
stroke:#840000; stroke-width:39.3701; stroke-opacity:1; 
stroke-linecap:round; stroke-linejoin:round;">
</g>
<g style="fill:#840000; fill-opacity:1.0; 
stroke:#840000; stroke-width:98.4252; stroke-opacity:1; 
stroke-linecap:round; stroke-linejoin:round;">
</g>
<g style="fill:#840000; fill-opacity:0.0; 
stroke:#840000; stroke-width:98.4252; stroke-opacity:1; 
stroke-linecap:round; stroke-linejoin:round;">
<path d="M5212 3330
L5060 3481
" />
<path d="M6194 4283
L6385 4092
" />
<path d="M6156 3330
L5212 3330
" />
<path d="M5835 4283
L6194 4283
" />
<path d="M6385 3559
L6156 3330
" />
<path d="M6385 4092
L6385 3559
" />
<path d="M4664 2768
L4664 2790
" />
<path d="M4664 2790
L4664 2761
" />
<path d="M2414 3345
L2414 3333
" />
<path d="M2414 3333
L2157 3076
" />
<path d="M2414 3345
L2414 3352
" />
<path d="M2414 3352
L2156 3610
" />
<path d="M4198 3240
L4484 3526
" />
<path d="M4113 3240
L4198 3240
" />
<path d="M3916 3437
L3916 3522
" />
<path d="M3916 3522
L4019 3625
" />
<path d="M4484 3527
L4583 3626
" />
<path d="M4484 3526
L4484 3527
" />
<path d="M4019 3625
L4583 3626
" />
<path d="M5557 3889
L5146 4301
" />
<path d="M5835 3889
L5557 3889
" />
<path d="M4583 3626
L4767 3626
" />
<path d="M5146 3818
L5146 4301
" />
<path d="M5146 4301
L5222 4301
" />
<path d="M5146 4301
L5146 4082
" />
<path d="M5146 4082
L5515 3713
" />
<path d="M5146 4301
L5146 4186
" />
<path d="M5146 4186
L5517 3815
" />
<path d="M5146 4301
L5146 4053
" />
<path d="M5146 4301
L5146 4543
" />
<path d="M5146 4301
L5146 4058
" />
<path d="M5146 4058
L4784 3696
" />
<path d="M5146 4301
L5146 4555
" />
<path d="M5146 4555
L4940 4761
" />
<path d="M4940 4761
L4692 4761
" />
<path d="M4985 2152
L5044 2211
" />
<path d="M4894 2061
L4985 2152
" />
<path d="M3269 4004
L3264 4009
" />
</g>
<g style="fill:#840000; fill-opacity:0.0; 
stroke:#840000; stroke-width:59.0551; stroke-opacity:1; 
stroke-linecap:round; stroke-linejoin:round;">
<path d="M3719 3240
L3612 3240
" />
</g>
<g style="fill:#840000; fill-opacity:0.0; 
stroke:#840000; stroke-width:98.4252; stroke-opacity:1; 
stroke-linecap:round; stroke-linejoin:round;">
<path d="M4404 2555
L4404 2422
" />
<path d="M4113 2846
L4404 2555
" />
<path d="M4835 2422
L4656 2422
" />
<path d="M5233 2422
L4835 2422
" />
<path d="M5408 2246
L5233 2422
" />
<path d="M5408 1583
L5408 2246
" />
<path d="M5264 1439
L5408 1583
" />
<path d="M5209 1439
L5264 1439
" />
<path d="M3719 2211
L3636 2128
" />
<path d="M3719 2846
L3719 2211
" />
<path d="M2621 1393
L2509 1393
" />
<path d="M2622 1394
L2621 1393
" />
<path d="M3744 1394
L2622 1394
" />
<path d="M3637 3043
L3719 3043
" />
<path d="M2839 2636
L3230 2636
" />
<path d="M3230 2636
L3637 3043
" />
<path d="M2008 2606
L1997 2595
" />
<path d="M2040 2552
L1997 2595
" />
<path d="M1811 2330
L1679 2462
" />
<path d="M1811 2014
L1811 2330
" />
<path d="M2101 2636
L2083 2636
" />
<path d="M1909 2462
L1679 2462
" />
<path d="M2083 2636
L1909 2462
" />
<path d="M4114 3042
L4113 3043
" />
<path d="M4427 3042
L4114 3042
" />
<path d="M4427 3042
L4664 3042
" />
<path d="M4427 3042
L4427 3042
" />
<path d="M4083 4301
L4083 4513
" />
<path d="M2783 4299
L2674 4190
" />
<path d="M3707 4299
L2783 4299
" />
<path d="M3709 4301
L3707 4299
" />
<path d="M2674 4190
L2674 4009
" />
<path d="M4083 4301
L3709 4301
" />
<path d="M4083 4301
L4083 4531
" />
<path d="M3783 4831
L3747 4867
" />
<path d="M4083 4531
L3783 4831
" />
<path d="M3916 4235
L3877 4274
" />
</g>
<g >
</g>
<g style="fill:#840000; fill-opacity:0.0; 
stroke:#840000; stroke-width:98.4252; stroke-opacity:1; 
stroke-linecap:round; stroke-linejoin:round;">
</g>
<g style="fill:#840000; fill-opacity:1.0; 
stroke:#840000; stroke-width:39.3701; stroke-opacity:1; 
stroke-linecap:round; stroke-linejoin:round;">
<path style="fill:#840000; fill-opacity:1.0; 
stroke:#840000; stroke-width:39.3701; stroke-opacity:1; 
stroke-linecap:round; stroke-linejoin:round;fill-rule:evenodd;"
d="M 4156.8,1413.08
4156.8,1465.43
4167.02,1516.77
4187.05,1565.13
4216.13,1608.66
4253.15,1645.67
4296.67,1674.75
4345.04,1694.79
4396.38,1705
4448.73,1705
4500.07,1694.79
4548.43,1674.75
4591.96,1645.67
4619.4,1618.23
4646.85,1645.67
4690.37,1674.75
4738.74,1694.79
4790.08,1705
4842.43,1705
4893.77,1694.79
4942.13,1674.75
4960.94,1662.19
4972.7,1676.51
4987.68,1688.81
5004.78,1697.95
5023.34,1703.58
5042.63,1705.48
5261.31,1705.48
5261.32,2185.4
5172.1,2274.61
4792.4,2274.61
4784.24,2267.91
4760.33,2255.14
4734.39,2247.27
4707.42,2244.61
4605.06,2244.61
4578.08,2247.27
4552.14,2255.14
4530.25,2266.84
4508.36,2255.14
4482.42,2247.27
4455.45,2244.61
4353.09,2244.61
4326.11,2247.27
4300.17,2255.14
4276.27,2267.91
4255.31,2285.11
4238.12,2306.06
4225.34,2329.97
4217.47,2355.91
4216.69,2363.8
3884.19,2364.56
3871.96,2359.44
3888.45,2354.44
3922.14,2336.43
3951.67,2312.2
3975.9,2282.67
3993.91,2248.98
4005,2212.42
4008.74,2174.41
4008.74,1982.48
4005,1944.46
3993.91,1907.9
3975.9,1874.21
3951.67,1844.69
3922.14,1820.45
3888.45,1802.44
3851.89,1791.35
3813.88,1787.61
3454.63,1787.61
3416.61,1791.35
3380.05,1802.44
3346.36,1820.45
3316.84,1844.69
3292.6,1874.21
3274.59,1907.9
3263.5,1944.46
3259.76,1982.48
3259.76,2174.41
3263.5,2212.42
3269.61,2232.55
2115.05,2240.43
2115.58,2144.26
2143.97,2144.26
2145.49,2159.7
2149.99,2174.54
2157.3,2188.22
2167.14,2200.21
2179.13,2210.05
2192.81,2217.36
2207.65,2221.86
2223.09,2223.38
2353.99,2223
2373.68,2203.31
2373.68,1978.91
2416.98,1978.91
2416.98,2203.31
2436.67,2223
2567.57,2223.38
2583.01,2221.86
2597.85,2217.36
2611.53,2210.05
2623.52,2200.21
2633.36,2188.22
2640.67,2174.54
2645.18,2159.7
2645.78,2153.57
2712.12,2153.57
2713.64,2169.01
2718.15,2183.85
2725.46,2197.53
2735.3,2209.52
2747.29,2219.36
2760.97,2226.67
2775.81,2231.18
2791.24,2232.7
2936.91,2232.31
2956.6,2212.63
2956.6,2002.98
2999.91,2002.98
2999.91,2212.63
3019.59,2232.31
3165.26,2232.7
3180.7,2231.18
3195.54,2226.67
3209.22,2219.36
3221.21,2209.52
3231.05,2197.53
3238.36,2183.85
3242.86,2169.01
3244.38,2153.57
3244,2022.67
3224.31,2002.98
2999.91,2002.98
2956.6,2002.98
2732.19,2002.98
2712.5,2022.67
2712.12,2153.57
2645.78,2153.57
2646.7,2144.26
2646.31,1998.59
2626.63,1978.91
2416.98,1978.91
2373.68,1978.91
2164.03,1978.91
2144.35,1998.59
2143.97,2144.26
2115.58,2144.26
2117.66,1770.24
2143.97,1770.24
2144.35,1915.91
2164.03,1935.6
2373.68,1935.6
2373.68,1711.19
2416.98,1711.19
2416.98,1935.6
2626.63,1935.6
2646.31,1915.91
2646.59,1809.09
2712.12,1809.09
2712.5,1939.99
2732.19,1959.68
2956.6,1959.68
2956.6,1750.03
2999.91,1750.03
2999.91,1959.68
3224.31,1959.68
3244,1939.99
3244.38,1809.09
3242.86,1793.65
3238.36,1778.81
3231.05,1765.13
3221.21,1753.14
3209.22,1743.3
3195.54,1735.99
3180.7,1731.49
3165.26,1729.97
3019.59,1730.35
2999.91,1750.03
2956.6,1750.03
2936.91,1730.35
2791.24,1729.97
2775.81,1731.49
2760.97,1735.99
2747.29,1743.3
2735.3,1753.14
2725.46,1765.13
2718.15,1778.81
2713.64,1793.65
2712.12,1809.09
2646.59,1809.09
2646.7,1770.24
2645.18,1754.81
2640.67,1739.97
2633.36,1726.29
2623.52,1714.3
2611.53,1704.46
2597.85,1697.15
2583.01,1692.64
2567.57,1691.12
2436.67,1691.5
2416.98,1711.19
2373.68,1711.19
2353.99,1691.5
2223.09,1691.12
2207.65,1692.64
2192.81,1697.15
2179.13,1704.46
2167.14,1714.3
2157.3,1726.29
2149.99,1739.97
2145.49,1754.81
2143.97,1770.24
2117.66,1770.24
2118.83,1560.96
2732.91,1561.6
2746.54,1578.21
2774.57,1601.22
2806.56,1618.31
2841.27,1628.84
2877.37,1632.4
3079.14,1632.4
3115.23,1628.84
3149.94,1618.31
3181.93,1601.22
3209.97,1578.21
3223.17,1562.12
3307.15,1562.21
3316.84,1574.01
3346.36,1598.24
3380.05,1616.25
3416.61,1627.34
3454.63,1631.08
3813.88,1631.08
3851.89,1627.34
3888.45,1616.25
3922.14,1598.24
3951.67,1574.01
3960.79,1562.9
3998.23,1562.94
4002.07,1562.56
4005.77,1561.45
4009.17,1559.63
4012.16,1557.19
4014.61,1554.21
4016.43,1550.8
4017.81,1545.51
4035.79,1389.94
4161.41,1389.94
Z" /> 
</g>
<g style="fill:#840000; fill-opacity:1.0; 
stroke:#840000; stroke-width:78.7402; stroke-opacity:1; 
stroke-linecap:round; stroke-linejoin:round;">
<path style="fill:#840000; fill-opacity:1.0; 
stroke:#840000; stroke-width:78.7402; stroke-opacity:1; 
stroke-linecap:round; stroke-linejoin:round;fill-rule:evenodd;"
d="M 4825.81,3655.82
4823.73,3656.45
4802.53,3667.79
4783.94,3683.04
4768.69,3701.62
4757.36,3722.82
4750.38,3745.83
4748.02,3769.76
4748.61,4268.77
4779.13,4299.28
5144.28,4299.28
5144.28,4291.41
5148.22,4291.41
5148.22,4299.28
5156.09,4299.28
5156.09,4303.22
5148.22,4303.22
5148.22,4311.09
5144.28,4311.09
5144.28,4303.22
4779.13,4303.22
4748.61,4333.73
4748.07,4791.15
4477.53,4793.05
4477.53,3769.76
4475.25,3746.6
4468.5,3724.34
4457.53,3703.82
4442.77,3685.84
4424.79,3671.08
4404.27,3660.11
4382,3653.35
4358.85,3651.07
3934.15,3651.07
3932.52,3618.7
3947,3617.69
3981.64,3608.26
4013.78,3592.24
4019.1,3588.69
4028.77,3595.15
4061.23,3608.6
4095.69,3615.45
4130.82,3615.45
4165.27,3608.6
4197.73,3595.15
4226.94,3575.63
4251.78,3550.79
4271.3,3521.58
4284.74,3489.12
4291.6,3454.67
4291.6,3419.54
4284.74,3385.08
4271.3,3352.62
4264.66,3342.68
4280.41,3315.14
4291.81,3281.09
4296.34,3245.48
4293.84,3209.66
4293.82,3209.57
4419.04,3209.57
4427.25,3210.38
4435.47,3209.57
4435.47,3209.57
4435.79,3209.54
4518.46,3209.54
4537.07,3224.82
4564.4,3239.42
4594.05,3248.42
4624.88,3251.45
4703.62,3251.45
4734.46,3248.42
4764.11,3239.42
4791.43,3224.82
4815.38,3205.16
4824.15,3194.47
Z" /> 
<path style="fill:#840000; fill-opacity:1.0; 
stroke:#840000; stroke-width:78.7402; stroke-opacity:1; 
stroke-linecap:round; stroke-linejoin:round;fill-rule:evenodd;"
d="M 6099.57,3510.2
6170.86,3581.49
6175.88,3860.61
6175.88,4064.99
6147.44,4093.43
6118.42,4095.42
6122.86,4080.8
6125.21,4056.87
6124.62,3922.03
6094.11,3891.52
5837.22,3891.52
5837.22,3899.39
5833.28,3899.39
5833.28,3891.52
5576.39,3891.52
5545.88,3922.03
5545.29,4056.87
5547.65,4080.8
5554.63,4103.81
5565.96,4125.01
5572.35,4132.8
5544.05,4134.74
5544.48,3769.76
5542.12,3745.83
5535.14,3722.82
5534.83,3722.23
5545.29,3722.23
5545.88,3857.07
5576.39,3887.58
5833.28,3887.58
5833.28,3630.69
5837.22,3630.69
5837.22,3887.58
6094.11,3887.58
6124.62,3857.07
6125.21,3722.23
6122.86,3698.3
6115.88,3675.3
6104.54,3654.09
6089.29,3635.51
6070.71,3620.26
6049.51,3608.93
6026.5,3601.95
6002.57,3599.59
5867.73,3600.18
5837.22,3630.69
5833.28,3630.69
5802.77,3600.18
5667.93,3599.59
5644,3601.95
5621,3608.93
5599.8,3620.26
5581.21,3635.51
5565.96,3654.09
5554.63,3675.3
5547.65,3698.3
5545.29,3722.23
5534.83,3722.23
5523.81,3701.62
5519.61,3696.5
5706.55,3508.69
Z" /> 
<path style="fill:#840000; fill-opacity:1.0; 
stroke:#840000; stroke-width:78.7402; stroke-opacity:1; 
stroke-linecap:round; stroke-linejoin:round;fill-rule:evenodd;"
d="M 3924.75,3431.53
3919.19,3437.1
3924.75,3442.67
3921.97,3445.45
3916.4,3439.89
3910.83,3445.45
3908.05,3442.67
3913.62,3437.1
3908.05,3431.53
3910.83,3428.75
3916.4,3434.32
3921.97,3428.75
Z" /> 
<path style="fill:#840000; fill-opacity:1.0; 
stroke:#840000; stroke-width:78.7402; stroke-opacity:1; 
stroke-linecap:round; stroke-linejoin:round;fill-rule:evenodd;"
d="M 4121.6,3234.68
4116.04,3240.25
4121.6,3245.82
4118.82,3248.6
4113.25,3243.04
4107.68,3248.6
4104.9,3245.82
4110.47,3240.25
4104.9,3234.68
4107.68,3231.9
4113.25,3237.47
4118.82,3231.9
Z" /> 
</g>
<g style="fill:#840000; fill-opacity:1.0; 
stroke:#840000; stroke-width:59.0551; stroke-opacity:1; 
stroke-linecap:round; stroke-linejoin:round;">
<path style="fill:#840000; fill-opacity:1.0; 
stroke:#840000; stroke-width:59.0551; stroke-opacity:1; 
stroke-linecap:round; stroke-linejoin:round;fill-rule:evenodd;"
d="M 3389.26,3017.49
3521.06,3149.29
3525.99,3155.3
3531.99,3160.23
3531.99,3160.23
3532.93,3160.99
3549.97,3174.98
3577.32,3189.6
3597.76,3195.8
3597.26,3196.88
3591.14,3221.57
3589.97,3246.98
3593.77,3272.13
3602.41,3296.06
3608.07,3306.65
3632.07,3311.03
3702.85,3240.25
3697.28,3234.68
3713.98,3217.98
3719.55,3223.55
3725.12,3217.98
3727.84,3220.7
3727.14,3260.5
3725.12,3262.52
3719.55,3256.96
3648.77,3327.74
3650.77,3338.68
3648.77,3349.62
3719.55,3420.4
3724.41,3415.54
3724.16,3429.29
3724.29,3432.59
3726.68,3457.82
3725.12,3459.37
3719.55,3453.81
3648.77,3524.59
3653.15,3548.59
3676.18,3559.4
3700.87,3565.51
3726.28,3566.69
3736.82,3565.09
3737.86,3576.03
3738.96,3581.71
3741.16,3587.07
3744.35,3591.9
3748.43,3596
3753.23,3599.24
3758.57,3601.47
3765.52,3602.73
3781.33,3603.66
3784.83,3610.2
3788.69,3614.9
3788.64,3662.84
3786.45,3663.06
3766.04,3669.25
3747.23,3679.3
3730.74,3692.83
3717.21,3709.31
3707.16,3728.12
3700.97,3748.53
3698.88,3769.76
3698.88,4052.5
3459.77,4052.06
3459.69,4038.29
3442.46,4021.06
3276.61,4021.06
3276.61,4028.94
3252.99,4028.94
3252.99,4021.06
3087.15,4021.06
3069.92,4038.29
3069.84,4051.33
3040.78,4051.28
3040.78,3926.57
3069.59,3926.57
3069.92,3980.22
3087.15,3997.44
3252.99,3997.44
3252.99,3874.9
3276.61,3874.9
3276.61,3997.44
3442.46,3997.44
3459.69,3980.22
3460.02,3926.57
3458.69,3913.07
3454.75,3900.08
3448.35,3888.11
3439.74,3877.62
3429.25,3869.01
3417.28,3862.61
3404.29,3858.67
3390.79,3857.34
3293.84,3857.68
3276.61,3874.9
3252.99,3874.9
3235.77,3857.68
3138.82,3857.34
3125.31,3858.67
3112.33,3862.61
3100.36,3869.01
3089.86,3877.62
3081.26,3888.11
3074.86,3900.08
3070.92,3913.07
3069.59,3926.57
3040.78,3926.57
3040.78,3677.75
3040.21,3671.99
3038.53,3666.45
3035.8,3661.35
3032.13,3656.87
3027.66,3653.2
3022.55,3650.47
3021.84,3650.26
3022.24,3584.13
3022.44,3583.93
3022.44,3551.61
3023.62,3357.06
3046.06,3357.06
3046.06,3583.93
3063.29,3601.16
3206.5,3601.49
3220,3600.16
3232.99,3596.22
3244.96,3589.82
3255.45,3581.21
3264.06,3570.72
3270.46,3558.75
3274.4,3545.77
3275.73,3532.26
3275.54,3443.83
3589.97,3443.83
3593.77,3468.98
3602.41,3492.91
3608.07,3503.5
3632.07,3507.89
3702.85,3437.1
3632.07,3366.32
3608.07,3370.7
3597.26,3393.73
3591.14,3418.42
3589.97,3443.83
3275.54,3443.83
3275.39,3374.29
3258.17,3357.06
3046.06,3357.06
3023.62,3357.06
3025.13,3106.57
3046.06,3106.57
3046.06,3333.44
3258.17,3333.44
3275.39,3316.22
3275.73,3158.24
3274.4,3144.74
3270.46,3131.75
3264.06,3119.78
3255.45,3109.29
3244.96,3100.68
3232.99,3094.28
3220,3090.34
3206.5,3089.01
3063.29,3089.35
3046.06,3106.57
3025.13,3106.57
3025.69,3014
Z" /> 
</g>
<g style="fill:#840000; fill-opacity:1.0; 
stroke:#840000; stroke-width:10; stroke-opacity:1; 
stroke-linecap:round; stroke-linejoin:round;">
<path style="fill:#840000; fill-opacity:1.0; 
stroke:#840000; stroke-width:10; stroke-opacity:1; 
stroke-linecap:round; stroke-linejoin:round;fill-rule:evenodd;"
d="M 4058.31,2713.47
4045.05,2718.96
4021.47,2734.72
4001.42,2754.77
3985.66,2778.35
3974.81,2804.55
3969.28,2832.37
3969.28,2860.73
3974.81,2888.55
3985.66,2914.75
3987.8,2917.95
3984.6,2915.81
3958.4,2904.96
3930.58,2899.43
3902.22,2899.43
3874.41,2904.96
3848.2,2915.81
3845,2917.95
3847.14,2914.75
3857.99,2888.55
3863.53,2860.73
3863.53,2832.37
3857.99,2804.55
3852.5,2791.3
3852.5,2539.25
3856.28,2539.25
4234.47,2537.31
Z" /> 
<path style="fill:#840000; fill-opacity:1.0; 
stroke:#840000; stroke-width:10; stroke-opacity:1; 
stroke-linecap:round; stroke-linejoin:round;fill-rule:evenodd;"
d="M 4918.21,2946.23
4818.32,2945.7
4817.74,2943.77
4806.32,2922.42
4790.96,2903.7
4784.08,2898.06
4784.18,2897.86
4786.72,2889.5
4787.58,2880.8
4787.36,2816.03
4776.27,2804.94
4678.94,2804.94
4678.94,2812.81
4649.57,2812.81
4649.57,2804.94
4552.23,2804.94
4541.14,2816.03
4540.93,2880.8
4541.78,2889.5
4544.32,2897.86
4544.42,2898.06
4537.54,2903.7
4532.97,2909.27
4433.81,2909.27
4427.28,2908.62
4420.76,2909.27
4420.76,2909.27
4420.44,2909.3
4243.1,2909.3
4246.33,2901.49
4448.13,2699.7
4540.93,2699.7
4541.14,2764.47
4552.23,2775.57
4649.57,2775.57
4649.57,2666.42
4678.94,2666.42
4678.94,2775.57
4776.27,2775.57
4787.36,2764.47
4787.58,2699.7
4786.72,2691
4784.18,2682.64
4780.06,2674.93
4774.52,2668.17
4767.76,2662.63
4760.05,2658.51
4751.69,2655.97
4742.99,2655.12
4690.03,2655.33
4678.94,2666.42
4649.57,2666.42
4638.47,2655.33
4585.51,2655.12
4576.81,2655.97
4568.45,2658.51
4560.74,2662.63
4553.99,2668.17
4548.44,2674.93
4544.32,2682.64
4541.78,2691
4540.93,2699.7
4448.13,2699.7
4493.66,2654.16
4498.73,2650
4502.9,2644.93
4515.35,2629.76
4527.69,2606.66
4527.69,2606.66
4531.24,2594.98
4915.29,2594.26
Z" /> 
</g>
<g style="fill:#840000; fill-opacity:1.0; 
stroke:#840000; stroke-width:59.0551; stroke-opacity:1; 
stroke-linecap:round; stroke-linejoin:round;">
<path style="fill:#840000; fill-opacity:1.0; 
stroke:#840000; stroke-width:59.0551; stroke-opacity:1; 
stroke-linecap:round; stroke-linejoin:round;fill-rule:evenodd;"
d="M 2930.65,3759.59
2928.66,4202.31
2929.2,4208.07
2930.86,4213.62
2933.56,4218.73
2937.22,4223.22
2941.67,4226.92
2946.77,4229.67
2952.3,4231.37
2958.2,4231.97
3711.26,4231.78
3717.02,4231.21
3718.65,4230.71
3718.69,4278.81
3740.94,4301.06
4083.06,4301.06
4083.06,4293.18
4083.46,4293.18
4083.46,4301.06
4091.33,4301.06
4091.33,4301.45
4083.46,4301.45
4083.46,4309.32
4083.06,4309.32
4083.06,4301.45
3740.94,4301.45
3718.69,4323.69
3718.26,4832.75
3719.98,4850.19
3725.07,4866.96
3733.33,4882.42
3736.74,4886.57
2360.34,4886.23
2361.84,4091.93
2458.86,4091.93
2460.58,4109.37
2465.67,4126.14
2473.93,4141.6
2485.05,4155.15
2498.6,4166.27
2514.05,4174.53
2530.83,4179.62
2548.27,4181.34
2651.81,4180.91
2674.06,4158.66
2674.06,4009.45
2674.45,4009.45
2674.45,4158.66
2696.69,4180.91
2800.24,4181.34
2817.68,4179.62
2834.45,4174.53
2849.91,4166.27
2863.46,4155.15
2874.58,4141.6
2882.84,4126.14
2887.93,4109.37
2889.64,4091.93
2889.21,4031.69
2866.97,4009.45
2674.45,4009.45
2674.06,4009.45
2481.54,4009.45
2459.29,4031.69
2458.86,4091.93
2361.84,4091.93
2362.16,3926.57
2458.86,3926.57
2459.29,3986.81
2481.54,4009.06
2674.06,4009.06
2674.06,3859.84
2674.45,3859.84
2674.45,4009.06
2866.97,4009.06
2889.21,3986.81
2889.64,3926.57
2887.93,3909.13
2882.84,3892.36
2874.58,3876.9
2863.46,3863.35
2849.91,3852.24
2834.45,3843.97
2817.68,3838.89
2800.24,3837.17
2696.69,3837.6
2674.45,3859.84
2674.06,3859.84
2651.81,3837.6
2548.27,3837.17
2530.83,3838.89
2514.05,3843.97
2498.6,3852.24
2485.05,3863.35
2473.93,3876.9
2465.67,3892.36
2460.58,3909.13
2458.86,3926.57
2362.16,3926.57
2362.47,3759.53
Z" /> 
</g>
<g style="fill:#840000; fill-opacity:1.0; 
stroke:#840000; stroke-width:78.7402; stroke-opacity:1; 
stroke-linecap:round; stroke-linejoin:round;">
<path style="fill:#840000; fill-opacity:1.0; 
stroke:#840000; stroke-width:78.7402; stroke-opacity:1; 
stroke-linecap:round; stroke-linejoin:round;fill-rule:evenodd;"
d="M 2651.6,1181.62
2649.82,1187.48
2640.92,1187.48
2631.56,1186.56
2631.56,1186.56
2621.41,1185.56
2611.26,1186.56
2576.09,1186.56
2572.41,1185.04
2530.58,1176.72
2487.93,1176.72
2446.09,1185.04
2406.68,1201.36
2371.22,1225.06
2341.06,1255.22
2317.36,1290.68
2301.04,1330.09
2292.72,1371.93
2292.72,1414.58
2293.21,1417.05
2284.48,1415.88
1997.98,1417.88
1990.3,1418.69
1982.93,1420.98
1976.15,1424.67
1970.22,1429.61
1965.36,1435.61
1961.77,1442.44
1959.59,1449.84
1958.88,1456.78
1957.88,1540.78
1957.88,1541.25
1957.88,1632.2
1954.89,1630.6
1909.05,1616.7
1861.37,1612
1689.13,1612
1641.46,1616.7
1595.62,1630.6
1553.37,1653.18
1516.34,1683.57
1485.95,1720.6
1463.37,1762.85
1449.46,1808.69
1444.77,1856.37
1444.77,2058.14
1449.46,2105.81
1463.37,2151.65
1485.95,2193.9
1516.34,2230.93
1553.37,2261.32
1573.84,2272.26
1541.22,2294.06
1511.06,2324.22
1487.36,2359.68
1471.04,2399.09
1462.72,2440.93
1462.72,2483.58
1471.04,2525.41
1487.36,2564.82
1511.06,2600.29
1541.22,2630.45
1576.68,2654.14
1616.09,2670.47
1657.93,2678.79
1700.58,2678.79
1742.41,2670.47
1746.09,2668.94
1750.89,2668.94
1750.89,2815.88
1755.78,2865.47
1770.24,2913.16
1793.73,2957.11
1825.35,2995.63
1863.87,3027.24
1907.82,3050.73
1955.51,3065.2
2005.1,3070.08
2156.97,3070.08
2155.21,3071.53
2139.96,3090.11
2128.63,3111.31
2121.65,3134.32
2119.29,3158.24
2119.88,3312.77
2150.39,3343.28
2412.2,3343.28
2412.2,3335.41
2416.14,3335.41
2416.14,3343.28
2424.02,3343.28
2424.02,3347.22
2416.14,3347.22
2416.14,3355.09
2412.2,3355.09
2412.2,3347.22
2150.39,3347.22
2119.88,3377.73
2119.29,3532.26
2121.65,3556.19
2128.63,3579.19
2139.96,3600.39
2155.21,3618.98
2173.8,3634.23
2195,3645.56
2209.29,3649.9
2196.3,3649.88
2188.62,3650.63
2181.23,3652.86
2174.42,3656.49
2168.45,3661.38
2163.55,3667.34
2159.9,3674.14
2157.65,3681.52
2156.88,3689.22
2155.88,4966.22
2156.63,4973.9
2158.87,4981.29
2162.5,4988.1
2167.39,4994.07
2173.35,4998.97
2180.16,5002.61
2187.54,5004.86
2195.03,5005.62
3599.87,5013.48
3600.39,5014.11
3631.86,5039.94
3667.77,5059.14
3706.73,5070.95
3747.25,5074.94
3787.77,5070.95
3826.73,5059.14
3862.64,5039.94
3886.23,5020.58
3891.7,5015.11
3983.03,5015.62
3990.72,5014.91
3998.11,5012.71
4004.94,5009.11
4010.93,5004.25
4015.86,4998.31
4019.54,4991.52
4019.7,4990.99
4358.85,4990.99
4389.72,4987.95
4419.41,4978.94
4446.76,4964.32
4458.72,4954.51
4613.97,4953.5
4651.73,4964.95
4682.1,4967.94
4789.53,4967.94
4810.1,4978.94
4839.79,4987.95
4870.66,4990.99
5421.84,4990.99
5452.71,4987.95
5482.4,4978.94
5509.76,4964.32
5533.74,4944.64
5553.42,4920.66
5568.04,4893.3
5577.04,4863.62
5580.08,4832.75
5580.08,4417.24
5599.99,4451.74
5637.39,4494.4
5682.38,4528.95
5733.25,4554.05
5788.04,4568.74
5833.28,4542.1
5833.28,4285.22
5837.22,4285.22
5837.22,4542.1
5882.46,4568.74
5937.25,4554.05
5988.12,4528.95
6033.12,4494.4
6070.51,4451.74
6098.86,4402.61
6117.08,4348.89
6120.74,4330.46
6094.1,4285.22
5837.22,4285.22
5833.28,4285.22
5825.41,4285.22
5825.41,4281.28
5833.28,4281.28
5833.28,4273.41
5837.22,4273.41
5837.22,4281.28
6094.1,4281.28
6120.74,4236.04
6120.11,4232.84
6177.1,4231.61
6184.76,4230.69
6192.1,4228.29
6198.82,4224.51
6206.73,4217.17
6309.73,4091.17
6314.01,4084.74
6316.95,4077.61
6318.44,4070.04
6318.62,4065.79
6312.62,3556.79
6311.77,3549.12
6309.44,3541.76
6305.73,3534.99
6300.65,3528.97
6140.65,3373.97
6134.6,3369.17
6127.74,3365.64
6120.32,3363.52
6112.91,3362.88
5648.91,3366.88
5641.24,3367.71
5633.87,3370.01
5627.1,3373.71
5620.9,3378.94
5497.18,3507.34
5474.73,3509.55
5435.77,3521.37
5399.86,3540.56
5376.28,3559.92
5324.68,3611.51
5155.94,3611.51
5146.25,3610.56
5136.56,3611.51
4991.82,3611.51
4971.49,3591.18
4970.95,3585.73
4965.44,3567.55
4963.62,3096.1
4962.84,3088.42
4960.57,3081.05
4956.9,3074.25
4951.98,3068.31
4946,3063.43
4939.18,3059.82
4931.78,3057.61
4924.25,3056.88
4901.23,3056.88
4901.23,2991.04
4897.44,2952.49
4886.19,2915.42
4867.93,2881.25
4865.61,2878.42
4865.04,2822.73
4834.53,2792.22
4740.25,2792.22
4740.53,2788.28
4834.53,2788.28
4865.04,2757.77
4865.63,2699.7
4863.27,2675.78
4856.29,2652.77
4844.96,2631.57
4842.81,2628.94
5223.1,2628.94
5233.25,2629.94
5243.4,2628.94
5243.4,2628.94
5273.77,2625.95
5312.73,2614.14
5348.64,2594.94
5380.11,2569.11
5386.59,2561.22
5547.93,2399.88
5555.81,2393.41
5581.64,2361.94
5600.84,2326.03
5612.65,2287.07
5615.65,2256.7
5615.65,2256.7
5616.65,2246.55
5615.65,2236.4
5615.65,1593.4
5616.65,1583.25
5612.65,1542.73
5600.84,1503.77
5596.17,1495.05
5581.64,1467.86
5564.83,1447.37
5562.29,1444.28
5562.28,1444.28
5555.81,1436.39
5547.93,1429.92
5535.52,1417.51
5535.52,1271.93
5532.48,1241.06
5523.47,1211.37
5508.85,1184.01
5490.38,1161.51
5492.69,1151.57
7316.93,1151.57
7316.93,5316.93
1151.57,5316.93
1151.57,1151.57
2667.66,1151.57
Z" /> 
<path style="fill:#840000; fill-opacity:1.0; 
stroke:#840000; stroke-width:78.7402; stroke-opacity:1; 
stroke-linecap:round; stroke-linejoin:round;fill-rule:evenodd;"
d="M 3989.89,2667.13
3978.13,2674.99
3957.24,2668
3926.24,2664.05
3926.24,2651.21
Z" /> 
</g>
</g>
<g style="fill:#FFFFFF; fill-opacity:1.0; 
stroke:#FFFFFF; stroke-width:78.7402; stroke-opacity:1; 
stroke-linecap:round; stroke-linejoin:round;">
</g>
<g style="fill:#FFFFFF; fill-opacity:1.0; 
stroke:#FFFFFF; stroke-width:0; stroke-opacity:1; 
stroke-linecap:round; stroke-linejoin:round;">
<circle cx="4113.25" cy="3437.25" r="19.685" /> 
</g>
<g style="fill:#FFFFFF; fill-opacity:1.0; 
stroke:#FFFFFF; stroke-width:39.3701; stroke-opacity:1; 
stroke-linecap:round; stroke-linejoin:round;">
</g>
<g style="fill:#FFFFFF; fill-opacity:1.0; 
stroke:#FFFFFF; stroke-width:0; stroke-opacity:1; 
stroke-linecap:round; stroke-linejoin:round;">
<circle cx="3916.25" cy="2846.25" r="19.685" /> 
</g>
<g style="fill:#FFFFFF; fill-opacity:1.0; 
stroke:#FFFFFF; stroke-width:39.3701; stroke-opacity:1; 
stroke-linecap:round; stroke-linejoin:round;">
</g>
<g style="fill:#FFFFFF; fill-opacity:1.0; 
stroke:#FFFFFF; stroke-width:0; stroke-opacity:1; 
stroke-linecap:round; stroke-linejoin:round;">
<circle cx="1962.25" cy="3344.25" r="19.685" /> 
</g>
<g style="fill:#FFFFFF; fill-opacity:1.0; 
stroke:#FFFFFF; stroke-width:39.3701; stroke-opacity:1; 
stroke-linecap:round; stroke-linejoin:round;">
</g>
<g style="fill:#FFFFFF; fill-opacity:1.0; 
stroke:#FFFFFF; stroke-width:0; stroke-opacity:1; 
stroke-linecap:round; stroke-linejoin:round;">
<circle cx="5040.25" cy="3502.25" r="19.685" /> 
</g>
<g style="fill:#FFFFFF; fill-opacity:1.0; 
stroke:#FFFFFF; stroke-width:39.3701; stroke-opacity:1; 
stroke-linecap:round; stroke-linejoin:round;">
</g>
<g style="fill:#FFFFFF; fill-opacity:1.0; 
stroke:#FFFFFF; stroke-width:0; stroke-opacity:1; 
stroke-linecap:round; stroke-linejoin:round;">
<circle cx="5204.25" cy="3503.25" r="19.685" /> 
</g>
<g style="fill:#FFFFFF; fill-opacity:1.0; 
stroke:#FFFFFF; stroke-width:39.3701; stroke-opacity:1; 
stroke-linecap:round; stroke-linejoin:round;">
</g>
<g style="fill:#FFFFFF; fill-opacity:1.0; 
stroke:#FFFFFF; stroke-width:0; stroke-opacity:1; 
stroke-linecap:round; stroke-linejoin:round;">
<circle cx="5346.25" cy="3503.25" r="19.685" /> 
</g>
<g style="fill:#FFFFFF; fill-opacity:1.0; 
stroke:#FFFFFF; stroke-width:39.3701; stroke-opacity:1; 
stroke-linecap:round; stroke-linejoin:round;">
</g>
<g style="fill:#FFFFFF; fill-opacity:1.0; 
stroke:#FFFFFF; stroke-width:0; stroke-opacity:1; 
stroke-linecap:round; stroke-linejoin:round;">
<circle cx="3949.25" cy="2596.25" r="19.685" /> 
</g>
<g style="fill:#FFFFFF; fill-opacity:1.0; 
stroke:#FFFFFF; stroke-width:39.3701; stroke-opacity:1; 
stroke-linecap:round; stroke-linejoin:round;">
</g>
<g style="fill:#FFFFFF; fill-opacity:1.0; 
stroke:#FFFFFF; stroke-width:0; stroke-opacity:1; 
stroke-linecap:round; stroke-linejoin:round;">
<circle cx="4094.25" cy="2595.25" r="19.685" /> 
</g>
<g style="fill:#FFFFFF; fill-opacity:1.0; 
stroke:#FFFFFF; stroke-width:39.3701; stroke-opacity:1; 
stroke-linecap:round; stroke-linejoin:round;">
</g>
<g style="fill:#FFFFFF; fill-opacity:1.0; 
stroke:#FFFFFF; stroke-width:0; stroke-opacity:1; 
stroke-linecap:round; stroke-linejoin:round;">
<circle cx="5029.25" cy="2204.25" r="39.3701" /> 
</g>
<g style="fill:#FFFFFF; fill-opacity:1.0; 
stroke:#FFFFFF; stroke-width:39.3701; stroke-opacity:1; 
stroke-linecap:round; stroke-linejoin:round;">
</g>
<g style="fill:#FFFFFF; fill-opacity:1.0; 
stroke:#FFFFFF; stroke-width:0; stroke-opacity:1; 
stroke-linecap:round; stroke-linejoin:round;">
<circle cx="2509.25" cy="1393.25" r="19.685" /> 
</g>
<g style="fill:#FFFFFF; fill-opacity:1.0; 
stroke:#FFFFFF; stroke-width:39.3701; stroke-opacity:1; 
stroke-linecap:round; stroke-linejoin:round;">
</g>
<g style="fill:#FFFFFF; fill-opacity:1.0; 
stroke:#FFFFFF; stroke-width:0; stroke-opacity:1; 
stroke-linecap:round; stroke-linejoin:round;">
<circle cx="1679.25" cy="2462.25" r="19.685" /> 
</g>
<g style="fill:#FFFFFF; fill-opacity:1.0; 
stroke:#FFFFFF; stroke-width:39.3701; stroke-opacity:1; 
stroke-linecap:round; stroke-linejoin:round;">
</g>
<g style="fill:#FFFFFF; fill-opacity:1.0; 
stroke:#FFFFFF; stroke-width:0; stroke-opacity:1; 
stroke-linecap:round; stroke-linejoin:round;">
<circle cx="3916.25" cy="3240.25" r="19.685" /> 
</g>
<g style="fill:#FFFFFF; fill-opacity:1.0; 
stroke:#FFFFFF; stroke-width:39.3701; stroke-opacity:1; 
stroke-linecap:round; stroke-linejoin:round;">
</g>
<g style="fill:#FFFFFF; fill-opacity:1.0; 
stroke:#FFFFFF; stroke-width:0; stroke-opacity:1; 
stroke-linecap:round; stroke-linejoin:round;">
<circle cx="3916.25" cy="3043.25" r="19.685" /> 
</g>
<g style="fill:#FFFFFF; fill-opacity:1.0; 
stroke:#FFFFFF; stroke-width:39.3701; stroke-opacity:1; 
stroke-linecap:round; stroke-linejoin:round;">
</g>
<g style="fill:#FFFFFF; fill-opacity:1.0; 
stroke:#FFFFFF; stroke-width:0; stroke-opacity:1; 
stroke-linecap:round; stroke-linejoin:round;">
<circle cx="4422.55" cy="1439.25" r="98.4252" /> 
</g>
<g style="fill:#FFFFFF; fill-opacity:1.0; 
stroke:#FFFFFF; stroke-width:39.3701; stroke-opacity:1; 
stroke-linecap:round; stroke-linejoin:round;">
</g>
<g style="fill:#FFFFFF; fill-opacity:1.0; 
stroke:#FFFFFF; stroke-width:0; stroke-opacity:1; 
stroke-linecap:round; stroke-linejoin:round;">
<circle cx="4816.25" cy="1439.25" r="98.4252" /> 
</g>
<g style="fill:#FFFFFF; fill-opacity:1.0; 
stroke:#FFFFFF; stroke-width:39.3701; stroke-opacity:1; 
stroke-linecap:round; stroke-linejoin:round;">
</g>
<g style="fill:#FFFFFF; fill-opacity:1.0; 
stroke:#FFFFFF; stroke-width:0; stroke-opacity:1; 
stroke-linecap:round; stroke-linejoin:round;">
<circle cx="5209.95" cy="1439.25" r="98.4252" /> 
</g>
<g style="fill:#FFFFFF; fill-opacity:1.0; 
stroke:#FFFFFF; stroke-width:39.3701; stroke-opacity:1; 
stroke-linecap:round; stroke-linejoin:round;">
</g>
<g style="fill:#FFFFFF; fill-opacity:1.0; 
stroke:#FFFFFF; stroke-width:0; stroke-opacity:1; 
stroke-linecap:round; stroke-linejoin:round;">
<circle cx="5835.25" cy="4283.25" r="98.4252" /> 
</g>
<g style="fill:#FFFFFF; fill-opacity:1.0; 
stroke:#FFFFFF; stroke-width:39.3701; stroke-opacity:1; 
stroke-linecap:round; stroke-linejoin:round;">
</g>
<g style="fill:#FFFFFF; fill-opacity:1.0; 
stroke:#FFFFFF; stroke-width:0; stroke-opacity:1; 
stroke-linecap:round; stroke-linejoin:round;">
<circle cx="5835.25" cy="3889.55" r="98.4252" /> 
</g>
<g style="fill:#FFFFFF; fill-opacity:1.0; 
stroke:#FFFFFF; stroke-width:39.3701; stroke-opacity:1; 
stroke-linecap:round; stroke-linejoin:round;">
</g>
<g style="fill:#000000; fill-opacity:1.0; 
stroke:#000000; stroke-width:39.3701; stroke-opacity:1; 
stroke-linecap:round; stroke-linejoin:round;">
</g>
<g style="fill:#C2C200; fill-opacity:1.0; 
stroke:#C2C200; stroke-width:39.3701; stroke-opacity:1; 
stroke-linecap:round; stroke-linejoin:round;">
</g>
<g style="fill:#C2C200; fill-opacity:1.0; 
stroke:#C2C200; stroke-width:19.685; stroke-opacity:1; 
stroke-linecap:round; stroke-linejoin:round;">
</g>
<g style="fill:#C2C200; fill-opacity:0.0; 
stroke:#C2C200; stroke-width:19.685; stroke-opacity:1; 
stroke-linecap:round; stroke-linejoin:round;">
<path d="M984 984
L984 5484
" />
<path d="M7484 5484
L984 5484
" />
<path d="M7484 984
L7484 5484
" />
<path d="M7484 5484
L7484 984
" />
<path d="M984 984
L7484 984
" />
<circle cx="984.252" cy="984.252" r="656.168" /> 
<path d="M0 984
L1968 984
" />
<path d="M984 0
L984 1968
" />
<circle cx="7484.25" cy="5484.25" r="656.168" /> 
<path d="M6500 5484
L8468 5484
" />
<path d="M7484 4500
L7484 6468
" />
<circle cx="7484.25" cy="984.252" r="656.168" /> 
<path d="M6500 984
L8468 984
" />
<path d="M7484 0
L7484 1968
" />
<circle cx="984.252" cy="5484.25" r="656.168" /> 
<path d="M0 5484
L1968 5484
" />
<path d="M984 4500
L984 6468
" />
<g >
</g>
<g >
</g>
<g >
</g>
<g >
</g>
<g >
</g>
<g >
</g>
<g >
</g>
<g >
</g>
<g >
</g>
<g >
</g>
<g >
</g>
<g >
</g>
<g >
</g>
<g >
</g>
<g >
</g>
<g >
</g>
<g >
</g>
<g >
</g>
<g >
</g>
<g >
</g>
<g >
</g>
<g >
</g>
</g> 
</svg>
