<?xml version="1.0" standalone="no"?>
 <!DOCTYPE svg PUBLIC "-//W3C//DTD SVG 1.1//EN" 
 "http://www.w3.org/Graphics/SVG/1.1/DTD/svg11.dtd"> 
<svg xmlns="http://www.w3.org/2000/svg" version="1.1" 
    width="2.73812cm" height="1.64084cm" viewBox="0 0 10780 6460 ">
<title>SVG Picture created as Masterproef ultrasonic transmitter-F_Paste.svg date 2021/09/03 16:05:26 </title>
  <desc>Picture generated by PCBNEW </desc>
<g style="fill:#000000; fill-opacity:1;stroke:#000000; stroke-opacity:1;
stroke-linecap:round; stroke-linejoin:round; "
 transform="translate(0 0) scale(1 1)">
</g>
<g style="fill:#000000; fill-opacity:0.0; 
stroke:#000000; stroke-width:-0.000393701; stroke-opacity:1; 
stroke-linecap:round; stroke-linejoin:round;">
<g >
</g>
<g >
</g>
<g >
</g>
<g >
</g>
<g >
</g>
<g >
</g>
<g >
</g>
<g style="fill:#840000; fill-opacity:0.0; 
stroke:#840000; stroke-width:-0.000393701; stroke-opacity:1; 
stroke-linecap:round; stroke-linejoin:round;">
</g>
<g style="fill:#840000; fill-opacity:0.0; 
stroke:#840000; stroke-width:0; stroke-opacity:1; 
stroke-linecap:round; stroke-linejoin:round;">
</g>
<g style="fill:#840000; fill-opacity:1.0; 
stroke:#840000; stroke-width:0; stroke-opacity:1; 
stroke-linecap:round; stroke-linejoin:round;">
<path style="fill:#840000; fill-opacity:1.0; 
stroke:#840000; stroke-width:0; stroke-opacity:1; 
stroke-linecap:round; stroke-linejoin:round;fill-rule:evenodd;"
d="M 3862.79,4726.45
3862.79,3876.06
4303.73,3876.06
4303.73,4726.45
Z" /> 
<path style="fill:#840000; fill-opacity:1.0; 
stroke:#840000; stroke-width:0; stroke-opacity:1; 
stroke-linecap:round; stroke-linejoin:round;fill-rule:evenodd;"
d="M 4925.78,4726.45
4925.78,3876.06
5366.72,3876.06
5366.72,4726.45
Z" /> 
</g>
<g >
</g>
<g >
</g>
<g style="fill:#840000; fill-opacity:1.0; 
stroke:#840000; stroke-width:0; stroke-opacity:1; 
stroke-linecap:round; stroke-linejoin:round;">
<circle cx="4113.25" cy="3437.1" r="48.189" /> 
</g>
<g style="fill:#840000; fill-opacity:1.0; 
stroke:#840000; stroke-width:39.3701; stroke-opacity:1; 
stroke-linecap:round; stroke-linejoin:round;">
</g>
<g style="fill:#840000; fill-opacity:1.0; 
stroke:#840000; stroke-width:0; stroke-opacity:1; 
stroke-linecap:round; stroke-linejoin:round;">
<circle cx="3916.4" cy="3437.1" r="48.189" /> 
</g>
<g style="fill:#840000; fill-opacity:1.0; 
stroke:#840000; stroke-width:39.3701; stroke-opacity:1; 
stroke-linecap:round; stroke-linejoin:round;">
</g>
<g style="fill:#840000; fill-opacity:1.0; 
stroke:#840000; stroke-width:0; stroke-opacity:1; 
stroke-linecap:round; stroke-linejoin:round;">
<circle cx="3719.55" cy="3437.1" r="48.189" /> 
</g>
<g style="fill:#840000; fill-opacity:1.0; 
stroke:#840000; stroke-width:39.3701; stroke-opacity:1; 
stroke-linecap:round; stroke-linejoin:round;">
</g>
<g style="fill:#840000; fill-opacity:1.0; 
stroke:#840000; stroke-width:0; stroke-opacity:1; 
stroke-linecap:round; stroke-linejoin:round;">
<circle cx="4113.25" cy="3240.25" r="48.189" /> 
</g>
<g style="fill:#840000; fill-opacity:1.0; 
stroke:#840000; stroke-width:39.3701; stroke-opacity:1; 
stroke-linecap:round; stroke-linejoin:round;">
</g>
<g style="fill:#840000; fill-opacity:1.0; 
stroke:#840000; stroke-width:0; stroke-opacity:1; 
stroke-linecap:round; stroke-linejoin:round;">
<circle cx="3916.4" cy="3240.25" r="48.189" /> 
</g>
<g style="fill:#840000; fill-opacity:1.0; 
stroke:#840000; stroke-width:39.3701; stroke-opacity:1; 
stroke-linecap:round; stroke-linejoin:round;">
</g>
<g style="fill:#840000; fill-opacity:1.0; 
stroke:#840000; stroke-width:0; stroke-opacity:1; 
stroke-linecap:round; stroke-linejoin:round;">
<circle cx="3719.55" cy="3240.25" r="48.189" /> 
</g>
<g style="fill:#840000; fill-opacity:1.0; 
stroke:#840000; stroke-width:39.3701; stroke-opacity:1; 
stroke-linecap:round; stroke-linejoin:round;">
</g>
<g style="fill:#840000; fill-opacity:1.0; 
stroke:#840000; stroke-width:0; stroke-opacity:1; 
stroke-linecap:round; stroke-linejoin:round;">
<circle cx="4113.25" cy="3043.4" r="48.189" /> 
</g>
<g style="fill:#840000; fill-opacity:1.0; 
stroke:#840000; stroke-width:39.3701; stroke-opacity:1; 
stroke-linecap:round; stroke-linejoin:round;">
</g>
<g style="fill:#840000; fill-opacity:1.0; 
stroke:#840000; stroke-width:0; stroke-opacity:1; 
stroke-linecap:round; stroke-linejoin:round;">
<circle cx="3916.4" cy="3043.4" r="48.189" /> 
</g>
<g style="fill:#840000; fill-opacity:1.0; 
stroke:#840000; stroke-width:39.3701; stroke-opacity:1; 
stroke-linecap:round; stroke-linejoin:round;">
</g>
<g style="fill:#840000; fill-opacity:1.0; 
stroke:#840000; stroke-width:0; stroke-opacity:1; 
stroke-linecap:round; stroke-linejoin:round;">
<circle cx="3719.55" cy="3043.4" r="48.189" /> 
</g>
<g style="fill:#840000; fill-opacity:1.0; 
stroke:#840000; stroke-width:39.3701; stroke-opacity:1; 
stroke-linecap:round; stroke-linejoin:round;">
</g>
<g style="fill:#840000; fill-opacity:1.0; 
stroke:#840000; stroke-width:0; stroke-opacity:1; 
stroke-linecap:round; stroke-linejoin:round;">
<circle cx="4113.25" cy="2846.55" r="48.189" /> 
</g>
<g style="fill:#840000; fill-opacity:1.0; 
stroke:#840000; stroke-width:39.3701; stroke-opacity:1; 
stroke-linecap:round; stroke-linejoin:round;">
</g>
<g style="fill:#840000; fill-opacity:1.0; 
stroke:#840000; stroke-width:0; stroke-opacity:1; 
stroke-linecap:round; stroke-linejoin:round;">
<circle cx="3916.4" cy="2846.55" r="48.189" /> 
</g>
<g style="fill:#840000; fill-opacity:1.0; 
stroke:#840000; stroke-width:39.3701; stroke-opacity:1; 
stroke-linecap:round; stroke-linejoin:round;">
</g>
<g style="fill:#840000; fill-opacity:1.0; 
stroke:#840000; stroke-width:0; stroke-opacity:1; 
stroke-linecap:round; stroke-linejoin:round;">
<circle cx="3719.55" cy="2846.55" r="48.189" /> 
</g>
<g style="fill:#840000; fill-opacity:1.0; 
stroke:#840000; stroke-width:39.3701; stroke-opacity:1; 
stroke-linecap:round; stroke-linejoin:round;">
</g>
<g >
</g>
<g style="fill:#840000; fill-opacity:1.0; 
stroke:#840000; stroke-width:39.3701; stroke-opacity:1; 
stroke-linecap:round; stroke-linejoin:round;">
</g>
<g style="fill:#840000; fill-opacity:1.0; 
stroke:#840000; stroke-width:0; stroke-opacity:1; 
stroke-linecap:round; stroke-linejoin:round;">
<path style="fill:#840000; fill-opacity:1.0; 
stroke:#840000; stroke-width:0; stroke-opacity:1; 
stroke-linecap:round; stroke-linejoin:round;fill-rule:evenodd;"
d="M 2573.46,3943.11
2775.04,3943.11
2775.04,4075.39
2573.46,4075.39
Z" /> 
<path style="fill:#840000; fill-opacity:1.0; 
stroke:#840000; stroke-width:0; stroke-opacity:1; 
stroke-linecap:round; stroke-linejoin:round;fill-rule:evenodd;"
d="M 3164.02,3943.11
3365.59,3943.11
3365.59,4075.39
3164.02,4075.39
Z" /> 
</g>
<g >
</g>
<g style="fill:#840000; fill-opacity:1.0; 
stroke:#840000; stroke-width:0; stroke-opacity:1; 
stroke-linecap:round; stroke-linejoin:round;">
<path style="fill:#840000; fill-opacity:1.0; 
stroke:#840000; stroke-width:0; stroke-opacity:1; 
stroke-linecap:round; stroke-linejoin:round;fill-rule:evenodd;"
d="M 2470.98,1807.98
2477.67,1808.97
2484.23,1810.61
2490.59,1812.89
2496.71,1815.78
2502.51,1819.26
2507.94,1823.28
2512.95,1827.83
2517.49,1832.84
2521.51,1838.27
2524.99,1844.07
2527.88,1850.18
2530.16,1856.54
2531.8,1863.1
2532.79,1869.79
2533.13,1876.54
2533.13,2037.96
2532.79,2044.71
2531.8,2051.4
2530.16,2057.96
2527.88,2064.33
2524.99,2070.44
2521.51,2076.24
2517.49,2081.67
2512.95,2086.68
2507.94,2091.22
2502.51,2095.25
2496.71,2098.72
2490.59,2101.61
2484.23,2103.89
2477.67,2105.53
2470.98,2106.53
2464.23,2106.86
2326.43,2106.86
2319.68,2106.53
2312.99,2105.53
2306.43,2103.89
2300.07,2101.61
2293.96,2098.72
2288.16,2095.25
2282.72,2091.22
2277.71,2086.68
2273.17,2081.67
2269.15,2076.24
2265.67,2070.44
2262.78,2064.33
2260.5,2057.96
2258.86,2051.4
2257.87,2044.71
2257.54,2037.96
2257.54,1876.54
2257.87,1869.79
2258.86,1863.1
2260.5,1856.54
2262.78,1850.18
2265.67,1844.07
2269.15,1838.27
2273.17,1832.84
2277.71,1827.83
2282.72,1823.28
2288.16,1819.26
2293.96,1815.78
2300.07,1812.89
2306.43,1810.61
2312.99,1808.97
2319.68,1807.98
2326.43,1807.65
2464.23,1807.65
Z" /> 
<path style="fill:#840000; fill-opacity:1.0; 
stroke:#840000; stroke-width:0; stroke-opacity:1; 
stroke-linecap:round; stroke-linejoin:round;fill-rule:evenodd;"
d="M 1850.9,1807.98
1857.59,1808.97
1864.15,1810.61
1870.52,1812.89
1876.63,1815.78
1882.43,1819.26
1887.86,1823.28
1892.87,1827.83
1897.41,1832.84
1901.44,1838.27
1904.91,1844.07
1907.8,1850.18
1910.08,1856.54
1911.72,1863.1
1912.72,1869.79
1913.05,1876.54
1913.05,2037.96
1912.72,2044.71
1911.72,2051.4
1910.08,2057.96
1907.8,2064.33
1904.91,2070.44
1901.44,2076.24
1897.41,2081.67
1892.87,2086.68
1887.86,2091.22
1882.43,2095.25
1876.63,2098.72
1870.52,2101.61
1864.15,2103.89
1857.59,2105.53
1850.9,2106.53
1844.15,2106.86
1706.35,2106.86
1699.6,2106.53
1692.91,2105.53
1686.35,2103.89
1679.99,2101.61
1673.88,2098.72
1668.08,2095.25
1662.65,2091.22
1657.64,2086.68
1653.1,2081.67
1649.07,2076.24
1645.59,2070.44
1642.7,2064.33
1640.42,2057.96
1638.78,2051.4
1637.79,2044.71
1637.46,2037.96
1637.46,1876.54
1637.79,1869.79
1638.78,1863.1
1640.42,1856.54
1642.7,1850.18
1645.59,1844.07
1649.07,1838.27
1653.1,1832.84
1657.64,1827.83
1662.65,1823.28
1668.08,1819.26
1673.88,1815.78
1679.99,1812.89
1686.35,1810.61
1692.91,1808.97
1699.6,1807.98
1706.35,1807.65
1844.15,1807.65
Z" /> 
</g>
<g >
</g>
<g style="fill:#840000; fill-opacity:1.0; 
stroke:#840000; stroke-width:0; stroke-opacity:1; 
stroke-linecap:round; stroke-linejoin:round;">
<path style="fill:#840000; fill-opacity:1.0; 
stroke:#840000; stroke-width:0; stroke-opacity:1; 
stroke-linecap:round; stroke-linejoin:round;fill-rule:evenodd;"
d="M 3065.71,1843.87
3072.4,1844.86
3078.96,1846.5
3085.33,1848.78
3091.44,1851.67
3097.24,1855.15
3102.67,1859.17
3107.68,1863.71
3112.22,1868.72
3116.25,1874.16
3119.72,1879.96
3122.61,1886.07
3124.89,1892.43
3126.53,1898.99
3127.53,1905.68
3127.86,1912.43
3127.86,2050.23
3127.53,2056.98
3126.53,2063.67
3124.89,2070.23
3122.61,2076.59
3119.72,2082.71
3116.25,2088.51
3112.22,2093.94
3107.68,2098.95
3102.67,2103.49
3097.24,2107.51
3091.44,2110.99
3085.33,2113.88
3078.96,2116.16
3072.4,2117.8
3065.71,2118.79
3058.96,2119.13
2897.54,2119.13
2890.79,2118.79
2884.1,2117.8
2877.54,2116.16
2871.18,2113.88
2865.07,2110.99
2859.27,2107.51
2853.84,2103.49
2848.83,2098.95
2844.28,2093.94
2840.26,2088.51
2836.78,2082.71
2833.89,2076.59
2831.61,2070.23
2829.97,2063.67
2828.98,2056.98
2828.65,2050.23
2828.65,1912.43
2828.98,1905.68
2829.97,1898.99
2831.61,1892.43
2833.89,1886.07
2836.78,1879.96
2840.26,1874.16
2844.28,1868.72
2848.83,1863.71
2853.84,1859.17
2859.27,1855.15
2865.07,1851.67
2871.18,1848.78
2877.54,1846.5
2884.1,1844.86
2890.79,1843.87
2897.54,1843.54
3058.96,1843.54
Z" /> 
<path style="fill:#840000; fill-opacity:1.0; 
stroke:#840000; stroke-width:0; stroke-opacity:1; 
stroke-linecap:round; stroke-linejoin:round;fill-rule:evenodd;"
d="M 3065.71,1223.79
3072.4,1224.78
3078.96,1226.42
3085.33,1228.7
3091.44,1231.59
3097.24,1235.07
3102.67,1239.1
3107.68,1243.64
3112.22,1248.65
3116.25,1254.08
3119.72,1259.88
3122.61,1265.99
3124.89,1272.35
3126.53,1278.91
3127.53,1285.6
3127.86,1292.35
3127.86,1430.15
3127.53,1436.9
3126.53,1443.59
3124.89,1450.15
3122.61,1456.52
3119.72,1462.63
3116.25,1468.43
3112.22,1473.86
3107.68,1478.87
3102.67,1483.41
3097.24,1487.44
3091.44,1490.91
3085.33,1493.8
3078.96,1496.08
3072.4,1497.72
3065.71,1498.72
3058.96,1499.05
2897.54,1499.05
2890.79,1498.72
2884.1,1497.72
2877.54,1496.08
2871.18,1493.8
2865.07,1490.91
2859.27,1487.44
2853.84,1483.41
2848.83,1478.87
2844.28,1473.86
2840.26,1468.43
2836.78,1462.63
2833.89,1456.52
2831.61,1450.15
2829.97,1443.59
2828.98,1436.9
2828.65,1430.15
2828.65,1292.35
2828.98,1285.6
2829.97,1278.91
2831.61,1272.35
2833.89,1265.99
2836.78,1259.88
2840.26,1254.08
2844.28,1248.65
2848.83,1243.64
2853.84,1239.1
2859.27,1235.07
2865.07,1231.59
2871.18,1228.7
2877.54,1226.42
2884.1,1224.78
2890.79,1223.79
2897.54,1223.46
3058.96,1223.46
Z" /> 
</g>
<g >
</g>
<g >
</g>
<g >
</g>
<g style="fill:#000000; fill-opacity:1.0; 
stroke:#000000; stroke-width:0; stroke-opacity:1; 
stroke-linecap:round; stroke-linejoin:round;">
<path style="fill:#000000; fill-opacity:1.0; 
stroke:#000000; stroke-width:0; stroke-opacity:1; 
stroke-linecap:round; stroke-linejoin:round;fill-rule:evenodd;"
d="M 4706.89,2717.96
4709.93,2718.41
4712.9,2719.16
4715.8,2720.19
4718.57,2721.51
4721.21,2723.09
4723.67,2724.92
4725.95,2726.98
4728.01,2729.25
4729.84,2731.72
4731.42,2734.36
4732.74,2737.13
4733.77,2740.02
4734.52,2743
4734.97,2746.04
4735.12,2749.11
4735.12,2811.71
4734.97,2814.78
4734.52,2817.81
4733.77,2820.79
4732.74,2823.69
4731.42,2826.46
4729.84,2829.1
4728.01,2831.56
4725.95,2833.84
4723.67,2835.9
4721.21,2837.73
4718.57,2839.31
4715.8,2840.63
4712.9,2841.66
4709.93,2842.41
4706.89,2842.86
4703.82,2843.01
4624.69,2843.01
4621.62,2842.86
4618.58,2842.41
4615.6,2841.66
4612.71,2840.63
4609.93,2839.31
4607.3,2837.73
4604.83,2835.9
4602.55,2833.84
4600.49,2831.56
4598.66,2829.1
4597.08,2826.46
4595.77,2823.69
4594.73,2820.79
4593.99,2817.81
4593.54,2814.78
4593.39,2811.71
4593.39,2749.11
4593.54,2746.04
4593.99,2743
4594.73,2740.02
4595.77,2737.13
4597.08,2734.36
4598.66,2731.72
4600.49,2729.25
4602.55,2726.98
4604.83,2724.92
4607.3,2723.09
4609.93,2721.51
4612.71,2720.19
4615.6,2719.16
4618.58,2718.41
4621.62,2717.96
4624.69,2717.81
4703.82,2717.81
Z" /> 
<path style="fill:#000000; fill-opacity:1.0; 
stroke:#000000; stroke-width:0; stroke-opacity:1; 
stroke-linecap:round; stroke-linejoin:round;fill-rule:evenodd;"
d="M 4706.89,2989.62
4709.93,2990.07
4712.9,2990.81
4715.8,2991.85
4718.57,2993.16
4721.21,2994.74
4723.67,2996.57
4725.95,2998.63
4728.01,3000.91
4729.84,3003.37
4731.42,3006.01
4732.74,3008.79
4733.77,3011.68
4734.52,3014.66
4734.97,3017.7
4735.12,3020.76
4735.12,3083.36
4734.97,3086.43
4734.52,3089.47
4733.77,3092.45
4732.74,3095.34
4731.42,3098.12
4729.84,3100.75
4728.01,3103.22
4725.95,3105.49
4723.67,3107.56
4721.21,3109.39
4718.57,3110.97
4715.8,3112.28
4712.9,3113.31
4709.93,3114.06
4706.89,3114.51
4703.82,3114.66
4624.69,3114.66
4621.62,3114.51
4618.58,3114.06
4615.6,3113.31
4612.71,3112.28
4609.93,3110.97
4607.3,3109.39
4604.83,3107.56
4602.55,3105.49
4600.49,3103.22
4598.66,3100.75
4597.08,3098.12
4595.77,3095.34
4594.73,3092.45
4593.99,3089.47
4593.54,3086.43
4593.39,3083.36
4593.39,3020.76
4593.54,3017.7
4593.99,3014.66
4594.73,3011.68
4595.77,3008.79
4597.08,3006.01
4598.66,3003.37
4600.49,3000.91
4602.55,2998.63
4604.83,2996.57
4607.3,2994.74
4609.93,2993.16
4612.71,2991.85
4615.6,2990.81
4618.58,2990.07
4621.62,2989.62
4624.69,2989.46
4703.82,2989.46
Z" /> 
</g>
<g >
</g>
<g style="fill:#840000; fill-opacity:1.0; 
stroke:#840000; stroke-width:0; stroke-opacity:1; 
stroke-linecap:round; stroke-linejoin:round;">
<path style="fill:#840000; fill-opacity:1.0; 
stroke:#840000; stroke-width:0; stroke-opacity:1; 
stroke-linecap:round; stroke-linejoin:round;fill-rule:evenodd;"
d="M 2923.55,2416.15
2931,2417.25
2938.31,2419.09
2945.4,2421.62
2952.21,2424.84
2958.68,2428.72
2964.73,2433.21
2970.31,2438.27
2975.37,2443.85
2979.86,2449.9
2983.73,2456.36
2986.95,2463.17
2989.49,2470.27
2991.32,2477.57
2992.43,2485.03
2992.8,2492.55
2992.8,2779.95
2992.43,2787.48
2991.32,2794.93
2989.49,2802.24
2986.95,2809.33
2983.73,2816.14
2979.86,2822.6
2975.37,2828.66
2970.31,2834.24
2964.73,2839.3
2958.68,2843.79
2952.21,2847.66
2945.4,2850.88
2938.31,2853.42
2931,2855.25
2923.55,2856.35
2916.02,2856.72
2762.48,2856.72
2754.96,2856.35
2747.5,2855.25
2740.19,2853.42
2733.1,2850.88
2726.29,2847.66
2719.83,2843.79
2713.78,2839.3
2708.19,2834.24
2703.14,2828.66
2698.65,2822.6
2694.77,2816.14
2691.55,2809.33
2689.01,2802.24
2687.18,2794.93
2686.08,2787.48
2685.71,2779.95
2685.71,2492.55
2686.08,2485.03
2687.18,2477.57
2689.01,2470.27
2691.55,2463.17
2694.77,2456.36
2698.65,2449.9
2703.14,2443.85
2708.19,2438.27
2713.78,2433.21
2719.83,2428.72
2726.29,2424.84
2733.1,2421.62
2740.19,2419.09
2747.5,2417.25
2754.96,2416.15
2762.48,2415.78
2916.02,2415.78
Z" /> 
<path style="fill:#840000; fill-opacity:1.0; 
stroke:#840000; stroke-width:0; stroke-opacity:1; 
stroke-linecap:round; stroke-linejoin:round;fill-rule:evenodd;"
d="M 2185.36,2416.15
2192.81,2417.25
2200.12,2419.09
2207.21,2421.62
2214.02,2424.84
2220.49,2428.72
2226.54,2433.21
2232.12,2438.27
2237.18,2443.85
2241.67,2449.9
2245.54,2456.36
2248.76,2463.17
2251.3,2470.27
2253.13,2477.57
2254.24,2485.03
2254.61,2492.55
2254.61,2779.95
2254.24,2787.48
2253.13,2794.93
2251.3,2802.24
2248.76,2809.33
2245.54,2816.14
2241.67,2822.6
2237.18,2828.66
2232.12,2834.24
2226.54,2839.3
2220.49,2843.79
2214.02,2847.66
2207.21,2850.88
2200.12,2853.42
2192.81,2855.25
2185.36,2856.35
2177.83,2856.72
2024.29,2856.72
2016.77,2856.35
2009.31,2855.25
2002.01,2853.42
1994.91,2850.88
1988.1,2847.66
1981.64,2843.79
1975.59,2839.3
1970.01,2834.24
1964.95,2828.66
1960.46,2822.6
1956.58,2816.14
1953.36,2809.33
1950.83,2802.24
1948.99,2794.93
1947.89,2787.48
1947.52,2779.95
1947.52,2492.55
1947.89,2485.03
1948.99,2477.57
1950.83,2470.27
1953.36,2463.17
1956.58,2456.36
1960.46,2449.9
1964.95,2443.85
1970.01,2438.27
1975.59,2433.21
1981.64,2428.72
1988.1,2424.84
1994.91,2421.62
2002.01,2419.09
2009.31,2417.25
2016.77,2416.15
2024.29,2415.78
2177.83,2415.78
Z" /> 
</g>
<g >
</g>
<g style="fill:#840000; fill-opacity:1.0; 
stroke:#840000; stroke-width:0; stroke-opacity:1; 
stroke-linecap:round; stroke-linejoin:round;">
<path style="fill:#840000; fill-opacity:1.0; 
stroke:#840000; stroke-width:0; stroke-opacity:1; 
stroke-linecap:round; stroke-linejoin:round;fill-rule:evenodd;"
d="M 3785.48,1925.27
3792.93,1926.37
3800.24,1928.2
3807.33,1930.74
3814.14,1933.96
3820.6,1937.84
3826.66,1942.32
3832.24,1947.38
3837.3,1952.97
3841.79,1959.02
3845.66,1965.48
3848.88,1972.29
3851.42,1979.38
3853.25,1986.69
3854.35,1994.14
3854.72,2001.67
3854.72,2155.21
3854.35,2162.74
3853.25,2170.19
3851.42,2177.5
3848.88,2184.59
3845.66,2191.4
3841.79,2197.86
3837.3,2203.92
3832.24,2209.5
3826.66,2214.56
3820.6,2219.05
3814.14,2222.92
3807.33,2226.14
3800.24,2228.68
3792.93,2230.51
3785.48,2231.61
3777.95,2231.98
3490.55,2231.98
3483.03,2231.61
3475.57,2230.51
3468.27,2228.68
3461.17,2226.14
3454.36,2222.92
3447.9,2219.05
3441.85,2214.56
3436.27,2209.5
3431.21,2203.92
3426.72,2197.86
3422.84,2191.4
3419.62,2184.59
3417.09,2177.5
3415.25,2170.19
3414.15,2162.74
3413.78,2155.21
3413.78,2001.67
3414.15,1994.14
3415.25,1986.69
3417.09,1979.38
3419.62,1972.29
3422.84,1965.48
3426.72,1959.02
3431.21,1952.97
3436.27,1947.38
3441.85,1942.32
3447.9,1937.84
3454.36,1933.96
3461.17,1930.74
3468.27,1928.2
3475.57,1926.37
3483.03,1925.27
3490.55,1924.9
3777.95,1924.9
Z" /> 
<path style="fill:#840000; fill-opacity:1.0; 
stroke:#840000; stroke-width:0; stroke-opacity:1; 
stroke-linecap:round; stroke-linejoin:round;fill-rule:evenodd;"
d="M 3785.48,1187.08
3792.93,1188.18
3800.24,1190.01
3807.33,1192.55
3814.14,1195.77
3820.6,1199.65
3826.66,1204.14
3832.24,1209.19
3837.3,1214.78
3841.79,1220.83
3845.66,1227.29
3848.88,1234.1
3851.42,1241.19
3853.25,1248.5
3854.35,1255.96
3854.72,1263.48
3854.72,1417.02
3854.35,1424.55
3853.25,1432
3851.42,1439.31
3848.88,1446.4
3845.66,1453.21
3841.79,1459.68
3837.3,1465.73
3832.24,1471.31
3826.66,1476.37
3820.6,1480.86
3814.14,1484.73
3807.33,1487.95
3800.24,1490.49
3792.93,1492.32
3785.48,1493.43
3777.95,1493.8
3490.55,1493.8
3483.03,1493.43
3475.57,1492.32
3468.27,1490.49
3461.17,1487.95
3454.36,1484.73
3447.9,1480.86
3441.85,1476.37
3436.27,1471.31
3431.21,1465.73
3426.72,1459.68
3422.84,1453.21
3419.62,1446.4
3417.09,1439.31
3415.25,1432
3414.15,1424.55
3413.78,1417.02
3413.78,1263.48
3414.15,1255.96
3415.25,1248.5
3417.09,1241.19
3419.62,1234.1
3422.84,1227.29
3426.72,1220.83
3431.21,1214.78
3436.27,1209.19
3441.85,1204.14
3447.9,1199.65
3454.36,1195.77
3461.17,1192.55
3468.27,1190.01
3475.57,1188.18
3483.03,1187.08
3490.55,1186.71
3777.95,1186.71
Z" /> 
</g>
<g >
</g>
<g style="fill:#000000; fill-opacity:1.0; 
stroke:#000000; stroke-width:0; stroke-opacity:1; 
stroke-linecap:round; stroke-linejoin:round;">
<path style="fill:#000000; fill-opacity:1.0; 
stroke:#000000; stroke-width:0; stroke-opacity:1; 
stroke-linecap:round; stroke-linejoin:round;fill-rule:evenodd;"
d="M 4428.79,2351.54
4431.83,2351.99
4434.81,2352.73
4437.7,2353.77
4440.48,2355.08
4443.11,2356.66
4445.58,2358.49
4447.86,2360.55
4449.92,2362.83
4451.75,2365.3
4453.33,2367.93
4454.64,2370.71
4455.68,2373.6
4456.42,2376.58
4456.87,2379.62
4457.02,2382.69
4457.02,2461.82
4456.87,2464.89
4456.42,2467.93
4455.68,2470.9
4454.64,2473.8
4453.33,2476.57
4451.75,2479.21
4449.92,2481.67
4447.86,2483.95
4445.58,2486.01
4443.11,2487.84
4440.48,2489.42
4437.7,2490.74
4434.81,2491.77
4431.83,2492.52
4428.79,2492.97
4425.72,2493.12
4363.13,2493.12
4360.06,2492.97
4357.02,2492.52
4354.04,2491.77
4351.15,2490.74
4348.37,2489.42
4345.74,2487.84
4343.27,2486.01
4340.99,2483.95
4338.93,2481.67
4337.1,2479.21
4335.52,2476.57
4334.21,2473.8
4333.17,2470.9
4332.43,2467.93
4331.98,2464.89
4331.83,2461.82
4331.83,2382.69
4331.98,2379.62
4332.43,2376.58
4333.17,2373.6
4334.21,2370.71
4335.52,2367.93
4337.1,2365.3
4338.93,2362.83
4340.99,2360.55
4343.27,2358.49
4345.74,2356.66
4348.37,2355.08
4351.15,2353.77
4354.04,2352.73
4357.02,2351.99
4360.06,2351.54
4363.13,2351.39
4425.72,2351.39
Z" /> 
<path style="fill:#000000; fill-opacity:1.0; 
stroke:#000000; stroke-width:0; stroke-opacity:1; 
stroke-linecap:round; stroke-linejoin:round;fill-rule:evenodd;"
d="M 4700.45,2351.54
4703.48,2351.99
4706.46,2352.73
4709.36,2353.77
4712.13,2355.08
4714.77,2356.66
4717.23,2358.49
4719.51,2360.55
4721.57,2362.83
4723.4,2365.3
4724.98,2367.93
4726.29,2370.71
4727.33,2373.6
4728.08,2376.58
4728.53,2379.62
4728.68,2382.69
4728.68,2461.82
4728.53,2464.89
4728.08,2467.93
4727.33,2470.9
4726.29,2473.8
4724.98,2476.57
4723.4,2479.21
4721.57,2481.67
4719.51,2483.95
4717.23,2486.01
4714.77,2487.84
4712.13,2489.42
4709.36,2490.74
4706.46,2491.77
4703.48,2492.52
4700.45,2492.97
4697.38,2493.12
4634.78,2493.12
4631.71,2492.97
4628.67,2492.52
4625.69,2491.77
4622.8,2490.74
4620.03,2489.42
4617.39,2487.84
4614.92,2486.01
4612.65,2483.95
4610.59,2481.67
4608.76,2479.21
4607.18,2476.57
4605.86,2473.8
4604.83,2470.9
4604.08,2467.93
4603.63,2464.89
4603.48,2461.82
4603.48,2382.69
4603.63,2379.62
4604.08,2376.58
4604.83,2373.6
4605.86,2370.71
4607.18,2367.93
4608.76,2365.3
4610.59,2362.83
4612.65,2360.55
4614.92,2358.49
4617.39,2356.66
4620.03,2355.08
4622.8,2353.77
4625.69,2352.73
4628.67,2351.99
4631.71,2351.54
4634.78,2351.39
4697.38,2351.39
Z" /> 
</g>
<g >
</g>
<g style="fill:#840000; fill-opacity:1.0; 
stroke:#840000; stroke-width:0; stroke-opacity:1; 
stroke-linecap:round; stroke-linejoin:round;">
<path style="fill:#840000; fill-opacity:1.0; 
stroke:#840000; stroke-width:0; stroke-opacity:1; 
stroke-linecap:round; stroke-linejoin:round;fill-rule:evenodd;"
d="M 2489.82,3195.98
2496.51,3196.97
2503.07,3198.61
2509.44,3200.89
2515.55,3203.78
2521.35,3207.26
2526.78,3211.28
2531.79,3215.83
2536.33,3220.84
2540.36,3226.27
2543.83,3232.07
2546.72,3238.18
2549,3244.54
2550.64,3251.1
2551.64,3257.79
2551.97,3264.54
2551.97,3425.96
2551.64,3432.71
2550.64,3439.4
2549,3445.96
2546.72,3452.33
2543.83,3458.44
2540.36,3464.24
2536.33,3469.67
2531.79,3474.68
2526.78,3479.22
2521.35,3483.25
2515.55,3486.72
2509.44,3489.61
2503.07,3491.89
2496.51,3493.53
2489.82,3494.53
2483.07,3494.86
2345.28,3494.86
2338.52,3494.53
2331.83,3493.53
2325.28,3491.89
2318.91,3489.61
2312.8,3486.72
2307,3483.25
2301.57,3479.22
2296.56,3474.68
2292.02,3469.67
2287.99,3464.24
2284.51,3458.44
2281.62,3452.33
2279.34,3445.96
2277.7,3439.4
2276.71,3432.71
2276.38,3425.96
2276.38,3264.54
2276.71,3257.79
2277.7,3251.1
2279.34,3244.54
2281.62,3238.18
2284.51,3232.07
2287.99,3226.27
2292.02,3220.84
2296.56,3215.83
2301.57,3211.28
2307,3207.26
2312.8,3203.78
2318.91,3200.89
2325.28,3198.61
2331.83,3196.97
2338.52,3195.98
2345.28,3195.65
2483.07,3195.65
Z" /> 
<path style="fill:#840000; fill-opacity:1.0; 
stroke:#840000; stroke-width:0; stroke-opacity:1; 
stroke-linecap:round; stroke-linejoin:round;fill-rule:evenodd;"
d="M 3109.9,3195.98
3116.59,3196.97
3123.15,3198.61
3129.52,3200.89
3135.63,3203.78
3141.43,3207.26
3146.86,3211.28
3151.87,3215.83
3156.41,3220.84
3160.44,3226.27
3163.91,3232.07
3166.8,3238.18
3169.08,3244.54
3170.72,3251.1
3171.72,3257.79
3172.05,3264.54
3172.05,3425.96
3171.72,3432.71
3170.72,3439.4
3169.08,3445.96
3166.8,3452.33
3163.91,3458.44
3160.44,3464.24
3156.41,3469.67
3151.87,3474.68
3146.86,3479.22
3141.43,3483.25
3135.63,3486.72
3129.52,3489.61
3123.15,3491.89
3116.59,3493.53
3109.9,3494.53
3103.15,3494.86
2965.35,3494.86
2958.6,3494.53
2951.91,3493.53
2945.35,3491.89
2938.99,3489.61
2932.88,3486.72
2927.08,3483.25
2921.65,3479.22
2916.64,3474.68
2912.1,3469.67
2908.07,3464.24
2904.59,3458.44
2901.7,3452.33
2899.42,3445.96
2897.78,3439.4
2896.79,3432.71
2896.46,3425.96
2896.46,3264.54
2896.79,3257.79
2897.78,3251.1
2899.42,3244.54
2901.7,3238.18
2904.59,3232.07
2908.07,3226.27
2912.1,3220.84
2916.64,3215.83
2921.65,3211.28
2927.08,3207.26
2932.88,3203.78
2938.99,3200.89
2945.35,3198.61
2951.91,3196.97
2958.6,3195.98
2965.35,3195.65
3103.15,3195.65
Z" /> 
</g>
<g >
</g>
<g >
</g>
<g >
</g>
<g >
</g>
<g >
</g>
</g>
<g style="fill:#000000; fill-opacity:1.0; 
stroke:#000000; stroke-width:0; stroke-opacity:1; 
stroke-linecap:round; stroke-linejoin:round;">
</g>
<g style="fill:#C2C200; fill-opacity:1.0; 
stroke:#C2C200; stroke-width:0; stroke-opacity:1; 
stroke-linecap:round; stroke-linejoin:round;">
</g>
<g style="fill:#C2C200; fill-opacity:1.0; 
stroke:#C2C200; stroke-width:19.685; stroke-opacity:1; 
stroke-linecap:round; stroke-linejoin:round;">
</g>
<g style="fill:#C2C200; fill-opacity:0.0; 
stroke:#C2C200; stroke-width:19.685; stroke-opacity:1; 
stroke-linecap:round; stroke-linejoin:round;">
<path d="M984 984
L984 5484
" />
<path d="M7484 5484
L984 5484
" />
<path d="M7484 984
L7484 5484
" />
<path d="M7484 5484
L7484 984
" />
<path d="M984 984
L7484 984
" />
<circle cx="984.252" cy="984.252" r="656.168" /> 
<path d="M0 984
L1968 984
" />
<path d="M984 0
L984 1968
" />
<circle cx="7484.25" cy="5484.25" r="656.168" /> 
<path d="M6500 5484
L8468 5484
" />
<path d="M7484 4500
L7484 6468
" />
<circle cx="7484.25" cy="984.252" r="656.168" /> 
<path d="M6500 984
L8468 984
" />
<path d="M7484 0
L7484 1968
" />
<circle cx="984.252" cy="5484.25" r="656.168" /> 
<path d="M0 5484
L1968 5484
" />
<path d="M984 4500
L984 6468
" />
<g >
</g>
<g >
</g>
<g >
</g>
<g >
</g>
<g >
</g>
<g >
</g>
<g >
</g>
<g >
</g>
<g >
</g>
<g >
</g>
<g >
</g>
<g >
</g>
<g >
</g>
<g >
</g>
<g >
</g>
<g >
</g>
<g >
</g>
<g >
</g>
<g >
</g>
<g >
</g>
<g >
</g>
<g >
</g>
</g> 
</svg>
