<?xml version="1.0" standalone="no"?>
 <!DOCTYPE svg PUBLIC "-//W3C//DTD SVG 1.1//EN" 
 "http://www.w3.org/Graphics/SVG/1.1/DTD/svg11.dtd"> 
<svg xmlns="http://www.w3.org/2000/svg" version="1.1" 
    width="2.73812cm" height="1.64084cm" viewBox="0 0 10780 6460 ">
<title>SVG Picture created as Masterproef ultrasonic transmitter-B_Mask.svg date 2021/09/03 16:05:26 </title>
  <desc>Picture generated by PCBNEW </desc>
<g style="fill:#000000; fill-opacity:1;stroke:#000000; stroke-opacity:1;
stroke-linecap:round; stroke-linejoin:round; "
 transform="translate(0 0) scale(1 1)">
</g>
<g style="fill:#000000; fill-opacity:0.0; 
stroke:#000000; stroke-width:-0.000393701; stroke-opacity:1; 
stroke-linecap:round; stroke-linejoin:round;">
</g>
<g style="fill:#848400; fill-opacity:0.0; 
stroke:#848400; stroke-width:-0.000393701; stroke-opacity:1; 
stroke-linecap:round; stroke-linejoin:round;">
</g>
<g style="fill:#848400; fill-opacity:1.0; 
stroke:#848400; stroke-width:0; stroke-opacity:1; 
stroke-linecap:round; stroke-linejoin:round;">
<path style="fill:#848400; fill-opacity:1.0; 
stroke:#848400; stroke-width:0; stroke-opacity:1; 
stroke-linecap:round; stroke-linejoin:round;fill-rule:evenodd;"
d="M 5378.36,4826.04
5393.58,4830.66
5407.61,4838.16
5419.91,4848.25
5430.01,4860.55
5437.51,4874.58
5442.12,4889.81
5443.92,4908.06
5443.92,5164.45
5442.12,5182.7
5437.51,5197.92
5430.01,5211.95
5419.91,5224.25
5407.61,5234.34
5393.58,5241.84
5378.36,5246.46
5360.11,5248.26
4936.4,5248.26
4918.15,5246.46
4902.92,5241.84
4888.89,5234.34
4876.59,5224.25
4866.5,5211.95
4859,5197.92
4854.38,5182.7
4852.58,5164.45
4852.58,4908.06
4854.38,4889.81
4859,4874.58
4866.5,4860.55
4876.59,4848.25
4888.89,4838.16
4902.92,4830.66
4918.15,4826.04
4936.4,4824.24
5360.11,4824.24
Z" /> 
<path style="fill:#848400; fill-opacity:1.0; 
stroke:#848400; stroke-width:0; stroke-opacity:1; 
stroke-linecap:round; stroke-linejoin:round;fill-rule:evenodd;"
d="M 4312.9,4206.14
4317.51,4207.54
4325.07,4211.58
4333.98,4215.27
4343.44,4217.16
4353.09,4217.16
4362.55,4215.27
4371.47,4211.58
4379.02,4207.54
4383.63,4206.14
4390.84,4205.43
4557.66,4205.43
4564.87,4206.14
4569.48,4207.54
4573.73,4209.81
4577.45,4212.87
4580.5,4216.59
4582.77,4220.84
4584.17,4225.44
4584.88,4232.65
4584.88,4375.85
4584.17,4383.06
4582.77,4387.67
4580.5,4391.92
4577.45,4395.64
4576.86,4396.12
4570.04,4402.94
4564.68,4410.97
4560.99,4419.88
4559.1,4429.34
4559.1,4438.99
4560.99,4448.45
4564.68,4457.36
4570.04,4465.38
4573.49,4469.59
4575.76,4473.84
4577.16,4478.44
4577.87,4485.65
4577.87,4628.85
4577.16,4636.06
4575.76,4640.67
4573.49,4644.92
4570.43,4648.64
4566.71,4651.69
4562.46,4653.96
4557.85,4655.36
4550.65,4656.07
4383.83,4656.07
4376.62,4655.36
4372.01,4653.96
4364.45,4649.92
4355.54,4646.23
4346.08,4644.35
4336.43,4644.35
4326.97,4646.23
4318.05,4649.92
4310.49,4653.96
4305.89,4655.36
4298.68,4656.07
4131.86,4656.07
4124.65,4655.36
4120.04,4653.96
4115.79,4651.69
4112.07,4648.64
4109.02,4644.92
4106.75,4640.67
4105.35,4636.06
4104.64,4628.85
4104.64,4485.65
4105.35,4478.44
4106.75,4473.84
4109.02,4469.59
4112.07,4465.87
4112.66,4465.38
4119.48,4458.56
4124.84,4450.54
4128.53,4441.62
4130.42,4432.16
4130.42,4422.52
4128.53,4413.05
4124.84,4404.14
4119.48,4396.12
4116.03,4391.92
4113.76,4387.67
4112.36,4383.06
4111.65,4375.85
4111.65,4232.65
4112.36,4225.44
4113.76,4220.84
4116.03,4216.59
4119.09,4212.87
4122.81,4209.81
4127.06,4207.54
4131.67,4206.14
4138.87,4205.43
4305.69,4205.43
Z" /> 
<path style="fill:#848400; fill-opacity:1.0; 
stroke:#848400; stroke-width:0; stroke-opacity:1; 
stroke-linecap:round; stroke-linejoin:round;fill-rule:evenodd;"
d="M 5378.36,4087.85
5393.58,4092.47
5407.61,4099.97
5419.91,4110.06
5430.01,4122.36
5437.51,4136.39
5442.12,4151.62
5443.92,4169.87
5443.92,4426.26
5442.12,4444.51
5437.51,4459.73
5430.01,4473.76
5419.91,4486.06
5407.61,4496.16
5393.58,4503.66
5378.36,4508.27
5360.11,4510.07
4936.4,4510.07
4918.15,4508.27
4902.92,4503.66
4888.89,4496.16
4876.59,4486.06
4866.5,4473.76
4859,4459.73
4854.38,4444.51
4852.58,4426.26
4852.58,4169.87
4854.38,4151.62
4859,4136.39
4866.5,4122.36
4876.59,4110.06
4888.89,4099.97
4902.92,4092.47
4918.15,4087.85
4936.4,4086.06
5360.11,4086.06
Z" /> 
<path style="fill:#848400; fill-opacity:1.0; 
stroke:#848400; stroke-width:0; stroke-opacity:1; 
stroke-linecap:round; stroke-linejoin:round;fill-rule:evenodd;"
d="M 6022.65,4076.95
6012.79,4076.95
6003.19,4077.9
5993.95,4080.7
5985.45,4085.25
5977.99,4091.37
5971.87,4098.82
5967.32,4107.33
5964.52,4116.56
5963.58,4126.16
5964.52,4135.77
5967.32,4145
5971.87,4153.51
5977.99,4160.96
5980.82,4163.79
6001.33,4194.48
6001.33,4194.48
6015.45,4228.59
6022.65,4264.79
6022.65,4301.71
6015.45,4337.91
6007.18,4357.89
6001.33,4372.02
5980.82,4402.71
5954.71,4428.82
5924.02,4449.33
5909.89,4455.18
5889.91,4463.45
5853.71,4470.65
5816.79,4470.65
5780.59,4463.45
5760.61,4455.18
5746.48,4449.33
5715.79,4428.82
5689.69,4402.71
5669.18,4372.02
5663.33,4357.89
5655.05,4337.91
5647.85,4301.71
5647.85,4264.79
5655.05,4228.59
5669.18,4194.48
5669.18,4194.48
5689.69,4163.79
5692.51,4160.96
5698.64,4153.51
5703.18,4145
5705.98,4135.77
5706.93,4126.16
5705.98,4116.56
5703.18,4107.33
5698.64,4098.82
5692.51,4091.37
5685.06,4085.25
5676.55,4080.7
5667.32,4077.9
5657.72,4076.95
5647.85,4076.95
5647.85,3702.15
6022.65,3702.15
Z" /> 
<path style="fill:#848400; fill-opacity:1.0; 
stroke:#848400; stroke-width:0; stroke-opacity:1; 
stroke-linecap:round; stroke-linejoin:round;fill-rule:evenodd;"
d="M 3189.61,3642.93
3239.77,3663.7
3239.77,3663.7
3284.91,3693.86
3323.29,3732.25
3334.58,3749.14
3353.45,3777.39
3374.23,3827.54
3384.82,3880.79
3384.82,3935.07
3374.23,3988.32
3353.45,4038.47
3348.02,4046.6
3323.29,4083.61
3284.91,4121.99
3278.67,4126.16
3239.77,4152.15
3189.61,4172.93
3136.37,4183.52
3082.08,4183.52
3028.84,4172.93
2978.69,4152.15
2939.79,4126.16
2933.55,4121.99
2895.16,4083.61
2870.44,4046.6
2865,4038.47
2844.23,3988.32
2833.64,3935.07
2833.64,3880.79
2844.23,3827.54
2865,3777.39
2883.88,3749.14
2895.16,3732.25
2933.55,3693.86
2978.69,3663.7
2978.69,3663.7
3028.84,3642.93
3082.08,3632.34
3136.37,3632.34
Z" /> 
<path style="fill:#848400; fill-opacity:1.0; 
stroke:#848400; stroke-width:0; stroke-opacity:1; 
stroke-linecap:round; stroke-linejoin:round;fill-rule:evenodd;"
d="M 4643.7,3230.54
4657.07,3234.6
4669.41,3241.19
4680.21,3250.06
4689.08,3260.86
4695.67,3273.19
4699.73,3286.57
4701.34,3302.9
4701.34,3539.6
4699.73,3555.93
4695.67,3569.31
4689.08,3581.64
4680.21,3592.45
4669.4,3601.32
4666.14,3603.06
4658.12,3608.42
4651.3,3615.24
4645.94,3623.26
4642.25,3632.18
4640.37,3641.64
4640.37,3651.29
4642.25,3660.75
4645.94,3669.66
4651.3,3677.68
4658.12,3684.5
4672.49,3696.29
4681.36,3707.1
4687.95,3719.43
4692.01,3732.81
4693.61,3749.14
4693.61,4015.37
4692.01,4031.7
4687.95,4045.07
4681.36,4057.41
4672.49,4068.21
4661.68,4077.08
4649.35,4083.67
4635.97,4087.73
4619.64,4089.34
4382.94,4089.34
4366.61,4087.73
4353.23,4083.67
4340.9,4077.08
4330.09,4068.21
4321.23,4057.41
4314.64,4045.07
4310.58,4031.7
4308.97,4015.37
4308.97,3749.14
4310.58,3732.81
4314.64,3719.43
4321.23,3707.1
4330.09,3696.29
4338.91,3689.06
4345.73,3682.24
4351.09,3674.22
4354.78,3665.3
4356.66,3655.84
4356.66,3646.2
4354.78,3636.73
4351.09,3627.82
4345.73,3619.8
4338.91,3612.98
4330.89,3607.62
4319.1,3601.32
4308.29,3592.45
4299.42,3581.64
4292.83,3569.31
4288.77,3555.93
4287.17,3539.6
4287.17,3302.9
4288.77,3286.57
4292.83,3273.19
4299.42,3260.86
4308.29,3250.06
4319.1,3241.19
4331.43,3234.6
4344.81,3230.54
4361.14,3228.93
4627.37,3228.93
Z" /> 
<path style="fill:#848400; fill-opacity:1.0; 
stroke:#848400; stroke-width:0; stroke-opacity:1; 
stroke-linecap:round; stroke-linejoin:round;fill-rule:evenodd;"
d="M 4015.89,3676.77
4029.27,3680.83
4041.6,3687.42
4052.41,3696.29
4061.28,3707.1
4067.87,3719.43
4071.93,3732.81
4073.54,3749.14
4073.54,4015.37
4071.93,4031.7
4067.87,4045.07
4061.28,4057.41
4052.41,4068.21
4041.6,4077.08
4029.27,4083.67
4015.89,4087.73
3999.56,4089.34
3762.86,4089.34
3746.53,4087.73
3733.15,4083.67
3720.82,4077.08
3710.02,4068.21
3701.15,4057.41
3694.56,4045.07
3690.5,4031.7
3688.89,4015.37
3688.89,3749.14
3690.5,3732.81
3694.56,3719.43
3701.15,3707.1
3710.02,3696.29
3720.82,3687.42
3733.15,3680.83
3746.53,3676.77
3762.86,3675.17
3999.56,3675.17
Z" /> 
<path style="fill:#848400; fill-opacity:1.0; 
stroke:#848400; stroke-width:0; stroke-opacity:1; 
stroke-linecap:round; stroke-linejoin:round;fill-rule:evenodd;"
d="M 4896.85,3129.61
4907.67,3134.09
4917.41,3140.59
4923.46,3146.64
4930.91,3152.76
4939.42,3157.31
4948.65,3160.11
4958.25,3161.05
4967.85,3160.11
4977.08,3157.31
4985.59,3152.76
4993.05,3146.64
4999.1,3140.59
5008.83,3134.09
5019.65,3129.61
5031.14,3127.32
5042.85,3127.32
5054.33,3129.61
5065.15,3134.09
5074.89,3140.59
5083.17,3148.88
5089.68,3158.61
5094.16,3169.43
5096.44,3180.92
5096.44,3192.63
5094.16,3204.11
5089.68,3214.93
5083.17,3224.67
5077.12,3230.72
5071,3238.17
5066.46,3246.68
5063.66,3255.91
5062.71,3265.51
5063.66,3275.11
5066.46,3284.34
5071,3292.85
5077.12,3300.31
5083.17,3306.36
5089.68,3316.09
5094.16,3326.91
5096.44,3338.4
5096.44,3350.11
5094.16,3361.59
5089.68,3372.41
5083.17,3382.15
5077.12,3388.2
5071,3395.65
5066.46,3404.16
5063.66,3413.39
5062.71,3422.99
5063.66,3432.59
5066.46,3441.82
5071,3450.33
5077.12,3457.79
5083.17,3463.84
5089.68,3473.57
5094.16,3484.39
5096.44,3495.88
5096.44,3507.59
5094.16,3519.07
5089.68,3529.89
5083.17,3539.63
5074.89,3547.91
5065.15,3554.42
5054.33,3558.9
5042.85,3561.18
5031.14,3561.18
5019.65,3558.9
5008.83,3554.42
4999.1,3547.91
4993.05,3541.86
4985.59,3535.74
4977.08,3531.2
4967.85,3528.4
4958.25,3527.45
4948.65,3528.4
4939.42,3531.2
4930.91,3535.74
4923.46,3541.86
4917.41,3547.91
4907.67,3554.42
4896.85,3558.9
4885.37,3561.18
4873.66,3561.18
4862.17,3558.9
4851.35,3554.42
4841.62,3547.91
4833.33,3539.63
4826.83,3529.89
4822.35,3519.07
4820.06,3507.59
4820.06,3495.88
4822.35,3484.39
4826.83,3473.57
4833.33,3463.84
4839.38,3457.79
4845.5,3450.33
4850.05,3441.82
4852.85,3432.59
4853.79,3422.99
4905.23,3422.99
4906.17,3432.59
4908.98,3441.82
4913.52,3450.33
4919.64,3457.79
4923.46,3461.6
4930.91,3467.72
4939.42,3472.27
4948.65,3475.07
4958.25,3476.01
4967.85,3475.07
4977.08,3472.27
4985.59,3467.72
4993.05,3461.6
4996.86,3457.79
5002.98,3450.33
5007.53,3441.82
5010.33,3432.59
5011.27,3422.99
5010.33,3413.39
5007.53,3404.16
5002.98,3395.65
4996.86,3388.2
4993.05,3384.38
4985.59,3378.26
4977.08,3373.72
4967.85,3370.91
4958.25,3369.97
4948.65,3370.91
4939.42,3373.72
4930.91,3378.26
4923.46,3384.38
4919.64,3388.2
4913.52,3395.65
4908.98,3404.16
4906.17,3413.39
4905.23,3422.99
4853.79,3422.99
4852.85,3413.39
4850.05,3404.16
4845.5,3395.65
4839.38,3388.2
4833.33,3382.15
4826.83,3372.41
4822.35,3361.59
4820.06,3350.11
4820.06,3338.4
4822.35,3326.91
4826.83,3316.09
4833.33,3306.36
4839.38,3300.31
4845.5,3292.85
4850.05,3284.34
4852.85,3275.11
4853.79,3265.51
4905.23,3265.51
4906.17,3275.11
4908.98,3284.34
4913.52,3292.85
4919.64,3300.31
4923.46,3304.12
4930.91,3310.24
4939.42,3314.79
4948.65,3317.59
4958.25,3318.53
4967.85,3317.59
4977.08,3314.79
4985.59,3310.24
4993.05,3304.12
4996.86,3300.31
5002.98,3292.85
5007.53,3284.34
5010.33,3275.11
5011.27,3265.51
5010.33,3255.91
5007.53,3246.68
5002.98,3238.17
4996.86,3230.72
4993.05,3226.9
4985.59,3220.78
4977.08,3216.24
4967.85,3213.43
4958.25,3212.49
4948.65,3213.43
4939.42,3216.24
4930.91,3220.78
4923.46,3226.9
4919.64,3230.72
4913.52,3238.17
4908.98,3246.68
4906.17,3255.91
4905.23,3265.51
4853.79,3265.51
4852.85,3255.91
4850.05,3246.68
4845.5,3238.17
4839.38,3230.72
4833.33,3224.67
4826.83,3214.93
4822.35,3204.11
4820.06,3192.63
4820.06,3180.92
4822.35,3169.43
4826.83,3158.61
4833.33,3148.88
4841.62,3140.59
4851.35,3134.09
4862.17,3129.61
4873.66,3127.32
4885.37,3127.32
Z" /> 
<path style="fill:#848400; fill-opacity:1.0; 
stroke:#848400; stroke-width:0; stroke-opacity:1; 
stroke-linecap:round; stroke-linejoin:round;fill-rule:evenodd;"
d="M 7073.84,3305.77
6482.5,3305.77
6482.5,2320.73
7073.84,2320.73
Z" /> 
<path style="fill:#848400; fill-opacity:1.0; 
stroke:#848400; stroke-width:0; stroke-opacity:1; 
stroke-linecap:round; stroke-linejoin:round;fill-rule:evenodd;"
d="M 5814,3305.77
5222.66,3305.77
5222.66,2320.73
5814,2320.73
Z" /> 
<path style="fill:#848400; fill-opacity:1.0; 
stroke:#848400; stroke-width:0; stroke-opacity:1; 
stroke-linecap:round; stroke-linejoin:round;fill-rule:evenodd;"
d="M 4643.7,2610.46
4657.07,2614.52
4669.41,2621.11
4680.21,2629.98
4689.08,2640.78
4695.67,2653.11
4699.73,2666.49
4701.34,2682.82
4701.34,2919.52
4699.73,2935.85
4695.67,2949.23
4689.08,2961.56
4680.21,2972.37
4669.41,2981.24
4657.07,2987.83
4643.7,2991.89
4627.37,2993.5
4361.14,2993.5
4344.81,2991.89
4331.43,2987.83
4319.1,2981.24
4308.29,2972.37
4299.42,2961.56
4292.83,2949.23
4288.77,2935.85
4287.17,2919.52
4287.17,2682.82
4288.77,2666.49
4292.83,2653.11
4299.42,2640.78
4308.29,2629.98
4319.1,2621.11
4331.43,2614.52
4344.81,2610.46
4361.14,2608.85
4627.37,2608.85
Z" /> 
<path style="fill:#848400; fill-opacity:1.0; 
stroke:#848400; stroke-width:0; stroke-opacity:1; 
stroke-linecap:round; stroke-linejoin:round;fill-rule:evenodd;"
d="M 4563.9,2266.14
4568.51,2267.54
4576.07,2271.58
4584.98,2275.27
4594.44,2277.16
4604.09,2277.16
4613.55,2275.27
4622.47,2271.58
4630.02,2267.54
4634.63,2266.14
4641.84,2265.43
4808.66,2265.43
4815.87,2266.14
4820.48,2267.54
4824.73,2269.81
4828.45,2272.87
4831.5,2276.59
4833.77,2280.84
4835.17,2285.44
4835.88,2292.65
4835.88,2435.85
4835.17,2443.06
4833.77,2447.67
4831.5,2451.92
4828.45,2455.64
4824.73,2458.69
4820.48,2460.96
4815.87,2462.36
4808.66,2463.07
4641.84,2463.07
4634.63,2462.36
4630.02,2460.96
4622.47,2456.92
4613.55,2453.23
4604.09,2451.35
4594.44,2451.35
4584.98,2453.23
4576.07,2456.92
4568.51,2460.96
4563.9,2462.36
4556.69,2463.07
4389.87,2463.07
4382.67,2462.36
4378.06,2460.96
4373.81,2458.69
4370.09,2455.64
4367.03,2451.92
4364.76,2447.67
4363.36,2443.06
4362.65,2435.85
4362.65,2292.65
4363.36,2285.44
4364.76,2280.84
4367.03,2276.59
4370.09,2272.87
4373.81,2269.81
4378.06,2267.54
4382.67,2266.14
4389.87,2265.43
4556.69,2265.43
Z" /> 
<path style="fill:#848400; fill-opacity:1.0; 
stroke:#848400; stroke-width:0; stroke-opacity:1; 
stroke-linecap:round; stroke-linejoin:round;fill-rule:evenodd;"
d="M 1923.88,1487.81
1938.72,1492.31
1951.57,1499.18
1952.4,1499.62
1964.39,1509.46
1974.23,1521.45
1974.23,1521.45
1981.54,1535.13
1986.04,1549.97
1987.8,1567.83
1987.8,1917.32
1986.04,1935.18
1981.54,1950.02
1974.67,1962.87
1974.23,1963.7
1964.39,1975.69
1952.4,1985.53
1952.4,1985.53
1938.72,1992.84
1923.88,1997.34
1906.02,1999.1
1556.53,1999.1
1538.68,1997.34
1523.83,1992.84
1510.15,1985.53
1510.15,1985.53
1498.16,1975.69
1488.32,1963.7
1487.88,1962.87
1481.01,1950.02
1476.51,1935.18
1474.75,1917.32
1474.75,1567.83
1476.51,1549.97
1481.01,1535.13
1488.32,1521.45
1488.32,1521.45
1498.16,1509.46
1510.15,1499.62
1510.98,1499.18
1523.83,1492.31
1538.68,1487.81
1556.53,1486.05
1906.02,1486.05
Z" /> 
<path style="fill:#848400; fill-opacity:1.0; 
stroke:#848400; stroke-width:0; stroke-opacity:1; 
stroke-linecap:round; stroke-linejoin:round;fill-rule:evenodd;"
d="M 4477.21,1259.05
4497.19,1267.33
4511.32,1273.18
4542.01,1293.69
4568.12,1319.79
4578.48,1335.31
4584.6,1342.76
4592.06,1348.88
4600.57,1353.43
4609.8,1356.23
4619.4,1357.18
4629,1356.23
4638.23,1353.43
4646.74,1348.88
4654.2,1342.76
4660.32,1335.31
4670.69,1319.79
4696.79,1293.69
4727.48,1273.18
4741.61,1267.33
4761.59,1259.05
4797.79,1251.85
4834.71,1251.85
4870.91,1259.05
4890.89,1267.33
4905.02,1273.18
4935.71,1293.69
4938.54,1296.51
4946,1302.64
4954.51,1307.18
4963.74,1309.98
4973.34,1310.93
4982.94,1309.98
4992.17,1307.18
5000.68,1302.64
5008.14,1296.51
5014.26,1289.06
5018.81,1280.55
5021.61,1271.32
5022.55,1261.72
5022.55,1251.85
5397.35,1251.85
5397.35,1626.65
5022.55,1626.65
5022.55,1616.79
5021.61,1607.19
5018.81,1597.95
5014.26,1589.45
5008.14,1581.99
5000.68,1575.87
4992.17,1571.32
4982.94,1568.52
4973.34,1567.58
4963.74,1568.52
4954.51,1571.32
4946,1575.87
4938.54,1581.99
4935.71,1584.82
4905.02,1605.33
4900.53,1607.19
4870.91,1619.45
4834.71,1626.65
4797.79,1626.65
4761.59,1619.45
4731.98,1607.19
4727.48,1605.33
4696.79,1584.82
4670.69,1558.71
4660.32,1543.2
4654.2,1535.74
4646.74,1529.62
4638.23,1525.07
4629,1522.27
4619.4,1521.33
4609.8,1522.27
4600.57,1525.07
4592.06,1529.62
4584.6,1535.74
4578.48,1543.2
4568.12,1558.71
4542.01,1584.82
4511.32,1605.33
4506.82,1607.19
4477.21,1619.45
4441.01,1626.65
4404.09,1626.65
4367.89,1619.45
4338.28,1607.19
4333.78,1605.33
4303.09,1584.82
4276.99,1558.71
4256.48,1528.02
4248.79,1509.46
4242.35,1493.91
4235.15,1457.71
4235.15,1420.79
4242.35,1384.59
4254.1,1356.23
4256.48,1350.48
4276.99,1319.79
4303.09,1293.69
4333.78,1273.18
4347.91,1267.33
4367.89,1259.05
4404.09,1251.85
4441.01,1251.85
Z" /> 
</g>
<g style="fill:#000000; fill-opacity:1.0; 
stroke:#000000; stroke-width:0; stroke-opacity:1; 
stroke-linecap:round; stroke-linejoin:round;">
</g>
<g style="fill:#C2C200; fill-opacity:1.0; 
stroke:#C2C200; stroke-width:0; stroke-opacity:1; 
stroke-linecap:round; stroke-linejoin:round;">
</g>
<g style="fill:#C2C200; fill-opacity:1.0; 
stroke:#C2C200; stroke-width:19.685; stroke-opacity:1; 
stroke-linecap:round; stroke-linejoin:round;">
</g>
<g style="fill:#C2C200; fill-opacity:0.0; 
stroke:#C2C200; stroke-width:19.685; stroke-opacity:1; 
stroke-linecap:round; stroke-linejoin:round;">
<path d="M984 984
L984 5484
" />
<path d="M7484 5484
L984 5484
" />
<path d="M7484 984
L7484 5484
" />
<path d="M7484 5484
L7484 984
" />
<path d="M984 984
L7484 984
" />
<circle cx="984.252" cy="984.252" r="656.168" /> 
<path d="M0 984
L1968 984
" />
<path d="M984 0
L984 1968
" />
<circle cx="7484.25" cy="5484.25" r="656.168" /> 
<path d="M6500 5484
L8468 5484
" />
<path d="M7484 4500
L7484 6468
" />
<circle cx="7484.25" cy="984.252" r="656.168" /> 
<path d="M6500 984
L8468 984
" />
<path d="M7484 0
L7484 1968
" />
<circle cx="984.252" cy="5484.25" r="656.168" /> 
<path d="M0 5484
L1968 5484
" />
<path d="M984 4500
L984 6468
" />
<g >
</g>
<g >
</g>
<g >
</g>
<g >
</g>
<g >
</g>
<g >
</g>
<g >
</g>
<g >
</g>
<g >
</g>
<g >
</g>
<g >
</g>
<g >
</g>
<g >
</g>
<g >
</g>
<g >
</g>
<g >
</g>
<g >
</g>
<g >
</g>
<g >
</g>
<g >
</g>
<g >
</g>
<g >
</g>
</g> 
</svg>
