<?xml version="1.0" standalone="no"?>
 <!DOCTYPE svg PUBLIC "-//W3C//DTD SVG 1.1//EN" 
 "http://www.w3.org/Graphics/SVG/1.1/DTD/svg11.dtd"> 
<svg
  xmlns:svg="http://www.w3.org/2000/svg"
  xmlns="http://www.w3.org/2000/svg"
  xmlns:xlink="http://www.w3.org/1999/xlink"
  version="1.1"
  width="29.700220cm" height="21.000720cm" viewBox="0 0 116930 82680">
<title>SVG Picture created as Masterproef ultrasonic transducer-B_Paste.svg date 2021/10/04 10:32:20 </title>
  <desc>Picture generated by PCBNEW </desc>
<g style="fill:#000000; fill-opacity:1;stroke:#000000; stroke-opacity:1;
stroke-linecap:round; stroke-linejoin:round;"
 transform="translate(0 0) scale(1 1)">
</g>
<g style="fill:#000000; fill-opacity:0.0; 
stroke:#000000; stroke-width:-0.000393701; stroke-opacity:1; 
stroke-linecap:round; stroke-linejoin:round;">
</g>
<g style="fill:#000000; fill-opacity:0.0; 
stroke:#000000; stroke-width:39.3701; stroke-opacity:1; 
stroke-linecap:round; stroke-linejoin:round;">
</g>
<g style="fill:#000000; fill-opacity:0.0; 
stroke:#000000; stroke-width:59.0551; stroke-opacity:1; 
stroke-linecap:round; stroke-linejoin:round;">
<rect x="69685.9" y="65357.2" width="42519.7" height="12598.4" rx="0" />
</g>
<g style="fill:#000000; fill-opacity:0.0; 
stroke:#000000; stroke-width:39.3701; stroke-opacity:1; 
stroke-linecap:round; stroke-linejoin:round;">
</g>
<g style="fill:#000000; fill-opacity:0.0; 
stroke:#000000; stroke-width:59.0551; stroke-opacity:1; 
stroke-linecap:round; stroke-linejoin:round;">
<rect x="3937.01" y="3937.01" width="109056" height="74806" rx="0" />
</g>
<g style="fill:#000000; fill-opacity:0.0; 
stroke:#000000; stroke-width:39.3701; stroke-opacity:1; 
stroke-linecap:round; stroke-linejoin:round;">
</g>
<g style="fill:#000000; fill-opacity:0.0; 
stroke:#000000; stroke-width:59.0551; stroke-opacity:1; 
stroke-linecap:round; stroke-linejoin:round;">
<rect x="4724.41" y="4724.41" width="107481" height="73231.2" rx="0" />
</g>
<g style="fill:#000000; fill-opacity:0.0; 
stroke:#000000; stroke-width:39.3701; stroke-opacity:1; 
stroke-linecap:round; stroke-linejoin:round;">
</g>
<g style="fill:#000000; fill-opacity:0.0; 
stroke:#000000; stroke-width:59.0551; stroke-opacity:1; 
stroke-linecap:round; stroke-linejoin:round;">
<path d="M23622 4724
L23622 3937
" />
</g>
<g style="fill:#000000; fill-opacity:0.0; 
stroke:#000000; stroke-width:39.3701; stroke-opacity:1; 
stroke-linecap:round; stroke-linejoin:round;">
</g>
<g style="fill:#000000; fill-opacity:0.0; 
stroke:#000000; stroke-width:59.0551; stroke-opacity:1; 
stroke-linecap:round; stroke-linejoin:round;">
<path d="M43307 4724
L43307 3937
" />
</g>
<g style="fill:#000000; fill-opacity:0.0; 
stroke:#000000; stroke-width:39.3701; stroke-opacity:1; 
stroke-linecap:round; stroke-linejoin:round;">
</g>
<g style="fill:#000000; fill-opacity:0.0; 
stroke:#000000; stroke-width:59.0551; stroke-opacity:1; 
stroke-linecap:round; stroke-linejoin:round;">
<path d="M62992 4724
L62992 3937
" />
</g>
<g style="fill:#000000; fill-opacity:0.0; 
stroke:#000000; stroke-width:39.3701; stroke-opacity:1; 
stroke-linecap:round; stroke-linejoin:round;">
</g>
<g style="fill:#000000; fill-opacity:0.0; 
stroke:#000000; stroke-width:59.0551; stroke-opacity:1; 
stroke-linecap:round; stroke-linejoin:round;">
<path d="M82677 4724
L82677 3937
" />
</g>
<g style="fill:#000000; fill-opacity:0.0; 
stroke:#000000; stroke-width:39.3701; stroke-opacity:1; 
stroke-linecap:round; stroke-linejoin:round;">
</g>
<g style="fill:#000000; fill-opacity:0.0; 
stroke:#000000; stroke-width:59.0551; stroke-opacity:1; 
stroke-linecap:round; stroke-linejoin:round;">
<path d="M102362 4724
L102362 3937
" />
</g>
<g style="fill:#000000; fill-opacity:0.0; 
stroke:#000000; stroke-width:39.3701; stroke-opacity:1; 
stroke-linecap:round; stroke-linejoin:round;">
</g>
<g style="fill:#000000; fill-opacity:0.0; 
stroke:#000000; stroke-width:59.0551; stroke-opacity:1; 
stroke-linecap:round; stroke-linejoin:round;">
<text x="13779.5" y="4586.61"
textLength="546.494" font-size="682.415" lengthAdjust="spacingAndGlyphs"
text-anchor="start" opacity="0">1</text>
<path d="M14199 4562
L13906 4562
" />
<path d="M14052 4562
L14052 4050
L14004 4123
L13955 4172
L13906 4196
" />
</g>
<g style="fill:#000000; fill-opacity:0.0; 
stroke:#000000; stroke-width:39.3701; stroke-opacity:1; 
stroke-linecap:round; stroke-linejoin:round;">
</g>
<g style="fill:#000000; fill-opacity:0.0; 
stroke:#000000; stroke-width:59.0551; stroke-opacity:1; 
stroke-linecap:round; stroke-linejoin:round;">
<text x="33464.6" y="4586.61"
textLength="546.494" font-size="682.415" lengthAdjust="spacingAndGlyphs"
text-anchor="start" opacity="0">2</text>
<path d="M33591 4099
L33615 4074
L33664 4050
L33786 4050
L33835 4074
L33859 4099
L33884 4147
L33884 4196
L33859 4269
L33567 4562
L33884 4562
" />
</g>
<g style="fill:#000000; fill-opacity:0.0; 
stroke:#000000; stroke-width:39.3701; stroke-opacity:1; 
stroke-linecap:round; stroke-linejoin:round;">
</g>
<g style="fill:#000000; fill-opacity:0.0; 
stroke:#000000; stroke-width:59.0551; stroke-opacity:1; 
stroke-linecap:round; stroke-linejoin:round;">
<text x="53149.6" y="4586.61"
textLength="546.494" font-size="682.415" lengthAdjust="spacingAndGlyphs"
text-anchor="start" opacity="0">3</text>
<path d="M53252 4050
L53569 4050
L53398 4245
L53471 4245
L53520 4269
L53544 4294
L53569 4342
L53569 4464
L53544 4513
L53520 4537
L53471 4562
L53325 4562
L53276 4537
L53252 4513
" />
</g>
<g style="fill:#000000; fill-opacity:0.0; 
stroke:#000000; stroke-width:39.3701; stroke-opacity:1; 
stroke-linecap:round; stroke-linejoin:round;">
</g>
<g style="fill:#000000; fill-opacity:0.0; 
stroke:#000000; stroke-width:59.0551; stroke-opacity:1; 
stroke-linecap:round; stroke-linejoin:round;">
<text x="72834.6" y="4586.61"
textLength="546.494" font-size="682.415" lengthAdjust="spacingAndGlyphs"
text-anchor="start" opacity="0">4</text>
<path d="M73205 4221
L73205 4562
" />
<path d="M73083 4026
L72961 4391
L73278 4391
" />
</g>
<g style="fill:#000000; fill-opacity:0.0; 
stroke:#000000; stroke-width:39.3701; stroke-opacity:1; 
stroke-linecap:round; stroke-linejoin:round;">
</g>
<g style="fill:#000000; fill-opacity:0.0; 
stroke:#000000; stroke-width:59.0551; stroke-opacity:1; 
stroke-linecap:round; stroke-linejoin:round;">
<text x="92519.7" y="4586.61"
textLength="546.494" font-size="682.415" lengthAdjust="spacingAndGlyphs"
text-anchor="start" opacity="0">5</text>
<path d="M92914 4050
L92671 4050
L92646 4294
L92671 4269
L92719 4245
L92841 4245
L92890 4269
L92914 4294
L92939 4342
L92939 4464
L92914 4513
L92890 4537
L92841 4562
L92719 4562
L92671 4537
L92646 4513
" />
</g>
<g style="fill:#000000; fill-opacity:0.0; 
stroke:#000000; stroke-width:39.3701; stroke-opacity:1; 
stroke-linecap:round; stroke-linejoin:round;">
</g>
<g style="fill:#000000; fill-opacity:0.0; 
stroke:#000000; stroke-width:59.0551; stroke-opacity:1; 
stroke-linecap:round; stroke-linejoin:round;">
<text x="112205" y="4586.61"
textLength="546.494" font-size="682.415" lengthAdjust="spacingAndGlyphs"
text-anchor="start" opacity="0">6</text>
<path d="M112575 4050
L112477 4050
L112429 4074
L112404 4099
L112356 4172
L112331 4269
L112331 4464
L112356 4513
L112380 4537
L112429 4562
L112526 4562
L112575 4537
L112599 4513
L112624 4464
L112624 4342
L112599 4294
L112575 4269
L112526 4245
L112429 4245
L112380 4269
L112356 4294
L112331 4342
" />
</g>
<g style="fill:#000000; fill-opacity:0.0; 
stroke:#000000; stroke-width:39.3701; stroke-opacity:1; 
stroke-linecap:round; stroke-linejoin:round;">
</g>
<g style="fill:#000000; fill-opacity:0.0; 
stroke:#000000; stroke-width:59.0551; stroke-opacity:1; 
stroke-linecap:round; stroke-linejoin:round;">
<path d="M23622 77955
L23622 78742
" />
</g>
<g style="fill:#000000; fill-opacity:0.0; 
stroke:#000000; stroke-width:39.3701; stroke-opacity:1; 
stroke-linecap:round; stroke-linejoin:round;">
</g>
<g style="fill:#000000; fill-opacity:0.0; 
stroke:#000000; stroke-width:59.0551; stroke-opacity:1; 
stroke-linecap:round; stroke-linejoin:round;">
<path d="M43307 77955
L43307 78742
" />
</g>
<g style="fill:#000000; fill-opacity:0.0; 
stroke:#000000; stroke-width:39.3701; stroke-opacity:1; 
stroke-linecap:round; stroke-linejoin:round;">
</g>
<g style="fill:#000000; fill-opacity:0.0; 
stroke:#000000; stroke-width:59.0551; stroke-opacity:1; 
stroke-linecap:round; stroke-linejoin:round;">
<path d="M62992 77955
L62992 78742
" />
</g>
<g style="fill:#000000; fill-opacity:0.0; 
stroke:#000000; stroke-width:39.3701; stroke-opacity:1; 
stroke-linecap:round; stroke-linejoin:round;">
</g>
<g style="fill:#000000; fill-opacity:0.0; 
stroke:#000000; stroke-width:59.0551; stroke-opacity:1; 
stroke-linecap:round; stroke-linejoin:round;">
<path d="M82677 77955
L82677 78742
" />
</g>
<g style="fill:#000000; fill-opacity:0.0; 
stroke:#000000; stroke-width:39.3701; stroke-opacity:1; 
stroke-linecap:round; stroke-linejoin:round;">
</g>
<g style="fill:#000000; fill-opacity:0.0; 
stroke:#000000; stroke-width:59.0551; stroke-opacity:1; 
stroke-linecap:round; stroke-linejoin:round;">
<path d="M102362 77955
L102362 78742
" />
</g>
<g style="fill:#000000; fill-opacity:0.0; 
stroke:#000000; stroke-width:39.3701; stroke-opacity:1; 
stroke-linecap:round; stroke-linejoin:round;">
</g>
<g style="fill:#000000; fill-opacity:0.0; 
stroke:#000000; stroke-width:59.0551; stroke-opacity:1; 
stroke-linecap:round; stroke-linejoin:round;">
<text x="13779.5" y="78605.2"
textLength="546.494" font-size="682.415" lengthAdjust="spacingAndGlyphs"
text-anchor="start" opacity="0">1</text>
<path d="M14199 78580
L13906 78580
" />
<path d="M14052 78580
L14052 78069
L14004 78142
L13955 78190
L13906 78215
" />
</g>
<g style="fill:#000000; fill-opacity:0.0; 
stroke:#000000; stroke-width:39.3701; stroke-opacity:1; 
stroke-linecap:round; stroke-linejoin:round;">
</g>
<g style="fill:#000000; fill-opacity:0.0; 
stroke:#000000; stroke-width:59.0551; stroke-opacity:1; 
stroke-linecap:round; stroke-linejoin:round;">
<text x="33464.6" y="78605.2"
textLength="546.494" font-size="682.415" lengthAdjust="spacingAndGlyphs"
text-anchor="start" opacity="0">2</text>
<path d="M33591 78117
L33615 78093
L33664 78069
L33786 78069
L33835 78093
L33859 78117
L33884 78166
L33884 78215
L33859 78288
L33567 78580
L33884 78580
" />
</g>
<g style="fill:#000000; fill-opacity:0.0; 
stroke:#000000; stroke-width:39.3701; stroke-opacity:1; 
stroke-linecap:round; stroke-linejoin:round;">
</g>
<g style="fill:#000000; fill-opacity:0.0; 
stroke:#000000; stroke-width:59.0551; stroke-opacity:1; 
stroke-linecap:round; stroke-linejoin:round;">
<text x="53149.6" y="78605.2"
textLength="546.494" font-size="682.415" lengthAdjust="spacingAndGlyphs"
text-anchor="start" opacity="0">3</text>
<path d="M53252 78069
L53569 78069
L53398 78263
L53471 78263
L53520 78288
L53544 78312
L53569 78361
L53569 78483
L53544 78532
L53520 78556
L53471 78580
L53325 78580
L53276 78556
L53252 78532
" />
</g>
<g style="fill:#000000; fill-opacity:0.0; 
stroke:#000000; stroke-width:39.3701; stroke-opacity:1; 
stroke-linecap:round; stroke-linejoin:round;">
</g>
<g style="fill:#000000; fill-opacity:0.0; 
stroke:#000000; stroke-width:59.0551; stroke-opacity:1; 
stroke-linecap:round; stroke-linejoin:round;">
<text x="72834.6" y="78605.2"
textLength="546.494" font-size="682.415" lengthAdjust="spacingAndGlyphs"
text-anchor="start" opacity="0">4</text>
<path d="M73205 78239
L73205 78580
" />
<path d="M73083 78044
L72961 78410
L73278 78410
" />
</g>
<g style="fill:#000000; fill-opacity:0.0; 
stroke:#000000; stroke-width:39.3701; stroke-opacity:1; 
stroke-linecap:round; stroke-linejoin:round;">
</g>
<g style="fill:#000000; fill-opacity:0.0; 
stroke:#000000; stroke-width:59.0551; stroke-opacity:1; 
stroke-linecap:round; stroke-linejoin:round;">
<text x="92519.7" y="78605.2"
textLength="546.494" font-size="682.415" lengthAdjust="spacingAndGlyphs"
text-anchor="start" opacity="0">5</text>
<path d="M92914 78069
L92671 78069
L92646 78312
L92671 78288
L92719 78263
L92841 78263
L92890 78288
L92914 78312
L92939 78361
L92939 78483
L92914 78532
L92890 78556
L92841 78580
L92719 78580
L92671 78556
L92646 78532
" />
</g>
<g style="fill:#000000; fill-opacity:0.0; 
stroke:#000000; stroke-width:39.3701; stroke-opacity:1; 
stroke-linecap:round; stroke-linejoin:round;">
</g>
<g style="fill:#000000; fill-opacity:0.0; 
stroke:#000000; stroke-width:59.0551; stroke-opacity:1; 
stroke-linecap:round; stroke-linejoin:round;">
<text x="112205" y="78605.2"
textLength="546.494" font-size="682.415" lengthAdjust="spacingAndGlyphs"
text-anchor="start" opacity="0">6</text>
<path d="M112575 78069
L112477 78069
L112429 78093
L112404 78117
L112356 78190
L112331 78288
L112331 78483
L112356 78532
L112380 78556
L112429 78580
L112526 78580
L112575 78556
L112599 78532
L112624 78483
L112624 78361
L112599 78312
L112575 78288
L112526 78263
L112429 78263
L112380 78288
L112356 78312
L112331 78361
" />
</g>
<g style="fill:#000000; fill-opacity:0.0; 
stroke:#000000; stroke-width:39.3701; stroke-opacity:1; 
stroke-linecap:round; stroke-linejoin:round;">
</g>
<g style="fill:#000000; fill-opacity:0.0; 
stroke:#000000; stroke-width:59.0551; stroke-opacity:1; 
stroke-linecap:round; stroke-linejoin:round;">
<path d="M3937 23622
L4724 23622
" />
</g>
<g style="fill:#000000; fill-opacity:0.0; 
stroke:#000000; stroke-width:39.3701; stroke-opacity:1; 
stroke-linecap:round; stroke-linejoin:round;">
</g>
<g style="fill:#000000; fill-opacity:0.0; 
stroke:#000000; stroke-width:59.0551; stroke-opacity:1; 
stroke-linecap:round; stroke-linejoin:round;">
<path d="M3937 43307
L4724 43307
" />
</g>
<g style="fill:#000000; fill-opacity:0.0; 
stroke:#000000; stroke-width:39.3701; stroke-opacity:1; 
stroke-linecap:round; stroke-linejoin:round;">
</g>
<g style="fill:#000000; fill-opacity:0.0; 
stroke:#000000; stroke-width:59.0551; stroke-opacity:1; 
stroke-linecap:round; stroke-linejoin:round;">
<path d="M3937 62992
L4724 62992
" />
</g>
<g style="fill:#000000; fill-opacity:0.0; 
stroke:#000000; stroke-width:39.3701; stroke-opacity:1; 
stroke-linecap:round; stroke-linejoin:round;">
</g>
<g style="fill:#000000; fill-opacity:0.0; 
stroke:#000000; stroke-width:59.0551; stroke-opacity:1; 
stroke-linecap:round; stroke-linejoin:round;">
<text x="4330.71" y="14035.4"
textLength="497.75" font-size="682.415" lengthAdjust="spacingAndGlyphs"
text-anchor="middle" opacity="0">A</text>
<path d="M4208 13864
L4452 13864
" />
<path d="M4160 14011
L4330 13499
L4501 14011
" />
</g>
<g style="fill:#000000; fill-opacity:0.0; 
stroke:#000000; stroke-width:39.3701; stroke-opacity:1; 
stroke-linecap:round; stroke-linejoin:round;">
</g>
<g style="fill:#000000; fill-opacity:0.0; 
stroke:#000000; stroke-width:59.0551; stroke-opacity:1; 
stroke-linecap:round; stroke-linejoin:round;">
<text x="4330.71" y="33720.5"
textLength="570.866" font-size="682.415" lengthAdjust="spacingAndGlyphs"
text-anchor="middle" opacity="0">B</text>
<path d="M4367 33428
L4440 33452
L4464 33476
L4489 33525
L4489 33598
L4464 33647
L4440 33671
L4391 33696
L4196 33696
L4196 33184
L4367 33184
L4416 33208
L4440 33233
L4464 33281
L4464 33330
L4440 33379
L4416 33403
L4367 33428
L4196 33428
" />
</g>
<g style="fill:#000000; fill-opacity:0.0; 
stroke:#000000; stroke-width:39.3701; stroke-opacity:1; 
stroke-linecap:round; stroke-linejoin:round;">
</g>
<g style="fill:#000000; fill-opacity:0.0; 
stroke:#000000; stroke-width:59.0551; stroke-opacity:1; 
stroke-linecap:round; stroke-linejoin:round;">
<text x="4330.71" y="53405.5"
textLength="570.866" font-size="682.415" lengthAdjust="spacingAndGlyphs"
text-anchor="middle" opacity="0">C</text>
<path d="M4489 53332
L4464 53356
L4391 53381
L4342 53381
L4269 53356
L4221 53308
L4196 53259
L4172 53161
L4172 53088
L4196 52991
L4221 52942
L4269 52893
L4342 52869
L4391 52869
L4464 52893
L4489 52918
" />
</g>
<g style="fill:#000000; fill-opacity:0.0; 
stroke:#000000; stroke-width:39.3701; stroke-opacity:1; 
stroke-linecap:round; stroke-linejoin:round;">
</g>
<g style="fill:#000000; fill-opacity:0.0; 
stroke:#000000; stroke-width:59.0551; stroke-opacity:1; 
stroke-linecap:round; stroke-linejoin:round;">
<text x="4330.71" y="73090.6"
textLength="570.866" font-size="682.415" lengthAdjust="spacingAndGlyphs"
text-anchor="middle" opacity="0">D</text>
<path d="M4196 73066
L4196 72554
L4318 72554
L4391 72578
L4440 72627
L4464 72676
L4489 72773
L4489 72846
L4464 72944
L4440 72993
L4391 73041
L4318 73066
L4196 73066
" />
</g>
<g style="fill:#000000; fill-opacity:0.0; 
stroke:#000000; stroke-width:39.3701; stroke-opacity:1; 
stroke-linecap:round; stroke-linejoin:round;">
</g>
<g style="fill:#000000; fill-opacity:0.0; 
stroke:#000000; stroke-width:59.0551; stroke-opacity:1; 
stroke-linecap:round; stroke-linejoin:round;">
<path d="M112992 23622
L112205 23622
" />
</g>
<g style="fill:#000000; fill-opacity:0.0; 
stroke:#000000; stroke-width:39.3701; stroke-opacity:1; 
stroke-linecap:round; stroke-linejoin:round;">
</g>
<g style="fill:#000000; fill-opacity:0.0; 
stroke:#000000; stroke-width:59.0551; stroke-opacity:1; 
stroke-linecap:round; stroke-linejoin:round;">
<path d="M112992 43307
L112205 43307
" />
</g>
<g style="fill:#000000; fill-opacity:0.0; 
stroke:#000000; stroke-width:39.3701; stroke-opacity:1; 
stroke-linecap:round; stroke-linejoin:round;">
</g>
<g style="fill:#000000; fill-opacity:0.0; 
stroke:#000000; stroke-width:59.0551; stroke-opacity:1; 
stroke-linecap:round; stroke-linejoin:round;">
<path d="M112992 62992
L112205 62992
" />
</g>
<g style="fill:#000000; fill-opacity:0.0; 
stroke:#000000; stroke-width:39.3701; stroke-opacity:1; 
stroke-linecap:round; stroke-linejoin:round;">
</g>
<g style="fill:#000000; fill-opacity:0.0; 
stroke:#000000; stroke-width:59.0551; stroke-opacity:1; 
stroke-linecap:round; stroke-linejoin:round;">
<text x="112599" y="14035.4"
textLength="497.75" font-size="682.415" lengthAdjust="spacingAndGlyphs"
text-anchor="middle" opacity="0">A</text>
<path d="M112477 13864
L112721 13864
" />
<path d="M112428 14011
L112599 13499
L112769 14011
" />
</g>
<g style="fill:#000000; fill-opacity:0.0; 
stroke:#000000; stroke-width:39.3701; stroke-opacity:1; 
stroke-linecap:round; stroke-linejoin:round;">
</g>
<g style="fill:#000000; fill-opacity:0.0; 
stroke:#000000; stroke-width:59.0551; stroke-opacity:1; 
stroke-linecap:round; stroke-linejoin:round;">
<text x="112599" y="33720.5"
textLength="570.866" font-size="682.415" lengthAdjust="spacingAndGlyphs"
text-anchor="middle" opacity="0">B</text>
<path d="M112635 33428
L112708 33452
L112733 33476
L112757 33525
L112757 33598
L112733 33647
L112708 33671
L112660 33696
L112465 33696
L112465 33184
L112635 33184
L112684 33208
L112708 33233
L112733 33281
L112733 33330
L112708 33379
L112684 33403
L112635 33428
L112465 33428
" />
</g>
<g style="fill:#000000; fill-opacity:0.0; 
stroke:#000000; stroke-width:39.3701; stroke-opacity:1; 
stroke-linecap:round; stroke-linejoin:round;">
</g>
<g style="fill:#000000; fill-opacity:0.0; 
stroke:#000000; stroke-width:59.0551; stroke-opacity:1; 
stroke-linecap:round; stroke-linejoin:round;">
<text x="112599" y="53405.5"
textLength="570.866" font-size="682.415" lengthAdjust="spacingAndGlyphs"
text-anchor="middle" opacity="0">C</text>
<path d="M112757 53332
L112733 53356
L112660 53381
L112611 53381
L112538 53356
L112489 53308
L112465 53259
L112440 53161
L112440 53088
L112465 52991
L112489 52942
L112538 52893
L112611 52869
L112660 52869
L112733 52893
L112757 52918
" />
</g>
<g style="fill:#000000; fill-opacity:0.0; 
stroke:#000000; stroke-width:39.3701; stroke-opacity:1; 
stroke-linecap:round; stroke-linejoin:round;">
</g>
<g style="fill:#000000; fill-opacity:0.0; 
stroke:#000000; stroke-width:59.0551; stroke-opacity:1; 
stroke-linecap:round; stroke-linejoin:round;">
<text x="112599" y="73090.6"
textLength="570.866" font-size="682.415" lengthAdjust="spacingAndGlyphs"
text-anchor="middle" opacity="0">D</text>
<path d="M112465 73066
L112465 72554
L112587 72554
L112660 72578
L112708 72627
L112733 72676
L112757 72773
L112757 72846
L112733 72944
L112708 72993
L112660 73041
L112587 73066
L112465 73066
" />
</g>
<g style="fill:#000000; fill-opacity:0.0; 
stroke:#000000; stroke-width:39.3701; stroke-opacity:1; 
stroke-linecap:round; stroke-linejoin:round;">
</g>
<g style="fill:#000000; fill-opacity:0.0; 
stroke:#000000; stroke-width:59.0551; stroke-opacity:1; 
stroke-linecap:round; stroke-linejoin:round;">
<text x="78741" y="76321.7"
textLength="2758.72" font-size="787.402" lengthAdjust="spacingAndGlyphs"
text-anchor="start" opacity="0">Date: </text>
<path d="M78911 76293
L78911 75703
L79051 75703
L79136 75731
L79192 75787
L79220 75843
L79248 75956
L79248 76040
L79220 76153
L79192 76209
L79136 76265
L79051 76293
L78911 76293
" />
<path d="M79754 76293
L79754 75984
L79726 75928
L79670 75899
L79557 75899
L79501 75928
" />
<path d="M79754 76265
L79698 76293
L79557 76293
L79501 76265
L79473 76209
L79473 76153
L79501 76096
L79557 76068
L79698 76068
L79754 76040
" />
<path d="M79951 75899
L80176 75899
" />
<path d="M80036 75703
L80036 76209
L80064 76265
L80120 76293
L80176 76293
" />
<path d="M80598 76265
L80542 76293
L80429 76293
L80373 76265
L80345 76209
L80345 75984
L80373 75928
L80429 75899
L80542 75899
L80598 75928
L80626 75984
L80626 76040
L80345 76096
" />
<path d="M80879 76237
L80907 76265
L80879 76293
L80851 76265
L80879 76237
L80879 76293
" />
<path d="M80879 75928
L80907 75956
L80879 75984
L80851 75956
L80879 75928
L80879 75984
" />
</g>
<g style="fill:#000000; fill-opacity:0.0; 
stroke:#000000; stroke-width:39.3701; stroke-opacity:1; 
stroke-linecap:round; stroke-linejoin:round;">
</g>
<g style="fill:#000000; fill-opacity:0.0; 
stroke:#000000; stroke-width:59.0551; stroke-opacity:1; 
stroke-linecap:round; stroke-linejoin:round;">
<path d="M69685 76577
L112205 76577
" />
</g>
<g style="fill:#000000; fill-opacity:0.0; 
stroke:#000000; stroke-width:39.3701; stroke-opacity:1; 
stroke-linecap:round; stroke-linejoin:round;">
</g>
<g style="fill:#000000; fill-opacity:0.0; 
stroke:#000000; stroke-width:59.0551; stroke-opacity:1; 
stroke-linecap:round; stroke-linejoin:round;">
<text x="70079.6" y="77424.1"
textLength="14091.7" font-size="787.402" lengthAdjust="spacingAndGlyphs"
text-anchor="start" opacity="0">KiCad E.D.A.  kicad (5.1.10)-1</text>
<path d="M70249 77395
L70249 76805
" />
<path d="M70587 77395
L70334 77058
" />
<path d="M70587 76805
L70249 77142
" />
<path d="M70840 77395
L70840 77002
" />
<path d="M70840 76805
L70812 76833
L70840 76861
L70868 76833
L70840 76805
L70840 76861
" />
<path d="M71458 77339
L71430 77367
L71346 77395
L71290 77395
L71205 77367
L71149 77311
L71121 77255
L71093 77142
L71093 77058
L71121 76946
L71149 76889
L71205 76833
L71290 76805
L71346 76805
L71430 76833
L71458 76861
" />
<path d="M71965 77395
L71965 77086
L71937 77030
L71880 77002
L71768 77002
L71712 77030
" />
<path d="M71965 77367
L71908 77395
L71768 77395
L71712 77367
L71683 77311
L71683 77255
L71712 77199
L71768 77171
L71908 77171
L71965 77142
" />
<path d="M72499 77395
L72499 76805
" />
<path d="M72499 77367
L72443 77395
L72330 77395
L72274 77367
L72246 77339
L72218 77283
L72218 77114
L72246 77058
L72274 77030
L72330 77002
L72443 77002
L72499 77030
" />
<path d="M73230 77086
L73427 77086
" />
<path d="M73511 77395
L73230 77395
L73230 76805
L73511 76805
" />
<path d="M73764 77339
L73793 77367
L73764 77395
L73736 77367
L73764 77339
L73764 77395
" />
<path d="M74046 77395
L74046 76805
L74186 76805
L74271 76833
L74327 76889
L74355 76946
L74383 77058
L74383 77142
L74355 77255
L74327 77311
L74271 77367
L74186 77395
L74046 77395
" />
<path d="M74636 77339
L74664 77367
L74636 77395
L74608 77367
L74636 77339
L74636 77395
" />
<path d="M74889 77227
L75171 77227
" />
<path d="M74833 77395
L75030 76805
L75227 77395
" />
<path d="M75424 77339
L75452 77367
L75424 77395
L75395 77367
L75424 77339
L75424 77395
" />
<path d="M76605 77395
L76605 76805
" />
<path d="M76661 77171
L76830 77395
" />
<path d="M76830 77002
L76605 77227
" />
<path d="M77083 77395
L77083 77002
" />
<path d="M77083 76805
L77055 76833
L77083 76861
L77111 76833
L77083 76805
L77083 76861
" />
<path d="M77617 77367
L77561 77395
L77448 77395
L77392 77367
L77364 77339
L77336 77283
L77336 77114
L77364 77058
L77392 77030
L77448 77002
L77561 77002
L77617 77030
" />
<path d="M78123 77395
L78123 77086
L78095 77030
L78039 77002
L77926 77002
L77870 77030
" />
<path d="M78123 77367
L78067 77395
L77926 77395
L77870 77367
L77842 77311
L77842 77255
L77870 77199
L77926 77171
L78067 77171
L78123 77142
" />
<path d="M78658 77395
L78658 76805
" />
<path d="M78658 77367
L78601 77395
L78489 77395
L78433 77367
L78404 77339
L78376 77283
L78376 77114
L78404 77058
L78433 77030
L78489 77002
L78601 77002
L78658 77030
" />
<path d="M79557 77620
L79529 77592
L79473 77508
L79445 77452
L79417 77367
L79389 77227
L79389 77114
L79417 76974
L79445 76889
L79473 76833
L79529 76749
L79557 76721
" />
<path d="M80064 76805
L79782 76805
L79754 77086
L79782 77058
L79839 77030
L79979 77030
L80036 77058
L80064 77086
L80092 77142
L80092 77283
L80064 77339
L80036 77367
L79979 77395
L79839 77395
L79782 77367
L79754 77339
" />
<path d="M80345 77339
L80373 77367
L80345 77395
L80317 77367
L80345 77339
L80345 77395
" />
<path d="M80935 77395
L80598 77395
" />
<path d="M80767 77395
L80767 76805
L80710 76889
L80654 76946
L80598 76974
" />
<path d="M81188 77339
L81217 77367
L81188 77395
L81160 77367
L81188 77339
L81188 77395
" />
<path d="M81779 77395
L81442 77395
" />
<path d="M81610 77395
L81610 76805
L81554 76889
L81498 76946
L81442 76974
" />
<path d="M82145 76805
L82201 76805
L82257 76833
L82285 76861
L82313 76917
L82341 77030
L82341 77171
L82313 77283
L82285 77339
L82257 77367
L82201 77395
L82145 77395
L82088 77367
L82060 77339
L82032 77283
L82004 77171
L82004 77030
L82032 76917
L82060 76861
L82088 76833
L82145 76805
" />
<path d="M82538 77620
L82566 77592
L82623 77508
L82651 77452
L82679 77367
L82707 77227
L82707 77114
L82679 76974
L82651 76889
L82623 76833
L82566 76749
L82538 76721
" />
<path d="M82988 77171
L83438 77171
" />
<path d="M84029 77395
L83691 77395
" />
<path d="M83860 77395
L83860 76805
L83804 76889
L83748 76946
L83691 76974
" />
</g>
<g style="fill:#000000; fill-opacity:0.0; 
stroke:#000000; stroke-width:39.3701; stroke-opacity:1; 
stroke-linecap:round; stroke-linejoin:round;">
</g>
<g style="fill:#000000; fill-opacity:0.0; 
stroke:#000000; stroke-width:59.0551; stroke-opacity:1; 
stroke-linecap:round; stroke-linejoin:round;">
<path d="M69685 75396
L112205 75396
" />
</g>
<g style="fill:#000000; fill-opacity:0.0; 
stroke:#000000; stroke-width:39.3701; stroke-opacity:1; 
stroke-linecap:round; stroke-linejoin:round;">
</g>
<g style="fill:#000000; fill-opacity:0.0; 
stroke:#000000; stroke-width:118.11; stroke-opacity:1; 
stroke-linecap:round; stroke-linejoin:round;">
<text x="103544" y="76321.7"
textLength="2336.9" font-size="787.402" lengthAdjust="spacingAndGlyphs"
text-anchor="start" opacity="0">Rev: </text>
<path d="M104099 76293
L103902 76012
" />
<path d="M103761 76293
L103761 75703
L103986 75703
L104042 75731
L104070 75759
L104099 75815
L104099 75899
L104070 75956
L104042 75984
L103986 76012
L103761 76012
" />
<path d="M104577 76265
L104520 76293
L104408 76293
L104352 76265
L104323 76209
L104323 75984
L104352 75928
L104408 75899
L104520 75899
L104577 75928
L104605 75984
L104605 76040
L104323 76096
" />
<path d="M104802 75899
L104942 76293
L105083 75899
" />
<path d="M105308 76237
L105336 76265
L105308 76293
L105280 76265
L105308 76237
L105308 76293
" />
<path d="M105308 75928
L105336 75956
L105308 75984
L105280 75956
L105308 75928
L105308 75984
" />
</g>
<g style="fill:#000000; fill-opacity:0.0; 
stroke:#000000; stroke-width:39.3701; stroke-opacity:1; 
stroke-linecap:round; stroke-linejoin:round;">
</g>
<g style="fill:#000000; fill-opacity:0.0; 
stroke:#000000; stroke-width:59.0551; stroke-opacity:1; 
stroke-linecap:round; stroke-linejoin:round;">
<text x="70079.6" y="76321.7"
textLength="3781.21" font-size="787.402" lengthAdjust="spacingAndGlyphs"
text-anchor="start" opacity="0">Size: A4</text>
<path d="M70221 76265
L70305 76293
L70446 76293
L70502 76265
L70530 76237
L70559 76181
L70559 76124
L70530 76068
L70502 76040
L70446 76012
L70334 75984
L70277 75956
L70249 75928
L70221 75871
L70221 75815
L70249 75759
L70277 75731
L70334 75703
L70474 75703
L70559 75731
" />
<path d="M70812 76293
L70812 75899
" />
<path d="M70812 75703
L70784 75731
L70812 75759
L70840 75731
L70812 75703
L70812 75759
" />
<path d="M71037 75899
L71346 75899
L71037 76293
L71346 76293
" />
<path d="M71796 76265
L71740 76293
L71627 76293
L71571 76265
L71543 76209
L71543 75984
L71571 75928
L71627 75899
L71740 75899
L71796 75928
L71824 75984
L71824 76040
L71543 76096
" />
<path d="M72077 76237
L72105 76265
L72077 76293
L72049 76265
L72077 76237
L72077 76293
" />
<path d="M72077 75928
L72105 75956
L72077 75984
L72049 75956
L72077 75928
L72077 75984
" />
<path d="M72780 76124
L73061 76124
" />
<path d="M72724 76293
L72921 75703
L73118 76293
" />
<path d="M73568 75899
L73568 76293
" />
<path d="M73427 75674
L73286 76096
L73652 76096
" />
</g>
<g style="fill:#000000; fill-opacity:0.0; 
stroke:#000000; stroke-width:39.3701; stroke-opacity:1; 
stroke-linecap:round; stroke-linejoin:round;">
</g>
<g style="fill:#000000; fill-opacity:0.0; 
stroke:#000000; stroke-width:59.0551; stroke-opacity:1; 
stroke-linecap:round; stroke-linejoin:round;">
<text x="103544" y="77424.1"
textLength="3349.27" font-size="787.402" lengthAdjust="spacingAndGlyphs"
text-anchor="start" opacity="0">Id: 1/1</text>
<path d="M103714 77395
L103714 76805
" />
<path d="M104248 77395
L104248 76805
" />
<path d="M104248 77367
L104192 77395
L104079 77395
L104023 77367
L103995 77339
L103967 77283
L103967 77114
L103995 77058
L104023 77030
L104079 77002
L104192 77002
L104248 77030
" />
<path d="M104529 77339
L104557 77367
L104529 77395
L104501 77367
L104529 77339
L104529 77395
" />
<path d="M104529 77030
L104557 77058
L104529 77086
L104501 77058
L104529 77030
L104529 77086
" />
<path d="M105570 77395
L105232 77395
" />
<path d="M105401 77395
L105401 76805
L105345 76889
L105289 76946
L105232 76974
" />
<path d="M106245 76777
L105739 77536
" />
<path d="M106751 77395
L106413 77395
" />
<path d="M106582 77395
L106582 76805
L106526 76889
L106470 76946
L106413 76974
" />
</g>
<g style="fill:#000000; fill-opacity:0.0; 
stroke:#000000; stroke-width:39.3701; stroke-opacity:1; 
stroke-linecap:round; stroke-linejoin:round;">
</g>
<g style="fill:#000000; fill-opacity:0.0; 
stroke:#000000; stroke-width:59.0551; stroke-opacity:1; 
stroke-linecap:round; stroke-linejoin:round;">
<path d="M69685 73821
L112205 73821
" />
</g>
<g style="fill:#000000; fill-opacity:0.0; 
stroke:#000000; stroke-width:39.3701; stroke-opacity:1; 
stroke-linecap:round; stroke-linejoin:round;">
</g>
<g style="fill:#000000; fill-opacity:0.0; 
stroke:#000000; stroke-width:157.48; stroke-opacity:1; 
stroke-linecap:round; stroke-linejoin:round;">
<text x="70079.6" y="74924.1"
textLength="3701.14" font-size="1049.87" lengthAdjust="spacingAndGlyphs"
text-anchor="start" opacity="0">Title: </text>
<path d="M70360 74099
L70810 74099
" />
<path d="M70486 74886
L70585 74099
" />
<path d="M70974 74886
L71039 74361
" />
<path d="M71072 74099
L71030 74136
L71063 74174
L71105 74136
L71072 74099
L71063 74174
" />
<path d="M71302 74361
L71602 74361
" />
<path d="M71447 74099
L71363 74774
L71391 74849
L71461 74886
L71536 74886
" />
<path d="M71911 74886
L71841 74849
L71813 74774
L71897 74099
" />
<path d="M72516 74849
L72436 74886
L72286 74886
L72216 74849
L72187 74774
L72225 74474
L72272 74399
L72352 74361
L72501 74361
L72572 74399
L72600 74474
L72591 74549
L72206 74624
" />
<path d="M72895 74811
L72928 74849
L72886 74886
L72853 74849
L72895 74811
L72886 74886
" />
<path d="M72947 74399
L72980 74436
L72937 74474
L72905 74436
L72947 74399
L72937 74474
" />
</g>
<g style="fill:#000000; fill-opacity:0.0; 
stroke:#000000; stroke-width:39.3701; stroke-opacity:1; 
stroke-linecap:round; stroke-linejoin:round;">
</g>
<g style="fill:#000000; fill-opacity:0.0; 
stroke:#000000; stroke-width:59.0551; stroke-opacity:1; 
stroke-linecap:round; stroke-linejoin:round;">
<text x="70079.6" y="73408.3"
textLength="22364.5" font-size="787.402" lengthAdjust="spacingAndGlyphs"
text-anchor="start" opacity="0">File: Masterproef ultrasonic transducer.kicad_pcb</text>
<path d="M70446 73070
L70249 73070
" />
<path d="M70249 73380
L70249 72789
L70530 72789
" />
<path d="M70755 73380
L70755 72986
" />
<path d="M70755 72789
L70727 72817
L70755 72845
L70784 72817
L70755 72789
L70755 72845
" />
<path d="M71121 73380
L71065 73352
L71037 73295
L71037 72789
" />
<path d="M71571 73352
L71515 73380
L71402 73380
L71346 73352
L71318 73295
L71318 73070
L71346 73014
L71402 72986
L71515 72986
L71571 73014
L71599 73070
L71599 73127
L71318 73183
" />
<path d="M71852 73323
L71880 73352
L71852 73380
L71824 73352
L71852 73323
L71852 73380
" />
<path d="M71852 73014
L71880 73042
L71852 73070
L71824 73042
L71852 73014
L71852 73070
" />
<path d="M72583 73380
L72583 72789
L72780 73211
L72977 72789
L72977 73380
" />
<path d="M73511 73380
L73511 73070
L73483 73014
L73427 72986
L73314 72986
L73258 73014
" />
<path d="M73511 73352
L73455 73380
L73314 73380
L73258 73352
L73230 73295
L73230 73239
L73258 73183
L73314 73155
L73455 73155
L73511 73127
" />
<path d="M73764 73352
L73821 73380
L73933 73380
L73989 73352
L74018 73295
L74018 73267
L73989 73211
L73933 73183
L73849 73183
L73793 73155
L73764 73099
L73764 73070
L73793 73014
L73849 72986
L73933 72986
L73989 73014
" />
<path d="M74186 72986
L74411 72986
" />
<path d="M74271 72789
L74271 73295
L74299 73352
L74355 73380
L74411 73380
" />
<path d="M74833 73352
L74777 73380
L74664 73380
L74608 73352
L74580 73295
L74580 73070
L74608 73014
L74664 72986
L74777 72986
L74833 73014
L74861 73070
L74861 73127
L74580 73183
" />
<path d="M75114 73380
L75114 72986
" />
<path d="M75114 73099
L75142 73042
L75171 73014
L75227 72986
L75283 72986
" />
<path d="M75480 72986
L75480 73577
" />
<path d="M75480 73014
L75536 72986
L75649 72986
L75705 73014
L75733 73042
L75761 73099
L75761 73267
L75733 73323
L75705 73352
L75649 73380
L75536 73380
L75480 73352
" />
<path d="M76014 73380
L76014 72986
" />
<path d="M76014 73099
L76042 73042
L76070 73014
L76127 72986
L76183 72986
" />
<path d="M76464 73380
L76408 73352
L76380 73323
L76352 73267
L76352 73099
L76380 73042
L76408 73014
L76464 72986
L76548 72986
L76605 73014
L76633 73042
L76661 73099
L76661 73267
L76633 73323
L76605 73352
L76548 73380
L76464 73380
" />
<path d="M77139 73352
L77083 73380
L76970 73380
L76914 73352
L76886 73295
L76886 73070
L76914 73014
L76970 72986
L77083 72986
L77139 73014
L77167 73070
L77167 73127
L76886 73183
" />
<path d="M77336 72986
L77561 72986
" />
<path d="M77420 73380
L77420 72874
L77448 72817
L77505 72789
L77561 72789
" />
<path d="M78461 72986
L78461 73380
" />
<path d="M78208 72986
L78208 73295
L78236 73352
L78292 73380
L78376 73380
L78433 73352
L78461 73323
" />
<path d="M78826 73380
L78770 73352
L78742 73295
L78742 72789
" />
<path d="M78967 72986
L79192 72986
" />
<path d="M79051 72789
L79051 73295
L79079 73352
L79136 73380
L79192 73380
" />
<path d="M79389 73380
L79389 72986
" />
<path d="M79389 73099
L79417 73042
L79445 73014
L79501 72986
L79557 72986
" />
<path d="M80007 73380
L80007 73070
L79979 73014
L79923 72986
L79811 72986
L79754 73014
" />
<path d="M80007 73352
L79951 73380
L79811 73380
L79754 73352
L79726 73295
L79726 73239
L79754 73183
L79811 73155
L79951 73155
L80007 73127
" />
<path d="M80260 73352
L80317 73380
L80429 73380
L80485 73352
L80514 73295
L80514 73267
L80485 73211
L80429 73183
L80345 73183
L80289 73155
L80260 73099
L80260 73070
L80289 73014
L80345 72986
L80429 72986
L80485 73014
" />
<path d="M80851 73380
L80795 73352
L80767 73323
L80739 73267
L80739 73099
L80767 73042
L80795 73014
L80851 72986
L80935 72986
L80992 73014
L81020 73042
L81048 73099
L81048 73267
L81020 73323
L80992 73352
L80935 73380
L80851 73380
" />
<path d="M81301 72986
L81301 73380
" />
<path d="M81301 73042
L81329 73014
L81385 72986
L81470 72986
L81526 73014
L81554 73070
L81554 73380
" />
<path d="M81835 73380
L81835 72986
" />
<path d="M81835 72789
L81807 72817
L81835 72845
L81863 72817
L81835 72789
L81835 72845
" />
<path d="M82370 73352
L82313 73380
L82201 73380
L82145 73352
L82117 73323
L82088 73267
L82088 73099
L82117 73042
L82145 73014
L82201 72986
L82313 72986
L82370 73014
" />
<path d="M82988 72986
L83213 72986
" />
<path d="M83073 72789
L83073 73295
L83101 73352
L83157 73380
L83213 73380
" />
<path d="M83410 73380
L83410 72986
" />
<path d="M83410 73099
L83438 73042
L83466 73014
L83523 72986
L83579 72986
" />
<path d="M84029 73380
L84029 73070
L84001 73014
L83944 72986
L83832 72986
L83776 73014
" />
<path d="M84029 73352
L83973 73380
L83832 73380
L83776 73352
L83748 73295
L83748 73239
L83776 73183
L83832 73155
L83973 73155
L84029 73127
" />
<path d="M84310 72986
L84310 73380
" />
<path d="M84310 73042
L84338 73014
L84394 72986
L84479 72986
L84535 73014
L84563 73070
L84563 73380
" />
<path d="M84816 73352
L84872 73380
L84985 73380
L85041 73352
L85069 73295
L85069 73267
L85041 73211
L84985 73183
L84901 73183
L84844 73155
L84816 73099
L84816 73070
L84844 73014
L84901 72986
L84985 72986
L85041 73014
" />
<path d="M85575 73380
L85575 72789
" />
<path d="M85575 73352
L85519 73380
L85407 73380
L85350 73352
L85322 73323
L85294 73267
L85294 73099
L85322 73042
L85350 73014
L85407 72986
L85519 72986
L85575 73014
" />
<path d="M86110 72986
L86110 73380
" />
<path d="M85857 72986
L85857 73295
L85885 73352
L85941 73380
L86025 73380
L86082 73352
L86110 73323
" />
<path d="M86644 73352
L86588 73380
L86475 73380
L86419 73352
L86391 73323
L86363 73267
L86363 73099
L86391 73042
L86419 73014
L86475 72986
L86588 72986
L86644 73014
" />
<path d="M87122 73352
L87066 73380
L86953 73380
L86897 73352
L86869 73295
L86869 73070
L86897 73014
L86953 72986
L87066 72986
L87122 73014
L87150 73070
L87150 73127
L86869 73183
" />
<path d="M87403 73380
L87403 72986
" />
<path d="M87403 73099
L87431 73042
L87460 73014
L87516 72986
L87572 72986
" />
<path d="M87769 73323
L87797 73352
L87769 73380
L87741 73352
L87769 73323
L87769 73380
" />
<path d="M88050 73380
L88050 72789
" />
<path d="M88106 73155
L88275 73380
" />
<path d="M88275 72986
L88050 73211
" />
<path d="M88528 73380
L88528 72986
" />
<path d="M88528 72789
L88500 72817
L88528 72845
L88556 72817
L88528 72789
L88528 72845
" />
<path d="M89063 73352
L89006 73380
L88894 73380
L88838 73352
L88809 73323
L88781 73267
L88781 73099
L88809 73042
L88838 73014
L88894 72986
L89006 72986
L89063 73014
" />
<path d="M89569 73380
L89569 73070
L89541 73014
L89484 72986
L89372 72986
L89316 73014
" />
<path d="M89569 73352
L89512 73380
L89372 73380
L89316 73352
L89287 73295
L89287 73239
L89316 73183
L89372 73155
L89512 73155
L89569 73127
" />
<path d="M90103 73380
L90103 72789
" />
<path d="M90103 73352
L90047 73380
L89934 73380
L89878 73352
L89850 73323
L89822 73267
L89822 73099
L89850 73042
L89878 73014
L89934 72986
L90047 72986
L90103 73014
" />
<path d="M90244 73436
L90694 73436
" />
<path d="M90834 72986
L90834 73577
" />
<path d="M90834 73014
L90890 72986
L91003 72986
L91059 73014
L91087 73042
L91115 73099
L91115 73267
L91087 73323
L91059 73352
L91003 73380
L90890 73380
L90834 73352
" />
<path d="M91622 73352
L91565 73380
L91453 73380
L91397 73352
L91368 73323
L91340 73267
L91340 73099
L91368 73042
L91397 73014
L91453 72986
L91565 72986
L91622 73014
" />
<path d="M91875 73380
L91875 72789
" />
<path d="M91875 73014
L91931 72986
L92043 72986
L92100 73014
L92128 73042
L92156 73099
L92156 73267
L92128 73323
L92100 73352
L92043 73380
L91931 73380
L91875 73352
" />
</g>
<g style="fill:#000000; fill-opacity:0.0; 
stroke:#000000; stroke-width:39.3701; stroke-opacity:1; 
stroke-linecap:round; stroke-linejoin:round;">
</g>
<g style="fill:#000000; fill-opacity:0.0; 
stroke:#000000; stroke-width:59.0551; stroke-opacity:1; 
stroke-linecap:round; stroke-linejoin:round;">
<path d="M69685 71459
L112205 71459
" />
</g>
<g style="fill:#000000; fill-opacity:0.0; 
stroke:#000000; stroke-width:39.3701; stroke-opacity:1; 
stroke-linecap:round; stroke-linejoin:round;">
</g>
<g style="fill:#000000; fill-opacity:0.0; 
stroke:#000000; stroke-width:59.0551; stroke-opacity:1; 
stroke-linecap:round; stroke-linejoin:round;">
<text x="70079.6" y="72345.4"
textLength="3236.78" font-size="787.402" lengthAdjust="spacingAndGlyphs"
text-anchor="start" opacity="0">Sheet: </text>
<path d="M70221 72289
L70305 72317
L70446 72317
L70502 72289
L70530 72260
L70559 72204
L70559 72148
L70530 72092
L70502 72064
L70446 72036
L70334 72007
L70277 71979
L70249 71951
L70221 71895
L70221 71839
L70249 71782
L70277 71754
L70334 71726
L70474 71726
L70559 71754
" />
<path d="M70812 72317
L70812 71726
" />
<path d="M71065 72317
L71065 72007
L71037 71951
L70980 71923
L70896 71923
L70840 71951
L70812 71979
" />
<path d="M71571 72289
L71515 72317
L71402 72317
L71346 72289
L71318 72232
L71318 72007
L71346 71951
L71402 71923
L71515 71923
L71571 71951
L71599 72007
L71599 72064
L71318 72120
" />
<path d="M72077 72289
L72021 72317
L71908 72317
L71852 72289
L71824 72232
L71824 72007
L71852 71951
L71908 71923
L72021 71923
L72077 71951
L72105 72007
L72105 72064
L71824 72120
" />
<path d="M72274 71923
L72499 71923
" />
<path d="M72358 71726
L72358 72232
L72386 72289
L72443 72317
L72499 72317
" />
<path d="M72696 72260
L72724 72289
L72696 72317
L72668 72289
L72696 72260
L72696 72317
" />
<path d="M72696 71951
L72724 71979
L72696 72007
L72668 71979
L72696 71951
L72696 72007
" />
</g>
<g style="fill:#000000; fill-opacity:0.0; 
stroke:#000000; stroke-width:39.3701; stroke-opacity:1; 
stroke-linecap:round; stroke-linejoin:round;">
</g>
<g style="fill:#000000; fill-opacity:0.0; 
stroke:#000000; stroke-width:59.0551; stroke-opacity:1; 
stroke-linecap:round; stroke-linejoin:round;">
<path d="M77559 75396
L77559 76577
" />
</g>
<g style="fill:#000000; fill-opacity:0.0; 
stroke:#000000; stroke-width:39.3701; stroke-opacity:1; 
stroke-linecap:round; stroke-linejoin:round;">
</g>
<g style="fill:#000000; fill-opacity:0.0; 
stroke:#000000; stroke-width:59.0551; stroke-opacity:1; 
stroke-linecap:round; stroke-linejoin:round;">
<path d="M102756 75396
L102756 77955
" />
<g >
</g>
<g >
</g>
<g >
</g>
<g >
</g>
<g >
</g>
<g >
</g>
<g >
</g>
<g style="fill:#008400; fill-opacity:0.0; 
stroke:#008400; stroke-width:59.0551; stroke-opacity:1; 
stroke-linecap:round; stroke-linejoin:round;">
</g>
<g style="fill:#008400; fill-opacity:0.0; 
stroke:#008400; stroke-width:0; stroke-opacity:1; 
stroke-linecap:round; stroke-linejoin:round;">
</g>
<g style="fill:#008400; fill-opacity:1.0; 
stroke:#008400; stroke-width:0; stroke-opacity:1; 
stroke-linecap:round; stroke-linejoin:round;">
<path style="fill:#008400; fill-opacity:1.0; 
stroke:#008400; stroke-width:0; stroke-opacity:1; 
stroke-linecap:round; stroke-linejoin:round;fill-rule:evenodd;"
d="M 43823.9,37642.1
43823.9,37257.9
44176.6,37257.9
44176.6,37642.1
Z" /> 
<path style="fill:#008400; fill-opacity:1.0; 
stroke:#008400; stroke-width:0; stroke-opacity:1; 
stroke-linecap:round; stroke-linejoin:round;fill-rule:evenodd;"
d="M 42603.4,37642.1
42603.4,37257.9
42956.1,37257.9
42956.1,37642.1
Z" /> 
</g>
<g >
</g>
<g >
</g>
<g >
</g>
<g style="fill:#008400; fill-opacity:1.0; 
stroke:#008400; stroke-width:0; stroke-opacity:1; 
stroke-linecap:round; stroke-linejoin:round;">
<path style="fill:#008400; fill-opacity:1.0; 
stroke:#008400; stroke-width:0; stroke-opacity:1; 
stroke-linecap:round; stroke-linejoin:round;fill-rule:evenodd;"
d="M 48489,34686.6
48489,34245.7
48866.9,34245.7
48866.9,34686.6
Z" /> 
<path style="fill:#008400; fill-opacity:1.0; 
stroke:#008400; stroke-width:0; stroke-opacity:1; 
stroke-linecap:round; stroke-linejoin:round;fill-rule:evenodd;"
d="M 45339.4,34686.6
45339.4,34245.7
45717.3,34245.7
45717.3,34686.6
Z" /> 
<path style="fill:#008400; fill-opacity:1.0; 
stroke:#008400; stroke-width:0; stroke-opacity:1; 
stroke-linecap:round; stroke-linejoin:round;fill-rule:evenodd;"
d="M 47701.6,32954.3
47701.6,32513.4
48079.5,32513.4
48079.5,32954.3
Z" /> 
<path style="fill:#008400; fill-opacity:1.0; 
stroke:#008400; stroke-width:0; stroke-opacity:1; 
stroke-linecap:round; stroke-linejoin:round;fill-rule:evenodd;"
d="M 46126.8,32954.3
46126.8,32513.4
46504.7,32513.4
46504.7,32954.3
Z" /> 
</g>
<g >
</g>
<g style="fill:#008400; fill-opacity:1.0; 
stroke:#008400; stroke-width:0; stroke-opacity:1; 
stroke-linecap:round; stroke-linejoin:round;">
<path style="fill:#008400; fill-opacity:1.0; 
stroke:#008400; stroke-width:0; stroke-opacity:1; 
stroke-linecap:round; stroke-linejoin:round;fill-rule:evenodd;"
d="M 44744.3,36988.7
46035.7,36988.7
46035.7,37571.3
44744.3,37571.3
Z" /> 
<path style="fill:#008400; fill-opacity:1.0; 
stroke:#008400; stroke-width:0; stroke-opacity:1; 
stroke-linecap:round; stroke-linejoin:round;fill-rule:evenodd;"
d="M 44744.3,35551.7
46035.7,35551.7
46035.7,36134.3
44744.3,36134.3
Z" /> 
</g>
<g >
</g>
<g style="fill:#008400; fill-opacity:1.0; 
stroke:#008400; stroke-width:0; stroke-opacity:1; 
stroke-linecap:round; stroke-linejoin:round;">
<path style="fill:#008400; fill-opacity:1.0; 
stroke:#008400; stroke-width:0; stroke-opacity:1; 
stroke-linecap:round; stroke-linejoin:round;fill-rule:evenodd;"
d="M 43845.5,35865.4
43845.5,35534.6
44034.5,35534.6
44034.5,35865.4
Z" /> 
<path style="fill:#008400; fill-opacity:1.0; 
stroke:#008400; stroke-width:0; stroke-opacity:1; 
stroke-linecap:round; stroke-linejoin:round;fill-rule:evenodd;"
d="M 43097.5,35865.4
43097.5,35534.6
43286.5,35534.6
43286.5,35865.4
Z" /> 
<path style="fill:#008400; fill-opacity:1.0; 
stroke:#008400; stroke-width:0; stroke-opacity:1; 
stroke-linecap:round; stroke-linejoin:round;fill-rule:evenodd;"
d="M 43097.5,36889
43097.5,36558.3
43286.5,36558.3
43286.5,36889
Z" /> 
<path style="fill:#008400; fill-opacity:1.0; 
stroke:#008400; stroke-width:0; stroke-opacity:1; 
stroke-linecap:round; stroke-linejoin:round;fill-rule:evenodd;"
d="M 43471.5,36889
43471.5,36558.3
43660.5,36558.3
43660.5,36889
Z" /> 
<path style="fill:#008400; fill-opacity:1.0; 
stroke:#008400; stroke-width:0; stroke-opacity:1; 
stroke-linecap:round; stroke-linejoin:round;fill-rule:evenodd;"
d="M 43845.5,36889
43845.5,36558.3
44034.5,36558.3
44034.5,36889
Z" /> 
</g>
<g >
</g>
<g style="fill:#008400; fill-opacity:1.0; 
stroke:#008400; stroke-width:0; stroke-opacity:1; 
stroke-linecap:round; stroke-linejoin:round;">
<path style="fill:#008400; fill-opacity:1.0; 
stroke:#008400; stroke-width:0; stroke-opacity:1; 
stroke-linecap:round; stroke-linejoin:round;fill-rule:evenodd;"
d="M 42069.2,35450.7
42075.3,35451.6
42081.3,35453.1
42087.1,35455.2
42092.7,35457.8
42098,35461
42103,35464.7
42107.5,35468.8
42111.7,35473.4
42115.4,35478.4
42118.5,35483.7
42121.2,35489.3
42123.3,35495.1
42124.8,35501.1
42125.7,35507.2
42126,35513.4
42126,35686.6
42125.7,35692.8
42124.8,35698.9
42123.3,35704.9
42121.2,35710.7
42118.5,35716.3
42115.4,35721.6
42111.7,35726.6
42107.5,35731.2
42103,35735.3
42098,35739
42092.7,35742.2
42087.1,35744.8
42081.3,35746.9
42075.3,35748.4
42069.2,35749.3
42063,35749.6
41937,35749.6
41930.8,35749.3
41924.7,35748.4
41918.7,35746.9
41912.9,35744.8
41907.3,35742.2
41902,35739
41897,35735.3
41892.5,35731.2
41888.3,35726.6
41884.6,35721.6
41881.5,35716.3
41878.8,35710.7
41876.7,35704.9
41875.2,35698.9
41874.3,35692.8
41874,35686.6
41874,35513.4
41874.3,35507.2
41875.2,35501.1
41876.7,35495.1
41878.8,35489.3
41881.5,35483.7
41884.6,35478.4
41888.3,35473.4
41892.5,35468.8
41897,35464.7
41902,35461
41907.3,35457.8
41912.9,35455.2
41918.7,35453.1
41924.7,35451.6
41930.8,35450.7
41937,35450.4
42063,35450.4
Z" /> 
<path style="fill:#008400; fill-opacity:1.0; 
stroke:#008400; stroke-width:0; stroke-opacity:1; 
stroke-linecap:round; stroke-linejoin:round;fill-rule:evenodd;"
d="M 42718.8,35450.7
42724.9,35451.6
42730.9,35453.1
42736.7,35455.2
42742.3,35457.8
42747.6,35461
42752.6,35464.7
42757.1,35468.8
42761.3,35473.4
42765,35478.4
42768.2,35483.7
42770.8,35489.3
42772.9,35495.1
42774.4,35501.1
42775.3,35507.2
42775.6,35513.4
42775.6,35686.6
42775.3,35692.8
42774.4,35698.9
42772.9,35704.9
42770.8,35710.7
42768.2,35716.3
42765,35721.6
42761.3,35726.6
42757.1,35731.2
42752.6,35735.3
42747.6,35739
42742.3,35742.2
42736.7,35744.8
42730.9,35746.9
42724.9,35748.4
42718.8,35749.3
42712.6,35749.6
42586.6,35749.6
42580.4,35749.3
42574.3,35748.4
42568.3,35746.9
42562.5,35744.8
42556.9,35742.2
42551.6,35739
42546.7,35735.3
42542.1,35731.2
42537.9,35726.6
42534.2,35721.6
42531.1,35716.3
42528.4,35710.7
42526.3,35704.9
42524.8,35698.9
42523.9,35692.8
42523.6,35686.6
42523.6,35513.4
42523.9,35507.2
42524.8,35501.1
42526.3,35495.1
42528.4,35489.3
42531.1,35483.7
42534.2,35478.4
42537.9,35473.4
42542.1,35468.8
42546.7,35464.7
42551.6,35461
42556.9,35457.8
42562.5,35455.2
42568.3,35453.1
42574.3,35451.6
42580.4,35450.7
42586.6,35450.4
42712.6,35450.4
Z" /> 
</g>
<g >
</g>
<g style="fill:#008400; fill-opacity:1.0; 
stroke:#008400; stroke-width:0; stroke-opacity:1; 
stroke-linecap:round; stroke-linejoin:round;">
<path style="fill:#008400; fill-opacity:1.0; 
stroke:#008400; stroke-width:0; stroke-opacity:1; 
stroke-linecap:round; stroke-linejoin:round;fill-rule:evenodd;"
d="M 42677.8,34850.7
42684.7,34851.8
42691.4,34853.4
42698,34855.8
42704.3,34858.8
42710.2,34862.3
42715.8,34866.5
42721,34871.2
42725.6,34876.3
42729.8,34881.9
42733.4,34887.9
42736.3,34894.1
42738.7,34900.7
42740.4,34907.4
42741.4,34914.3
42741.7,34921.3
42741.7,35078.7
42741.4,35085.7
42740.4,35092.6
42738.7,35099.3
42736.3,35105.9
42733.4,35112.1
42729.8,35118.1
42725.6,35123.7
42721,35128.8
42715.8,35133.5
42710.2,35137.7
42704.3,35141.2
42698,35144.2
42691.4,35146.6
42684.7,35148.2
42677.8,35149.3
42670.9,35149.6
42529.1,35149.6
42522.2,35149.3
42515.3,35148.2
42508.6,35146.6
42502,35144.2
42495.7,35141.2
42489.8,35137.7
42484.2,35133.5
42479,35128.8
42474.4,35123.7
42470.2,35118.1
42466.6,35112.1
42463.7,35105.9
42461.3,35099.3
42459.6,35092.6
42458.6,35085.7
42458.3,35078.7
42458.3,34921.3
42458.6,34914.3
42459.6,34907.4
42461.3,34900.7
42463.7,34894.1
42466.6,34887.9
42470.2,34881.9
42474.4,34876.3
42479,34871.2
42484.2,34866.5
42489.8,34862.3
42495.7,34858.8
42502,34855.8
42508.6,34853.4
42515.3,34851.8
42522.2,34850.7
42529.1,34850.4
42670.9,34850.4
Z" /> 
<path style="fill:#008400; fill-opacity:1.0; 
stroke:#008400; stroke-width:0; stroke-opacity:1; 
stroke-linecap:round; stroke-linejoin:round;fill-rule:evenodd;"
d="M 42067.6,34850.7
42074.5,34851.8
42081.2,34853.4
42087.7,34855.8
42094,34858.8
42100,34862.3
42105.6,34866.5
42110.7,34871.2
42115.4,34876.3
42119.6,34881.9
42123.1,34887.9
42126.1,34894.1
42128.4,34900.7
42130.1,34907.4
42131.2,34914.3
42131.5,34921.3
42131.5,35078.7
42131.2,35085.7
42130.1,35092.6
42128.4,35099.3
42126.1,35105.9
42123.1,35112.1
42119.6,35118.1
42115.4,35123.7
42110.7,35128.8
42105.6,35133.5
42100,35137.7
42094,35141.2
42087.7,35144.2
42081.2,35146.6
42074.5,35148.2
42067.6,35149.3
42060.6,35149.6
41918.9,35149.6
41912,35149.3
41905.1,35148.2
41898.3,35146.6
41891.8,35144.2
41885.5,35141.2
41879.5,35137.7
41873.9,35133.5
41868.8,35128.8
41864.1,35123.7
41860,35118.1
41856.4,35112.1
41853.4,35105.9
41851.1,35099.3
41849.4,35092.6
41848.4,35085.7
41848,35078.7
41848,34921.3
41848.4,34914.3
41849.4,34907.4
41851.1,34900.7
41853.4,34894.1
41856.4,34887.9
41860,34881.9
41864.1,34876.3
41868.8,34871.2
41873.9,34866.5
41879.5,34862.3
41885.5,34858.8
41891.8,34855.8
41898.3,34853.4
41905.1,34851.8
41912,34850.7
41918.9,34850.4
42060.6,34850.4
Z" /> 
</g>
<g >
</g>
<g >
</g>
<g >
</g>
<g >
</g>
<g >
</g>
<g >
</g>
<g >
</g>
<g >
</g>
<g >
</g>
<g >
</g>
<g >
</g>
<g style="fill:#008400; fill-opacity:1.0; 
stroke:#008400; stroke-width:0; stroke-opacity:1; 
stroke-linecap:round; stroke-linejoin:round;">
<circle cx="41967.3" cy="34039" r="157.48" /> 
</g>
<g style="fill:#008400; fill-opacity:1.0; 
stroke:#008400; stroke-width:39.3701; stroke-opacity:1; 
stroke-linecap:round; stroke-linejoin:round;">
</g>
<g style="fill:#008400; fill-opacity:1.0; 
stroke:#008400; stroke-width:0; stroke-opacity:1; 
stroke-linecap:round; stroke-linejoin:round;">
<path style="fill:#008400; fill-opacity:1.0; 
stroke:#008400; stroke-width:0; stroke-opacity:1; 
stroke-linecap:round; stroke-linejoin:round;fill-rule:evenodd;"
d="M 43990.9,32519.3
44274.4,32519.3
44274.4,32802.8
43990.9,32802.8
Z" /> 
</g>
<g >
</g>
<g >
</g>
<g >
</g>
<g >
</g>
<g >
</g>
<g >
</g>
<g style="fill:#008400; fill-opacity:1.0; 
stroke:#008400; stroke-width:0; stroke-opacity:1; 
stroke-linecap:round; stroke-linejoin:round;">
<path style="fill:#008400; fill-opacity:1.0; 
stroke:#008400; stroke-width:0; stroke-opacity:1; 
stroke-linecap:round; stroke-linejoin:round;fill-rule:evenodd;"
d="M 42718.8,36650.7
42724.9,36651.6
42730.9,36653.1
42736.7,36655.2
42742.3,36657.8
42747.6,36661
42752.6,36664.7
42757.1,36668.8
42761.3,36673.4
42765,36678.4
42768.2,36683.7
42770.8,36689.3
42772.9,36695.1
42774.4,36701.1
42775.3,36707.2
42775.6,36713.4
42775.6,36886.6
42775.3,36892.8
42774.4,36898.9
42772.9,36904.9
42770.8,36910.7
42768.2,36916.3
42765,36921.6
42761.3,36926.6
42757.1,36931.2
42752.6,36935.3
42747.6,36939
42742.3,36942.2
42736.7,36944.8
42730.9,36946.9
42724.9,36948.4
42718.8,36949.3
42712.6,36949.6
42586.6,36949.6
42580.4,36949.3
42574.3,36948.4
42568.3,36946.9
42562.5,36944.8
42556.9,36942.2
42551.6,36939
42546.7,36935.3
42542.1,36931.2
42537.9,36926.6
42534.2,36921.6
42531.1,36916.3
42528.4,36910.7
42526.3,36904.9
42524.8,36898.9
42523.9,36892.8
42523.6,36886.6
42523.6,36713.4
42523.9,36707.2
42524.8,36701.1
42526.3,36695.1
42528.4,36689.3
42531.1,36683.7
42534.2,36678.4
42537.9,36673.4
42542.1,36668.8
42546.7,36664.7
42551.6,36661
42556.9,36657.8
42562.5,36655.2
42568.3,36653.1
42574.3,36651.6
42580.4,36650.7
42586.6,36650.4
42712.6,36650.4
Z" /> 
<path style="fill:#008400; fill-opacity:1.0; 
stroke:#008400; stroke-width:0; stroke-opacity:1; 
stroke-linecap:round; stroke-linejoin:round;fill-rule:evenodd;"
d="M 42069.2,36650.7
42075.3,36651.6
42081.3,36653.1
42087.1,36655.2
42092.7,36657.8
42098,36661
42103,36664.7
42107.5,36668.8
42111.7,36673.4
42115.4,36678.4
42118.5,36683.7
42121.2,36689.3
42123.3,36695.1
42124.8,36701.1
42125.7,36707.2
42126,36713.4
42126,36886.6
42125.7,36892.8
42124.8,36898.9
42123.3,36904.9
42121.2,36910.7
42118.5,36916.3
42115.4,36921.6
42111.7,36926.6
42107.5,36931.2
42103,36935.3
42098,36939
42092.7,36942.2
42087.1,36944.8
42081.3,36946.9
42075.3,36948.4
42069.2,36949.3
42063,36949.6
41937,36949.6
41930.8,36949.3
41924.7,36948.4
41918.7,36946.9
41912.9,36944.8
41907.3,36942.2
41902,36939
41897,36935.3
41892.5,36931.2
41888.3,36926.6
41884.6,36921.6
41881.5,36916.3
41878.8,36910.7
41876.7,36904.9
41875.2,36898.9
41874.3,36892.8
41874,36886.6
41874,36713.4
41874.3,36707.2
41875.2,36701.1
41876.7,36695.1
41878.8,36689.3
41881.5,36683.7
41884.6,36678.4
41888.3,36673.4
41892.5,36668.8
41897,36664.7
41902,36661
41907.3,36657.8
41912.9,36655.2
41918.7,36653.1
41924.7,36651.6
41930.8,36650.7
41937,36650.4
42063,36650.4
Z" /> 
</g>
<g >
</g>
<g style="fill:#008400; fill-opacity:1.0; 
stroke:#008400; stroke-width:0; stroke-opacity:1; 
stroke-linecap:round; stroke-linejoin:round;">
<path style="fill:#008400; fill-opacity:1.0; 
stroke:#008400; stroke-width:0; stroke-opacity:1; 
stroke-linecap:round; stroke-linejoin:round;fill-rule:evenodd;"
d="M 42369.2,36050.7
42375.3,36051.6
42381.3,36053.1
42387.1,36055.2
42392.7,36057.8
42398,36061
42403,36064.7
42407.5,36068.8
42411.7,36073.4
42415.4,36078.4
42418.5,36083.7
42421.2,36089.3
42423.3,36095.1
42424.8,36101.1
42425.7,36107.2
42426,36113.4
42426,36286.6
42425.7,36292.8
42424.8,36298.9
42423.3,36304.9
42421.2,36310.7
42418.5,36316.3
42415.4,36321.6
42411.7,36326.6
42407.5,36331.2
42403,36335.3
42398,36339
42392.7,36342.2
42387.1,36344.8
42381.3,36346.9
42375.3,36348.4
42369.2,36349.3
42363,36349.6
42237,36349.6
42230.8,36349.3
42224.7,36348.4
42218.7,36346.9
42212.9,36344.8
42207.3,36342.2
42202,36339
42197,36335.3
42192.5,36331.2
42188.3,36326.6
42184.6,36321.6
42181.5,36316.3
42178.8,36310.7
42176.7,36304.9
42175.2,36298.9
42174.3,36292.8
42174,36286.6
42174,36113.4
42174.3,36107.2
42175.2,36101.1
42176.7,36095.1
42178.8,36089.3
42181.5,36083.7
42184.6,36078.4
42188.3,36073.4
42192.5,36068.8
42197,36064.7
42202,36061
42207.3,36057.8
42212.9,36055.2
42218.7,36053.1
42224.7,36051.6
42230.8,36050.7
42237,36050.4
42363,36050.4
Z" /> 
<path style="fill:#008400; fill-opacity:1.0; 
stroke:#008400; stroke-width:0; stroke-opacity:1; 
stroke-linecap:round; stroke-linejoin:round;fill-rule:evenodd;"
d="M 41719.6,36050.7
41725.7,36051.6
41731.7,36053.1
41737.5,36055.2
41743.1,36057.8
41748.4,36061
41753.3,36064.7
41757.9,36068.8
41762.1,36073.4
41765.8,36078.4
41768.9,36083.7
41771.6,36089.3
41773.7,36095.1
41775.2,36101.1
41776.1,36107.2
41776.4,36113.4
41776.4,36286.6
41776.1,36292.8
41775.2,36298.9
41773.7,36304.9
41771.6,36310.7
41768.9,36316.3
41765.8,36321.6
41762.1,36326.6
41757.9,36331.2
41753.3,36335.3
41748.4,36339
41743.1,36342.2
41737.5,36344.8
41731.7,36346.9
41725.7,36348.4
41719.6,36349.3
41713.4,36349.6
41587.4,36349.6
41581.2,36349.3
41575.1,36348.4
41569.1,36346.9
41563.3,36344.8
41557.7,36342.2
41552.4,36339
41547.4,36335.3
41542.9,36331.2
41538.7,36326.6
41535,36321.6
41531.8,36316.3
41529.2,36310.7
41527.1,36304.9
41525.6,36298.9
41524.7,36292.8
41524.4,36286.6
41524.4,36113.4
41524.7,36107.2
41525.6,36101.1
41527.1,36095.1
41529.2,36089.3
41531.8,36083.7
41535,36078.4
41538.7,36073.4
41542.9,36068.8
41547.4,36064.7
41552.4,36061
41557.7,36057.8
41563.3,36055.2
41569.1,36053.1
41575.1,36051.6
41581.2,36050.7
41587.4,36050.4
41713.4,36050.4
Z" /> 
</g>
<g >
</g>
<g >
</g>
<g >
</g>
<g >
</g>
<g >
</g>
<g >
</g>
<g style="fill:#008400; fill-opacity:1.0; 
stroke:#008400; stroke-width:0; stroke-opacity:1; 
stroke-linecap:round; stroke-linejoin:round;">
<path style="fill:#008400; fill-opacity:1.0; 
stroke:#008400; stroke-width:0; stroke-opacity:1; 
stroke-linecap:round; stroke-linejoin:round;fill-rule:evenodd;"
d="M 47485.7,35253.5
47492.6,35254.5
47499.3,35256.2
47505.9,35258.5
47512.1,35261.5
47518.1,35265.1
47523.7,35269.2
47528.8,35273.9
47533.5,35279.1
47537.7,35284.6
47541.2,35290.6
47544.2,35296.9
47546.6,35303.4
47548.2,35310.2
47549.3,35317.1
47549.6,35324
47549.6,35465.7
47549.3,35472.7
47548.2,35479.6
47546.6,35486.3
47544.2,35492.9
47541.2,35499.2
47537.7,35505.1
47533.5,35510.7
47528.8,35515.9
47523.7,35520.5
47518.1,35524.7
47512.1,35528.2
47505.9,35531.2
47499.3,35533.6
47492.6,35535.3
47485.7,35536.3
47478.7,35536.6
47321.3,35536.6
47314.3,35536.3
47307.4,35535.3
47300.7,35533.6
47294.1,35531.2
47287.9,35528.2
47281.9,35524.7
47276.3,35520.5
47271.2,35515.9
47266.5,35510.7
47262.3,35505.1
47258.8,35499.2
47255.8,35492.9
47253.4,35486.3
47251.8,35479.6
47250.7,35472.7
47250.4,35465.7
47250.4,35324
47250.7,35317.1
47251.8,35310.2
47253.4,35303.4
47255.8,35296.9
47258.8,35290.6
47262.3,35284.6
47266.5,35279.1
47271.2,35273.9
47276.3,35269.2
47281.9,35265.1
47287.9,35261.5
47294.1,35258.5
47300.7,35256.2
47307.4,35254.5
47314.3,35253.5
47321.3,35253.1
47478.7,35253.1
Z" /> 
<path style="fill:#008400; fill-opacity:1.0; 
stroke:#008400; stroke-width:0; stroke-opacity:1; 
stroke-linecap:round; stroke-linejoin:round;fill-rule:evenodd;"
d="M 47485.7,35863.7
47492.6,35864.7
47499.3,35866.4
47505.9,35868.8
47512.1,35871.8
47518.1,35875.3
47523.7,35879.5
47528.8,35884.1
47533.5,35889.3
47537.7,35894.9
47541.2,35900.8
47544.2,35907.1
47546.6,35913.7
47548.2,35920.4
47549.3,35927.3
47549.6,35934.3
47549.6,36076
47549.3,36082.9
47548.2,36089.8
47546.6,36096.6
47544.2,36103.1
47541.2,36109.4
47537.7,36115.4
47533.5,36120.9
47528.8,36126.1
47523.7,36130.8
47518.1,36134.9
47512.1,36138.5
47505.9,36141.5
47499.3,36143.8
47492.6,36145.5
47485.7,36146.5
47478.7,36146.9
47321.3,36146.9
47314.3,36146.5
47307.4,36145.5
47300.7,36143.8
47294.1,36141.5
47287.9,36138.5
47281.9,36134.9
47276.3,36130.8
47271.2,36126.1
47266.5,36120.9
47262.3,36115.4
47258.8,36109.4
47255.8,36103.1
47253.4,36096.6
47251.8,36089.8
47250.7,36082.9
47250.4,36076
47250.4,35934.3
47250.7,35927.3
47251.8,35920.4
47253.4,35913.7
47255.8,35907.1
47258.8,35900.8
47262.3,35894.9
47266.5,35889.3
47271.2,35884.1
47276.3,35879.5
47281.9,35875.3
47287.9,35871.8
47294.1,35868.8
47300.7,35866.4
47307.4,35864.7
47314.3,35863.7
47321.3,35863.4
47478.7,35863.4
Z" /> 
</g>
<g >
</g>
<g style="fill:#008400; fill-opacity:1.0; 
stroke:#008400; stroke-width:0; stroke-opacity:1; 
stroke-linecap:round; stroke-linejoin:round;">
<path style="fill:#008400; fill-opacity:1.0; 
stroke:#008400; stroke-width:0; stroke-opacity:1; 
stroke-linecap:round; stroke-linejoin:round;fill-rule:evenodd;"
d="M 48157.3,36616.9
48165,36618
48172.5,36619.9
48179.7,36622.5
48186.7,36625.8
48193.4,36629.8
48199.6,36634.4
48205.3,36639.6
48210.5,36645.3
48215.1,36651.5
48219,36658.2
48222.4,36665.1
48225,36672.4
48226.8,36679.9
48228,36687.6
48228.3,36695.3
48228.3,36852.8
48228,36860.5
48226.8,36868.1
48225,36875.6
48222.4,36882.9
48219,36889.9
48215.1,36896.5
48210.5,36902.7
48205.3,36908.4
48199.6,36913.6
48193.4,36918.2
48186.7,36922.2
48179.7,36925.5
48172.5,36928.1
48165,36930
48157.3,36931.1
48149.6,36931.5
47850.4,36931.5
47842.7,36931.1
47835,36930
47827.5,36928.1
47820.3,36925.5
47813.3,36922.2
47806.6,36918.2
47800.4,36913.6
47794.7,36908.4
47789.5,36902.7
47784.9,36896.5
47781,36889.9
47777.6,36882.9
47775,36875.6
47773.2,36868.1
47772,36860.5
47771.7,36852.8
47771.7,36695.3
47772,36687.6
47773.2,36679.9
47775,36672.4
47777.6,36665.1
47781,36658.2
47784.9,36651.5
47789.5,36645.3
47794.7,36639.6
47800.4,36634.4
47806.6,36629.8
47813.3,36625.8
47820.3,36622.5
47827.5,36619.9
47835,36618
47842.7,36616.9
47850.4,36616.5
48149.6,36616.5
Z" /> 
<path style="fill:#008400; fill-opacity:1.0; 
stroke:#008400; stroke-width:0; stroke-opacity:1; 
stroke-linecap:round; stroke-linejoin:round;fill-rule:evenodd;"
d="M 48157.3,35868.9
48165,35870
48172.5,35871.9
48179.7,35874.5
48186.7,35877.8
48193.4,35881.8
48199.6,35886.4
48205.3,35891.6
48210.5,35897.3
48215.1,35903.5
48219,35910.1
48222.4,35917.1
48225,35924.4
48226.8,35931.9
48228,35939.5
48228.3,35947.2
48228.3,36104.7
48228,36112.4
48226.8,36120.1
48225,36127.6
48222.4,36134.9
48219,36141.8
48215.1,36148.5
48210.5,36154.7
48205.3,36160.4
48199.6,36165.6
48193.4,36170.2
48186.7,36174.2
48179.7,36177.5
48172.5,36180.1
48165,36182
48157.3,36183.1
48149.6,36183.5
47850.4,36183.5
47842.7,36183.1
47835,36182
47827.5,36180.1
47820.3,36177.5
47813.3,36174.2
47806.6,36170.2
47800.4,36165.6
47794.7,36160.4
47789.5,36154.7
47784.9,36148.5
47781,36141.8
47777.6,36134.9
47775,36127.6
47773.2,36120.1
47772,36112.4
47771.7,36104.7
47771.7,35947.2
47772,35939.5
47773.2,35931.9
47775,35924.4
47777.6,35917.1
47781,35910.1
47784.9,35903.5
47789.5,35897.3
47794.7,35891.6
47800.4,35886.4
47806.6,35881.8
47813.3,35877.8
47820.3,35874.5
47827.5,35871.9
47835,35870
47842.7,35868.9
47850.4,35868.5
48149.6,35868.5
Z" /> 
</g>
<g >
</g>
<g style="fill:#008400; fill-opacity:1.0; 
stroke:#008400; stroke-width:0; stroke-opacity:1; 
stroke-linecap:round; stroke-linejoin:round;">
<path style="fill:#008400; fill-opacity:1.0; 
stroke:#008400; stroke-width:0; stroke-opacity:1; 
stroke-linecap:round; stroke-linejoin:round;fill-rule:evenodd;"
d="M 46885.7,35253.5
46892.6,35254.5
46899.3,35256.2
46905.9,35258.5
46912.1,35261.5
46918.1,35265.1
46923.7,35269.2
46928.8,35273.9
46933.5,35279.1
46937.7,35284.6
46941.2,35290.6
46944.2,35296.9
46946.6,35303.4
46948.2,35310.2
46949.3,35317.1
46949.6,35324
46949.6,35465.7
46949.3,35472.7
46948.2,35479.6
46946.6,35486.3
46944.2,35492.9
46941.2,35499.2
46937.7,35505.1
46933.5,35510.7
46928.8,35515.9
46923.7,35520.5
46918.1,35524.7
46912.1,35528.2
46905.9,35531.2
46899.3,35533.6
46892.6,35535.3
46885.7,35536.3
46878.7,35536.6
46721.3,35536.6
46714.3,35536.3
46707.4,35535.3
46700.7,35533.6
46694.1,35531.2
46687.9,35528.2
46681.9,35524.7
46676.3,35520.5
46671.2,35515.9
46666.5,35510.7
46662.3,35505.1
46658.8,35499.2
46655.8,35492.9
46653.4,35486.3
46651.8,35479.6
46650.7,35472.7
46650.4,35465.7
46650.4,35324
46650.7,35317.1
46651.8,35310.2
46653.4,35303.4
46655.8,35296.9
46658.8,35290.6
46662.3,35284.6
46666.5,35279.1
46671.2,35273.9
46676.3,35269.2
46681.9,35265.1
46687.9,35261.5
46694.1,35258.5
46700.7,35256.2
46707.4,35254.5
46714.3,35253.5
46721.3,35253.1
46878.7,35253.1
Z" /> 
<path style="fill:#008400; fill-opacity:1.0; 
stroke:#008400; stroke-width:0; stroke-opacity:1; 
stroke-linecap:round; stroke-linejoin:round;fill-rule:evenodd;"
d="M 46885.7,35863.7
46892.6,35864.7
46899.3,35866.4
46905.9,35868.8
46912.1,35871.8
46918.1,35875.3
46923.7,35879.5
46928.8,35884.1
46933.5,35889.3
46937.7,35894.9
46941.2,35900.8
46944.2,35907.1
46946.6,35913.7
46948.2,35920.4
46949.3,35927.3
46949.6,35934.3
46949.6,36076
46949.3,36082.9
46948.2,36089.8
46946.6,36096.6
46944.2,36103.1
46941.2,36109.4
46937.7,36115.4
46933.5,36120.9
46928.8,36126.1
46923.7,36130.8
46918.1,36134.9
46912.1,36138.5
46905.9,36141.5
46899.3,36143.8
46892.6,36145.5
46885.7,36146.5
46878.7,36146.9
46721.3,36146.9
46714.3,36146.5
46707.4,36145.5
46700.7,36143.8
46694.1,36141.5
46687.9,36138.5
46681.9,36134.9
46676.3,36130.8
46671.2,36126.1
46666.5,36120.9
46662.3,36115.4
46658.8,36109.4
46655.8,36103.1
46653.4,36096.6
46651.8,36089.8
46650.7,36082.9
46650.4,36076
46650.4,35934.3
46650.7,35927.3
46651.8,35920.4
46653.4,35913.7
46655.8,35907.1
46658.8,35900.8
46662.3,35894.9
46666.5,35889.3
46671.2,35884.1
46676.3,35879.5
46681.9,35875.3
46687.9,35871.8
46694.1,35868.8
46700.7,35866.4
46707.4,35864.7
46714.3,35863.7
46721.3,35863.4
46878.7,35863.4
Z" /> 
</g>
<g >
</g>
<g >
</g>
<g >
</g>
</g>
<g style="fill:#000000; fill-opacity:1.0; 
stroke:#000000; stroke-width:0; stroke-opacity:1; 
stroke-linecap:round; stroke-linejoin:round;">
</g>
<g style="fill:#C2C200; fill-opacity:1.0; 
stroke:#C2C200; stroke-width:0; stroke-opacity:1; 
stroke-linecap:round; stroke-linejoin:round;">
</g>
<g style="fill:#C2C200; fill-opacity:1.0; 
stroke:#C2C200; stroke-width:19.685; stroke-opacity:1; 
stroke-linecap:round; stroke-linejoin:round;">
</g>
<g style="fill:#C2C200; fill-opacity:0.0; 
stroke:#C2C200; stroke-width:19.685; stroke-opacity:1; 
stroke-linecap:round; stroke-linejoin:round;">
<path d="M41229 37866
L41230 32350
" />
<path d="M54200 32349
L54199 37864
" />
<path d="M54199 37864
L41229 37866
" />
<path d="M54200 32349
L41221 32359
" />
<g >
</g>
<g >
</g>
<g >
</g>
<g >
</g>
<g >
</g>
<g >
</g>
<g >
</g>
<g >
</g>
<g >
</g>
<g >
</g>
<g >
</g>
<g >
</g>
<g >
</g>
<g >
</g>
<g >
</g>
<g >
</g>
<g >
</g>
<g >
</g>
<g >
</g>
<g >
</g>
<g >
</g>
<g >
</g>
<g >
</g>
<g >
</g>
<g >
</g>
<g >
</g>
<g >
</g>
<g >
</g>
<g >
</g>
<g >
</g>
<g >
</g>
<g >
</g>
<g >
</g>
<g >
</g>
<g >
</g>
<g >
</g>
<g >
</g>
<g >
</g>
<g >
</g>
<g >
</g>
<g >
</g>
</g> 
</svg>
