<?xml version="1.0" standalone="no"?>
 <!DOCTYPE svg PUBLIC "-//W3C//DTD SVG 1.1//EN" 
 "http://www.w3.org/Graphics/SVG/1.1/DTD/svg11.dtd"> 
<svg
  xmlns:svg="http://www.w3.org/2000/svg"
  xmlns="http://www.w3.org/2000/svg"
  xmlns:xlink="http://www.w3.org/1999/xlink"
  version="1.1"
  width="29.700220cm" height="21.000720cm" viewBox="0 0 116930 82680">
<title>SVG Picture created as Masterproef ultrasonic transducer-F_SilkS.svg date 2021/10/04 10:32:20 </title>
  <desc>Picture generated by PCBNEW </desc>
<g style="fill:#000000; fill-opacity:1;stroke:#000000; stroke-opacity:1;
stroke-linecap:round; stroke-linejoin:round;"
 transform="translate(0 0) scale(1 1)">
</g>
<g style="fill:#000000; fill-opacity:0.0; 
stroke:#000000; stroke-width:-0.000393701; stroke-opacity:1; 
stroke-linecap:round; stroke-linejoin:round;">
</g>
<g style="fill:#000000; fill-opacity:0.0; 
stroke:#000000; stroke-width:39.3701; stroke-opacity:1; 
stroke-linecap:round; stroke-linejoin:round;">
</g>
<g style="fill:#000000; fill-opacity:0.0; 
stroke:#000000; stroke-width:59.0551; stroke-opacity:1; 
stroke-linecap:round; stroke-linejoin:round;">
<rect x="69685.9" y="65357.2" width="42519.7" height="12598.4" rx="0" />
</g>
<g style="fill:#000000; fill-opacity:0.0; 
stroke:#000000; stroke-width:39.3701; stroke-opacity:1; 
stroke-linecap:round; stroke-linejoin:round;">
</g>
<g style="fill:#000000; fill-opacity:0.0; 
stroke:#000000; stroke-width:59.0551; stroke-opacity:1; 
stroke-linecap:round; stroke-linejoin:round;">
<rect x="3937.01" y="3937.01" width="109056" height="74806" rx="0" />
</g>
<g style="fill:#000000; fill-opacity:0.0; 
stroke:#000000; stroke-width:39.3701; stroke-opacity:1; 
stroke-linecap:round; stroke-linejoin:round;">
</g>
<g style="fill:#000000; fill-opacity:0.0; 
stroke:#000000; stroke-width:59.0551; stroke-opacity:1; 
stroke-linecap:round; stroke-linejoin:round;">
<rect x="4724.41" y="4724.41" width="107481" height="73231.2" rx="0" />
</g>
<g style="fill:#000000; fill-opacity:0.0; 
stroke:#000000; stroke-width:39.3701; stroke-opacity:1; 
stroke-linecap:round; stroke-linejoin:round;">
</g>
<g style="fill:#000000; fill-opacity:0.0; 
stroke:#000000; stroke-width:59.0551; stroke-opacity:1; 
stroke-linecap:round; stroke-linejoin:round;">
<path d="M23622 4724
L23622 3937
" />
</g>
<g style="fill:#000000; fill-opacity:0.0; 
stroke:#000000; stroke-width:39.3701; stroke-opacity:1; 
stroke-linecap:round; stroke-linejoin:round;">
</g>
<g style="fill:#000000; fill-opacity:0.0; 
stroke:#000000; stroke-width:59.0551; stroke-opacity:1; 
stroke-linecap:round; stroke-linejoin:round;">
<path d="M43307 4724
L43307 3937
" />
</g>
<g style="fill:#000000; fill-opacity:0.0; 
stroke:#000000; stroke-width:39.3701; stroke-opacity:1; 
stroke-linecap:round; stroke-linejoin:round;">
</g>
<g style="fill:#000000; fill-opacity:0.0; 
stroke:#000000; stroke-width:59.0551; stroke-opacity:1; 
stroke-linecap:round; stroke-linejoin:round;">
<path d="M62992 4724
L62992 3937
" />
</g>
<g style="fill:#000000; fill-opacity:0.0; 
stroke:#000000; stroke-width:39.3701; stroke-opacity:1; 
stroke-linecap:round; stroke-linejoin:round;">
</g>
<g style="fill:#000000; fill-opacity:0.0; 
stroke:#000000; stroke-width:59.0551; stroke-opacity:1; 
stroke-linecap:round; stroke-linejoin:round;">
<path d="M82677 4724
L82677 3937
" />
</g>
<g style="fill:#000000; fill-opacity:0.0; 
stroke:#000000; stroke-width:39.3701; stroke-opacity:1; 
stroke-linecap:round; stroke-linejoin:round;">
</g>
<g style="fill:#000000; fill-opacity:0.0; 
stroke:#000000; stroke-width:59.0551; stroke-opacity:1; 
stroke-linecap:round; stroke-linejoin:round;">
<path d="M102362 4724
L102362 3937
" />
</g>
<g style="fill:#000000; fill-opacity:0.0; 
stroke:#000000; stroke-width:39.3701; stroke-opacity:1; 
stroke-linecap:round; stroke-linejoin:round;">
</g>
<g style="fill:#000000; fill-opacity:0.0; 
stroke:#000000; stroke-width:59.0551; stroke-opacity:1; 
stroke-linecap:round; stroke-linejoin:round;">
<text x="13779.5" y="4586.61"
textLength="564.211" font-size="682.415" lengthAdjust="spacingAndGlyphs"
text-anchor="start" opacity="0">1</text>
<path d="M14199 4562
L13906 4562
" />
<path d="M14052 4562
L14052 4050
L14004 4123
L13955 4172
L13906 4196
" />
</g>
<g style="fill:#000000; fill-opacity:0.0; 
stroke:#000000; stroke-width:39.3701; stroke-opacity:1; 
stroke-linecap:round; stroke-linejoin:round;">
</g>
<g style="fill:#000000; fill-opacity:0.0; 
stroke:#000000; stroke-width:59.0551; stroke-opacity:1; 
stroke-linecap:round; stroke-linejoin:round;">
<text x="33464.6" y="4586.61"
textLength="546.494" font-size="682.415" lengthAdjust="spacingAndGlyphs"
text-anchor="start" opacity="0">2</text>
<path d="M33591 4099
L33615 4074
L33664 4050
L33786 4050
L33835 4074
L33859 4099
L33884 4147
L33884 4196
L33859 4269
L33567 4562
L33884 4562
" />
</g>
<g style="fill:#000000; fill-opacity:0.0; 
stroke:#000000; stroke-width:39.3701; stroke-opacity:1; 
stroke-linecap:round; stroke-linejoin:round;">
</g>
<g style="fill:#000000; fill-opacity:0.0; 
stroke:#000000; stroke-width:59.0551; stroke-opacity:1; 
stroke-linecap:round; stroke-linejoin:round;">
<text x="53149.6" y="4586.61"
textLength="546.494" font-size="682.415" lengthAdjust="spacingAndGlyphs"
text-anchor="start" opacity="0">3</text>
<path d="M53252 4050
L53569 4050
L53398 4245
L53471 4245
L53520 4269
L53544 4294
L53569 4342
L53569 4464
L53544 4513
L53520 4537
L53471 4562
L53325 4562
L53276 4537
L53252 4513
" />
</g>
<g style="fill:#000000; fill-opacity:0.0; 
stroke:#000000; stroke-width:39.3701; stroke-opacity:1; 
stroke-linecap:round; stroke-linejoin:round;">
</g>
<g style="fill:#000000; fill-opacity:0.0; 
stroke:#000000; stroke-width:59.0551; stroke-opacity:1; 
stroke-linecap:round; stroke-linejoin:round;">
<text x="72834.6" y="4586.61"
textLength="546.494" font-size="682.415" lengthAdjust="spacingAndGlyphs"
text-anchor="start" opacity="0">4</text>
<path d="M73205 4221
L73205 4562
" />
<path d="M73083 4026
L72961 4391
L73278 4391
" />
</g>
<g style="fill:#000000; fill-opacity:0.0; 
stroke:#000000; stroke-width:39.3701; stroke-opacity:1; 
stroke-linecap:round; stroke-linejoin:round;">
</g>
<g style="fill:#000000; fill-opacity:0.0; 
stroke:#000000; stroke-width:59.0551; stroke-opacity:1; 
stroke-linecap:round; stroke-linejoin:round;">
<text x="92519.7" y="4586.61"
textLength="546.494" font-size="682.415" lengthAdjust="spacingAndGlyphs"
text-anchor="start" opacity="0">5</text>
<path d="M92914 4050
L92671 4050
L92646 4294
L92671 4269
L92719 4245
L92841 4245
L92890 4269
L92914 4294
L92939 4342
L92939 4464
L92914 4513
L92890 4537
L92841 4562
L92719 4562
L92671 4537
L92646 4513
" />
</g>
<g style="fill:#000000; fill-opacity:0.0; 
stroke:#000000; stroke-width:39.3701; stroke-opacity:1; 
stroke-linecap:round; stroke-linejoin:round;">
</g>
<g style="fill:#000000; fill-opacity:0.0; 
stroke:#000000; stroke-width:59.0551; stroke-opacity:1; 
stroke-linecap:round; stroke-linejoin:round;">
<text x="112205" y="4586.61"
textLength="546.494" font-size="682.415" lengthAdjust="spacingAndGlyphs"
text-anchor="start" opacity="0">6</text>
<path d="M112575 4050
L112477 4050
L112429 4074
L112404 4099
L112356 4172
L112331 4269
L112331 4464
L112356 4513
L112380 4537
L112429 4562
L112526 4562
L112575 4537
L112599 4513
L112624 4464
L112624 4342
L112599 4294
L112575 4269
L112526 4245
L112429 4245
L112380 4269
L112356 4294
L112331 4342
" />
</g>
<g style="fill:#000000; fill-opacity:0.0; 
stroke:#000000; stroke-width:39.3701; stroke-opacity:1; 
stroke-linecap:round; stroke-linejoin:round;">
</g>
<g style="fill:#000000; fill-opacity:0.0; 
stroke:#000000; stroke-width:59.0551; stroke-opacity:1; 
stroke-linecap:round; stroke-linejoin:round;">
<path d="M23622 77955
L23622 78742
" />
</g>
<g style="fill:#000000; fill-opacity:0.0; 
stroke:#000000; stroke-width:39.3701; stroke-opacity:1; 
stroke-linecap:round; stroke-linejoin:round;">
</g>
<g style="fill:#000000; fill-opacity:0.0; 
stroke:#000000; stroke-width:59.0551; stroke-opacity:1; 
stroke-linecap:round; stroke-linejoin:round;">
<path d="M43307 77955
L43307 78742
" />
</g>
<g style="fill:#000000; fill-opacity:0.0; 
stroke:#000000; stroke-width:39.3701; stroke-opacity:1; 
stroke-linecap:round; stroke-linejoin:round;">
</g>
<g style="fill:#000000; fill-opacity:0.0; 
stroke:#000000; stroke-width:59.0551; stroke-opacity:1; 
stroke-linecap:round; stroke-linejoin:round;">
<path d="M62992 77955
L62992 78742
" />
</g>
<g style="fill:#000000; fill-opacity:0.0; 
stroke:#000000; stroke-width:39.3701; stroke-opacity:1; 
stroke-linecap:round; stroke-linejoin:round;">
</g>
<g style="fill:#000000; fill-opacity:0.0; 
stroke:#000000; stroke-width:59.0551; stroke-opacity:1; 
stroke-linecap:round; stroke-linejoin:round;">
<path d="M82677 77955
L82677 78742
" />
</g>
<g style="fill:#000000; fill-opacity:0.0; 
stroke:#000000; stroke-width:39.3701; stroke-opacity:1; 
stroke-linecap:round; stroke-linejoin:round;">
</g>
<g style="fill:#000000; fill-opacity:0.0; 
stroke:#000000; stroke-width:59.0551; stroke-opacity:1; 
stroke-linecap:round; stroke-linejoin:round;">
<path d="M102362 77955
L102362 78742
" />
</g>
<g style="fill:#000000; fill-opacity:0.0; 
stroke:#000000; stroke-width:39.3701; stroke-opacity:1; 
stroke-linecap:round; stroke-linejoin:round;">
</g>
<g style="fill:#000000; fill-opacity:0.0; 
stroke:#000000; stroke-width:59.0551; stroke-opacity:1; 
stroke-linecap:round; stroke-linejoin:round;">
<text x="13779.5" y="78605.2"
textLength="546.494" font-size="682.415" lengthAdjust="spacingAndGlyphs"
text-anchor="start" opacity="0">1</text>
<path d="M14199 78580
L13906 78580
" />
<path d="M14052 78580
L14052 78069
L14004 78142
L13955 78190
L13906 78215
" />
</g>
<g style="fill:#000000; fill-opacity:0.0; 
stroke:#000000; stroke-width:39.3701; stroke-opacity:1; 
stroke-linecap:round; stroke-linejoin:round;">
</g>
<g style="fill:#000000; fill-opacity:0.0; 
stroke:#000000; stroke-width:59.0551; stroke-opacity:1; 
stroke-linecap:round; stroke-linejoin:round;">
<text x="33464.6" y="78605.2"
textLength="546.494" font-size="682.415" lengthAdjust="spacingAndGlyphs"
text-anchor="start" opacity="0">2</text>
<path d="M33591 78117
L33615 78093
L33664 78069
L33786 78069
L33835 78093
L33859 78117
L33884 78166
L33884 78215
L33859 78288
L33567 78580
L33884 78580
" />
</g>
<g style="fill:#000000; fill-opacity:0.0; 
stroke:#000000; stroke-width:39.3701; stroke-opacity:1; 
stroke-linecap:round; stroke-linejoin:round;">
</g>
<g style="fill:#000000; fill-opacity:0.0; 
stroke:#000000; stroke-width:59.0551; stroke-opacity:1; 
stroke-linecap:round; stroke-linejoin:round;">
<text x="53149.6" y="78605.2"
textLength="546.494" font-size="682.415" lengthAdjust="spacingAndGlyphs"
text-anchor="start" opacity="0">3</text>
<path d="M53252 78069
L53569 78069
L53398 78263
L53471 78263
L53520 78288
L53544 78312
L53569 78361
L53569 78483
L53544 78532
L53520 78556
L53471 78580
L53325 78580
L53276 78556
L53252 78532
" />
</g>
<g style="fill:#000000; fill-opacity:0.0; 
stroke:#000000; stroke-width:39.3701; stroke-opacity:1; 
stroke-linecap:round; stroke-linejoin:round;">
</g>
<g style="fill:#000000; fill-opacity:0.0; 
stroke:#000000; stroke-width:59.0551; stroke-opacity:1; 
stroke-linecap:round; stroke-linejoin:round;">
<text x="72834.6" y="78605.2"
textLength="546.494" font-size="682.415" lengthAdjust="spacingAndGlyphs"
text-anchor="start" opacity="0">4</text>
<path d="M73205 78239
L73205 78580
" />
<path d="M73083 78044
L72961 78410
L73278 78410
" />
</g>
<g style="fill:#000000; fill-opacity:0.0; 
stroke:#000000; stroke-width:39.3701; stroke-opacity:1; 
stroke-linecap:round; stroke-linejoin:round;">
</g>
<g style="fill:#000000; fill-opacity:0.0; 
stroke:#000000; stroke-width:59.0551; stroke-opacity:1; 
stroke-linecap:round; stroke-linejoin:round;">
<text x="92519.7" y="78605.2"
textLength="546.494" font-size="682.415" lengthAdjust="spacingAndGlyphs"
text-anchor="start" opacity="0">5</text>
<path d="M92914 78069
L92671 78069
L92646 78312
L92671 78288
L92719 78263
L92841 78263
L92890 78288
L92914 78312
L92939 78361
L92939 78483
L92914 78532
L92890 78556
L92841 78580
L92719 78580
L92671 78556
L92646 78532
" />
</g>
<g style="fill:#000000; fill-opacity:0.0; 
stroke:#000000; stroke-width:39.3701; stroke-opacity:1; 
stroke-linecap:round; stroke-linejoin:round;">
</g>
<g style="fill:#000000; fill-opacity:0.0; 
stroke:#000000; stroke-width:59.0551; stroke-opacity:1; 
stroke-linecap:round; stroke-linejoin:round;">
<text x="112205" y="78605.2"
textLength="546.494" font-size="682.415" lengthAdjust="spacingAndGlyphs"
text-anchor="start" opacity="0">6</text>
<path d="M112575 78069
L112477 78069
L112429 78093
L112404 78117
L112356 78190
L112331 78288
L112331 78483
L112356 78532
L112380 78556
L112429 78580
L112526 78580
L112575 78556
L112599 78532
L112624 78483
L112624 78361
L112599 78312
L112575 78288
L112526 78263
L112429 78263
L112380 78288
L112356 78312
L112331 78361
" />
</g>
<g style="fill:#000000; fill-opacity:0.0; 
stroke:#000000; stroke-width:39.3701; stroke-opacity:1; 
stroke-linecap:round; stroke-linejoin:round;">
</g>
<g style="fill:#000000; fill-opacity:0.0; 
stroke:#000000; stroke-width:59.0551; stroke-opacity:1; 
stroke-linecap:round; stroke-linejoin:round;">
<path d="M3937 23622
L4724 23622
" />
</g>
<g style="fill:#000000; fill-opacity:0.0; 
stroke:#000000; stroke-width:39.3701; stroke-opacity:1; 
stroke-linecap:round; stroke-linejoin:round;">
</g>
<g style="fill:#000000; fill-opacity:0.0; 
stroke:#000000; stroke-width:59.0551; stroke-opacity:1; 
stroke-linecap:round; stroke-linejoin:round;">
<path d="M3937 43307
L4724 43307
" />
</g>
<g style="fill:#000000; fill-opacity:0.0; 
stroke:#000000; stroke-width:39.3701; stroke-opacity:1; 
stroke-linecap:round; stroke-linejoin:round;">
</g>
<g style="fill:#000000; fill-opacity:0.0; 
stroke:#000000; stroke-width:59.0551; stroke-opacity:1; 
stroke-linecap:round; stroke-linejoin:round;">
<path d="M3937 62992
L4724 62992
" />
</g>
<g style="fill:#000000; fill-opacity:0.0; 
stroke:#000000; stroke-width:39.3701; stroke-opacity:1; 
stroke-linecap:round; stroke-linejoin:round;">
</g>
<g style="fill:#000000; fill-opacity:0.0; 
stroke:#000000; stroke-width:59.0551; stroke-opacity:1; 
stroke-linecap:round; stroke-linejoin:round;">
<text x="4330.71" y="14035.4"
textLength="497.75" font-size="682.415" lengthAdjust="spacingAndGlyphs"
text-anchor="middle" opacity="0">A</text>
<path d="M4208 13864
L4452 13864
" />
<path d="M4160 14011
L4330 13499
L4501 14011
" />
</g>
<g style="fill:#000000; fill-opacity:0.0; 
stroke:#000000; stroke-width:39.3701; stroke-opacity:1; 
stroke-linecap:round; stroke-linejoin:round;">
</g>
<g style="fill:#000000; fill-opacity:0.0; 
stroke:#000000; stroke-width:59.0551; stroke-opacity:1; 
stroke-linecap:round; stroke-linejoin:round;">
<text x="4330.71" y="33720.5"
textLength="570.866" font-size="682.415" lengthAdjust="spacingAndGlyphs"
text-anchor="middle" opacity="0">B</text>
<path d="M4367 33428
L4440 33452
L4464 33476
L4489 33525
L4489 33598
L4464 33647
L4440 33671
L4391 33696
L4196 33696
L4196 33184
L4367 33184
L4416 33208
L4440 33233
L4464 33281
L4464 33330
L4440 33379
L4416 33403
L4367 33428
L4196 33428
" />
</g>
<g style="fill:#000000; fill-opacity:0.0; 
stroke:#000000; stroke-width:39.3701; stroke-opacity:1; 
stroke-linecap:round; stroke-linejoin:round;">
</g>
<g style="fill:#000000; fill-opacity:0.0; 
stroke:#000000; stroke-width:59.0551; stroke-opacity:1; 
stroke-linecap:round; stroke-linejoin:round;">
<text x="4330.71" y="53405.5"
textLength="570.866" font-size="682.415" lengthAdjust="spacingAndGlyphs"
text-anchor="middle" opacity="0">C</text>
<path d="M4489 53332
L4464 53356
L4391 53381
L4342 53381
L4269 53356
L4221 53308
L4196 53259
L4172 53161
L4172 53088
L4196 52991
L4221 52942
L4269 52893
L4342 52869
L4391 52869
L4464 52893
L4489 52918
" />
</g>
<g style="fill:#000000; fill-opacity:0.0; 
stroke:#000000; stroke-width:39.3701; stroke-opacity:1; 
stroke-linecap:round; stroke-linejoin:round;">
</g>
<g style="fill:#000000; fill-opacity:0.0; 
stroke:#000000; stroke-width:59.0551; stroke-opacity:1; 
stroke-linecap:round; stroke-linejoin:round;">
<text x="4330.71" y="73090.6"
textLength="570.866" font-size="682.415" lengthAdjust="spacingAndGlyphs"
text-anchor="middle" opacity="0">D</text>
<path d="M4196 73066
L4196 72554
L4318 72554
L4391 72578
L4440 72627
L4464 72676
L4489 72773
L4489 72846
L4464 72944
L4440 72993
L4391 73041
L4318 73066
L4196 73066
" />
</g>
<g style="fill:#000000; fill-opacity:0.0; 
stroke:#000000; stroke-width:39.3701; stroke-opacity:1; 
stroke-linecap:round; stroke-linejoin:round;">
</g>
<g style="fill:#000000; fill-opacity:0.0; 
stroke:#000000; stroke-width:59.0551; stroke-opacity:1; 
stroke-linecap:round; stroke-linejoin:round;">
<path d="M112992 23622
L112205 23622
" />
</g>
<g style="fill:#000000; fill-opacity:0.0; 
stroke:#000000; stroke-width:39.3701; stroke-opacity:1; 
stroke-linecap:round; stroke-linejoin:round;">
</g>
<g style="fill:#000000; fill-opacity:0.0; 
stroke:#000000; stroke-width:59.0551; stroke-opacity:1; 
stroke-linecap:round; stroke-linejoin:round;">
<path d="M112992 43307
L112205 43307
" />
</g>
<g style="fill:#000000; fill-opacity:0.0; 
stroke:#000000; stroke-width:39.3701; stroke-opacity:1; 
stroke-linecap:round; stroke-linejoin:round;">
</g>
<g style="fill:#000000; fill-opacity:0.0; 
stroke:#000000; stroke-width:59.0551; stroke-opacity:1; 
stroke-linecap:round; stroke-linejoin:round;">
<path d="M112992 62992
L112205 62992
" />
</g>
<g style="fill:#000000; fill-opacity:0.0; 
stroke:#000000; stroke-width:39.3701; stroke-opacity:1; 
stroke-linecap:round; stroke-linejoin:round;">
</g>
<g style="fill:#000000; fill-opacity:0.0; 
stroke:#000000; stroke-width:59.0551; stroke-opacity:1; 
stroke-linecap:round; stroke-linejoin:round;">
<text x="112599" y="14035.4"
textLength="497.75" font-size="682.415" lengthAdjust="spacingAndGlyphs"
text-anchor="middle" opacity="0">A</text>
<path d="M112477 13864
L112721 13864
" />
<path d="M112428 14011
L112599 13499
L112769 14011
" />
</g>
<g style="fill:#000000; fill-opacity:0.0; 
stroke:#000000; stroke-width:39.3701; stroke-opacity:1; 
stroke-linecap:round; stroke-linejoin:round;">
</g>
<g style="fill:#000000; fill-opacity:0.0; 
stroke:#000000; stroke-width:59.0551; stroke-opacity:1; 
stroke-linecap:round; stroke-linejoin:round;">
<text x="112599" y="33720.5"
textLength="570.866" font-size="682.415" lengthAdjust="spacingAndGlyphs"
text-anchor="middle" opacity="0">B</text>
<path d="M112635 33428
L112708 33452
L112733 33476
L112757 33525
L112757 33598
L112733 33647
L112708 33671
L112660 33696
L112465 33696
L112465 33184
L112635 33184
L112684 33208
L112708 33233
L112733 33281
L112733 33330
L112708 33379
L112684 33403
L112635 33428
L112465 33428
" />
</g>
<g style="fill:#000000; fill-opacity:0.0; 
stroke:#000000; stroke-width:39.3701; stroke-opacity:1; 
stroke-linecap:round; stroke-linejoin:round;">
</g>
<g style="fill:#000000; fill-opacity:0.0; 
stroke:#000000; stroke-width:59.0551; stroke-opacity:1; 
stroke-linecap:round; stroke-linejoin:round;">
<text x="112599" y="53405.5"
textLength="570.866" font-size="682.415" lengthAdjust="spacingAndGlyphs"
text-anchor="middle" opacity="0">C</text>
<path d="M112757 53332
L112733 53356
L112660 53381
L112611 53381
L112538 53356
L112489 53308
L112465 53259
L112440 53161
L112440 53088
L112465 52991
L112489 52942
L112538 52893
L112611 52869
L112660 52869
L112733 52893
L112757 52918
" />
</g>
<g style="fill:#000000; fill-opacity:0.0; 
stroke:#000000; stroke-width:39.3701; stroke-opacity:1; 
stroke-linecap:round; stroke-linejoin:round;">
</g>
<g style="fill:#000000; fill-opacity:0.0; 
stroke:#000000; stroke-width:59.0551; stroke-opacity:1; 
stroke-linecap:round; stroke-linejoin:round;">
<text x="112599" y="73090.6"
textLength="570.866" font-size="682.415" lengthAdjust="spacingAndGlyphs"
text-anchor="middle" opacity="0">D</text>
<path d="M112465 73066
L112465 72554
L112587 72554
L112660 72578
L112708 72627
L112733 72676
L112757 72773
L112757 72846
L112733 72944
L112708 72993
L112660 73041
L112587 73066
L112465 73066
" />
</g>
<g style="fill:#000000; fill-opacity:0.0; 
stroke:#000000; stroke-width:39.3701; stroke-opacity:1; 
stroke-linecap:round; stroke-linejoin:round;">
</g>
<g style="fill:#000000; fill-opacity:0.0; 
stroke:#000000; stroke-width:59.0551; stroke-opacity:1; 
stroke-linecap:round; stroke-linejoin:round;">
<text x="78741" y="76321.7"
textLength="2758.72" font-size="787.402" lengthAdjust="spacingAndGlyphs"
text-anchor="start" opacity="0">Date: </text>
<path d="M78911 76293
L78911 75703
L79051 75703
L79136 75731
L79192 75787
L79220 75843
L79248 75956
L79248 76040
L79220 76153
L79192 76209
L79136 76265
L79051 76293
L78911 76293
" />
<path d="M79754 76293
L79754 75984
L79726 75928
L79670 75899
L79557 75899
L79501 75928
" />
<path d="M79754 76265
L79698 76293
L79557 76293
L79501 76265
L79473 76209
L79473 76153
L79501 76096
L79557 76068
L79698 76068
L79754 76040
" />
<path d="M79951 75899
L80176 75899
" />
<path d="M80036 75703
L80036 76209
L80064 76265
L80120 76293
L80176 76293
" />
<path d="M80598 76265
L80542 76293
L80429 76293
L80373 76265
L80345 76209
L80345 75984
L80373 75928
L80429 75899
L80542 75899
L80598 75928
L80626 75984
L80626 76040
L80345 76096
" />
<path d="M80879 76237
L80907 76265
L80879 76293
L80851 76265
L80879 76237
L80879 76293
" />
<path d="M80879 75928
L80907 75956
L80879 75984
L80851 75956
L80879 75928
L80879 75984
" />
</g>
<g style="fill:#000000; fill-opacity:0.0; 
stroke:#000000; stroke-width:39.3701; stroke-opacity:1; 
stroke-linecap:round; stroke-linejoin:round;">
</g>
<g style="fill:#000000; fill-opacity:0.0; 
stroke:#000000; stroke-width:59.0551; stroke-opacity:1; 
stroke-linecap:round; stroke-linejoin:round;">
<path d="M69685 76577
L112205 76577
" />
</g>
<g style="fill:#000000; fill-opacity:0.0; 
stroke:#000000; stroke-width:39.3701; stroke-opacity:1; 
stroke-linecap:round; stroke-linejoin:round;">
</g>
<g style="fill:#000000; fill-opacity:0.0; 
stroke:#000000; stroke-width:59.0551; stroke-opacity:1; 
stroke-linecap:round; stroke-linejoin:round;">
<text x="70079.6" y="77424.1"
textLength="14091.7" font-size="787.402" lengthAdjust="spacingAndGlyphs"
text-anchor="start" opacity="0">KiCad E.D.A.  kicad (5.1.10)-1</text>
<path d="M70249 77395
L70249 76805
" />
<path d="M70587 77395
L70334 77058
" />
<path d="M70587 76805
L70249 77142
" />
<path d="M70840 77395
L70840 77002
" />
<path d="M70840 76805
L70812 76833
L70840 76861
L70868 76833
L70840 76805
L70840 76861
" />
<path d="M71458 77339
L71430 77367
L71346 77395
L71290 77395
L71205 77367
L71149 77311
L71121 77255
L71093 77142
L71093 77058
L71121 76946
L71149 76889
L71205 76833
L71290 76805
L71346 76805
L71430 76833
L71458 76861
" />
<path d="M71965 77395
L71965 77086
L71937 77030
L71880 77002
L71768 77002
L71712 77030
" />
<path d="M71965 77367
L71908 77395
L71768 77395
L71712 77367
L71683 77311
L71683 77255
L71712 77199
L71768 77171
L71908 77171
L71965 77142
" />
<path d="M72499 77395
L72499 76805
" />
<path d="M72499 77367
L72443 77395
L72330 77395
L72274 77367
L72246 77339
L72218 77283
L72218 77114
L72246 77058
L72274 77030
L72330 77002
L72443 77002
L72499 77030
" />
<path d="M73230 77086
L73427 77086
" />
<path d="M73511 77395
L73230 77395
L73230 76805
L73511 76805
" />
<path d="M73764 77339
L73793 77367
L73764 77395
L73736 77367
L73764 77339
L73764 77395
" />
<path d="M74046 77395
L74046 76805
L74186 76805
L74271 76833
L74327 76889
L74355 76946
L74383 77058
L74383 77142
L74355 77255
L74327 77311
L74271 77367
L74186 77395
L74046 77395
" />
<path d="M74636 77339
L74664 77367
L74636 77395
L74608 77367
L74636 77339
L74636 77395
" />
<path d="M74889 77227
L75171 77227
" />
<path d="M74833 77395
L75030 76805
L75227 77395
" />
<path d="M75424 77339
L75452 77367
L75424 77395
L75395 77367
L75424 77339
L75424 77395
" />
<path d="M76605 77395
L76605 76805
" />
<path d="M76661 77171
L76830 77395
" />
<path d="M76830 77002
L76605 77227
" />
<path d="M77083 77395
L77083 77002
" />
<path d="M77083 76805
L77055 76833
L77083 76861
L77111 76833
L77083 76805
L77083 76861
" />
<path d="M77617 77367
L77561 77395
L77448 77395
L77392 77367
L77364 77339
L77336 77283
L77336 77114
L77364 77058
L77392 77030
L77448 77002
L77561 77002
L77617 77030
" />
<path d="M78123 77395
L78123 77086
L78095 77030
L78039 77002
L77926 77002
L77870 77030
" />
<path d="M78123 77367
L78067 77395
L77926 77395
L77870 77367
L77842 77311
L77842 77255
L77870 77199
L77926 77171
L78067 77171
L78123 77142
" />
<path d="M78658 77395
L78658 76805
" />
<path d="M78658 77367
L78601 77395
L78489 77395
L78433 77367
L78404 77339
L78376 77283
L78376 77114
L78404 77058
L78433 77030
L78489 77002
L78601 77002
L78658 77030
" />
<path d="M79557 77620
L79529 77592
L79473 77508
L79445 77452
L79417 77367
L79389 77227
L79389 77114
L79417 76974
L79445 76889
L79473 76833
L79529 76749
L79557 76721
" />
<path d="M80064 76805
L79782 76805
L79754 77086
L79782 77058
L79839 77030
L79979 77030
L80036 77058
L80064 77086
L80092 77142
L80092 77283
L80064 77339
L80036 77367
L79979 77395
L79839 77395
L79782 77367
L79754 77339
" />
<path d="M80345 77339
L80373 77367
L80345 77395
L80317 77367
L80345 77339
L80345 77395
" />
<path d="M80935 77395
L80598 77395
" />
<path d="M80767 77395
L80767 76805
L80710 76889
L80654 76946
L80598 76974
" />
<path d="M81188 77339
L81217 77367
L81188 77395
L81160 77367
L81188 77339
L81188 77395
" />
<path d="M81779 77395
L81442 77395
" />
<path d="M81610 77395
L81610 76805
L81554 76889
L81498 76946
L81442 76974
" />
<path d="M82145 76805
L82201 76805
L82257 76833
L82285 76861
L82313 76917
L82341 77030
L82341 77171
L82313 77283
L82285 77339
L82257 77367
L82201 77395
L82145 77395
L82088 77367
L82060 77339
L82032 77283
L82004 77171
L82004 77030
L82032 76917
L82060 76861
L82088 76833
L82145 76805
" />
<path d="M82538 77620
L82566 77592
L82623 77508
L82651 77452
L82679 77367
L82707 77227
L82707 77114
L82679 76974
L82651 76889
L82623 76833
L82566 76749
L82538 76721
" />
<path d="M82988 77171
L83438 77171
" />
<path d="M84029 77395
L83691 77395
" />
<path d="M83860 77395
L83860 76805
L83804 76889
L83748 76946
L83691 76974
" />
</g>
<g style="fill:#000000; fill-opacity:0.0; 
stroke:#000000; stroke-width:39.3701; stroke-opacity:1; 
stroke-linecap:round; stroke-linejoin:round;">
</g>
<g style="fill:#000000; fill-opacity:0.0; 
stroke:#000000; stroke-width:59.0551; stroke-opacity:1; 
stroke-linecap:round; stroke-linejoin:round;">
<path d="M69685 75396
L112205 75396
" />
</g>
<g style="fill:#000000; fill-opacity:0.0; 
stroke:#000000; stroke-width:39.3701; stroke-opacity:1; 
stroke-linecap:round; stroke-linejoin:round;">
</g>
<g style="fill:#000000; fill-opacity:0.0; 
stroke:#000000; stroke-width:118.11; stroke-opacity:1; 
stroke-linecap:round; stroke-linejoin:round;">
<text x="103544" y="76321.7"
textLength="2336.9" font-size="787.402" lengthAdjust="spacingAndGlyphs"
text-anchor="start" opacity="0">Rev: </text>
<path d="M104099 76293
L103902 76012
" />
<path d="M103761 76293
L103761 75703
L103986 75703
L104042 75731
L104070 75759
L104099 75815
L104099 75899
L104070 75956
L104042 75984
L103986 76012
L103761 76012
" />
<path d="M104577 76265
L104520 76293
L104408 76293
L104352 76265
L104323 76209
L104323 75984
L104352 75928
L104408 75899
L104520 75899
L104577 75928
L104605 75984
L104605 76040
L104323 76096
" />
<path d="M104802 75899
L104942 76293
L105083 75899
" />
<path d="M105308 76237
L105336 76265
L105308 76293
L105280 76265
L105308 76237
L105308 76293
" />
<path d="M105308 75928
L105336 75956
L105308 75984
L105280 75956
L105308 75928
L105308 75984
" />
</g>
<g style="fill:#000000; fill-opacity:0.0; 
stroke:#000000; stroke-width:39.3701; stroke-opacity:1; 
stroke-linecap:round; stroke-linejoin:round;">
</g>
<g style="fill:#000000; fill-opacity:0.0; 
stroke:#000000; stroke-width:59.0551; stroke-opacity:1; 
stroke-linecap:round; stroke-linejoin:round;">
<text x="70079.6" y="76321.7"
textLength="3781.21" font-size="787.402" lengthAdjust="spacingAndGlyphs"
text-anchor="start" opacity="0">Size: A4</text>
<path d="M70221 76265
L70305 76293
L70446 76293
L70502 76265
L70530 76237
L70559 76181
L70559 76124
L70530 76068
L70502 76040
L70446 76012
L70334 75984
L70277 75956
L70249 75928
L70221 75871
L70221 75815
L70249 75759
L70277 75731
L70334 75703
L70474 75703
L70559 75731
" />
<path d="M70812 76293
L70812 75899
" />
<path d="M70812 75703
L70784 75731
L70812 75759
L70840 75731
L70812 75703
L70812 75759
" />
<path d="M71037 75899
L71346 75899
L71037 76293
L71346 76293
" />
<path d="M71796 76265
L71740 76293
L71627 76293
L71571 76265
L71543 76209
L71543 75984
L71571 75928
L71627 75899
L71740 75899
L71796 75928
L71824 75984
L71824 76040
L71543 76096
" />
<path d="M72077 76237
L72105 76265
L72077 76293
L72049 76265
L72077 76237
L72077 76293
" />
<path d="M72077 75928
L72105 75956
L72077 75984
L72049 75956
L72077 75928
L72077 75984
" />
<path d="M72780 76124
L73061 76124
" />
<path d="M72724 76293
L72921 75703
L73118 76293
" />
<path d="M73568 75899
L73568 76293
" />
<path d="M73427 75674
L73286 76096
L73652 76096
" />
</g>
<g style="fill:#000000; fill-opacity:0.0; 
stroke:#000000; stroke-width:39.3701; stroke-opacity:1; 
stroke-linecap:round; stroke-linejoin:round;">
</g>
<g style="fill:#000000; fill-opacity:0.0; 
stroke:#000000; stroke-width:59.0551; stroke-opacity:1; 
stroke-linecap:round; stroke-linejoin:round;">
<text x="103544" y="77424.1"
textLength="3349.27" font-size="787.402" lengthAdjust="spacingAndGlyphs"
text-anchor="start" opacity="0">Id: 1/1</text>
<path d="M103714 77395
L103714 76805
" />
<path d="M104248 77395
L104248 76805
" />
<path d="M104248 77367
L104192 77395
L104079 77395
L104023 77367
L103995 77339
L103967 77283
L103967 77114
L103995 77058
L104023 77030
L104079 77002
L104192 77002
L104248 77030
" />
<path d="M104529 77339
L104557 77367
L104529 77395
L104501 77367
L104529 77339
L104529 77395
" />
<path d="M104529 77030
L104557 77058
L104529 77086
L104501 77058
L104529 77030
L104529 77086
" />
<path d="M105570 77395
L105232 77395
" />
<path d="M105401 77395
L105401 76805
L105345 76889
L105289 76946
L105232 76974
" />
<path d="M106245 76777
L105739 77536
" />
<path d="M106751 77395
L106413 77395
" />
<path d="M106582 77395
L106582 76805
L106526 76889
L106470 76946
L106413 76974
" />
</g>
<g style="fill:#000000; fill-opacity:0.0; 
stroke:#000000; stroke-width:39.3701; stroke-opacity:1; 
stroke-linecap:round; stroke-linejoin:round;">
</g>
<g style="fill:#000000; fill-opacity:0.0; 
stroke:#000000; stroke-width:59.0551; stroke-opacity:1; 
stroke-linecap:round; stroke-linejoin:round;">
<path d="M69685 73821
L112205 73821
" />
</g>
<g style="fill:#000000; fill-opacity:0.0; 
stroke:#000000; stroke-width:39.3701; stroke-opacity:1; 
stroke-linecap:round; stroke-linejoin:round;">
</g>
<g style="fill:#000000; fill-opacity:0.0; 
stroke:#000000; stroke-width:157.48; stroke-opacity:1; 
stroke-linecap:round; stroke-linejoin:round;">
<text x="70079.6" y="74924.1"
textLength="3701.14" font-size="1049.87" lengthAdjust="spacingAndGlyphs"
text-anchor="start" opacity="0">Title: </text>
<path d="M70360 74099
L70810 74099
" />
<path d="M70486 74886
L70585 74099
" />
<path d="M70974 74886
L71039 74361
" />
<path d="M71072 74099
L71030 74136
L71063 74174
L71105 74136
L71072 74099
L71063 74174
" />
<path d="M71302 74361
L71602 74361
" />
<path d="M71447 74099
L71363 74774
L71391 74849
L71461 74886
L71536 74886
" />
<path d="M71911 74886
L71841 74849
L71813 74774
L71897 74099
" />
<path d="M72516 74849
L72436 74886
L72286 74886
L72216 74849
L72187 74774
L72225 74474
L72272 74399
L72352 74361
L72501 74361
L72572 74399
L72600 74474
L72591 74549
L72206 74624
" />
<path d="M72895 74811
L72928 74849
L72886 74886
L72853 74849
L72895 74811
L72886 74886
" />
<path d="M72947 74399
L72980 74436
L72937 74474
L72905 74436
L72947 74399
L72937 74474
" />
</g>
<g style="fill:#000000; fill-opacity:0.0; 
stroke:#000000; stroke-width:39.3701; stroke-opacity:1; 
stroke-linecap:round; stroke-linejoin:round;">
</g>
<g style="fill:#000000; fill-opacity:0.0; 
stroke:#000000; stroke-width:59.0551; stroke-opacity:1; 
stroke-linecap:round; stroke-linejoin:round;">
<text x="70079.6" y="73408.3"
textLength="22364.5" font-size="787.402" lengthAdjust="spacingAndGlyphs"
text-anchor="start" opacity="0">File: Masterproef ultrasonic transducer.kicad_pcb</text>
<path d="M70446 73070
L70249 73070
" />
<path d="M70249 73380
L70249 72789
L70530 72789
" />
<path d="M70755 73380
L70755 72986
" />
<path d="M70755 72789
L70727 72817
L70755 72845
L70784 72817
L70755 72789
L70755 72845
" />
<path d="M71121 73380
L71065 73352
L71037 73295
L71037 72789
" />
<path d="M71571 73352
L71515 73380
L71402 73380
L71346 73352
L71318 73295
L71318 73070
L71346 73014
L71402 72986
L71515 72986
L71571 73014
L71599 73070
L71599 73127
L71318 73183
" />
<path d="M71852 73323
L71880 73352
L71852 73380
L71824 73352
L71852 73323
L71852 73380
" />
<path d="M71852 73014
L71880 73042
L71852 73070
L71824 73042
L71852 73014
L71852 73070
" />
<path d="M72583 73380
L72583 72789
L72780 73211
L72977 72789
L72977 73380
" />
<path d="M73511 73380
L73511 73070
L73483 73014
L73427 72986
L73314 72986
L73258 73014
" />
<path d="M73511 73352
L73455 73380
L73314 73380
L73258 73352
L73230 73295
L73230 73239
L73258 73183
L73314 73155
L73455 73155
L73511 73127
" />
<path d="M73764 73352
L73821 73380
L73933 73380
L73989 73352
L74018 73295
L74018 73267
L73989 73211
L73933 73183
L73849 73183
L73793 73155
L73764 73099
L73764 73070
L73793 73014
L73849 72986
L73933 72986
L73989 73014
" />
<path d="M74186 72986
L74411 72986
" />
<path d="M74271 72789
L74271 73295
L74299 73352
L74355 73380
L74411 73380
" />
<path d="M74833 73352
L74777 73380
L74664 73380
L74608 73352
L74580 73295
L74580 73070
L74608 73014
L74664 72986
L74777 72986
L74833 73014
L74861 73070
L74861 73127
L74580 73183
" />
<path d="M75114 73380
L75114 72986
" />
<path d="M75114 73099
L75142 73042
L75171 73014
L75227 72986
L75283 72986
" />
<path d="M75480 72986
L75480 73577
" />
<path d="M75480 73014
L75536 72986
L75649 72986
L75705 73014
L75733 73042
L75761 73099
L75761 73267
L75733 73323
L75705 73352
L75649 73380
L75536 73380
L75480 73352
" />
<path d="M76014 73380
L76014 72986
" />
<path d="M76014 73099
L76042 73042
L76070 73014
L76127 72986
L76183 72986
" />
<path d="M76464 73380
L76408 73352
L76380 73323
L76352 73267
L76352 73099
L76380 73042
L76408 73014
L76464 72986
L76548 72986
L76605 73014
L76633 73042
L76661 73099
L76661 73267
L76633 73323
L76605 73352
L76548 73380
L76464 73380
" />
<path d="M77139 73352
L77083 73380
L76970 73380
L76914 73352
L76886 73295
L76886 73070
L76914 73014
L76970 72986
L77083 72986
L77139 73014
L77167 73070
L77167 73127
L76886 73183
" />
<path d="M77336 72986
L77561 72986
" />
<path d="M77420 73380
L77420 72874
L77448 72817
L77505 72789
L77561 72789
" />
<path d="M78461 72986
L78461 73380
" />
<path d="M78208 72986
L78208 73295
L78236 73352
L78292 73380
L78376 73380
L78433 73352
L78461 73323
" />
<path d="M78826 73380
L78770 73352
L78742 73295
L78742 72789
" />
<path d="M78967 72986
L79192 72986
" />
<path d="M79051 72789
L79051 73295
L79079 73352
L79136 73380
L79192 73380
" />
<path d="M79389 73380
L79389 72986
" />
<path d="M79389 73099
L79417 73042
L79445 73014
L79501 72986
L79557 72986
" />
<path d="M80007 73380
L80007 73070
L79979 73014
L79923 72986
L79811 72986
L79754 73014
" />
<path d="M80007 73352
L79951 73380
L79811 73380
L79754 73352
L79726 73295
L79726 73239
L79754 73183
L79811 73155
L79951 73155
L80007 73127
" />
<path d="M80260 73352
L80317 73380
L80429 73380
L80485 73352
L80514 73295
L80514 73267
L80485 73211
L80429 73183
L80345 73183
L80289 73155
L80260 73099
L80260 73070
L80289 73014
L80345 72986
L80429 72986
L80485 73014
" />
<path d="M80851 73380
L80795 73352
L80767 73323
L80739 73267
L80739 73099
L80767 73042
L80795 73014
L80851 72986
L80935 72986
L80992 73014
L81020 73042
L81048 73099
L81048 73267
L81020 73323
L80992 73352
L80935 73380
L80851 73380
" />
<path d="M81301 72986
L81301 73380
" />
<path d="M81301 73042
L81329 73014
L81385 72986
L81470 72986
L81526 73014
L81554 73070
L81554 73380
" />
<path d="M81835 73380
L81835 72986
" />
<path d="M81835 72789
L81807 72817
L81835 72845
L81863 72817
L81835 72789
L81835 72845
" />
<path d="M82370 73352
L82313 73380
L82201 73380
L82145 73352
L82117 73323
L82088 73267
L82088 73099
L82117 73042
L82145 73014
L82201 72986
L82313 72986
L82370 73014
" />
<path d="M82988 72986
L83213 72986
" />
<path d="M83073 72789
L83073 73295
L83101 73352
L83157 73380
L83213 73380
" />
<path d="M83410 73380
L83410 72986
" />
<path d="M83410 73099
L83438 73042
L83466 73014
L83523 72986
L83579 72986
" />
<path d="M84029 73380
L84029 73070
L84001 73014
L83944 72986
L83832 72986
L83776 73014
" />
<path d="M84029 73352
L83973 73380
L83832 73380
L83776 73352
L83748 73295
L83748 73239
L83776 73183
L83832 73155
L83973 73155
L84029 73127
" />
<path d="M84310 72986
L84310 73380
" />
<path d="M84310 73042
L84338 73014
L84394 72986
L84479 72986
L84535 73014
L84563 73070
L84563 73380
" />
<path d="M84816 73352
L84872 73380
L84985 73380
L85041 73352
L85069 73295
L85069 73267
L85041 73211
L84985 73183
L84901 73183
L84844 73155
L84816 73099
L84816 73070
L84844 73014
L84901 72986
L84985 72986
L85041 73014
" />
<path d="M85575 73380
L85575 72789
" />
<path d="M85575 73352
L85519 73380
L85407 73380
L85350 73352
L85322 73323
L85294 73267
L85294 73099
L85322 73042
L85350 73014
L85407 72986
L85519 72986
L85575 73014
" />
<path d="M86110 72986
L86110 73380
" />
<path d="M85857 72986
L85857 73295
L85885 73352
L85941 73380
L86025 73380
L86082 73352
L86110 73323
" />
<path d="M86644 73352
L86588 73380
L86475 73380
L86419 73352
L86391 73323
L86363 73267
L86363 73099
L86391 73042
L86419 73014
L86475 72986
L86588 72986
L86644 73014
" />
<path d="M87122 73352
L87066 73380
L86953 73380
L86897 73352
L86869 73295
L86869 73070
L86897 73014
L86953 72986
L87066 72986
L87122 73014
L87150 73070
L87150 73127
L86869 73183
" />
<path d="M87403 73380
L87403 72986
" />
<path d="M87403 73099
L87431 73042
L87460 73014
L87516 72986
L87572 72986
" />
<path d="M87769 73323
L87797 73352
L87769 73380
L87741 73352
L87769 73323
L87769 73380
" />
<path d="M88050 73380
L88050 72789
" />
<path d="M88106 73155
L88275 73380
" />
<path d="M88275 72986
L88050 73211
" />
<path d="M88528 73380
L88528 72986
" />
<path d="M88528 72789
L88500 72817
L88528 72845
L88556 72817
L88528 72789
L88528 72845
" />
<path d="M89063 73352
L89006 73380
L88894 73380
L88838 73352
L88809 73323
L88781 73267
L88781 73099
L88809 73042
L88838 73014
L88894 72986
L89006 72986
L89063 73014
" />
<path d="M89569 73380
L89569 73070
L89541 73014
L89484 72986
L89372 72986
L89316 73014
" />
<path d="M89569 73352
L89512 73380
L89372 73380
L89316 73352
L89287 73295
L89287 73239
L89316 73183
L89372 73155
L89512 73155
L89569 73127
" />
<path d="M90103 73380
L90103 72789
" />
<path d="M90103 73352
L90047 73380
L89934 73380
L89878 73352
L89850 73323
L89822 73267
L89822 73099
L89850 73042
L89878 73014
L89934 72986
L90047 72986
L90103 73014
" />
<path d="M90244 73436
L90694 73436
" />
<path d="M90834 72986
L90834 73577
" />
<path d="M90834 73014
L90890 72986
L91003 72986
L91059 73014
L91087 73042
L91115 73099
L91115 73267
L91087 73323
L91059 73352
L91003 73380
L90890 73380
L90834 73352
" />
<path d="M91622 73352
L91565 73380
L91453 73380
L91397 73352
L91368 73323
L91340 73267
L91340 73099
L91368 73042
L91397 73014
L91453 72986
L91565 72986
L91622 73014
" />
<path d="M91875 73380
L91875 72789
" />
<path d="M91875 73014
L91931 72986
L92043 72986
L92100 73014
L92128 73042
L92156 73099
L92156 73267
L92128 73323
L92100 73352
L92043 73380
L91931 73380
L91875 73352
" />
</g>
<g style="fill:#000000; fill-opacity:0.0; 
stroke:#000000; stroke-width:39.3701; stroke-opacity:1; 
stroke-linecap:round; stroke-linejoin:round;">
</g>
<g style="fill:#000000; fill-opacity:0.0; 
stroke:#000000; stroke-width:59.0551; stroke-opacity:1; 
stroke-linecap:round; stroke-linejoin:round;">
<path d="M69685 71459
L112205 71459
" />
</g>
<g style="fill:#000000; fill-opacity:0.0; 
stroke:#000000; stroke-width:39.3701; stroke-opacity:1; 
stroke-linecap:round; stroke-linejoin:round;">
</g>
<g style="fill:#000000; fill-opacity:0.0; 
stroke:#000000; stroke-width:59.0551; stroke-opacity:1; 
stroke-linecap:round; stroke-linejoin:round;">
<text x="70079.6" y="72345.4"
textLength="3236.78" font-size="787.402" lengthAdjust="spacingAndGlyphs"
text-anchor="start" opacity="0">Sheet: </text>
<path d="M70221 72289
L70305 72317
L70446 72317
L70502 72289
L70530 72260
L70559 72204
L70559 72148
L70530 72092
L70502 72064
L70446 72036
L70334 72007
L70277 71979
L70249 71951
L70221 71895
L70221 71839
L70249 71782
L70277 71754
L70334 71726
L70474 71726
L70559 71754
" />
<path d="M70812 72317
L70812 71726
" />
<path d="M71065 72317
L71065 72007
L71037 71951
L70980 71923
L70896 71923
L70840 71951
L70812 71979
" />
<path d="M71571 72289
L71515 72317
L71402 72317
L71346 72289
L71318 72232
L71318 72007
L71346 71951
L71402 71923
L71515 71923
L71571 71951
L71599 72007
L71599 72064
L71318 72120
" />
<path d="M72077 72289
L72021 72317
L71908 72317
L71852 72289
L71824 72232
L71824 72007
L71852 71951
L71908 71923
L72021 71923
L72077 71951
L72105 72007
L72105 72064
L71824 72120
" />
<path d="M72274 71923
L72499 71923
" />
<path d="M72358 71726
L72358 72232
L72386 72289
L72443 72317
L72499 72317
" />
<path d="M72696 72260
L72724 72289
L72696 72317
L72668 72289
L72696 72260
L72696 72317
" />
<path d="M72696 71951
L72724 71979
L72696 72007
L72668 71979
L72696 71951
L72696 72007
" />
</g>
<g style="fill:#000000; fill-opacity:0.0; 
stroke:#000000; stroke-width:39.3701; stroke-opacity:1; 
stroke-linecap:round; stroke-linejoin:round;">
</g>
<g style="fill:#000000; fill-opacity:0.0; 
stroke:#000000; stroke-width:59.0551; stroke-opacity:1; 
stroke-linecap:round; stroke-linejoin:round;">
<path d="M77559 75396
L77559 76577
" />
</g>
<g style="fill:#000000; fill-opacity:0.0; 
stroke:#000000; stroke-width:39.3701; stroke-opacity:1; 
stroke-linecap:round; stroke-linejoin:round;">
</g>
<g style="fill:#000000; fill-opacity:0.0; 
stroke:#000000; stroke-width:59.0551; stroke-opacity:1; 
stroke-linecap:round; stroke-linejoin:round;">
<path d="M102756 75396
L102756 77955
" />
</g>
<g style="fill:#008484; fill-opacity:0.0; 
stroke:#008484; stroke-width:59.0551; stroke-opacity:1; 
stroke-linecap:round; stroke-linejoin:round;">
</g>
<g style="fill:#008484; fill-opacity:0.0; 
stroke:#008484; stroke-width:47.2441; stroke-opacity:1; 
stroke-linecap:round; stroke-linejoin:round;">
<path d="M46813 36259
L46695 36259
" />
<path d="M46384 36259
L46266 36259
" />
<path d="M46813 36604
L46813 36259
" />
<path d="M46266 36604
L46266 36259
" />
<path d="M46813 36604
L46779 36604
" />
<path d="M46300 36604
L46266 36604
" />
<path d="M46813 36873
L46813 37143
" />
<path d="M46813 37143
L46540 37143
" />
<path d="M47215 33656
L47215 34443
" />
<path d="M46113 33656
L47215 33656
" />
<path d="M46113 34443
L46113 33656
" />
<path d="M47215 34443
L46113 34443
" />
<path d="M48853 33651
L48066 33651
" />
<path d="M48853 32548
L48853 33651
" />
<path d="M48066 32548
L48853 32548
" />
<path d="M48066 33651
L48066 32548
" />
<path d="M45883 33243
L45883 32456
" />
<path d="M46985 33243
L45883 33243
" />
<path d="M46985 32456
L46985 33243
" />
<path d="M45883 32456
L46985 32456
" />
</g>
<g style="fill:#008484; fill-opacity:0.0; 
stroke:#008484; stroke-width:78.7402; stroke-opacity:1; 
stroke-linecap:round; stroke-linejoin:round;">
<path d="M43209 35821
L43209 36294
" />
<path d="M43530 35579
L43530 36294
" />
</g>
<g style="fill:#008484; fill-opacity:0.0; 
stroke:#008484; stroke-width:47.2441; stroke-opacity:1; 
stroke-linecap:round; stroke-linejoin:round;">
<path d="M48713 34325
L48526 34325
" />
<path d="M48713 33914
L48526 33914
" />
<path d="M47950 33754
L47950 33865
" />
<path d="M47549 33754
L47549 33865
" />
</g>
<g style="fill:#008484; fill-opacity:0.0; 
stroke:#008484; stroke-width:50; stroke-opacity:1; 
stroke-linecap:round; stroke-linejoin:round;">
<path d="M54170 32569
L54170 37293
" />
<path d="M49445 32569
L54170 32569
" />
<path d="M49445 37293
L49445 32569
" />
<path d="M54170 37293
L49445 37293
" />
</g>
<g style="fill:#008484; fill-opacity:0.0; 
stroke:#008484; stroke-width:47.2441; stroke-opacity:1; 
stroke-linecap:round; stroke-linejoin:round;">
<circle cx="48700" cy="36000" r="275.591" /> 
<circle cx="45051" cy="33560" r="275.591" /> 
<circle cx="43880" cy="35630" r="275.591" /> 
<circle cx="41680" cy="34480" r="275.591" /> 
<circle cx="41640" cy="32770" r="275.591" /> 
<circle cx="48700" cy="35000" r="275.591" /> 
<circle cx="47620" cy="32840" r="275.591" /> 
</g>
<g style="fill:#008484; fill-opacity:0.0; 
stroke:#008484; stroke-width:78.7402; stroke-opacity:1; 
stroke-linecap:round; stroke-linejoin:round;">
<path d="M44658 37202
L44658 36297
" />
<path d="M44116 34377
L44707 34377
" />
<path d="M44707 34377
L44707 35364
" />
<path d="M44707 35364
L43918 35364
" />
<path d="M43918 35364
L43918 34575
" />
<path d="M43918 34575
L44116 34377
" />
<circle cx="43918.1" cy="34377.7" r="39.3701" /> 
</g>
<g style="fill:#008484; fill-opacity:0.0; 
stroke:#008484; stroke-width:47.2441; stroke-opacity:1; 
stroke-linecap:round; stroke-linejoin:round;">
<path d="M42529 33194
L42342 33194
" />
<path d="M42529 32783
L42342 32783
" />
<path d="M42363 33430
L42550 33430
" />
<path d="M42363 33841
L42550 33841
" />
<path d="M43595 33218
L43595 33405
" />
<path d="M43184 33218
L43184 33405
" />
<path d="M45405 34553
L45516 34553
" />
<path d="M45405 34954
L45516 34954
" />
<path d="M43103 34130
L43308 34130
" />
<path d="M43103 34709
L43308 34709
" />
<path d="M44391 33258
L44391 33463
" />
<path d="M43812 33258
L43812 33463
" />
<path d="M45512 34401
L45401 34401
" />
<path d="M45512 34000
L45401 34000
" />
<path d="M43113 35420
L43002 35420
" />
<path d="M43113 35019
L43002 35019
" />
</g>
<g style="fill:#008484; fill-opacity:0.0; 
stroke:#008484; stroke-width:59.0551; stroke-opacity:1; 
stroke-linecap:round; stroke-linejoin:round;">
<text x="46540" y="37684.7"
textLength="733.971" font-size="524.934" lengthAdjust="spacingAndGlyphs"
text-anchor="middle" opacity="0">J1</text>
<path d="M46408 37272
L46408 37553
L46390 37609
L46352 37647
L46296 37665
L46258 37665
" />
<path d="M46802 37665
L46577 37665
" />
<path d="M46689 37665
L46689 37272
L46652 37328
L46614 37366
L46577 37384
" />
<text x="46500" y="33647.6"
textLength="878.234" font-size="393.701" lengthAdjust="spacingAndGlyphs"
text-anchor="middle" opacity="0">JP3</text>
<path d="M46253 33338
L46253 33549
L46239 33591
L46211 33619
L46169 33633
L46141 33633
" />
<path d="M46394 33633
L46394 33338
L46507 33338
L46535 33352
L46549 33366
L46563 33394
L46563 33436
L46549 33464
L46535 33478
L46507 33492
L46394 33492
" />
<path d="M46661 33338
L46844 33338
L46746 33450
L46788 33450
L46816 33464
L46830 33478
L46844 33507
L46844 33577
L46830 33605
L46816 33619
L46788 33633
L46703 33633
L46675 33619
L46661 33605
" />
<g transform="rotate(-90 49100 32900)">
<text x="49100" y="33047.6"
textLength="878.234" font-size="393.701" lengthAdjust="spacingAndGlyphs"
text-anchor="middle" opacity="0">JP2</text>
</g>
<path d="M48938 33146
L49149 33146
L49191 33160
L49219 33188
L49233 33230
L49233 33258
" />
<path d="M49233 33005
L48938 33005
L48938 32892
L48952 32864
L48966 32850
L48994 32836
L49036 32836
L49064 32850
L49078 32864
L49092 32892
L49092 33005
" />
<path d="M48966 32724
L48952 32710
L48938 32682
L48938 32611
L48952 32583
L48966 32569
L48994 32555
L49022 32555
L49064 32569
L49233 32738
L49233 32555
" />
<g transform="rotate(-90 45600 32800)">
<text x="45600" y="32947.6"
textLength="878.234" font-size="393.701" lengthAdjust="spacingAndGlyphs"
text-anchor="middle" opacity="0">JP1</text>
</g>
<path d="M45438 33046
L45649 33046
L45691 33060
L45719 33088
L45733 33130
L45733 33158
" />
<path d="M45733 32905
L45438 32905
L45438 32792
L45452 32764
L45466 32750
L45494 32736
L45536 32736
L45564 32750
L45578 32764
L45592 32792
L45592 32905
" />
<path d="M45733 32455
L45733 32624
" />
<path d="M45733 32539
L45438 32539
L45480 32567
L45508 32596
L45522 32624
" />
<g transform="rotate(-90 42800 36058.1)">
<text x="42800" y="36255"
textLength="845.426" font-size="524.934" lengthAdjust="spacingAndGlyphs"
text-anchor="middle" opacity="0">D2</text>
</g>
<path d="M42978 36348
L42584 36348
L42584 36254
L42603 36198
L42640 36161
L42678 36142
L42753 36123
L42809 36123
L42884 36142
L42921 36161
L42959 36198
L42978 36254
L42978 36348
" />
<path d="M42621 35973
L42603 35954
L42584 35917
L42584 35823
L42603 35786
L42621 35767
L42659 35748
L42696 35748
L42753 35767
L42978 35992
L42978 35748
" />
<text x="48300" y="34747.6"
textLength="653.262" font-size="393.701" lengthAdjust="spacingAndGlyphs"
text-anchor="middle" opacity="0">R7</text>
<path d="M48250 34733
L48152 34592
" />
<path d="M48082 34733
L48082 34438
L48194 34438
L48222 34452
L48236 34466
L48250 34494
L48250 34536
L48236 34564
L48222 34578
L48194 34592
L48082 34592
" />
<path d="M48349 34438
L48546 34438
L48419 34733
" />
<g transform="rotate(-90 47800 34400)">
<text x="47800" y="34547.6"
textLength="934.477" font-size="393.701" lengthAdjust="spacingAndGlyphs"
text-anchor="middle" opacity="0">C10</text>
</g>
<path d="M47905 34589
L47919 34603
L47933 34646
L47933 34674
L47919 34716
L47891 34744
L47863 34758
L47807 34772
L47764 34772
L47708 34758
L47680 34744
L47652 34716
L47638 34674
L47638 34646
L47652 34603
L47666 34589
" />
<path d="M47933 34308
L47933 34477
" />
<path d="M47933 34392
L47638 34392
L47680 34421
L47708 34449
L47722 34477
" />
<path d="M47638 34125
L47638 34097
L47652 34069
L47666 34055
L47694 34041
L47750 34027
L47821 34027
L47877 34041
L47905 34055
L47919 34069
L47933 34097
L47933 34125
L47919 34153
L47905 34167
L47877 34182
L47821 34196
L47750 34196
L47694 34182
L47666 34167
L47652 34153
L47638 34125
" />
<text x="48900" y="37275.6"
textLength="1021.65" font-size="734.908" lengthAdjust="spacingAndGlyphs"
text-anchor="middle" opacity="0">J2</text>
<path d="M48716 36698
L48716 37091
L48690 37170
L48637 37223
L48558 37249
L48506 37249
" />
<path d="M48952 36750
L48978 36724
L49031 36698
L49162 36698
L49214 36724
L49241 36750
L49267 36803
L49267 36855
L49241 36934
L48926 37249
L49267 37249
" />
<text x="48000" y="36447.6"
textLength="878.234" font-size="393.701" lengthAdjust="spacingAndGlyphs"
text-anchor="middle" opacity="0">TP9</text>
<path d="M47627 36138
L47796 36138
" />
<path d="M47711 36433
L47711 36138
" />
<path d="M47894 36433
L47894 36138
L48007 36138
L48035 36152
L48049 36166
L48063 36194
L48063 36236
L48049 36264
L48035 36278
L48007 36292
L47894 36292
" />
<path d="M48203 36433
L48260 36433
L48288 36419
L48302 36405
L48330 36363
L48344 36307
L48344 36194
L48330 36166
L48316 36152
L48288 36138
L48232 36138
L48203 36152
L48189 36166
L48175 36194
L48175 36264
L48189 36292
L48203 36307
L48232 36321
L48288 36321
L48316 36307
L48330 36292
L48344 36264
" />
<g transform="rotate(-90 45000 32800)">
<text x="45000" y="32947.6"
textLength="878.234" font-size="393.701" lengthAdjust="spacingAndGlyphs"
text-anchor="middle" opacity="0">TP7</text>
</g>
<path d="M44838 33172
L44838 33003
" />
<path d="M45133 33088
L44838 33088
" />
<path d="M45133 32905
L44838 32905
L44838 32792
L44852 32764
L44866 32750
L44894 32736
L44936 32736
L44964 32750
L44978 32764
L44992 32792
L44992 32905
" />
<path d="M44838 32638
L44838 32441
L45133 32567
" />
<text x="44596" y="36080.6"
textLength="878.234" font-size="393.701" lengthAdjust="spacingAndGlyphs"
text-anchor="middle" opacity="0">TP6</text>
<path d="M44223 35771
L44392 35771
" />
<path d="M44307 36066
L44307 35771
" />
<path d="M44490 36066
L44490 35771
L44603 35771
L44631 35785
L44645 35799
L44659 35827
L44659 35869
L44645 35897
L44631 35911
L44603 35925
L44490 35925
" />
<path d="M44912 35771
L44856 35771
L44828 35785
L44813 35799
L44785 35841
L44771 35897
L44771 36010
L44785 36038
L44799 36052
L44828 36066
L44884 36066
L44912 36052
L44926 36038
L44940 36010
L44940 35940
L44926 35911
L44912 35897
L44884 35883
L44828 35883
L44799 35897
L44785 35911
L44771 35940
" />
<g transform="rotate(-90 41680 35270)">
<text x="41680" y="35417.6"
textLength="878.234" font-size="393.701" lengthAdjust="spacingAndGlyphs"
text-anchor="middle" opacity="0">TP4</text>
</g>
<path d="M41518 35642
L41518 35473
" />
<path d="M41813 35558
L41518 35558
" />
<path d="M41813 35375
L41518 35375
L41518 35262
L41532 35234
L41546 35220
L41574 35206
L41616 35206
L41644 35220
L41658 35234
L41672 35262
L41672 35375
" />
<path d="M41616 34953
L41813 34953
" />
<path d="M41504 35023
L41715 35094
L41715 34911
" />
<g transform="rotate(-90 41680 33470)">
<text x="41680" y="33617.6"
textLength="878.234" font-size="393.701" lengthAdjust="spacingAndGlyphs"
text-anchor="middle" opacity="0">TP3</text>
</g>
<path d="M41518 33842
L41518 33673
" />
<path d="M41813 33758
L41518 33758
" />
<path d="M41813 33575
L41518 33575
L41518 33462
L41532 33434
L41546 33420
L41574 33406
L41616 33406
L41644 33420
L41658 33434
L41672 33462
L41672 33575
" />
<path d="M41518 33308
L41518 33125
L41630 33223
L41630 33181
L41644 33153
L41658 33139
L41687 33125
L41757 33125
L41785 33139
L41799 33153
L41813 33181
L41813 33266
L41799 33294
L41785 33308
" />
<text x="48100" y="35647.6"
textLength="878.234" font-size="393.701" lengthAdjust="spacingAndGlyphs"
text-anchor="middle" opacity="0">TP2</text>
<path d="M47727 35338
L47896 35338
" />
<path d="M47811 35633
L47811 35338
" />
<path d="M47994 35633
L47994 35338
L48107 35338
L48135 35352
L48149 35366
L48163 35394
L48163 35436
L48149 35464
L48135 35478
L48107 35492
L47994 35492
" />
<path d="M48275 35366
L48289 35352
L48317 35338
L48388 35338
L48416 35352
L48430 35366
L48444 35394
L48444 35422
L48430 35464
L48261 35633
L48444 35633
" />
<text x="47600" y="33547.6"
textLength="878.234" font-size="393.701" lengthAdjust="spacingAndGlyphs"
text-anchor="middle" opacity="0">TP1</text>
<path d="M47227 33238
L47396 33238
" />
<path d="M47311 33533
L47311 33238
" />
<path d="M47494 33533
L47494 33238
L47607 33238
L47635 33252
L47649 33266
L47663 33294
L47663 33336
L47649 33364
L47635 33378
L47607 33392
L47494 33392
" />
<path d="M47944 33533
L47775 33533
" />
<path d="M47860 33533
L47860 33238
L47832 33280
L47803 33308
L47775 33322
" />
</g>
<g style="fill:#008484; fill-opacity:0.0; 
stroke:#008484; stroke-width:100; stroke-opacity:1; 
stroke-linecap:round; stroke-linejoin:round;">
<text x="43367" y="37252"
textLength="957.724" font-size="666.667" lengthAdjust="spacingAndGlyphs"
text-anchor="middle" opacity="0">L2</text>
<path d="M43283 37228
L43045 37228
L43045 36728
" />
<path d="M43426 36775
L43450 36752
L43497 36728
L43617 36728
L43664 36752
L43688 36775
L43712 36823
L43712 36871
L43688 36942
L43402 37228
L43712 37228
" />
</g>
<g style="fill:#008484; fill-opacity:0.0; 
stroke:#008484; stroke-width:59.0551; stroke-opacity:1; 
stroke-linecap:round; stroke-linejoin:round;">
<text x="45100" y="35647.6"
textLength="847.098" font-size="393.701" lengthAdjust="spacingAndGlyphs"
text-anchor="middle" opacity="0">IC2</text>
<path d="M44811 35633
L44811 35338
" />
<path d="M45121 35605
L45107 35619
L45064 35633
L45036 35633
L44994 35619
L44966 35591
L44952 35563
L44938 35507
L44938 35464
L44952 35408
L44966 35380
L44994 35352
L45036 35338
L45064 35338
L45107 35352
L45121 35366
" />
<path d="M45233 35366
L45247 35352
L45275 35338
L45346 35338
L45374 35352
L45388 35366
L45402 35394
L45402 35422
L45388 35464
L45219 35633
L45402 35633
" />
<text x="42450" y="32747.6"
textLength="653.262" font-size="393.701" lengthAdjust="spacingAndGlyphs"
text-anchor="middle" opacity="0">R6</text>
<path d="M42400 32733
L42302 32592
" />
<path d="M42232 32733
L42232 32438
L42344 32438
L42372 32452
L42386 32466
L42400 32494
L42400 32536
L42386 32564
L42372 32578
L42344 32592
L42232 32592
" />
<path d="M42653 32438
L42597 32438
L42569 32452
L42555 32466
L42527 32508
L42513 32564
L42513 32677
L42527 32705
L42541 32719
L42569 32733
L42625 32733
L42653 32719
L42667 32705
L42682 32677
L42682 32607
L42667 32578
L42653 32564
L42625 32550
L42569 32550
L42541 32564
L42527 32578
L42513 32607
" />
<text x="42240" y="34267.6"
textLength="653.262" font-size="393.701" lengthAdjust="spacingAndGlyphs"
text-anchor="middle" opacity="0">R5</text>
<path d="M42190 34253
L42092 34112
" />
<path d="M42022 34253
L42022 33958
L42134 33958
L42162 33972
L42176 33986
L42190 34014
L42190 34056
L42176 34084
L42162 34098
L42134 34112
L42022 34112
" />
<path d="M42457 33958
L42317 33958
L42303 34098
L42317 34084
L42345 34070
L42415 34070
L42443 34084
L42457 34098
L42472 34127
L42472 34197
L42457 34225
L42443 34239
L42415 34253
L42345 34253
L42317 34239
L42303 34225
" />
<text x="43380" y="32777.6"
textLength="653.262" font-size="393.701" lengthAdjust="spacingAndGlyphs"
text-anchor="middle" opacity="0">R4</text>
<path d="M43330 32763
L43232 32622
" />
<path d="M43162 32763
L43162 32468
L43274 32468
L43302 32482
L43316 32496
L43330 32524
L43330 32566
L43316 32594
L43302 32608
L43274 32622
L43162 32622
" />
<path d="M43583 32566
L43583 32763
" />
<path d="M43513 32454
L43443 32665
L43626 32665
" />
<text x="45700" y="35347.6"
textLength="653.262" font-size="393.701" lengthAdjust="spacingAndGlyphs"
text-anchor="middle" opacity="0">C9</text>
<path d="M45650 35305
L45636 35319
L45594 35333
L45566 35333
L45524 35319
L45496 35291
L45482 35263
L45467 35207
L45467 35164
L45482 35108
L45496 35080
L45524 35052
L45566 35038
L45594 35038
L45636 35052
L45650 35066
" />
<path d="M45791 35333
L45847 35333
L45875 35319
L45889 35305
L45917 35263
L45932 35207
L45932 35094
L45917 35066
L45903 35052
L45875 35038
L45819 35038
L45791 35052
L45777 35066
L45763 35094
L45763 35164
L45777 35192
L45791 35207
L45819 35221
L45875 35221
L45903 35207
L45917 35192
L45932 35164
" />
<text x="42270" y="34767.6"
textLength="653.262" font-size="393.701" lengthAdjust="spacingAndGlyphs"
text-anchor="middle" opacity="0">C8</text>
<path d="M42220 34725
L42206 34739
L42164 34753
L42136 34753
L42094 34739
L42066 34711
L42052 34683
L42037 34627
L42037 34584
L42052 34528
L42066 34500
L42094 34472
L42136 34458
L42164 34458
L42206 34472
L42220 34486
" />
<path d="M42389 34584
L42361 34570
L42347 34556
L42333 34528
L42333 34514
L42347 34486
L42361 34472
L42389 34458
L42445 34458
L42473 34472
L42487 34486
L42502 34514
L42502 34528
L42487 34556
L42473 34570
L42445 34584
L42389 34584
L42361 34598
L42347 34612
L42333 34641
L42333 34697
L42347 34725
L42361 34739
L42389 34753
L42445 34753
L42473 34739
L42487 34725
L42502 34697
L42502 34641
L42487 34612
L42473 34598
L42445 34584
" />
<text x="44124" y="32748.6"
textLength="653.262" font-size="393.701" lengthAdjust="spacingAndGlyphs"
text-anchor="middle" opacity="0">C7</text>
<path d="M44074 32706
L44060 32720
L44018 32734
L43990 32734
L43948 32720
L43920 32692
L43906 32664
L43891 32608
L43891 32565
L43906 32509
L43920 32481
L43948 32453
L43990 32439
L44018 32439
L44060 32453
L44074 32467
" />
<path d="M44173 32439
L44370 32439
L44243 32734
" />
<text x="46300" y="34747.6"
textLength="653.262" font-size="393.701" lengthAdjust="spacingAndGlyphs"
text-anchor="middle" opacity="0">C6</text>
<path d="M46250 34705
L46236 34719
L46194 34733
L46166 34733
L46124 34719
L46096 34691
L46082 34663
L46067 34607
L46067 34564
L46082 34508
L46096 34480
L46124 34452
L46166 34438
L46194 34438
L46236 34452
L46250 34466
" />
<path d="M46503 34438
L46447 34438
L46419 34452
L46405 34466
L46377 34508
L46363 34564
L46363 34677
L46377 34705
L46391 34719
L46419 34733
L46475 34733
L46503 34719
L46517 34705
L46532 34677
L46532 34607
L46517 34578
L46503 34564
L46475 34550
L46419 34550
L46391 34564
L46377 34578
L46363 34607
" />
<g transform="rotate(-90 42250 35220)">
<text x="42250" y="35367.6"
textLength="653.262" font-size="393.701" lengthAdjust="spacingAndGlyphs"
text-anchor="middle" opacity="0">C5</text>
</g>
<path d="M42355 35269
L42369 35283
L42383 35325
L42383 35353
L42369 35395
L42341 35423
L42313 35437
L42257 35452
L42214 35452
L42158 35437
L42130 35423
L42102 35395
L42088 35353
L42088 35325
L42102 35283
L42116 35269
" />
<path d="M42088 35002
L42088 35142
L42228 35156
L42214 35142
L42200 35114
L42200 35044
L42214 35016
L42228 35002
L42257 34987
L42327 34987
L42355 35002
L42369 35016
L42383 35044
L42383 35114
L42369 35142
L42355 35156
" />
<g >
</g>
</g>
<g style="fill:#000000; fill-opacity:0.0; 
stroke:#000000; stroke-width:59.0551; stroke-opacity:1; 
stroke-linecap:round; stroke-linejoin:round;">
</g>
<g style="fill:#C2C200; fill-opacity:0.0; 
stroke:#C2C200; stroke-width:59.0551; stroke-opacity:1; 
stroke-linecap:round; stroke-linejoin:round;">
</g>
<g style="fill:#C2C200; fill-opacity:0.0; 
stroke:#C2C200; stroke-width:19.685; stroke-opacity:1; 
stroke-linecap:round; stroke-linejoin:round;">
<path d="M41229 37866
L41230 32350
" />
<path d="M54200 32349
L54199 37864
" />
<path d="M54199 37864
L41229 37866
" />
<path d="M54200 32349
L41221 32359
" />
<g >
</g>
<g >
</g>
<g >
</g>
<g >
</g>
<g >
</g>
<g >
</g>
<g >
</g>
<g >
</g>
<g >
</g>
<g >
</g>
<g >
</g>
<g >
</g>
<g >
</g>
<g >
</g>
<g >
</g>
<g >
</g>
<g >
</g>
<g >
</g>
<g >
</g>
<g >
</g>
<g >
</g>
<g >
</g>
<g >
</g>
<g >
</g>
<g >
</g>
<g >
</g>
<g >
</g>
<g >
</g>
<g >
</g>
<g >
</g>
<g >
</g>
<g >
</g>
<g >
</g>
<g >
</g>
<g >
</g>
<g >
</g>
<g >
</g>
<g >
</g>
<g >
</g>
<g >
</g>
<g >
</g>
</g> 
</svg>
