%TF.GenerationSoftware,KiCad,Pcbnew,(5.1.10)-1*%
%TF.CreationDate,2021-10-05T14:24:33+02:00*%
%TF.ProjectId,Masterproef ultrasonic transducer,4d617374-6572-4707-926f-656620756c74,rev?*%
%TF.SameCoordinates,Original*%
%TF.FileFunction,Soldermask,Bot*%
%TF.FilePolarity,Negative*%
%FSLAX46Y46*%
G04 Gerber Fmt 4.6, Leading zero omitted, Abs format (unit mm)*
G04 Created by KiCad (PCBNEW (5.1.10)-1) date 2021-10-05 14:24:33*
%MOMM*%
%LPD*%
G01*
G04 APERTURE LIST*
%ADD10O,0.952000X0.952000*%
%ADD11O,1.310000X2.518000*%
%ADD12O,2.518000X1.310000*%
%ADD13C,1.402000*%
%ADD14C,1.002000*%
%ADD15C,1.102000*%
%ADD16C,0.100000*%
G04 APERTURE END LIST*
D10*
%TO.C,J1*%
X118211600Y-92659200D03*
G36*
G01*
X118687600Y-93234200D02*
X118687600Y-94084200D01*
G75*
G02*
X118636600Y-94135200I-51000J0D01*
G01*
X117786600Y-94135200D01*
G75*
G02*
X117735600Y-94084200I0J51000D01*
G01*
X117735600Y-93234200D01*
G75*
G02*
X117786600Y-93183200I51000J0D01*
G01*
X118636600Y-93183200D01*
G75*
G02*
X118687600Y-93234200I0J-51000D01*
G01*
G37*
%TD*%
%TO.C,D1*%
G36*
G01*
X110895000Y-95733000D02*
X110895000Y-94513000D01*
G75*
G02*
X110946000Y-94462000I51000J0D01*
G01*
X112066000Y-94462000D01*
G75*
G02*
X112117000Y-94513000I0J-51000D01*
G01*
X112117000Y-95733000D01*
G75*
G02*
X112066000Y-95784000I-51000J0D01*
G01*
X110946000Y-95784000D01*
G75*
G02*
X110895000Y-95733000I0J51000D01*
G01*
G37*
G36*
G01*
X107795000Y-95733000D02*
X107795000Y-94513000D01*
G75*
G02*
X107846000Y-94462000I51000J0D01*
G01*
X108966000Y-94462000D01*
G75*
G02*
X109017000Y-94513000I0J-51000D01*
G01*
X109017000Y-95733000D01*
G75*
G02*
X108966000Y-95784000I-51000J0D01*
G01*
X107846000Y-95784000D01*
G75*
G02*
X107795000Y-95733000I0J51000D01*
G01*
G37*
%TD*%
D11*
%TO.C,J2*%
X133223000Y-88726000D03*
D12*
X128223000Y-83726000D03*
X128223000Y-93726000D03*
D13*
X128223000Y-88726000D03*
X133223000Y-83726000D03*
X133223000Y-93726000D03*
X135723000Y-93726000D03*
X135723000Y-83726000D03*
%TD*%
D14*
%TO.C,S1*%
X124642000Y-85344000D03*
X116642000Y-85344000D03*
G36*
G01*
X122991000Y-88244001D02*
X122991000Y-86843999D01*
G75*
G02*
X123041999Y-86793000I50999J0D01*
G01*
X124242001Y-86793000D01*
G75*
G02*
X124293000Y-86843999I0J-50999D01*
G01*
X124293000Y-88244001D01*
G75*
G02*
X124242001Y-88295000I-50999J0D01*
G01*
X123041999Y-88295000D01*
G75*
G02*
X122991000Y-88244001I0J50999D01*
G01*
G37*
G36*
G01*
X114991000Y-88244001D02*
X114991000Y-86843999D01*
G75*
G02*
X115041999Y-86793000I50999J0D01*
G01*
X116242001Y-86793000D01*
G75*
G02*
X116293000Y-86843999I0J-50999D01*
G01*
X116293000Y-88244001D01*
G75*
G02*
X116242001Y-88295000I-50999J0D01*
G01*
X115041999Y-88295000D01*
G75*
G02*
X114991000Y-88244001I0J50999D01*
G01*
G37*
G36*
G01*
X120991000Y-83844001D02*
X120991000Y-82443999D01*
G75*
G02*
X121041999Y-82393000I50999J0D01*
G01*
X122242001Y-82393000D01*
G75*
G02*
X122293000Y-82443999I0J-50999D01*
G01*
X122293000Y-83844001D01*
G75*
G02*
X122242001Y-83895000I-50999J0D01*
G01*
X121041999Y-83895000D01*
G75*
G02*
X120991000Y-83844001I0J50999D01*
G01*
G37*
G36*
G01*
X116991000Y-83844001D02*
X116991000Y-82443999D01*
G75*
G02*
X117041999Y-82393000I50999J0D01*
G01*
X118242001Y-82393000D01*
G75*
G02*
X118293000Y-82443999I0J-50999D01*
G01*
X118293000Y-83844001D01*
G75*
G02*
X118242001Y-83895000I-50999J0D01*
G01*
X117041999Y-83895000D01*
G75*
G02*
X116991000Y-83844001I0J50999D01*
G01*
G37*
%TD*%
%TO.C,L1*%
G36*
G01*
X113240600Y-93715200D02*
X117340600Y-93715200D01*
G75*
G02*
X117391600Y-93766200I0J-51000D01*
G01*
X117391600Y-95616200D01*
G75*
G02*
X117340600Y-95667200I-51000J0D01*
G01*
X113240600Y-95667200D01*
G75*
G02*
X113189600Y-95616200I0J51000D01*
G01*
X113189600Y-93766200D01*
G75*
G02*
X113240600Y-93715200I51000J0D01*
G01*
G37*
G36*
G01*
X113240600Y-90065200D02*
X117340600Y-90065200D01*
G75*
G02*
X117391600Y-90116200I0J-51000D01*
G01*
X117391600Y-91966200D01*
G75*
G02*
X117340600Y-92017200I-51000J0D01*
G01*
X113240600Y-92017200D01*
G75*
G02*
X113189600Y-91966200I0J51000D01*
G01*
X113189600Y-90116200D01*
G75*
G02*
X113240600Y-90065200I51000J0D01*
G01*
G37*
%TD*%
%TO.C,IC1*%
G36*
G01*
X111256600Y-91203000D02*
X111256600Y-90153000D01*
G75*
G02*
X111307600Y-90102000I51000J0D01*
G01*
X111907600Y-90102000D01*
G75*
G02*
X111958600Y-90153000I0J-51000D01*
G01*
X111958600Y-91203000D01*
G75*
G02*
X111907600Y-91254000I-51000J0D01*
G01*
X111307600Y-91254000D01*
G75*
G02*
X111256600Y-91203000I0J51000D01*
G01*
G37*
G36*
G01*
X109356600Y-91203000D02*
X109356600Y-90153000D01*
G75*
G02*
X109407600Y-90102000I51000J0D01*
G01*
X110007600Y-90102000D01*
G75*
G02*
X110058600Y-90153000I0J-51000D01*
G01*
X110058600Y-91203000D01*
G75*
G02*
X110007600Y-91254000I-51000J0D01*
G01*
X109407600Y-91254000D01*
G75*
G02*
X109356600Y-91203000I0J51000D01*
G01*
G37*
G36*
G01*
X109356600Y-93803000D02*
X109356600Y-92753000D01*
G75*
G02*
X109407600Y-92702000I51000J0D01*
G01*
X110007600Y-92702000D01*
G75*
G02*
X110058600Y-92753000I0J-51000D01*
G01*
X110058600Y-93803000D01*
G75*
G02*
X110007600Y-93854000I-51000J0D01*
G01*
X109407600Y-93854000D01*
G75*
G02*
X109356600Y-93803000I0J51000D01*
G01*
G37*
G36*
G01*
X110306600Y-93803000D02*
X110306600Y-92753000D01*
G75*
G02*
X110357600Y-92702000I51000J0D01*
G01*
X110957600Y-92702000D01*
G75*
G02*
X111008600Y-92753000I0J-51000D01*
G01*
X111008600Y-93803000D01*
G75*
G02*
X110957600Y-93854000I-51000J0D01*
G01*
X110357600Y-93854000D01*
G75*
G02*
X110306600Y-93803000I0J51000D01*
G01*
G37*
G36*
G01*
X111256600Y-93803000D02*
X111256600Y-92753000D01*
G75*
G02*
X111307600Y-92702000I51000J0D01*
G01*
X111907600Y-92702000D01*
G75*
G02*
X111958600Y-92753000I0J-51000D01*
G01*
X111958600Y-93803000D01*
G75*
G02*
X111907600Y-93854000I-51000J0D01*
G01*
X111307600Y-93854000D01*
G75*
G02*
X111256600Y-93803000I0J51000D01*
G01*
G37*
%TD*%
%TO.C,R3*%
G36*
G01*
X107131000Y-90123500D02*
X107131000Y-90724500D01*
G75*
G02*
X106905500Y-90950000I-225500J0D01*
G01*
X106454500Y-90950000D01*
G75*
G02*
X106229000Y-90724500I0J225500D01*
G01*
X106229000Y-90123500D01*
G75*
G02*
X106454500Y-89898000I225500J0D01*
G01*
X106905500Y-89898000D01*
G75*
G02*
X107131000Y-90123500I0J-225500D01*
G01*
G37*
G36*
G01*
X108781000Y-90123500D02*
X108781000Y-90724500D01*
G75*
G02*
X108555500Y-90950000I-225500J0D01*
G01*
X108104500Y-90950000D01*
G75*
G02*
X107879000Y-90724500I0J225500D01*
G01*
X107879000Y-90123500D01*
G75*
G02*
X108104500Y-89898000I225500J0D01*
G01*
X108555500Y-89898000D01*
G75*
G02*
X108781000Y-90123500I0J-225500D01*
G01*
G37*
%TD*%
%TO.C,C2*%
G36*
G01*
X107703000Y-89175500D02*
X107703000Y-88624500D01*
G75*
G02*
X107953500Y-88374000I250500J0D01*
G01*
X108454500Y-88374000D01*
G75*
G02*
X108705000Y-88624500I0J-250500D01*
G01*
X108705000Y-89175500D01*
G75*
G02*
X108454500Y-89426000I-250500J0D01*
G01*
X107953500Y-89426000D01*
G75*
G02*
X107703000Y-89175500I0J250500D01*
G01*
G37*
G36*
G01*
X106153000Y-89175500D02*
X106153000Y-88624500D01*
G75*
G02*
X106403500Y-88374000I250500J0D01*
G01*
X106904500Y-88374000D01*
G75*
G02*
X107155000Y-88624500I0J-250500D01*
G01*
X107155000Y-89175500D01*
G75*
G02*
X106904500Y-89426000I-250500J0D01*
G01*
X106403500Y-89426000D01*
G75*
G02*
X106153000Y-89175500I0J250500D01*
G01*
G37*
%TD*%
D15*
%TO.C,10*%
X123698000Y-94996000D03*
%TD*%
%TO.C,8*%
X118491000Y-95250000D03*
%TD*%
%TO.C,5*%
X123698000Y-91440000D03*
%TD*%
%TO.C,R2*%
G36*
G01*
X107879000Y-92248500D02*
X107879000Y-91647500D01*
G75*
G02*
X108104500Y-91422000I225500J0D01*
G01*
X108555500Y-91422000D01*
G75*
G02*
X108781000Y-91647500I0J-225500D01*
G01*
X108781000Y-92248500D01*
G75*
G02*
X108555500Y-92474000I-225500J0D01*
G01*
X108104500Y-92474000D01*
G75*
G02*
X107879000Y-92248500I0J225500D01*
G01*
G37*
G36*
G01*
X106229000Y-92248500D02*
X106229000Y-91647500D01*
G75*
G02*
X106454500Y-91422000I225500J0D01*
G01*
X106905500Y-91422000D01*
G75*
G02*
X107131000Y-91647500I0J-225500D01*
G01*
X107131000Y-92248500D01*
G75*
G02*
X106905500Y-92474000I-225500J0D01*
G01*
X106454500Y-92474000D01*
G75*
G02*
X106229000Y-92248500I0J225500D01*
G01*
G37*
%TD*%
%TO.C,R1*%
G36*
G01*
X107753000Y-93772500D02*
X107753000Y-93171500D01*
G75*
G02*
X107978500Y-92946000I225500J0D01*
G01*
X108429500Y-92946000D01*
G75*
G02*
X108655000Y-93171500I0J-225500D01*
G01*
X108655000Y-93772500D01*
G75*
G02*
X108429500Y-93998000I-225500J0D01*
G01*
X107978500Y-93998000D01*
G75*
G02*
X107753000Y-93772500I0J225500D01*
G01*
G37*
G36*
G01*
X106103000Y-93772500D02*
X106103000Y-93171500D01*
G75*
G02*
X106328500Y-92946000I225500J0D01*
G01*
X106779500Y-92946000D01*
G75*
G02*
X107005000Y-93171500I0J-225500D01*
G01*
X107005000Y-93772500D01*
G75*
G02*
X106779500Y-93998000I-225500J0D01*
G01*
X106328500Y-93998000D01*
G75*
G02*
X106103000Y-93772500I0J225500D01*
G01*
G37*
%TD*%
%TO.C,C4*%
G36*
G01*
X120671500Y-90404000D02*
X120120500Y-90404000D01*
G75*
G02*
X119870000Y-90153500I0J250500D01*
G01*
X119870000Y-89652500D01*
G75*
G02*
X120120500Y-89402000I250500J0D01*
G01*
X120671500Y-89402000D01*
G75*
G02*
X120922000Y-89652500I0J-250500D01*
G01*
X120922000Y-90153500D01*
G75*
G02*
X120671500Y-90404000I-250500J0D01*
G01*
G37*
G36*
G01*
X120671500Y-91954000D02*
X120120500Y-91954000D01*
G75*
G02*
X119870000Y-91703500I0J250500D01*
G01*
X119870000Y-91202500D01*
G75*
G02*
X120120500Y-90952000I250500J0D01*
G01*
X120671500Y-90952000D01*
G75*
G02*
X120922000Y-91202500I0J-250500D01*
G01*
X120922000Y-91703500D01*
G75*
G02*
X120671500Y-91954000I-250500J0D01*
G01*
G37*
%TD*%
%TO.C,C3*%
G36*
G01*
X121419500Y-92855000D02*
X122420500Y-92855000D01*
G75*
G02*
X122696000Y-93130500I0J-275500D01*
G01*
X122696000Y-93681500D01*
G75*
G02*
X122420500Y-93957000I-275500J0D01*
G01*
X121419500Y-93957000D01*
G75*
G02*
X121144000Y-93681500I0J275500D01*
G01*
X121144000Y-93130500D01*
G75*
G02*
X121419500Y-92855000I275500J0D01*
G01*
G37*
G36*
G01*
X121419500Y-90955000D02*
X122420500Y-90955000D01*
G75*
G02*
X122696000Y-91230500I0J-275500D01*
G01*
X122696000Y-91781500D01*
G75*
G02*
X122420500Y-92057000I-275500J0D01*
G01*
X121419500Y-92057000D01*
G75*
G02*
X121144000Y-91781500I0J275500D01*
G01*
X121144000Y-91230500D01*
G75*
G02*
X121419500Y-90955000I275500J0D01*
G01*
G37*
%TD*%
%TO.C,C1*%
G36*
G01*
X119147500Y-90404000D02*
X118596500Y-90404000D01*
G75*
G02*
X118346000Y-90153500I0J250500D01*
G01*
X118346000Y-89652500D01*
G75*
G02*
X118596500Y-89402000I250500J0D01*
G01*
X119147500Y-89402000D01*
G75*
G02*
X119398000Y-89652500I0J-250500D01*
G01*
X119398000Y-90153500D01*
G75*
G02*
X119147500Y-90404000I-250500J0D01*
G01*
G37*
G36*
G01*
X119147500Y-91954000D02*
X118596500Y-91954000D01*
G75*
G02*
X118346000Y-91703500I0J250500D01*
G01*
X118346000Y-91202500D01*
G75*
G02*
X118596500Y-90952000I250500J0D01*
G01*
X119147500Y-90952000D01*
G75*
G02*
X119398000Y-91202500I0J-250500D01*
G01*
X119398000Y-91703500D01*
G75*
G02*
X119147500Y-91954000I-250500J0D01*
G01*
G37*
%TD*%
D16*
G36*
X111258332Y-92701000D02*
G01*
X111258600Y-92702000D01*
X111258600Y-93854000D01*
X111257600Y-93855732D01*
X111256600Y-93856000D01*
X111008600Y-93856000D01*
X111006868Y-93855000D01*
X111006600Y-93854000D01*
X111006600Y-92702000D01*
X111007600Y-92700268D01*
X111008600Y-92700000D01*
X111256600Y-92700000D01*
X111258332Y-92701000D01*
G37*
G36*
X110308332Y-92701000D02*
G01*
X110308600Y-92702000D01*
X110308600Y-93854000D01*
X110307600Y-93855732D01*
X110306600Y-93856000D01*
X110058600Y-93856000D01*
X110056868Y-93855000D01*
X110056600Y-93854000D01*
X110056600Y-92702000D01*
X110057600Y-92700268D01*
X110058600Y-92700000D01*
X110306600Y-92700000D01*
X110308332Y-92701000D01*
G37*
G36*
X117858448Y-92973144D02*
G01*
X117910903Y-93025599D01*
X117988162Y-93077222D01*
X118074006Y-93112780D01*
X118165143Y-93130908D01*
X118258057Y-93130908D01*
X118349194Y-93112780D01*
X118435038Y-93077222D01*
X118512297Y-93025599D01*
X118564752Y-92973144D01*
X118566684Y-92972626D01*
X118568098Y-92974040D01*
X118567712Y-92975827D01*
X118556186Y-92989871D01*
X118544821Y-93011135D01*
X118537821Y-93034210D01*
X118535458Y-93058201D01*
X118537821Y-93082192D01*
X118544821Y-93105267D01*
X118556186Y-93126531D01*
X118571481Y-93145168D01*
X118590118Y-93160463D01*
X118611382Y-93171828D01*
X118634457Y-93178828D01*
X118658644Y-93181210D01*
X118660270Y-93182375D01*
X118660074Y-93184365D01*
X118658448Y-93185200D01*
X117764752Y-93185200D01*
X117763020Y-93184200D01*
X117763020Y-93182200D01*
X117764556Y-93181210D01*
X117788743Y-93178828D01*
X117811818Y-93171828D01*
X117833082Y-93160463D01*
X117851719Y-93145168D01*
X117867014Y-93126531D01*
X117878379Y-93105267D01*
X117885379Y-93082192D01*
X117887742Y-93058201D01*
X117885379Y-93034210D01*
X117878379Y-93011135D01*
X117867014Y-92989871D01*
X117855488Y-92975827D01*
X117855162Y-92973853D01*
X117856708Y-92972585D01*
X117858448Y-92973144D01*
G37*
G36*
X120728056Y-90950010D02*
G01*
X120770756Y-90954215D01*
X120771141Y-90954291D01*
X120806294Y-90964955D01*
X120806656Y-90965105D01*
X120839053Y-90982422D01*
X120839379Y-90982640D01*
X120867778Y-91005945D01*
X120868055Y-91006222D01*
X120891360Y-91034621D01*
X120891578Y-91034947D01*
X120908894Y-91067343D01*
X120909044Y-91067705D01*
X120919018Y-91100582D01*
X120928283Y-91122947D01*
X120941678Y-91142994D01*
X120958725Y-91160041D01*
X120978773Y-91173435D01*
X121001047Y-91182661D01*
X121024697Y-91187365D01*
X121048803Y-91187365D01*
X121072453Y-91182660D01*
X121094727Y-91173433D01*
X121114774Y-91160038D01*
X121131821Y-91142991D01*
X121145215Y-91122943D01*
X121154479Y-91100578D01*
X121158859Y-91086137D01*
X121159009Y-91085775D01*
X121178635Y-91049058D01*
X121178853Y-91048732D01*
X121205268Y-91016545D01*
X121205545Y-91016268D01*
X121237732Y-90989853D01*
X121238058Y-90989635D01*
X121274773Y-90970010D01*
X121275135Y-90969860D01*
X121314985Y-90957772D01*
X121315370Y-90957696D01*
X121362945Y-90953010D01*
X121363141Y-90953000D01*
X121419500Y-90953000D01*
X121421232Y-90954000D01*
X121421232Y-90956000D01*
X121419696Y-90956990D01*
X121366148Y-90962264D01*
X121314840Y-90977828D01*
X121267556Y-91003101D01*
X121226113Y-91037113D01*
X121192101Y-91078556D01*
X121166828Y-91125840D01*
X121151264Y-91177148D01*
X121146000Y-91230594D01*
X121146000Y-91781406D01*
X121151264Y-91834852D01*
X121166828Y-91886160D01*
X121192101Y-91933444D01*
X121226113Y-91974887D01*
X121267556Y-92008899D01*
X121314840Y-92034172D01*
X121366148Y-92049736D01*
X121419696Y-92055010D01*
X121421322Y-92056175D01*
X121421126Y-92058165D01*
X121419500Y-92059000D01*
X121363141Y-92059000D01*
X121362945Y-92058990D01*
X121315370Y-92054304D01*
X121314985Y-92054228D01*
X121275135Y-92042140D01*
X121274773Y-92041990D01*
X121238058Y-92022365D01*
X121237732Y-92022147D01*
X121205545Y-91995732D01*
X121205268Y-91995455D01*
X121178853Y-91963268D01*
X121178635Y-91962942D01*
X121159010Y-91926227D01*
X121158860Y-91925865D01*
X121146772Y-91886015D01*
X121146696Y-91885630D01*
X121145542Y-91873917D01*
X121140817Y-91850165D01*
X121131591Y-91827891D01*
X121118196Y-91807844D01*
X121101148Y-91790797D01*
X121081101Y-91777403D01*
X121058827Y-91768177D01*
X121035176Y-91763473D01*
X121011070Y-91763473D01*
X120987420Y-91768178D01*
X120965146Y-91777404D01*
X120945099Y-91790799D01*
X120928052Y-91807847D01*
X120914605Y-91827973D01*
X120891578Y-91871053D01*
X120891360Y-91871379D01*
X120868055Y-91899778D01*
X120867778Y-91900055D01*
X120839379Y-91923360D01*
X120839053Y-91923578D01*
X120806656Y-91940895D01*
X120806294Y-91941045D01*
X120771141Y-91951709D01*
X120770756Y-91951785D01*
X120728056Y-91955990D01*
X120727860Y-91956000D01*
X120671500Y-91956000D01*
X120669768Y-91955000D01*
X120669768Y-91953000D01*
X120671304Y-91952010D01*
X120719975Y-91947217D01*
X120766593Y-91933075D01*
X120809554Y-91910112D01*
X120847209Y-91879209D01*
X120878112Y-91841554D01*
X120901075Y-91798593D01*
X120915217Y-91751975D01*
X120920000Y-91703406D01*
X120920000Y-91202594D01*
X120915217Y-91154025D01*
X120901075Y-91107407D01*
X120878112Y-91064446D01*
X120847209Y-91026791D01*
X120809554Y-90995888D01*
X120766593Y-90972925D01*
X120719975Y-90958783D01*
X120671304Y-90953990D01*
X120669678Y-90952825D01*
X120669874Y-90950835D01*
X120671500Y-90950000D01*
X120727860Y-90950000D01*
X120728056Y-90950010D01*
G37*
M02*
