%TF.GenerationSoftware,KiCad,Pcbnew,(5.1.10)-1*%
%TF.CreationDate,2021-10-05T14:24:33+02:00*%
%TF.ProjectId,Masterproef ultrasonic transducer,4d617374-6572-4707-926f-656620756c74,rev?*%
%TF.SameCoordinates,Original*%
%TF.FileFunction,Copper,L2,Bot*%
%TF.FilePolarity,Positive*%
%FSLAX46Y46*%
G04 Gerber Fmt 4.6, Leading zero omitted, Abs format (unit mm)*
G04 Created by KiCad (PCBNEW (5.1.10)-1) date 2021-10-05 14:24:33*
%MOMM*%
%LPD*%
G01*
G04 APERTURE LIST*
%TA.AperFunction,ComponentPad*%
%ADD10O,0.850000X0.850000*%
%TD*%
%TA.AperFunction,ComponentPad*%
%ADD11R,0.850000X0.850000*%
%TD*%
%TA.AperFunction,SMDPad,CuDef*%
%ADD12R,1.120000X1.220000*%
%TD*%
%TA.AperFunction,ComponentPad*%
%ADD13O,1.208000X2.416000*%
%TD*%
%TA.AperFunction,ComponentPad*%
%ADD14O,2.416000X1.208000*%
%TD*%
%TA.AperFunction,SMDPad,CuDef*%
%ADD15R,1.200000X1.400000*%
%TD*%
%TA.AperFunction,SMDPad,CuDef*%
%ADD16R,4.100000X1.850000*%
%TD*%
%TA.AperFunction,SMDPad,CuDef*%
%ADD17R,0.600000X1.050000*%
%TD*%
%TA.AperFunction,SMDPad,CuDef*%
%ADD18C,1.000000*%
%TD*%
%TA.AperFunction,ViaPad*%
%ADD19C,0.300000*%
%TD*%
%TA.AperFunction,ViaPad*%
%ADD20C,0.500000*%
%TD*%
%TA.AperFunction,ViaPad*%
%ADD21C,0.800000*%
%TD*%
%TA.AperFunction,Conductor*%
%ADD22C,0.500000*%
%TD*%
%TA.AperFunction,Conductor*%
%ADD23C,0.250000*%
%TD*%
%TA.AperFunction,Conductor*%
%ADD24C,0.400000*%
%TD*%
%TA.AperFunction,Conductor*%
%ADD25C,0.100000*%
%TD*%
G04 APERTURE END LIST*
D10*
%TO.P,J1,2*%
%TO.N,+3V3*%
X118211600Y-92659200D03*
D11*
%TO.P,J1,1*%
%TO.N,GND*%
X118211600Y-93659200D03*
%TD*%
D12*
%TO.P,D1,2*%
%TO.N,Net-(D1-Pad2)*%
X111506000Y-95123000D03*
%TO.P,D1,1*%
%TO.N,+15V*%
X108406000Y-95123000D03*
%TD*%
D13*
%TO.P,J2,1*%
%TO.N,GND*%
X133223000Y-88726000D03*
D14*
%TO.P,J2,5*%
%TO.N,/AUDIO_IN*%
X128223000Y-83726000D03*
%TO.P,J2,2*%
%TO.N,/ENABLE*%
X128223000Y-93726000D03*
%TD*%
D15*
%TO.P,S1,4*%
%TO.N,+3V3*%
X123642000Y-87544000D03*
%TO.P,S1,3*%
%TO.N,/GAIN*%
X115642000Y-87544000D03*
%TO.P,S1,2*%
%TO.N,Net-(S1-Pad2)*%
X121642000Y-83144000D03*
%TO.P,S1,1*%
%TO.N,GND*%
X117642000Y-83144000D03*
%TD*%
D16*
%TO.P,L1,2*%
%TO.N,Net-(D1-Pad2)*%
X115290600Y-94691200D03*
%TO.P,L1,1*%
%TO.N,+3V3*%
X115290600Y-91041200D03*
%TD*%
D17*
%TO.P,IC1,5*%
%TO.N,+3V3*%
X111607600Y-90678000D03*
%TO.P,IC1,4*%
%TO.N,/ENABLE*%
X109707600Y-90678000D03*
%TO.P,IC1,3*%
%TO.N,Net-(IC1-Pad3)*%
X109707600Y-93278000D03*
%TO.P,IC1,2*%
%TO.N,GND*%
X110657600Y-93278000D03*
%TO.P,IC1,1*%
%TO.N,Net-(D1-Pad2)*%
X111607600Y-93278000D03*
%TD*%
%TO.P,R3,2*%
%TO.N,Net-(R2-Pad1)*%
%TA.AperFunction,SMDPad,CuDef*%
G36*
G01*
X107080000Y-90149000D02*
X107080000Y-90699000D01*
G75*
G02*
X106880000Y-90899000I-200000J0D01*
G01*
X106480000Y-90899000D01*
G75*
G02*
X106280000Y-90699000I0J200000D01*
G01*
X106280000Y-90149000D01*
G75*
G02*
X106480000Y-89949000I200000J0D01*
G01*
X106880000Y-89949000D01*
G75*
G02*
X107080000Y-90149000I0J-200000D01*
G01*
G37*
%TD.AperFunction*%
%TO.P,R3,1*%
%TO.N,GND*%
%TA.AperFunction,SMDPad,CuDef*%
G36*
G01*
X108730000Y-90149000D02*
X108730000Y-90699000D01*
G75*
G02*
X108530000Y-90899000I-200000J0D01*
G01*
X108130000Y-90899000D01*
G75*
G02*
X107930000Y-90699000I0J200000D01*
G01*
X107930000Y-90149000D01*
G75*
G02*
X108130000Y-89949000I200000J0D01*
G01*
X108530000Y-89949000D01*
G75*
G02*
X108730000Y-90149000I0J-200000D01*
G01*
G37*
%TD.AperFunction*%
%TD*%
%TO.P,C2,2*%
%TO.N,GND*%
%TA.AperFunction,SMDPad,CuDef*%
G36*
G01*
X107754000Y-89150000D02*
X107754000Y-88650000D01*
G75*
G02*
X107979000Y-88425000I225000J0D01*
G01*
X108429000Y-88425000D01*
G75*
G02*
X108654000Y-88650000I0J-225000D01*
G01*
X108654000Y-89150000D01*
G75*
G02*
X108429000Y-89375000I-225000J0D01*
G01*
X107979000Y-89375000D01*
G75*
G02*
X107754000Y-89150000I0J225000D01*
G01*
G37*
%TD.AperFunction*%
%TO.P,C2,1*%
%TO.N,+15V*%
%TA.AperFunction,SMDPad,CuDef*%
G36*
G01*
X106204000Y-89150000D02*
X106204000Y-88650000D01*
G75*
G02*
X106429000Y-88425000I225000J0D01*
G01*
X106879000Y-88425000D01*
G75*
G02*
X107104000Y-88650000I0J-225000D01*
G01*
X107104000Y-89150000D01*
G75*
G02*
X106879000Y-89375000I-225000J0D01*
G01*
X106429000Y-89375000D01*
G75*
G02*
X106204000Y-89150000I0J225000D01*
G01*
G37*
%TD.AperFunction*%
%TD*%
D18*
%TO.P,10,1*%
%TO.N,GND*%
X123698000Y-94996000D03*
%TD*%
%TO.P,8,1*%
%TO.N,Net-(D1-Pad2)*%
X118491000Y-95250000D03*
%TD*%
%TO.P,5,1*%
%TO.N,+3V3*%
X123698000Y-91440000D03*
%TD*%
%TO.P,R2,2*%
%TO.N,Net-(IC1-Pad3)*%
%TA.AperFunction,SMDPad,CuDef*%
G36*
G01*
X107930000Y-92223000D02*
X107930000Y-91673000D01*
G75*
G02*
X108130000Y-91473000I200000J0D01*
G01*
X108530000Y-91473000D01*
G75*
G02*
X108730000Y-91673000I0J-200000D01*
G01*
X108730000Y-92223000D01*
G75*
G02*
X108530000Y-92423000I-200000J0D01*
G01*
X108130000Y-92423000D01*
G75*
G02*
X107930000Y-92223000I0J200000D01*
G01*
G37*
%TD.AperFunction*%
%TO.P,R2,1*%
%TO.N,Net-(R2-Pad1)*%
%TA.AperFunction,SMDPad,CuDef*%
G36*
G01*
X106280000Y-92223000D02*
X106280000Y-91673000D01*
G75*
G02*
X106480000Y-91473000I200000J0D01*
G01*
X106880000Y-91473000D01*
G75*
G02*
X107080000Y-91673000I0J-200000D01*
G01*
X107080000Y-92223000D01*
G75*
G02*
X106880000Y-92423000I-200000J0D01*
G01*
X106480000Y-92423000D01*
G75*
G02*
X106280000Y-92223000I0J200000D01*
G01*
G37*
%TD.AperFunction*%
%TD*%
%TO.P,R1,2*%
%TO.N,Net-(IC1-Pad3)*%
%TA.AperFunction,SMDPad,CuDef*%
G36*
G01*
X107804000Y-93747000D02*
X107804000Y-93197000D01*
G75*
G02*
X108004000Y-92997000I200000J0D01*
G01*
X108404000Y-92997000D01*
G75*
G02*
X108604000Y-93197000I0J-200000D01*
G01*
X108604000Y-93747000D01*
G75*
G02*
X108404000Y-93947000I-200000J0D01*
G01*
X108004000Y-93947000D01*
G75*
G02*
X107804000Y-93747000I0J200000D01*
G01*
G37*
%TD.AperFunction*%
%TO.P,R1,1*%
%TO.N,+15V*%
%TA.AperFunction,SMDPad,CuDef*%
G36*
G01*
X106154000Y-93747000D02*
X106154000Y-93197000D01*
G75*
G02*
X106354000Y-92997000I200000J0D01*
G01*
X106754000Y-92997000D01*
G75*
G02*
X106954000Y-93197000I0J-200000D01*
G01*
X106954000Y-93747000D01*
G75*
G02*
X106754000Y-93947000I-200000J0D01*
G01*
X106354000Y-93947000D01*
G75*
G02*
X106154000Y-93747000I0J200000D01*
G01*
G37*
%TD.AperFunction*%
%TD*%
%TO.P,C4,2*%
%TO.N,GND*%
%TA.AperFunction,SMDPad,CuDef*%
G36*
G01*
X120646000Y-90353000D02*
X120146000Y-90353000D01*
G75*
G02*
X119921000Y-90128000I0J225000D01*
G01*
X119921000Y-89678000D01*
G75*
G02*
X120146000Y-89453000I225000J0D01*
G01*
X120646000Y-89453000D01*
G75*
G02*
X120871000Y-89678000I0J-225000D01*
G01*
X120871000Y-90128000D01*
G75*
G02*
X120646000Y-90353000I-225000J0D01*
G01*
G37*
%TD.AperFunction*%
%TO.P,C4,1*%
%TO.N,+3V3*%
%TA.AperFunction,SMDPad,CuDef*%
G36*
G01*
X120646000Y-91903000D02*
X120146000Y-91903000D01*
G75*
G02*
X119921000Y-91678000I0J225000D01*
G01*
X119921000Y-91228000D01*
G75*
G02*
X120146000Y-91003000I225000J0D01*
G01*
X120646000Y-91003000D01*
G75*
G02*
X120871000Y-91228000I0J-225000D01*
G01*
X120871000Y-91678000D01*
G75*
G02*
X120646000Y-91903000I-225000J0D01*
G01*
G37*
%TD.AperFunction*%
%TD*%
%TO.P,C3,2*%
%TO.N,GND*%
%TA.AperFunction,SMDPad,CuDef*%
G36*
G01*
X121445000Y-92906000D02*
X122395000Y-92906000D01*
G75*
G02*
X122645000Y-93156000I0J-250000D01*
G01*
X122645000Y-93656000D01*
G75*
G02*
X122395000Y-93906000I-250000J0D01*
G01*
X121445000Y-93906000D01*
G75*
G02*
X121195000Y-93656000I0J250000D01*
G01*
X121195000Y-93156000D01*
G75*
G02*
X121445000Y-92906000I250000J0D01*
G01*
G37*
%TD.AperFunction*%
%TO.P,C3,1*%
%TO.N,+3V3*%
%TA.AperFunction,SMDPad,CuDef*%
G36*
G01*
X121445000Y-91006000D02*
X122395000Y-91006000D01*
G75*
G02*
X122645000Y-91256000I0J-250000D01*
G01*
X122645000Y-91756000D01*
G75*
G02*
X122395000Y-92006000I-250000J0D01*
G01*
X121445000Y-92006000D01*
G75*
G02*
X121195000Y-91756000I0J250000D01*
G01*
X121195000Y-91256000D01*
G75*
G02*
X121445000Y-91006000I250000J0D01*
G01*
G37*
%TD.AperFunction*%
%TD*%
%TO.P,C1,2*%
%TO.N,GND*%
%TA.AperFunction,SMDPad,CuDef*%
G36*
G01*
X119122000Y-90353000D02*
X118622000Y-90353000D01*
G75*
G02*
X118397000Y-90128000I0J225000D01*
G01*
X118397000Y-89678000D01*
G75*
G02*
X118622000Y-89453000I225000J0D01*
G01*
X119122000Y-89453000D01*
G75*
G02*
X119347000Y-89678000I0J-225000D01*
G01*
X119347000Y-90128000D01*
G75*
G02*
X119122000Y-90353000I-225000J0D01*
G01*
G37*
%TD.AperFunction*%
%TO.P,C1,1*%
%TO.N,+3V3*%
%TA.AperFunction,SMDPad,CuDef*%
G36*
G01*
X119122000Y-91903000D02*
X118622000Y-91903000D01*
G75*
G02*
X118397000Y-91678000I0J225000D01*
G01*
X118397000Y-91228000D01*
G75*
G02*
X118622000Y-91003000I225000J0D01*
G01*
X119122000Y-91003000D01*
G75*
G02*
X119347000Y-91228000I0J-225000D01*
G01*
X119347000Y-91678000D01*
G75*
G02*
X119122000Y-91903000I-225000J0D01*
G01*
G37*
%TD.AperFunction*%
%TD*%
D19*
%TO.N,GND*%
X112555020Y-87823040D03*
X113055400Y-89321640D03*
D20*
X112776000Y-86995000D03*
X113411000Y-86995000D03*
%TO.N,+15V*%
X109474000Y-84582000D03*
D19*
%TO.N,/GAIN*%
X112555020Y-88320880D03*
D21*
%TO.N,/ENABLE*%
X117856000Y-88900000D03*
D19*
X112555020Y-88821260D03*
%TD*%
D22*
%TO.N,GND*%
X110657600Y-92592998D02*
X110657600Y-93278000D01*
X111178959Y-89471639D02*
X112905401Y-89471639D01*
X110657600Y-89992998D02*
X111178959Y-89471639D01*
X110657600Y-93278000D02*
X110657600Y-89992998D01*
X121920000Y-93406000D02*
X122108000Y-93406000D01*
X112555020Y-87720879D02*
X109383121Y-87720879D01*
X112555020Y-87130980D02*
X112555020Y-87720879D01*
X116542000Y-83144000D02*
X112555020Y-87130980D01*
X117642000Y-83144000D02*
X116542000Y-83144000D01*
X108330000Y-89026000D02*
X108204000Y-88900000D01*
X110657600Y-93278000D02*
X110657600Y-92496600D01*
D23*
X119218200Y-93945200D02*
X119634000Y-94361000D01*
X119218200Y-93710000D02*
X119218200Y-93945200D01*
%TO.N,+3V3*%
X114808000Y-90631000D02*
X115885200Y-90631000D01*
D22*
X115630000Y-91199000D02*
X115062000Y-90631000D01*
X121613000Y-91453000D02*
X121666000Y-91506000D01*
X115448400Y-91453000D02*
X118110000Y-91453000D01*
X114673400Y-90678000D02*
X115448400Y-91453000D01*
X111607600Y-90678000D02*
X114673400Y-90678000D01*
X123632000Y-91506000D02*
X123698000Y-91440000D01*
X123642000Y-91384000D02*
X123698000Y-91440000D01*
D24*
X120396000Y-92532200D02*
X120218200Y-92710000D01*
X120396000Y-91453000D02*
X120396000Y-92532200D01*
X118872000Y-92363800D02*
X119218200Y-92710000D01*
X118872000Y-91453000D02*
X118872000Y-92363800D01*
X120218200Y-92710000D02*
X120650000Y-92710000D01*
X120650000Y-92710000D02*
X121031000Y-92329000D01*
D23*
%TO.N,/GAIN*%
X112555020Y-88333580D02*
X112555020Y-88320880D01*
X112542320Y-88346280D02*
X112555020Y-88333580D01*
X114865120Y-88320880D02*
X112555020Y-88320880D01*
X115642000Y-87544000D02*
X114865120Y-88320880D01*
%TO.N,/ENABLE*%
X111402740Y-88821260D02*
X112555020Y-88821260D01*
X110060740Y-88821260D02*
X111402740Y-88821260D01*
X109707600Y-89174400D02*
X110060740Y-88821260D01*
X109707600Y-90678000D02*
X109707600Y-89174400D01*
X117741780Y-88821260D02*
X112555020Y-88821260D01*
D22*
%TO.N,Net-(D1-Pad2)*%
X114855000Y-94488000D02*
X115062000Y-94281000D01*
X116031000Y-95250000D02*
X115062000Y-94281000D01*
X111607600Y-94894400D02*
X111506000Y-94996000D01*
X111607600Y-93278000D02*
X111607600Y-94894400D01*
X114985800Y-94996000D02*
X115290600Y-94691200D01*
X111506000Y-94996000D02*
X114985800Y-94996000D01*
D23*
%TO.N,Net-(IC1-Pad3)*%
X109707600Y-93278000D02*
X109707600Y-92943600D01*
X108077000Y-91948000D02*
X108331000Y-92202000D01*
X108330000Y-92203000D02*
X108330000Y-93472000D01*
X108331000Y-92202000D02*
X108330000Y-92203000D01*
D22*
%TO.N,Net-(R2-Pad1)*%
X106680000Y-90424000D02*
X106680000Y-91948000D01*
%TD*%
D25*
%TO.N,+3V3*%
X124664000Y-86888710D02*
X124664000Y-91927290D01*
X124185290Y-92406000D01*
X121158000Y-92406000D01*
X121148245Y-92406961D01*
X121138866Y-92409806D01*
X121130221Y-92414427D01*
X121122645Y-92420645D01*
X120629290Y-92914000D01*
X118847417Y-92914000D01*
X118848281Y-92911910D01*
X118813181Y-92809200D01*
X118361600Y-92809200D01*
X118361600Y-92829200D01*
X118061600Y-92829200D01*
X118061600Y-92809200D01*
X117610019Y-92809200D01*
X117574919Y-92911910D01*
X117575783Y-92914000D01*
X117368710Y-92914000D01*
X116875355Y-92420645D01*
X116867779Y-92414427D01*
X116859134Y-92409806D01*
X116849755Y-92406961D01*
X116844974Y-92406490D01*
X117574919Y-92406490D01*
X117610019Y-92509200D01*
X118061600Y-92509200D01*
X118061600Y-92489200D01*
X118361600Y-92489200D01*
X118361600Y-92509200D01*
X118813181Y-92509200D01*
X118848281Y-92406490D01*
X118840505Y-92387684D01*
X118775451Y-92270208D01*
X118688728Y-92167681D01*
X118668457Y-92151543D01*
X118722000Y-92098000D01*
X118722000Y-91603000D01*
X119022000Y-91603000D01*
X119022000Y-92098000D01*
X119087000Y-92163000D01*
X119347000Y-92164258D01*
X119397969Y-92159238D01*
X119446979Y-92144371D01*
X119492147Y-92120228D01*
X119531737Y-92087737D01*
X119564228Y-92048147D01*
X119588371Y-92002979D01*
X119603238Y-91953969D01*
X119608258Y-91903000D01*
X119659742Y-91903000D01*
X119664762Y-91953969D01*
X119679629Y-92002979D01*
X119703772Y-92048147D01*
X119736263Y-92087737D01*
X119775853Y-92120228D01*
X119821021Y-92144371D01*
X119870031Y-92159238D01*
X119921000Y-92164258D01*
X120181000Y-92163000D01*
X120246000Y-92098000D01*
X120246000Y-91603000D01*
X120546000Y-91603000D01*
X120546000Y-92098000D01*
X120611000Y-92163000D01*
X120871000Y-92164258D01*
X120921969Y-92159238D01*
X120970979Y-92144371D01*
X120973445Y-92143053D01*
X120977772Y-92151147D01*
X121010263Y-92190737D01*
X121049853Y-92223228D01*
X121095021Y-92247371D01*
X121144031Y-92262238D01*
X121195000Y-92267258D01*
X121705000Y-92266000D01*
X121770000Y-92201000D01*
X121770000Y-91656000D01*
X122070000Y-91656000D01*
X122070000Y-92201000D01*
X122135000Y-92266000D01*
X122645000Y-92267258D01*
X122695969Y-92262238D01*
X122744979Y-92247371D01*
X122790147Y-92223228D01*
X122829737Y-92190737D01*
X122862228Y-92151147D01*
X122886371Y-92105979D01*
X122901238Y-92056969D01*
X122904033Y-92028585D01*
X123321547Y-92028585D01*
X123379219Y-92133961D01*
X123520729Y-92182818D01*
X123669052Y-92203129D01*
X123818487Y-92194113D01*
X123963292Y-92156117D01*
X124016781Y-92133961D01*
X124074453Y-92028585D01*
X123698000Y-91652132D01*
X123321547Y-92028585D01*
X122904033Y-92028585D01*
X122906258Y-92006000D01*
X122905000Y-91721000D01*
X122840000Y-91656000D01*
X122070000Y-91656000D01*
X121770000Y-91656000D01*
X121119000Y-91656000D01*
X121066000Y-91603000D01*
X120546000Y-91603000D01*
X120246000Y-91603000D01*
X119726000Y-91603000D01*
X119661000Y-91668000D01*
X119659742Y-91903000D01*
X119608258Y-91903000D01*
X119607000Y-91668000D01*
X119542000Y-91603000D01*
X119022000Y-91603000D01*
X118722000Y-91603000D01*
X118202000Y-91603000D01*
X118137000Y-91668000D01*
X118135742Y-91903000D01*
X118140762Y-91953969D01*
X118146899Y-91974200D01*
X118061598Y-91974200D01*
X118061598Y-92055811D01*
X117958888Y-92022506D01*
X117839531Y-92084042D01*
X117734472Y-92167681D01*
X117647749Y-92270208D01*
X117582695Y-92387684D01*
X117574919Y-92406490D01*
X116844974Y-92406490D01*
X116840000Y-92406000D01*
X111302000Y-92406000D01*
X111302000Y-91966200D01*
X112979342Y-91966200D01*
X112984362Y-92017169D01*
X112999229Y-92066179D01*
X113023372Y-92111347D01*
X113055863Y-92150937D01*
X113095453Y-92183428D01*
X113140621Y-92207571D01*
X113189631Y-92222438D01*
X113240600Y-92227458D01*
X115075600Y-92226200D01*
X115140600Y-92161200D01*
X115140600Y-91191200D01*
X115440600Y-91191200D01*
X115440600Y-92161200D01*
X115505600Y-92226200D01*
X117340600Y-92227458D01*
X117391569Y-92222438D01*
X117440579Y-92207571D01*
X117485747Y-92183428D01*
X117525337Y-92150937D01*
X117557828Y-92111347D01*
X117581971Y-92066179D01*
X117596838Y-92017169D01*
X117601858Y-91966200D01*
X117600875Y-91411052D01*
X122934871Y-91411052D01*
X122943887Y-91560487D01*
X122981883Y-91705292D01*
X123004039Y-91758781D01*
X123109415Y-91816453D01*
X123485868Y-91440000D01*
X123910132Y-91440000D01*
X124286585Y-91816453D01*
X124391961Y-91758781D01*
X124440818Y-91617271D01*
X124461129Y-91468948D01*
X124452113Y-91319513D01*
X124414117Y-91174708D01*
X124391961Y-91121219D01*
X124286585Y-91063547D01*
X123910132Y-91440000D01*
X123485868Y-91440000D01*
X123109415Y-91063547D01*
X123004039Y-91121219D01*
X122955182Y-91262729D01*
X122934871Y-91411052D01*
X117600875Y-91411052D01*
X117600600Y-91256200D01*
X117535600Y-91191200D01*
X115440600Y-91191200D01*
X115140600Y-91191200D01*
X113045600Y-91191200D01*
X112980600Y-91256200D01*
X112979342Y-91966200D01*
X111302000Y-91966200D01*
X111302000Y-91463706D01*
X111307600Y-91464258D01*
X111392600Y-91463000D01*
X111457600Y-91398000D01*
X111457600Y-90828000D01*
X111757600Y-90828000D01*
X111757600Y-91398000D01*
X111822600Y-91463000D01*
X111907600Y-91464258D01*
X111958569Y-91459238D01*
X112007579Y-91444371D01*
X112052747Y-91420228D01*
X112092337Y-91387737D01*
X112124828Y-91348147D01*
X112148971Y-91302979D01*
X112163838Y-91253969D01*
X112168858Y-91203000D01*
X112168047Y-91003000D01*
X118135742Y-91003000D01*
X118137000Y-91238000D01*
X118202000Y-91303000D01*
X118722000Y-91303000D01*
X118722000Y-90808000D01*
X119022000Y-90808000D01*
X119022000Y-91303000D01*
X119542000Y-91303000D01*
X119607000Y-91238000D01*
X119608258Y-91003000D01*
X119659742Y-91003000D01*
X119661000Y-91238000D01*
X119726000Y-91303000D01*
X120246000Y-91303000D01*
X120246000Y-90808000D01*
X120546000Y-90808000D01*
X120546000Y-91303000D01*
X120947000Y-91303000D01*
X121000000Y-91356000D01*
X121770000Y-91356000D01*
X121770000Y-90811000D01*
X122070000Y-90811000D01*
X122070000Y-91356000D01*
X122840000Y-91356000D01*
X122905000Y-91291000D01*
X122906258Y-91006000D01*
X122901238Y-90955031D01*
X122886371Y-90906021D01*
X122862228Y-90860853D01*
X122854483Y-90851415D01*
X123321547Y-90851415D01*
X123698000Y-91227868D01*
X124074453Y-90851415D01*
X124016781Y-90746039D01*
X123875271Y-90697182D01*
X123726948Y-90676871D01*
X123577513Y-90685887D01*
X123432708Y-90723883D01*
X123379219Y-90746039D01*
X123321547Y-90851415D01*
X122854483Y-90851415D01*
X122829737Y-90821263D01*
X122790147Y-90788772D01*
X122744979Y-90764629D01*
X122695969Y-90749762D01*
X122645000Y-90744742D01*
X122135000Y-90746000D01*
X122070000Y-90811000D01*
X121770000Y-90811000D01*
X121705000Y-90746000D01*
X121195000Y-90744742D01*
X121144031Y-90749762D01*
X121095021Y-90764629D01*
X121049853Y-90788772D01*
X121034828Y-90801103D01*
X121016147Y-90785772D01*
X120970979Y-90761629D01*
X120921969Y-90746762D01*
X120871000Y-90741742D01*
X120611000Y-90743000D01*
X120546000Y-90808000D01*
X120246000Y-90808000D01*
X120181000Y-90743000D01*
X119921000Y-90741742D01*
X119870031Y-90746762D01*
X119821021Y-90761629D01*
X119775853Y-90785772D01*
X119736263Y-90818263D01*
X119703772Y-90857853D01*
X119679629Y-90903021D01*
X119664762Y-90952031D01*
X119659742Y-91003000D01*
X119608258Y-91003000D01*
X119603238Y-90952031D01*
X119588371Y-90903021D01*
X119564228Y-90857853D01*
X119531737Y-90818263D01*
X119492147Y-90785772D01*
X119446979Y-90761629D01*
X119397969Y-90746762D01*
X119347000Y-90741742D01*
X119087000Y-90743000D01*
X119022000Y-90808000D01*
X118722000Y-90808000D01*
X118657000Y-90743000D01*
X118397000Y-90741742D01*
X118346031Y-90746762D01*
X118297021Y-90761629D01*
X118251853Y-90785772D01*
X118212263Y-90818263D01*
X118179772Y-90857853D01*
X118155629Y-90903021D01*
X118140762Y-90952031D01*
X118135742Y-91003000D01*
X112168047Y-91003000D01*
X112167600Y-90893000D01*
X112102600Y-90828000D01*
X111757600Y-90828000D01*
X111457600Y-90828000D01*
X111437600Y-90828000D01*
X111437600Y-90528000D01*
X111457600Y-90528000D01*
X111457600Y-90508000D01*
X111757600Y-90508000D01*
X111757600Y-90528000D01*
X112102600Y-90528000D01*
X112167600Y-90463000D01*
X112168586Y-90220000D01*
X112979526Y-90220000D01*
X112980600Y-90826200D01*
X113045600Y-90891200D01*
X115140600Y-90891200D01*
X115140600Y-90871200D01*
X115440600Y-90871200D01*
X115440600Y-90891200D01*
X117535600Y-90891200D01*
X117600600Y-90826200D01*
X117601674Y-90220000D01*
X117835290Y-90220000D01*
X118328645Y-90713355D01*
X118336221Y-90719573D01*
X118344866Y-90724194D01*
X118354245Y-90727039D01*
X118364000Y-90728000D01*
X121539000Y-90728000D01*
X121548755Y-90727039D01*
X121558134Y-90724194D01*
X121566779Y-90719573D01*
X121571540Y-90715963D01*
X122460540Y-89953963D01*
X122467321Y-89946885D01*
X122472590Y-89938621D01*
X122476147Y-89929487D01*
X122478000Y-89916000D01*
X122478000Y-88244000D01*
X122780742Y-88244000D01*
X122785762Y-88294969D01*
X122800629Y-88343979D01*
X122824772Y-88389147D01*
X122857263Y-88428737D01*
X122896853Y-88461228D01*
X122942021Y-88485371D01*
X122991031Y-88500238D01*
X123042000Y-88505258D01*
X123427000Y-88504000D01*
X123492000Y-88439000D01*
X123492000Y-87694000D01*
X123792000Y-87694000D01*
X123792000Y-88439000D01*
X123857000Y-88504000D01*
X124242000Y-88505258D01*
X124292969Y-88500238D01*
X124341979Y-88485371D01*
X124387147Y-88461228D01*
X124426737Y-88428737D01*
X124459228Y-88389147D01*
X124483371Y-88343979D01*
X124498238Y-88294969D01*
X124503258Y-88244000D01*
X124502000Y-87759000D01*
X124437000Y-87694000D01*
X123792000Y-87694000D01*
X123492000Y-87694000D01*
X122847000Y-87694000D01*
X122782000Y-87759000D01*
X122780742Y-88244000D01*
X122478000Y-88244000D01*
X122478000Y-86888710D01*
X122522710Y-86844000D01*
X122780742Y-86844000D01*
X122782000Y-87329000D01*
X122847000Y-87394000D01*
X123492000Y-87394000D01*
X123492000Y-86649000D01*
X123792000Y-86649000D01*
X123792000Y-87394000D01*
X124437000Y-87394000D01*
X124502000Y-87329000D01*
X124503258Y-86844000D01*
X124498238Y-86793031D01*
X124483371Y-86744021D01*
X124459228Y-86698853D01*
X124426737Y-86659263D01*
X124387147Y-86626772D01*
X124341979Y-86602629D01*
X124292969Y-86587762D01*
X124242000Y-86582742D01*
X123857000Y-86584000D01*
X123792000Y-86649000D01*
X123492000Y-86649000D01*
X123427000Y-86584000D01*
X123042000Y-86582742D01*
X122991031Y-86587762D01*
X122942021Y-86602629D01*
X122896853Y-86626772D01*
X122857263Y-86659263D01*
X122824772Y-86698853D01*
X122800629Y-86744021D01*
X122785762Y-86793031D01*
X122780742Y-86844000D01*
X122522710Y-86844000D01*
X122956710Y-86410000D01*
X124185290Y-86410000D01*
X124664000Y-86888710D01*
%TA.AperFunction,Conductor*%
G36*
X124664000Y-86888710D02*
G01*
X124664000Y-91927290D01*
X124185290Y-92406000D01*
X121158000Y-92406000D01*
X121148245Y-92406961D01*
X121138866Y-92409806D01*
X121130221Y-92414427D01*
X121122645Y-92420645D01*
X120629290Y-92914000D01*
X118847417Y-92914000D01*
X118848281Y-92911910D01*
X118813181Y-92809200D01*
X118361600Y-92809200D01*
X118361600Y-92829200D01*
X118061600Y-92829200D01*
X118061600Y-92809200D01*
X117610019Y-92809200D01*
X117574919Y-92911910D01*
X117575783Y-92914000D01*
X117368710Y-92914000D01*
X116875355Y-92420645D01*
X116867779Y-92414427D01*
X116859134Y-92409806D01*
X116849755Y-92406961D01*
X116844974Y-92406490D01*
X117574919Y-92406490D01*
X117610019Y-92509200D01*
X118061600Y-92509200D01*
X118061600Y-92489200D01*
X118361600Y-92489200D01*
X118361600Y-92509200D01*
X118813181Y-92509200D01*
X118848281Y-92406490D01*
X118840505Y-92387684D01*
X118775451Y-92270208D01*
X118688728Y-92167681D01*
X118668457Y-92151543D01*
X118722000Y-92098000D01*
X118722000Y-91603000D01*
X119022000Y-91603000D01*
X119022000Y-92098000D01*
X119087000Y-92163000D01*
X119347000Y-92164258D01*
X119397969Y-92159238D01*
X119446979Y-92144371D01*
X119492147Y-92120228D01*
X119531737Y-92087737D01*
X119564228Y-92048147D01*
X119588371Y-92002979D01*
X119603238Y-91953969D01*
X119608258Y-91903000D01*
X119659742Y-91903000D01*
X119664762Y-91953969D01*
X119679629Y-92002979D01*
X119703772Y-92048147D01*
X119736263Y-92087737D01*
X119775853Y-92120228D01*
X119821021Y-92144371D01*
X119870031Y-92159238D01*
X119921000Y-92164258D01*
X120181000Y-92163000D01*
X120246000Y-92098000D01*
X120246000Y-91603000D01*
X120546000Y-91603000D01*
X120546000Y-92098000D01*
X120611000Y-92163000D01*
X120871000Y-92164258D01*
X120921969Y-92159238D01*
X120970979Y-92144371D01*
X120973445Y-92143053D01*
X120977772Y-92151147D01*
X121010263Y-92190737D01*
X121049853Y-92223228D01*
X121095021Y-92247371D01*
X121144031Y-92262238D01*
X121195000Y-92267258D01*
X121705000Y-92266000D01*
X121770000Y-92201000D01*
X121770000Y-91656000D01*
X122070000Y-91656000D01*
X122070000Y-92201000D01*
X122135000Y-92266000D01*
X122645000Y-92267258D01*
X122695969Y-92262238D01*
X122744979Y-92247371D01*
X122790147Y-92223228D01*
X122829737Y-92190737D01*
X122862228Y-92151147D01*
X122886371Y-92105979D01*
X122901238Y-92056969D01*
X122904033Y-92028585D01*
X123321547Y-92028585D01*
X123379219Y-92133961D01*
X123520729Y-92182818D01*
X123669052Y-92203129D01*
X123818487Y-92194113D01*
X123963292Y-92156117D01*
X124016781Y-92133961D01*
X124074453Y-92028585D01*
X123698000Y-91652132D01*
X123321547Y-92028585D01*
X122904033Y-92028585D01*
X122906258Y-92006000D01*
X122905000Y-91721000D01*
X122840000Y-91656000D01*
X122070000Y-91656000D01*
X121770000Y-91656000D01*
X121119000Y-91656000D01*
X121066000Y-91603000D01*
X120546000Y-91603000D01*
X120246000Y-91603000D01*
X119726000Y-91603000D01*
X119661000Y-91668000D01*
X119659742Y-91903000D01*
X119608258Y-91903000D01*
X119607000Y-91668000D01*
X119542000Y-91603000D01*
X119022000Y-91603000D01*
X118722000Y-91603000D01*
X118202000Y-91603000D01*
X118137000Y-91668000D01*
X118135742Y-91903000D01*
X118140762Y-91953969D01*
X118146899Y-91974200D01*
X118061598Y-91974200D01*
X118061598Y-92055811D01*
X117958888Y-92022506D01*
X117839531Y-92084042D01*
X117734472Y-92167681D01*
X117647749Y-92270208D01*
X117582695Y-92387684D01*
X117574919Y-92406490D01*
X116844974Y-92406490D01*
X116840000Y-92406000D01*
X111302000Y-92406000D01*
X111302000Y-91966200D01*
X112979342Y-91966200D01*
X112984362Y-92017169D01*
X112999229Y-92066179D01*
X113023372Y-92111347D01*
X113055863Y-92150937D01*
X113095453Y-92183428D01*
X113140621Y-92207571D01*
X113189631Y-92222438D01*
X113240600Y-92227458D01*
X115075600Y-92226200D01*
X115140600Y-92161200D01*
X115140600Y-91191200D01*
X115440600Y-91191200D01*
X115440600Y-92161200D01*
X115505600Y-92226200D01*
X117340600Y-92227458D01*
X117391569Y-92222438D01*
X117440579Y-92207571D01*
X117485747Y-92183428D01*
X117525337Y-92150937D01*
X117557828Y-92111347D01*
X117581971Y-92066179D01*
X117596838Y-92017169D01*
X117601858Y-91966200D01*
X117600875Y-91411052D01*
X122934871Y-91411052D01*
X122943887Y-91560487D01*
X122981883Y-91705292D01*
X123004039Y-91758781D01*
X123109415Y-91816453D01*
X123485868Y-91440000D01*
X123910132Y-91440000D01*
X124286585Y-91816453D01*
X124391961Y-91758781D01*
X124440818Y-91617271D01*
X124461129Y-91468948D01*
X124452113Y-91319513D01*
X124414117Y-91174708D01*
X124391961Y-91121219D01*
X124286585Y-91063547D01*
X123910132Y-91440000D01*
X123485868Y-91440000D01*
X123109415Y-91063547D01*
X123004039Y-91121219D01*
X122955182Y-91262729D01*
X122934871Y-91411052D01*
X117600875Y-91411052D01*
X117600600Y-91256200D01*
X117535600Y-91191200D01*
X115440600Y-91191200D01*
X115140600Y-91191200D01*
X113045600Y-91191200D01*
X112980600Y-91256200D01*
X112979342Y-91966200D01*
X111302000Y-91966200D01*
X111302000Y-91463706D01*
X111307600Y-91464258D01*
X111392600Y-91463000D01*
X111457600Y-91398000D01*
X111457600Y-90828000D01*
X111757600Y-90828000D01*
X111757600Y-91398000D01*
X111822600Y-91463000D01*
X111907600Y-91464258D01*
X111958569Y-91459238D01*
X112007579Y-91444371D01*
X112052747Y-91420228D01*
X112092337Y-91387737D01*
X112124828Y-91348147D01*
X112148971Y-91302979D01*
X112163838Y-91253969D01*
X112168858Y-91203000D01*
X112168047Y-91003000D01*
X118135742Y-91003000D01*
X118137000Y-91238000D01*
X118202000Y-91303000D01*
X118722000Y-91303000D01*
X118722000Y-90808000D01*
X119022000Y-90808000D01*
X119022000Y-91303000D01*
X119542000Y-91303000D01*
X119607000Y-91238000D01*
X119608258Y-91003000D01*
X119659742Y-91003000D01*
X119661000Y-91238000D01*
X119726000Y-91303000D01*
X120246000Y-91303000D01*
X120246000Y-90808000D01*
X120546000Y-90808000D01*
X120546000Y-91303000D01*
X120947000Y-91303000D01*
X121000000Y-91356000D01*
X121770000Y-91356000D01*
X121770000Y-90811000D01*
X122070000Y-90811000D01*
X122070000Y-91356000D01*
X122840000Y-91356000D01*
X122905000Y-91291000D01*
X122906258Y-91006000D01*
X122901238Y-90955031D01*
X122886371Y-90906021D01*
X122862228Y-90860853D01*
X122854483Y-90851415D01*
X123321547Y-90851415D01*
X123698000Y-91227868D01*
X124074453Y-90851415D01*
X124016781Y-90746039D01*
X123875271Y-90697182D01*
X123726948Y-90676871D01*
X123577513Y-90685887D01*
X123432708Y-90723883D01*
X123379219Y-90746039D01*
X123321547Y-90851415D01*
X122854483Y-90851415D01*
X122829737Y-90821263D01*
X122790147Y-90788772D01*
X122744979Y-90764629D01*
X122695969Y-90749762D01*
X122645000Y-90744742D01*
X122135000Y-90746000D01*
X122070000Y-90811000D01*
X121770000Y-90811000D01*
X121705000Y-90746000D01*
X121195000Y-90744742D01*
X121144031Y-90749762D01*
X121095021Y-90764629D01*
X121049853Y-90788772D01*
X121034828Y-90801103D01*
X121016147Y-90785772D01*
X120970979Y-90761629D01*
X120921969Y-90746762D01*
X120871000Y-90741742D01*
X120611000Y-90743000D01*
X120546000Y-90808000D01*
X120246000Y-90808000D01*
X120181000Y-90743000D01*
X119921000Y-90741742D01*
X119870031Y-90746762D01*
X119821021Y-90761629D01*
X119775853Y-90785772D01*
X119736263Y-90818263D01*
X119703772Y-90857853D01*
X119679629Y-90903021D01*
X119664762Y-90952031D01*
X119659742Y-91003000D01*
X119608258Y-91003000D01*
X119603238Y-90952031D01*
X119588371Y-90903021D01*
X119564228Y-90857853D01*
X119531737Y-90818263D01*
X119492147Y-90785772D01*
X119446979Y-90761629D01*
X119397969Y-90746762D01*
X119347000Y-90741742D01*
X119087000Y-90743000D01*
X119022000Y-90808000D01*
X118722000Y-90808000D01*
X118657000Y-90743000D01*
X118397000Y-90741742D01*
X118346031Y-90746762D01*
X118297021Y-90761629D01*
X118251853Y-90785772D01*
X118212263Y-90818263D01*
X118179772Y-90857853D01*
X118155629Y-90903021D01*
X118140762Y-90952031D01*
X118135742Y-91003000D01*
X112168047Y-91003000D01*
X112167600Y-90893000D01*
X112102600Y-90828000D01*
X111757600Y-90828000D01*
X111457600Y-90828000D01*
X111437600Y-90828000D01*
X111437600Y-90528000D01*
X111457600Y-90528000D01*
X111457600Y-90508000D01*
X111757600Y-90508000D01*
X111757600Y-90528000D01*
X112102600Y-90528000D01*
X112167600Y-90463000D01*
X112168586Y-90220000D01*
X112979526Y-90220000D01*
X112980600Y-90826200D01*
X113045600Y-90891200D01*
X115140600Y-90891200D01*
X115140600Y-90871200D01*
X115440600Y-90871200D01*
X115440600Y-90891200D01*
X117535600Y-90891200D01*
X117600600Y-90826200D01*
X117601674Y-90220000D01*
X117835290Y-90220000D01*
X118328645Y-90713355D01*
X118336221Y-90719573D01*
X118344866Y-90724194D01*
X118354245Y-90727039D01*
X118364000Y-90728000D01*
X121539000Y-90728000D01*
X121548755Y-90727039D01*
X121558134Y-90724194D01*
X121566779Y-90719573D01*
X121571540Y-90715963D01*
X122460540Y-89953963D01*
X122467321Y-89946885D01*
X122472590Y-89938621D01*
X122476147Y-89929487D01*
X122478000Y-89916000D01*
X122478000Y-88244000D01*
X122780742Y-88244000D01*
X122785762Y-88294969D01*
X122800629Y-88343979D01*
X122824772Y-88389147D01*
X122857263Y-88428737D01*
X122896853Y-88461228D01*
X122942021Y-88485371D01*
X122991031Y-88500238D01*
X123042000Y-88505258D01*
X123427000Y-88504000D01*
X123492000Y-88439000D01*
X123492000Y-87694000D01*
X123792000Y-87694000D01*
X123792000Y-88439000D01*
X123857000Y-88504000D01*
X124242000Y-88505258D01*
X124292969Y-88500238D01*
X124341979Y-88485371D01*
X124387147Y-88461228D01*
X124426737Y-88428737D01*
X124459228Y-88389147D01*
X124483371Y-88343979D01*
X124498238Y-88294969D01*
X124503258Y-88244000D01*
X124502000Y-87759000D01*
X124437000Y-87694000D01*
X123792000Y-87694000D01*
X123492000Y-87694000D01*
X122847000Y-87694000D01*
X122782000Y-87759000D01*
X122780742Y-88244000D01*
X122478000Y-88244000D01*
X122478000Y-86888710D01*
X122522710Y-86844000D01*
X122780742Y-86844000D01*
X122782000Y-87329000D01*
X122847000Y-87394000D01*
X123492000Y-87394000D01*
X123492000Y-86649000D01*
X123792000Y-86649000D01*
X123792000Y-87394000D01*
X124437000Y-87394000D01*
X124502000Y-87329000D01*
X124503258Y-86844000D01*
X124498238Y-86793031D01*
X124483371Y-86744021D01*
X124459228Y-86698853D01*
X124426737Y-86659263D01*
X124387147Y-86626772D01*
X124341979Y-86602629D01*
X124292969Y-86587762D01*
X124242000Y-86582742D01*
X123857000Y-86584000D01*
X123792000Y-86649000D01*
X123492000Y-86649000D01*
X123427000Y-86584000D01*
X123042000Y-86582742D01*
X122991031Y-86587762D01*
X122942021Y-86602629D01*
X122896853Y-86626772D01*
X122857263Y-86659263D01*
X122824772Y-86698853D01*
X122800629Y-86744021D01*
X122785762Y-86793031D01*
X122780742Y-86844000D01*
X122522710Y-86844000D01*
X122956710Y-86410000D01*
X124185290Y-86410000D01*
X124664000Y-86888710D01*
G37*
%TD.AperFunction*%
%TD*%
%TO.N,Net-(D1-Pad2)*%
X117298000Y-93238710D02*
X117298000Y-93504971D01*
X115505600Y-93506200D01*
X115440600Y-93571200D01*
X115440600Y-94541200D01*
X117535600Y-94541200D01*
X117560045Y-94516755D01*
X117566645Y-94523355D01*
X117574221Y-94529573D01*
X117582866Y-94534194D01*
X117592245Y-94537039D01*
X117602000Y-94538000D01*
X118215769Y-94538000D01*
X118172219Y-94556039D01*
X118114547Y-94661415D01*
X118491000Y-95037868D01*
X118867453Y-94661415D01*
X118809781Y-94556039D01*
X118757533Y-94538000D01*
X119105290Y-94538000D01*
X119457000Y-94889710D01*
X119457000Y-95737290D01*
X119352244Y-95842046D01*
X118865689Y-95841808D01*
X118867453Y-95838585D01*
X118491000Y-95462132D01*
X118114547Y-95838585D01*
X118116110Y-95841441D01*
X117471345Y-95841126D01*
X117485747Y-95833428D01*
X117525337Y-95800937D01*
X117557828Y-95761347D01*
X117581971Y-95716179D01*
X117596838Y-95667169D01*
X117601858Y-95616200D01*
X117601158Y-95221052D01*
X117727871Y-95221052D01*
X117736887Y-95370487D01*
X117774883Y-95515292D01*
X117797039Y-95568781D01*
X117902415Y-95626453D01*
X118278868Y-95250000D01*
X118703132Y-95250000D01*
X119079585Y-95626453D01*
X119184961Y-95568781D01*
X119233818Y-95427271D01*
X119254129Y-95278948D01*
X119245113Y-95129513D01*
X119207117Y-94984708D01*
X119184961Y-94931219D01*
X119079585Y-94873547D01*
X118703132Y-95250000D01*
X118278868Y-95250000D01*
X117902415Y-94873547D01*
X117797039Y-94931219D01*
X117748182Y-95072729D01*
X117727871Y-95221052D01*
X117601158Y-95221052D01*
X117600600Y-94906200D01*
X117535600Y-94841200D01*
X115440600Y-94841200D01*
X115440600Y-94861200D01*
X115140600Y-94861200D01*
X115140600Y-94841200D01*
X113045600Y-94841200D01*
X112980600Y-94906200D01*
X112979342Y-95616200D01*
X112984362Y-95667169D01*
X112999229Y-95716179D01*
X113023372Y-95761347D01*
X113055863Y-95800937D01*
X113095453Y-95833428D01*
X113105862Y-95838992D01*
X112304367Y-95838600D01*
X112307371Y-95832979D01*
X112322238Y-95783969D01*
X112327258Y-95733000D01*
X112326000Y-95338000D01*
X112261000Y-95273000D01*
X111656000Y-95273000D01*
X111656000Y-95293000D01*
X111356000Y-95293000D01*
X111356000Y-95273000D01*
X110751000Y-95273000D01*
X110686000Y-95338000D01*
X110684742Y-95733000D01*
X110689762Y-95783969D01*
X110704629Y-95832979D01*
X110707216Y-95837819D01*
X110540000Y-95837737D01*
X110540000Y-94513000D01*
X110684742Y-94513000D01*
X110686000Y-94908000D01*
X110751000Y-94973000D01*
X111356000Y-94973000D01*
X111356000Y-94318000D01*
X111656000Y-94318000D01*
X111656000Y-94973000D01*
X112261000Y-94973000D01*
X112326000Y-94908000D01*
X112327258Y-94513000D01*
X112322238Y-94462031D01*
X112307371Y-94413021D01*
X112283228Y-94367853D01*
X112250737Y-94328263D01*
X112211147Y-94295772D01*
X112165979Y-94271629D01*
X112116969Y-94256762D01*
X112066000Y-94251742D01*
X111721000Y-94253000D01*
X111656000Y-94318000D01*
X111356000Y-94318000D01*
X111291000Y-94253000D01*
X110946000Y-94251742D01*
X110895031Y-94256762D01*
X110846021Y-94271629D01*
X110800853Y-94295772D01*
X110761263Y-94328263D01*
X110728772Y-94367853D01*
X110704629Y-94413021D01*
X110689762Y-94462031D01*
X110684742Y-94513000D01*
X110540000Y-94513000D01*
X110540000Y-94104451D01*
X110957600Y-94104451D01*
X111016410Y-94098659D01*
X111072960Y-94081504D01*
X111125077Y-94053647D01*
X111164479Y-94021311D01*
X111207621Y-94044371D01*
X111256631Y-94059238D01*
X111307600Y-94064258D01*
X111392600Y-94063000D01*
X111457600Y-93998000D01*
X111457600Y-93428000D01*
X111757600Y-93428000D01*
X111757600Y-93998000D01*
X111822600Y-94063000D01*
X111907600Y-94064258D01*
X111958569Y-94059238D01*
X112007579Y-94044371D01*
X112052747Y-94020228D01*
X112092337Y-93987737D01*
X112124828Y-93948147D01*
X112148971Y-93902979D01*
X112163838Y-93853969D01*
X112168858Y-93803000D01*
X112168709Y-93766200D01*
X112979342Y-93766200D01*
X112980600Y-94476200D01*
X113045600Y-94541200D01*
X115140600Y-94541200D01*
X115140600Y-93571200D01*
X115075600Y-93506200D01*
X113240600Y-93504942D01*
X113189631Y-93509962D01*
X113140621Y-93524829D01*
X113095453Y-93548972D01*
X113055863Y-93581463D01*
X113023372Y-93621053D01*
X112999229Y-93666221D01*
X112984362Y-93715231D01*
X112979342Y-93766200D01*
X112168709Y-93766200D01*
X112167600Y-93493000D01*
X112102600Y-93428000D01*
X111757600Y-93428000D01*
X111457600Y-93428000D01*
X111437600Y-93428000D01*
X111437600Y-93128000D01*
X111457600Y-93128000D01*
X111457600Y-93108000D01*
X111757600Y-93108000D01*
X111757600Y-93128000D01*
X112102600Y-93128000D01*
X112167600Y-93063000D01*
X112168830Y-92760000D01*
X116819290Y-92760000D01*
X117298000Y-93238710D01*
%TA.AperFunction,Conductor*%
G36*
X117298000Y-93238710D02*
G01*
X117298000Y-93504971D01*
X115505600Y-93506200D01*
X115440600Y-93571200D01*
X115440600Y-94541200D01*
X117535600Y-94541200D01*
X117560045Y-94516755D01*
X117566645Y-94523355D01*
X117574221Y-94529573D01*
X117582866Y-94534194D01*
X117592245Y-94537039D01*
X117602000Y-94538000D01*
X118215769Y-94538000D01*
X118172219Y-94556039D01*
X118114547Y-94661415D01*
X118491000Y-95037868D01*
X118867453Y-94661415D01*
X118809781Y-94556039D01*
X118757533Y-94538000D01*
X119105290Y-94538000D01*
X119457000Y-94889710D01*
X119457000Y-95737290D01*
X119352244Y-95842046D01*
X118865689Y-95841808D01*
X118867453Y-95838585D01*
X118491000Y-95462132D01*
X118114547Y-95838585D01*
X118116110Y-95841441D01*
X117471345Y-95841126D01*
X117485747Y-95833428D01*
X117525337Y-95800937D01*
X117557828Y-95761347D01*
X117581971Y-95716179D01*
X117596838Y-95667169D01*
X117601858Y-95616200D01*
X117601158Y-95221052D01*
X117727871Y-95221052D01*
X117736887Y-95370487D01*
X117774883Y-95515292D01*
X117797039Y-95568781D01*
X117902415Y-95626453D01*
X118278868Y-95250000D01*
X118703132Y-95250000D01*
X119079585Y-95626453D01*
X119184961Y-95568781D01*
X119233818Y-95427271D01*
X119254129Y-95278948D01*
X119245113Y-95129513D01*
X119207117Y-94984708D01*
X119184961Y-94931219D01*
X119079585Y-94873547D01*
X118703132Y-95250000D01*
X118278868Y-95250000D01*
X117902415Y-94873547D01*
X117797039Y-94931219D01*
X117748182Y-95072729D01*
X117727871Y-95221052D01*
X117601158Y-95221052D01*
X117600600Y-94906200D01*
X117535600Y-94841200D01*
X115440600Y-94841200D01*
X115440600Y-94861200D01*
X115140600Y-94861200D01*
X115140600Y-94841200D01*
X113045600Y-94841200D01*
X112980600Y-94906200D01*
X112979342Y-95616200D01*
X112984362Y-95667169D01*
X112999229Y-95716179D01*
X113023372Y-95761347D01*
X113055863Y-95800937D01*
X113095453Y-95833428D01*
X113105862Y-95838992D01*
X112304367Y-95838600D01*
X112307371Y-95832979D01*
X112322238Y-95783969D01*
X112327258Y-95733000D01*
X112326000Y-95338000D01*
X112261000Y-95273000D01*
X111656000Y-95273000D01*
X111656000Y-95293000D01*
X111356000Y-95293000D01*
X111356000Y-95273000D01*
X110751000Y-95273000D01*
X110686000Y-95338000D01*
X110684742Y-95733000D01*
X110689762Y-95783969D01*
X110704629Y-95832979D01*
X110707216Y-95837819D01*
X110540000Y-95837737D01*
X110540000Y-94513000D01*
X110684742Y-94513000D01*
X110686000Y-94908000D01*
X110751000Y-94973000D01*
X111356000Y-94973000D01*
X111356000Y-94318000D01*
X111656000Y-94318000D01*
X111656000Y-94973000D01*
X112261000Y-94973000D01*
X112326000Y-94908000D01*
X112327258Y-94513000D01*
X112322238Y-94462031D01*
X112307371Y-94413021D01*
X112283228Y-94367853D01*
X112250737Y-94328263D01*
X112211147Y-94295772D01*
X112165979Y-94271629D01*
X112116969Y-94256762D01*
X112066000Y-94251742D01*
X111721000Y-94253000D01*
X111656000Y-94318000D01*
X111356000Y-94318000D01*
X111291000Y-94253000D01*
X110946000Y-94251742D01*
X110895031Y-94256762D01*
X110846021Y-94271629D01*
X110800853Y-94295772D01*
X110761263Y-94328263D01*
X110728772Y-94367853D01*
X110704629Y-94413021D01*
X110689762Y-94462031D01*
X110684742Y-94513000D01*
X110540000Y-94513000D01*
X110540000Y-94104451D01*
X110957600Y-94104451D01*
X111016410Y-94098659D01*
X111072960Y-94081504D01*
X111125077Y-94053647D01*
X111164479Y-94021311D01*
X111207621Y-94044371D01*
X111256631Y-94059238D01*
X111307600Y-94064258D01*
X111392600Y-94063000D01*
X111457600Y-93998000D01*
X111457600Y-93428000D01*
X111757600Y-93428000D01*
X111757600Y-93998000D01*
X111822600Y-94063000D01*
X111907600Y-94064258D01*
X111958569Y-94059238D01*
X112007579Y-94044371D01*
X112052747Y-94020228D01*
X112092337Y-93987737D01*
X112124828Y-93948147D01*
X112148971Y-93902979D01*
X112163838Y-93853969D01*
X112168858Y-93803000D01*
X112168709Y-93766200D01*
X112979342Y-93766200D01*
X112980600Y-94476200D01*
X113045600Y-94541200D01*
X115140600Y-94541200D01*
X115140600Y-93571200D01*
X115075600Y-93506200D01*
X113240600Y-93504942D01*
X113189631Y-93509962D01*
X113140621Y-93524829D01*
X113095453Y-93548972D01*
X113055863Y-93581463D01*
X113023372Y-93621053D01*
X112999229Y-93666221D01*
X112984362Y-93715231D01*
X112979342Y-93766200D01*
X112168709Y-93766200D01*
X112167600Y-93493000D01*
X112102600Y-93428000D01*
X111757600Y-93428000D01*
X111457600Y-93428000D01*
X111437600Y-93428000D01*
X111437600Y-93128000D01*
X111457600Y-93128000D01*
X111457600Y-93108000D01*
X111757600Y-93108000D01*
X111757600Y-93128000D01*
X112102600Y-93128000D01*
X112167600Y-93063000D01*
X112168830Y-92760000D01*
X116819290Y-92760000D01*
X117298000Y-93238710D01*
G37*
%TD.AperFunction*%
%TD*%
%TO.N,Net-(IC1-Pad3)*%
X107688629Y-91373021D02*
X107673762Y-91422031D01*
X107668742Y-91473000D01*
X107670000Y-91733000D01*
X107735000Y-91798000D01*
X108180000Y-91798000D01*
X108180000Y-91778000D01*
X108480000Y-91778000D01*
X108480000Y-91798000D01*
X108925000Y-91798000D01*
X108990000Y-91733000D01*
X108991258Y-91473000D01*
X108986238Y-91422031D01*
X108971371Y-91373021D01*
X108966015Y-91363000D01*
X109215498Y-91363000D01*
X109229968Y-91380632D01*
X109268036Y-91411873D01*
X109311466Y-91435087D01*
X109358592Y-91449382D01*
X109407600Y-91454209D01*
X109932000Y-91454209D01*
X109932000Y-92492861D01*
X109922600Y-92493000D01*
X109857600Y-92558000D01*
X109857600Y-93128000D01*
X109877600Y-93128000D01*
X109877600Y-93428000D01*
X109857600Y-93428000D01*
X109857600Y-93998000D01*
X109922600Y-94063000D01*
X109932000Y-94063139D01*
X109932000Y-94184000D01*
X108712156Y-94184000D01*
X108749147Y-94164228D01*
X108788737Y-94131737D01*
X108821228Y-94092147D01*
X108845371Y-94046979D01*
X108860238Y-93997969D01*
X108865258Y-93947000D01*
X108864562Y-93803000D01*
X109146342Y-93803000D01*
X109151362Y-93853969D01*
X109166229Y-93902979D01*
X109190372Y-93948147D01*
X109222863Y-93987737D01*
X109262453Y-94020228D01*
X109307621Y-94044371D01*
X109356631Y-94059238D01*
X109407600Y-94064258D01*
X109492600Y-94063000D01*
X109557600Y-93998000D01*
X109557600Y-93428000D01*
X109212600Y-93428000D01*
X109147600Y-93493000D01*
X109146342Y-93803000D01*
X108864562Y-93803000D01*
X108864000Y-93687000D01*
X108799000Y-93622000D01*
X108354000Y-93622000D01*
X108354000Y-93642000D01*
X108054000Y-93642000D01*
X108054000Y-93622000D01*
X108034000Y-93622000D01*
X108034000Y-93322000D01*
X108054000Y-93322000D01*
X108054000Y-92802000D01*
X108354000Y-92802000D01*
X108354000Y-93322000D01*
X108799000Y-93322000D01*
X108864000Y-93257000D01*
X108865258Y-92997000D01*
X108860238Y-92946031D01*
X108845371Y-92897021D01*
X108821228Y-92851853D01*
X108788737Y-92812263D01*
X108749147Y-92779772D01*
X108703979Y-92755629D01*
X108695313Y-92753000D01*
X109146342Y-92753000D01*
X109147600Y-93063000D01*
X109212600Y-93128000D01*
X109557600Y-93128000D01*
X109557600Y-92558000D01*
X109492600Y-92493000D01*
X109407600Y-92491742D01*
X109356631Y-92496762D01*
X109307621Y-92511629D01*
X109262453Y-92535772D01*
X109222863Y-92568263D01*
X109190372Y-92607853D01*
X109166229Y-92653021D01*
X109151362Y-92702031D01*
X109146342Y-92753000D01*
X108695313Y-92753000D01*
X108654969Y-92740762D01*
X108604000Y-92735742D01*
X108419000Y-92737000D01*
X108354000Y-92802000D01*
X108054000Y-92802000D01*
X107989000Y-92737000D01*
X107804000Y-92735742D01*
X107753031Y-92740762D01*
X107704021Y-92755629D01*
X107658853Y-92779772D01*
X107619263Y-92812263D01*
X107619000Y-92812583D01*
X107619000Y-92423000D01*
X107668742Y-92423000D01*
X107673762Y-92473969D01*
X107688629Y-92522979D01*
X107712772Y-92568147D01*
X107745263Y-92607737D01*
X107784853Y-92640228D01*
X107830021Y-92664371D01*
X107879031Y-92679238D01*
X107930000Y-92684258D01*
X108115000Y-92683000D01*
X108180000Y-92618000D01*
X108180000Y-92098000D01*
X108480000Y-92098000D01*
X108480000Y-92618000D01*
X108545000Y-92683000D01*
X108730000Y-92684258D01*
X108780969Y-92679238D01*
X108829979Y-92664371D01*
X108875147Y-92640228D01*
X108914737Y-92607737D01*
X108947228Y-92568147D01*
X108971371Y-92522979D01*
X108986238Y-92473969D01*
X108991258Y-92423000D01*
X108990000Y-92163000D01*
X108925000Y-92098000D01*
X108480000Y-92098000D01*
X108180000Y-92098000D01*
X107735000Y-92098000D01*
X107670000Y-92163000D01*
X107668742Y-92423000D01*
X107619000Y-92423000D01*
X107619000Y-91363000D01*
X107693985Y-91363000D01*
X107688629Y-91373021D01*
%TA.AperFunction,Conductor*%
G36*
X107688629Y-91373021D02*
G01*
X107673762Y-91422031D01*
X107668742Y-91473000D01*
X107670000Y-91733000D01*
X107735000Y-91798000D01*
X108180000Y-91798000D01*
X108180000Y-91778000D01*
X108480000Y-91778000D01*
X108480000Y-91798000D01*
X108925000Y-91798000D01*
X108990000Y-91733000D01*
X108991258Y-91473000D01*
X108986238Y-91422031D01*
X108971371Y-91373021D01*
X108966015Y-91363000D01*
X109215498Y-91363000D01*
X109229968Y-91380632D01*
X109268036Y-91411873D01*
X109311466Y-91435087D01*
X109358592Y-91449382D01*
X109407600Y-91454209D01*
X109932000Y-91454209D01*
X109932000Y-92492861D01*
X109922600Y-92493000D01*
X109857600Y-92558000D01*
X109857600Y-93128000D01*
X109877600Y-93128000D01*
X109877600Y-93428000D01*
X109857600Y-93428000D01*
X109857600Y-93998000D01*
X109922600Y-94063000D01*
X109932000Y-94063139D01*
X109932000Y-94184000D01*
X108712156Y-94184000D01*
X108749147Y-94164228D01*
X108788737Y-94131737D01*
X108821228Y-94092147D01*
X108845371Y-94046979D01*
X108860238Y-93997969D01*
X108865258Y-93947000D01*
X108864562Y-93803000D01*
X109146342Y-93803000D01*
X109151362Y-93853969D01*
X109166229Y-93902979D01*
X109190372Y-93948147D01*
X109222863Y-93987737D01*
X109262453Y-94020228D01*
X109307621Y-94044371D01*
X109356631Y-94059238D01*
X109407600Y-94064258D01*
X109492600Y-94063000D01*
X109557600Y-93998000D01*
X109557600Y-93428000D01*
X109212600Y-93428000D01*
X109147600Y-93493000D01*
X109146342Y-93803000D01*
X108864562Y-93803000D01*
X108864000Y-93687000D01*
X108799000Y-93622000D01*
X108354000Y-93622000D01*
X108354000Y-93642000D01*
X108054000Y-93642000D01*
X108054000Y-93622000D01*
X108034000Y-93622000D01*
X108034000Y-93322000D01*
X108054000Y-93322000D01*
X108054000Y-92802000D01*
X108354000Y-92802000D01*
X108354000Y-93322000D01*
X108799000Y-93322000D01*
X108864000Y-93257000D01*
X108865258Y-92997000D01*
X108860238Y-92946031D01*
X108845371Y-92897021D01*
X108821228Y-92851853D01*
X108788737Y-92812263D01*
X108749147Y-92779772D01*
X108703979Y-92755629D01*
X108695313Y-92753000D01*
X109146342Y-92753000D01*
X109147600Y-93063000D01*
X109212600Y-93128000D01*
X109557600Y-93128000D01*
X109557600Y-92558000D01*
X109492600Y-92493000D01*
X109407600Y-92491742D01*
X109356631Y-92496762D01*
X109307621Y-92511629D01*
X109262453Y-92535772D01*
X109222863Y-92568263D01*
X109190372Y-92607853D01*
X109166229Y-92653021D01*
X109151362Y-92702031D01*
X109146342Y-92753000D01*
X108695313Y-92753000D01*
X108654969Y-92740762D01*
X108604000Y-92735742D01*
X108419000Y-92737000D01*
X108354000Y-92802000D01*
X108054000Y-92802000D01*
X107989000Y-92737000D01*
X107804000Y-92735742D01*
X107753031Y-92740762D01*
X107704021Y-92755629D01*
X107658853Y-92779772D01*
X107619263Y-92812263D01*
X107619000Y-92812583D01*
X107619000Y-92423000D01*
X107668742Y-92423000D01*
X107673762Y-92473969D01*
X107688629Y-92522979D01*
X107712772Y-92568147D01*
X107745263Y-92607737D01*
X107784853Y-92640228D01*
X107830021Y-92664371D01*
X107879031Y-92679238D01*
X107930000Y-92684258D01*
X108115000Y-92683000D01*
X108180000Y-92618000D01*
X108180000Y-92098000D01*
X108480000Y-92098000D01*
X108480000Y-92618000D01*
X108545000Y-92683000D01*
X108730000Y-92684258D01*
X108780969Y-92679238D01*
X108829979Y-92664371D01*
X108875147Y-92640228D01*
X108914737Y-92607737D01*
X108947228Y-92568147D01*
X108971371Y-92522979D01*
X108986238Y-92473969D01*
X108991258Y-92423000D01*
X108990000Y-92163000D01*
X108925000Y-92098000D01*
X108480000Y-92098000D01*
X108180000Y-92098000D01*
X107735000Y-92098000D01*
X107670000Y-92163000D01*
X107668742Y-92423000D01*
X107619000Y-92423000D01*
X107619000Y-91363000D01*
X107693985Y-91363000D01*
X107688629Y-91373021D01*
G37*
%TD.AperFunction*%
%TD*%
%TO.N,+15V*%
X109932000Y-84377379D02*
X109932000Y-85953144D01*
X106905099Y-88097199D01*
X106897695Y-88103621D01*
X106891685Y-88111364D01*
X106887302Y-88120131D01*
X106884713Y-88129585D01*
X106884000Y-88138000D01*
X106884000Y-88200000D01*
X106854000Y-88230000D01*
X106854000Y-88700000D01*
X106874000Y-88700000D01*
X106874000Y-89100000D01*
X106854000Y-89100000D01*
X106854000Y-89570000D01*
X106884000Y-89600000D01*
X106884000Y-89647943D01*
X106880000Y-89647549D01*
X106480000Y-89647549D01*
X106382172Y-89657184D01*
X106288103Y-89685720D01*
X106201409Y-89732059D01*
X106125421Y-89794421D01*
X106063059Y-89870409D01*
X106016720Y-89957103D01*
X105988184Y-90051172D01*
X105978549Y-90149000D01*
X105978549Y-90699000D01*
X105988184Y-90796828D01*
X106016720Y-90890897D01*
X106063059Y-90977591D01*
X106125421Y-91053579D01*
X106130000Y-91057337D01*
X106130001Y-91314663D01*
X106125421Y-91318421D01*
X106063059Y-91394409D01*
X106016720Y-91481103D01*
X105988184Y-91575172D01*
X105978549Y-91673000D01*
X105978549Y-92223000D01*
X105988184Y-92320828D01*
X106016720Y-92414897D01*
X106063059Y-92501591D01*
X106125421Y-92577579D01*
X106201409Y-92639941D01*
X106288103Y-92686280D01*
X106382172Y-92714816D01*
X106480000Y-92724451D01*
X106880000Y-92724451D01*
X106884000Y-92724057D01*
X106884000Y-92736394D01*
X106819000Y-92737000D01*
X106754000Y-92802000D01*
X106754000Y-93272000D01*
X106774000Y-93272000D01*
X106774000Y-93672000D01*
X106754000Y-93672000D01*
X106754000Y-94142000D01*
X106819000Y-94207000D01*
X106884000Y-94207606D01*
X106884000Y-94488000D01*
X106884961Y-94497755D01*
X106887806Y-94507134D01*
X106892427Y-94515779D01*
X106898645Y-94523355D01*
X106906221Y-94529573D01*
X106914866Y-94534194D01*
X106924245Y-94537039D01*
X106934000Y-94538000D01*
X107584833Y-94538000D01*
X107586000Y-94858000D01*
X107651000Y-94923000D01*
X108206000Y-94923000D01*
X108206000Y-94903000D01*
X108606000Y-94903000D01*
X108606000Y-94923000D01*
X109161000Y-94923000D01*
X109226000Y-94858000D01*
X109227167Y-94538000D01*
X109678000Y-94538000D01*
X109678000Y-95837315D01*
X109205177Y-95837084D01*
X109207371Y-95832979D01*
X109222238Y-95783969D01*
X109227258Y-95733000D01*
X109226000Y-95388000D01*
X109161000Y-95323000D01*
X108606000Y-95323000D01*
X108606000Y-95343000D01*
X108206000Y-95343000D01*
X108206000Y-95323000D01*
X107651000Y-95323000D01*
X107586000Y-95388000D01*
X107584742Y-95733000D01*
X107589762Y-95783969D01*
X107604629Y-95832979D01*
X107606406Y-95836303D01*
X99110000Y-95832148D01*
X99110000Y-93947000D01*
X105892742Y-93947000D01*
X105897762Y-93997969D01*
X105912629Y-94046979D01*
X105936772Y-94092147D01*
X105969263Y-94131737D01*
X106008853Y-94164228D01*
X106054021Y-94188371D01*
X106103031Y-94203238D01*
X106154000Y-94208258D01*
X106289000Y-94207000D01*
X106354000Y-94142000D01*
X106354000Y-93672000D01*
X105959000Y-93672000D01*
X105894000Y-93737000D01*
X105892742Y-93947000D01*
X99110000Y-93947000D01*
X99110000Y-92997000D01*
X105892742Y-92997000D01*
X105894000Y-93207000D01*
X105959000Y-93272000D01*
X106354000Y-93272000D01*
X106354000Y-92802000D01*
X106289000Y-92737000D01*
X106154000Y-92735742D01*
X106103031Y-92740762D01*
X106054021Y-92755629D01*
X106008853Y-92779772D01*
X105969263Y-92812263D01*
X105936772Y-92851853D01*
X105912629Y-92897021D01*
X105897762Y-92946031D01*
X105892742Y-92997000D01*
X99110000Y-92997000D01*
X99110000Y-91236000D01*
X99382701Y-91236000D01*
X99382701Y-91258750D01*
X99381128Y-91274721D01*
X99387403Y-91338432D01*
X99405987Y-91399695D01*
X99436165Y-91456155D01*
X99476779Y-91505642D01*
X99526266Y-91546256D01*
X99582726Y-91576434D01*
X99643989Y-91595018D01*
X99691739Y-91599721D01*
X99691740Y-91599721D01*
X99707700Y-91601293D01*
X99723661Y-91599721D01*
X100327335Y-91599721D01*
X100402426Y-91606756D01*
X100458739Y-91623492D01*
X100510727Y-91650846D01*
X100556413Y-91687779D01*
X100594055Y-91732881D01*
X100622218Y-91784433D01*
X100639834Y-91840481D01*
X100647620Y-91911592D01*
X100647621Y-92516049D01*
X100646049Y-92531999D01*
X100647621Y-92547972D01*
X100647621Y-92547985D01*
X100648616Y-92558083D01*
X100652319Y-92595710D01*
X100652323Y-92595722D01*
X100652324Y-92595735D01*
X100659943Y-92620850D01*
X100670898Y-92656974D01*
X100670904Y-92656986D01*
X100670908Y-92656998D01*
X100684958Y-92683284D01*
X100701071Y-92713436D01*
X100701080Y-92713447D01*
X100701086Y-92713458D01*
X100720272Y-92736836D01*
X100741681Y-92762926D01*
X100741691Y-92762935D01*
X100741700Y-92762945D01*
X100767768Y-92784339D01*
X100791165Y-92803544D01*
X100791176Y-92803550D01*
X100791187Y-92803559D01*
X100821315Y-92819662D01*
X100847623Y-92833727D01*
X100847635Y-92833731D01*
X100847647Y-92833737D01*
X100879039Y-92843260D01*
X100908885Y-92852316D01*
X100908898Y-92852317D01*
X100908910Y-92852321D01*
X100948620Y-92856232D01*
X100956634Y-92857022D01*
X100956639Y-92857022D01*
X100972620Y-92858596D01*
X100988576Y-92857024D01*
X103212176Y-92857199D01*
X103228147Y-92858771D01*
X103256579Y-92855970D01*
X103291825Y-92852501D01*
X103291838Y-92852497D01*
X103291858Y-92852495D01*
X103329020Y-92841221D01*
X103353090Y-92833922D01*
X103353101Y-92833916D01*
X103353121Y-92833910D01*
X103383087Y-92817892D01*
X103409552Y-92803749D01*
X103409566Y-92803737D01*
X103409580Y-92803730D01*
X103433336Y-92784233D01*
X103459042Y-92763139D01*
X103459053Y-92763126D01*
X103459066Y-92763115D01*
X103481530Y-92735742D01*
X103499660Y-92713655D01*
X103499668Y-92713640D01*
X103499679Y-92713627D01*
X103514295Y-92686280D01*
X103529843Y-92657197D01*
X103529849Y-92657177D01*
X103529855Y-92657166D01*
X103538382Y-92629055D01*
X103548432Y-92595935D01*
X103548434Y-92595917D01*
X103548438Y-92595903D01*
X103551745Y-92562320D01*
X103554711Y-92532225D01*
X103553139Y-92516254D01*
X103553125Y-91917647D01*
X103560157Y-91842584D01*
X103576883Y-91786304D01*
X103604223Y-91734343D01*
X103641135Y-91688682D01*
X103686214Y-91651061D01*
X103737737Y-91622913D01*
X103793754Y-91605307D01*
X103866333Y-91597360D01*
X104466939Y-91597360D01*
X104482900Y-91598932D01*
X104498860Y-91597360D01*
X104498861Y-91597360D01*
X104546611Y-91592657D01*
X104607874Y-91574073D01*
X104664334Y-91543895D01*
X104713821Y-91503281D01*
X104754435Y-91453794D01*
X104784613Y-91397334D01*
X104803197Y-91336071D01*
X104806405Y-91303496D01*
X104807900Y-91288321D01*
X104807900Y-91288320D01*
X104809472Y-91272360D01*
X104807900Y-91256399D01*
X104807900Y-91236000D01*
X104902000Y-91236000D01*
X104911755Y-91235039D01*
X104921134Y-91232194D01*
X104929779Y-91227573D01*
X104937355Y-91221355D01*
X104943573Y-91213779D01*
X104948194Y-91205134D01*
X104951039Y-91195755D01*
X104952000Y-91186000D01*
X104952000Y-89375000D01*
X105942742Y-89375000D01*
X105947762Y-89425969D01*
X105962629Y-89474979D01*
X105986772Y-89520147D01*
X106019263Y-89559737D01*
X106058853Y-89592228D01*
X106104021Y-89616371D01*
X106153031Y-89631238D01*
X106204000Y-89636258D01*
X106389000Y-89635000D01*
X106454000Y-89570000D01*
X106454000Y-89100000D01*
X106009000Y-89100000D01*
X105944000Y-89165000D01*
X105942742Y-89375000D01*
X104952000Y-89375000D01*
X104952000Y-88425000D01*
X105942742Y-88425000D01*
X105944000Y-88635000D01*
X106009000Y-88700000D01*
X106454000Y-88700000D01*
X106454000Y-88230000D01*
X106389000Y-88165000D01*
X106204000Y-88163742D01*
X106153031Y-88168762D01*
X106104021Y-88183629D01*
X106058853Y-88207772D01*
X106019263Y-88240263D01*
X105986772Y-88279853D01*
X105962629Y-88325021D01*
X105947762Y-88374031D01*
X105942742Y-88425000D01*
X104952000Y-88425000D01*
X104952000Y-84315129D01*
X109932000Y-84377379D01*
%TA.AperFunction,Conductor*%
G36*
X109932000Y-84377379D02*
G01*
X109932000Y-85953144D01*
X106905099Y-88097199D01*
X106897695Y-88103621D01*
X106891685Y-88111364D01*
X106887302Y-88120131D01*
X106884713Y-88129585D01*
X106884000Y-88138000D01*
X106884000Y-88200000D01*
X106854000Y-88230000D01*
X106854000Y-88700000D01*
X106874000Y-88700000D01*
X106874000Y-89100000D01*
X106854000Y-89100000D01*
X106854000Y-89570000D01*
X106884000Y-89600000D01*
X106884000Y-89647943D01*
X106880000Y-89647549D01*
X106480000Y-89647549D01*
X106382172Y-89657184D01*
X106288103Y-89685720D01*
X106201409Y-89732059D01*
X106125421Y-89794421D01*
X106063059Y-89870409D01*
X106016720Y-89957103D01*
X105988184Y-90051172D01*
X105978549Y-90149000D01*
X105978549Y-90699000D01*
X105988184Y-90796828D01*
X106016720Y-90890897D01*
X106063059Y-90977591D01*
X106125421Y-91053579D01*
X106130000Y-91057337D01*
X106130001Y-91314663D01*
X106125421Y-91318421D01*
X106063059Y-91394409D01*
X106016720Y-91481103D01*
X105988184Y-91575172D01*
X105978549Y-91673000D01*
X105978549Y-92223000D01*
X105988184Y-92320828D01*
X106016720Y-92414897D01*
X106063059Y-92501591D01*
X106125421Y-92577579D01*
X106201409Y-92639941D01*
X106288103Y-92686280D01*
X106382172Y-92714816D01*
X106480000Y-92724451D01*
X106880000Y-92724451D01*
X106884000Y-92724057D01*
X106884000Y-92736394D01*
X106819000Y-92737000D01*
X106754000Y-92802000D01*
X106754000Y-93272000D01*
X106774000Y-93272000D01*
X106774000Y-93672000D01*
X106754000Y-93672000D01*
X106754000Y-94142000D01*
X106819000Y-94207000D01*
X106884000Y-94207606D01*
X106884000Y-94488000D01*
X106884961Y-94497755D01*
X106887806Y-94507134D01*
X106892427Y-94515779D01*
X106898645Y-94523355D01*
X106906221Y-94529573D01*
X106914866Y-94534194D01*
X106924245Y-94537039D01*
X106934000Y-94538000D01*
X107584833Y-94538000D01*
X107586000Y-94858000D01*
X107651000Y-94923000D01*
X108206000Y-94923000D01*
X108206000Y-94903000D01*
X108606000Y-94903000D01*
X108606000Y-94923000D01*
X109161000Y-94923000D01*
X109226000Y-94858000D01*
X109227167Y-94538000D01*
X109678000Y-94538000D01*
X109678000Y-95837315D01*
X109205177Y-95837084D01*
X109207371Y-95832979D01*
X109222238Y-95783969D01*
X109227258Y-95733000D01*
X109226000Y-95388000D01*
X109161000Y-95323000D01*
X108606000Y-95323000D01*
X108606000Y-95343000D01*
X108206000Y-95343000D01*
X108206000Y-95323000D01*
X107651000Y-95323000D01*
X107586000Y-95388000D01*
X107584742Y-95733000D01*
X107589762Y-95783969D01*
X107604629Y-95832979D01*
X107606406Y-95836303D01*
X99110000Y-95832148D01*
X99110000Y-93947000D01*
X105892742Y-93947000D01*
X105897762Y-93997969D01*
X105912629Y-94046979D01*
X105936772Y-94092147D01*
X105969263Y-94131737D01*
X106008853Y-94164228D01*
X106054021Y-94188371D01*
X106103031Y-94203238D01*
X106154000Y-94208258D01*
X106289000Y-94207000D01*
X106354000Y-94142000D01*
X106354000Y-93672000D01*
X105959000Y-93672000D01*
X105894000Y-93737000D01*
X105892742Y-93947000D01*
X99110000Y-93947000D01*
X99110000Y-92997000D01*
X105892742Y-92997000D01*
X105894000Y-93207000D01*
X105959000Y-93272000D01*
X106354000Y-93272000D01*
X106354000Y-92802000D01*
X106289000Y-92737000D01*
X106154000Y-92735742D01*
X106103031Y-92740762D01*
X106054021Y-92755629D01*
X106008853Y-92779772D01*
X105969263Y-92812263D01*
X105936772Y-92851853D01*
X105912629Y-92897021D01*
X105897762Y-92946031D01*
X105892742Y-92997000D01*
X99110000Y-92997000D01*
X99110000Y-91236000D01*
X99382701Y-91236000D01*
X99382701Y-91258750D01*
X99381128Y-91274721D01*
X99387403Y-91338432D01*
X99405987Y-91399695D01*
X99436165Y-91456155D01*
X99476779Y-91505642D01*
X99526266Y-91546256D01*
X99582726Y-91576434D01*
X99643989Y-91595018D01*
X99691739Y-91599721D01*
X99691740Y-91599721D01*
X99707700Y-91601293D01*
X99723661Y-91599721D01*
X100327335Y-91599721D01*
X100402426Y-91606756D01*
X100458739Y-91623492D01*
X100510727Y-91650846D01*
X100556413Y-91687779D01*
X100594055Y-91732881D01*
X100622218Y-91784433D01*
X100639834Y-91840481D01*
X100647620Y-91911592D01*
X100647621Y-92516049D01*
X100646049Y-92531999D01*
X100647621Y-92547972D01*
X100647621Y-92547985D01*
X100648616Y-92558083D01*
X100652319Y-92595710D01*
X100652323Y-92595722D01*
X100652324Y-92595735D01*
X100659943Y-92620850D01*
X100670898Y-92656974D01*
X100670904Y-92656986D01*
X100670908Y-92656998D01*
X100684958Y-92683284D01*
X100701071Y-92713436D01*
X100701080Y-92713447D01*
X100701086Y-92713458D01*
X100720272Y-92736836D01*
X100741681Y-92762926D01*
X100741691Y-92762935D01*
X100741700Y-92762945D01*
X100767768Y-92784339D01*
X100791165Y-92803544D01*
X100791176Y-92803550D01*
X100791187Y-92803559D01*
X100821315Y-92819662D01*
X100847623Y-92833727D01*
X100847635Y-92833731D01*
X100847647Y-92833737D01*
X100879039Y-92843260D01*
X100908885Y-92852316D01*
X100908898Y-92852317D01*
X100908910Y-92852321D01*
X100948620Y-92856232D01*
X100956634Y-92857022D01*
X100956639Y-92857022D01*
X100972620Y-92858596D01*
X100988576Y-92857024D01*
X103212176Y-92857199D01*
X103228147Y-92858771D01*
X103256579Y-92855970D01*
X103291825Y-92852501D01*
X103291838Y-92852497D01*
X103291858Y-92852495D01*
X103329020Y-92841221D01*
X103353090Y-92833922D01*
X103353101Y-92833916D01*
X103353121Y-92833910D01*
X103383087Y-92817892D01*
X103409552Y-92803749D01*
X103409566Y-92803737D01*
X103409580Y-92803730D01*
X103433336Y-92784233D01*
X103459042Y-92763139D01*
X103459053Y-92763126D01*
X103459066Y-92763115D01*
X103481530Y-92735742D01*
X103499660Y-92713655D01*
X103499668Y-92713640D01*
X103499679Y-92713627D01*
X103514295Y-92686280D01*
X103529843Y-92657197D01*
X103529849Y-92657177D01*
X103529855Y-92657166D01*
X103538382Y-92629055D01*
X103548432Y-92595935D01*
X103548434Y-92595917D01*
X103548438Y-92595903D01*
X103551745Y-92562320D01*
X103554711Y-92532225D01*
X103553139Y-92516254D01*
X103553125Y-91917647D01*
X103560157Y-91842584D01*
X103576883Y-91786304D01*
X103604223Y-91734343D01*
X103641135Y-91688682D01*
X103686214Y-91651061D01*
X103737737Y-91622913D01*
X103793754Y-91605307D01*
X103866333Y-91597360D01*
X104466939Y-91597360D01*
X104482900Y-91598932D01*
X104498860Y-91597360D01*
X104498861Y-91597360D01*
X104546611Y-91592657D01*
X104607874Y-91574073D01*
X104664334Y-91543895D01*
X104713821Y-91503281D01*
X104754435Y-91453794D01*
X104784613Y-91397334D01*
X104803197Y-91336071D01*
X104806405Y-91303496D01*
X104807900Y-91288321D01*
X104807900Y-91288320D01*
X104809472Y-91272360D01*
X104807900Y-91256399D01*
X104807900Y-91236000D01*
X104902000Y-91236000D01*
X104911755Y-91235039D01*
X104921134Y-91232194D01*
X104929779Y-91227573D01*
X104937355Y-91221355D01*
X104943573Y-91213779D01*
X104948194Y-91205134D01*
X104951039Y-91195755D01*
X104952000Y-91186000D01*
X104952000Y-89375000D01*
X105942742Y-89375000D01*
X105947762Y-89425969D01*
X105962629Y-89474979D01*
X105986772Y-89520147D01*
X106019263Y-89559737D01*
X106058853Y-89592228D01*
X106104021Y-89616371D01*
X106153031Y-89631238D01*
X106204000Y-89636258D01*
X106389000Y-89635000D01*
X106454000Y-89570000D01*
X106454000Y-89100000D01*
X106009000Y-89100000D01*
X105944000Y-89165000D01*
X105942742Y-89375000D01*
X104952000Y-89375000D01*
X104952000Y-88425000D01*
X105942742Y-88425000D01*
X105944000Y-88635000D01*
X106009000Y-88700000D01*
X106454000Y-88700000D01*
X106454000Y-88230000D01*
X106389000Y-88165000D01*
X106204000Y-88163742D01*
X106153031Y-88168762D01*
X106104021Y-88183629D01*
X106058853Y-88207772D01*
X106019263Y-88240263D01*
X105986772Y-88279853D01*
X105962629Y-88325021D01*
X105947762Y-88374031D01*
X105942742Y-88425000D01*
X104952000Y-88425000D01*
X104952000Y-84315129D01*
X109932000Y-84377379D01*
G37*
%TD.AperFunction*%
%TD*%
%TO.N,GND*%
X137290528Y-95800818D02*
X119811000Y-95792271D01*
X119811000Y-95610787D01*
X123366056Y-95610787D01*
X123426592Y-95709821D01*
X123571067Y-95749054D01*
X123720419Y-95759348D01*
X123868910Y-95740307D01*
X123969408Y-95709821D01*
X124029944Y-95610787D01*
X123698000Y-95278843D01*
X123366056Y-95610787D01*
X119811000Y-95610787D01*
X119811000Y-95018419D01*
X122934652Y-95018419D01*
X122953693Y-95166910D01*
X122984179Y-95267408D01*
X123083213Y-95327944D01*
X123415157Y-94996000D01*
X123980843Y-94996000D01*
X124312787Y-95327944D01*
X124411821Y-95267408D01*
X124451054Y-95122933D01*
X124461348Y-94973581D01*
X124442307Y-94825090D01*
X124411821Y-94724592D01*
X124312787Y-94664056D01*
X123980843Y-94996000D01*
X123415157Y-94996000D01*
X123083213Y-94664056D01*
X122984179Y-94724592D01*
X122944946Y-94869067D01*
X122934652Y-95018419D01*
X119811000Y-95018419D01*
X119811000Y-94742000D01*
X119810039Y-94732245D01*
X119807194Y-94722866D01*
X119802573Y-94714221D01*
X119796355Y-94706645D01*
X119470923Y-94381213D01*
X123366056Y-94381213D01*
X123698000Y-94713157D01*
X124029944Y-94381213D01*
X123969408Y-94282179D01*
X123824933Y-94242946D01*
X123675581Y-94232652D01*
X123527090Y-94251693D01*
X123426592Y-94282179D01*
X123366056Y-94381213D01*
X119470923Y-94381213D01*
X119415355Y-94325645D01*
X119407779Y-94319427D01*
X119399134Y-94314806D01*
X119389755Y-94311961D01*
X119380000Y-94311000D01*
X118763839Y-94311000D01*
X118781747Y-94301428D01*
X118821337Y-94268937D01*
X118853828Y-94229347D01*
X118877971Y-94184179D01*
X118892838Y-94135169D01*
X118897858Y-94084200D01*
X118896600Y-93924200D01*
X118878400Y-93906000D01*
X120933742Y-93906000D01*
X120938762Y-93956969D01*
X120953629Y-94005979D01*
X120977772Y-94051147D01*
X121010263Y-94090737D01*
X121049853Y-94123228D01*
X121095021Y-94147371D01*
X121144031Y-94162238D01*
X121195000Y-94167258D01*
X121655000Y-94166000D01*
X121720000Y-94101000D01*
X121720000Y-93606000D01*
X122120000Y-93606000D01*
X122120000Y-94101000D01*
X122185000Y-94166000D01*
X122645000Y-94167258D01*
X122695969Y-94162238D01*
X122744979Y-94147371D01*
X122790147Y-94123228D01*
X122829737Y-94090737D01*
X122862228Y-94051147D01*
X122886371Y-94005979D01*
X122901238Y-93956969D01*
X122906258Y-93906000D01*
X122905295Y-93726000D01*
X126660385Y-93726000D01*
X126678805Y-93913017D01*
X126733355Y-94092846D01*
X126821941Y-94258578D01*
X126941157Y-94403843D01*
X127086422Y-94523059D01*
X127252154Y-94611645D01*
X127431983Y-94666195D01*
X127572144Y-94680000D01*
X128873856Y-94680000D01*
X129014017Y-94666195D01*
X129193846Y-94611645D01*
X129359578Y-94523059D01*
X129504843Y-94403843D01*
X129624059Y-94258578D01*
X129712645Y-94092846D01*
X129767195Y-93913017D01*
X129785615Y-93726000D01*
X129775915Y-93627509D01*
X132223000Y-93627509D01*
X132223000Y-93824491D01*
X132261429Y-94017689D01*
X132336811Y-94199678D01*
X132446249Y-94363463D01*
X132585537Y-94502751D01*
X132749322Y-94612189D01*
X132931311Y-94687571D01*
X133124509Y-94726000D01*
X133321491Y-94726000D01*
X133514689Y-94687571D01*
X133696678Y-94612189D01*
X133860463Y-94502751D01*
X133999751Y-94363463D01*
X134109189Y-94199678D01*
X134184571Y-94017689D01*
X134223000Y-93824491D01*
X134223000Y-93627509D01*
X134723000Y-93627509D01*
X134723000Y-93824491D01*
X134761429Y-94017689D01*
X134836811Y-94199678D01*
X134946249Y-94363463D01*
X135085537Y-94502751D01*
X135249322Y-94612189D01*
X135431311Y-94687571D01*
X135624509Y-94726000D01*
X135821491Y-94726000D01*
X136014689Y-94687571D01*
X136196678Y-94612189D01*
X136360463Y-94502751D01*
X136499751Y-94363463D01*
X136609189Y-94199678D01*
X136684571Y-94017689D01*
X136723000Y-93824491D01*
X136723000Y-93627509D01*
X136684571Y-93434311D01*
X136609189Y-93252322D01*
X136499751Y-93088537D01*
X136360463Y-92949249D01*
X136196678Y-92839811D01*
X136014689Y-92764429D01*
X135821491Y-92726000D01*
X135624509Y-92726000D01*
X135431311Y-92764429D01*
X135249322Y-92839811D01*
X135085537Y-92949249D01*
X134946249Y-93088537D01*
X134836811Y-93252322D01*
X134761429Y-93434311D01*
X134723000Y-93627509D01*
X134223000Y-93627509D01*
X134184571Y-93434311D01*
X134109189Y-93252322D01*
X133999751Y-93088537D01*
X133860463Y-92949249D01*
X133696678Y-92839811D01*
X133514689Y-92764429D01*
X133321491Y-92726000D01*
X133124509Y-92726000D01*
X132931311Y-92764429D01*
X132749322Y-92839811D01*
X132585537Y-92949249D01*
X132446249Y-93088537D01*
X132336811Y-93252322D01*
X132261429Y-93434311D01*
X132223000Y-93627509D01*
X129775915Y-93627509D01*
X129767195Y-93538983D01*
X129712645Y-93359154D01*
X129624059Y-93193422D01*
X129504843Y-93048157D01*
X129359578Y-92928941D01*
X129193846Y-92840355D01*
X129014017Y-92785805D01*
X128873856Y-92772000D01*
X127572144Y-92772000D01*
X127431983Y-92785805D01*
X127252154Y-92840355D01*
X127086422Y-92928941D01*
X126941157Y-93048157D01*
X126821941Y-93193422D01*
X126733355Y-93359154D01*
X126678805Y-93538983D01*
X126660385Y-93726000D01*
X122905295Y-93726000D01*
X122905000Y-93671000D01*
X122840000Y-93606000D01*
X122120000Y-93606000D01*
X121720000Y-93606000D01*
X121000000Y-93606000D01*
X120935000Y-93671000D01*
X120933742Y-93906000D01*
X118878400Y-93906000D01*
X118831600Y-93859200D01*
X118411600Y-93859200D01*
X118411600Y-93879200D01*
X118011600Y-93879200D01*
X118011600Y-93859200D01*
X117991600Y-93859200D01*
X117991600Y-93459200D01*
X118011600Y-93459200D01*
X118011600Y-93439200D01*
X118411600Y-93439200D01*
X118411600Y-93459200D01*
X118831600Y-93459200D01*
X118896600Y-93394200D01*
X118897592Y-93268000D01*
X120904000Y-93268000D01*
X120913755Y-93267039D01*
X120923134Y-93264194D01*
X120931779Y-93259573D01*
X120939355Y-93253355D01*
X120945573Y-93245779D01*
X120950194Y-93237134D01*
X120953039Y-93227755D01*
X120954000Y-93218000D01*
X120954000Y-93171147D01*
X120957042Y-93169521D01*
X120960601Y-93166601D01*
X121000000Y-93206000D01*
X121720000Y-93206000D01*
X121720000Y-93186000D01*
X122120000Y-93186000D01*
X122120000Y-93206000D01*
X122840000Y-93206000D01*
X122905000Y-93141000D01*
X122906258Y-92906000D01*
X122901238Y-92855031D01*
X122886371Y-92806021D01*
X122862228Y-92760853D01*
X122861528Y-92760000D01*
X124333000Y-92760000D01*
X124342755Y-92759039D01*
X124352134Y-92756194D01*
X124360779Y-92751573D01*
X124368355Y-92745355D01*
X125003355Y-92110355D01*
X125009573Y-92102779D01*
X125014194Y-92094134D01*
X125017039Y-92084755D01*
X125018000Y-92075000D01*
X125018000Y-88627509D01*
X127223000Y-88627509D01*
X127223000Y-88824491D01*
X127261429Y-89017689D01*
X127336811Y-89199678D01*
X127446249Y-89363463D01*
X127585537Y-89502751D01*
X127749322Y-89612189D01*
X127931311Y-89687571D01*
X128124509Y-89726000D01*
X128321491Y-89726000D01*
X128514689Y-89687571D01*
X128696678Y-89612189D01*
X128860463Y-89502751D01*
X128999751Y-89363463D01*
X129109189Y-89199678D01*
X129184571Y-89017689D01*
X129202808Y-88926000D01*
X132359000Y-88926000D01*
X132359000Y-89530000D01*
X132414620Y-89694715D01*
X132501305Y-89845414D01*
X132615724Y-89976306D01*
X132753481Y-90082361D01*
X132893974Y-90128898D01*
X133023000Y-90103564D01*
X133023000Y-88926000D01*
X133423000Y-88926000D01*
X133423000Y-90103564D01*
X133552026Y-90128898D01*
X133692519Y-90082361D01*
X133830276Y-89976306D01*
X133944695Y-89845414D01*
X134031380Y-89694715D01*
X134087000Y-89530000D01*
X134087000Y-88926000D01*
X133423000Y-88926000D01*
X133023000Y-88926000D01*
X132359000Y-88926000D01*
X129202808Y-88926000D01*
X129223000Y-88824491D01*
X129223000Y-88627509D01*
X129184571Y-88434311D01*
X129109189Y-88252322D01*
X128999751Y-88088537D01*
X128860463Y-87949249D01*
X128819683Y-87922000D01*
X132359000Y-87922000D01*
X132359000Y-88526000D01*
X133023000Y-88526000D01*
X133023000Y-87348436D01*
X133423000Y-87348436D01*
X133423000Y-88526000D01*
X134087000Y-88526000D01*
X134087000Y-87922000D01*
X134031380Y-87757285D01*
X133944695Y-87606586D01*
X133830276Y-87475694D01*
X133692519Y-87369639D01*
X133552026Y-87323102D01*
X133423000Y-87348436D01*
X133023000Y-87348436D01*
X132893974Y-87323102D01*
X132753481Y-87369639D01*
X132615724Y-87475694D01*
X132501305Y-87606586D01*
X132414620Y-87757285D01*
X132359000Y-87922000D01*
X128819683Y-87922000D01*
X128696678Y-87839811D01*
X128514689Y-87764429D01*
X128321491Y-87726000D01*
X128124509Y-87726000D01*
X127931311Y-87764429D01*
X127749322Y-87839811D01*
X127585537Y-87949249D01*
X127446249Y-88088537D01*
X127336811Y-88252322D01*
X127261429Y-88434311D01*
X127223000Y-88627509D01*
X125018000Y-88627509D01*
X125018000Y-86741000D01*
X125017039Y-86731245D01*
X125014194Y-86721866D01*
X125009573Y-86713221D01*
X125003355Y-86705645D01*
X124411543Y-86113833D01*
X124563207Y-86144000D01*
X124720793Y-86144000D01*
X124875351Y-86113257D01*
X125020942Y-86052951D01*
X125151970Y-85965401D01*
X125263401Y-85853970D01*
X125350951Y-85722942D01*
X125411257Y-85577351D01*
X125442000Y-85422793D01*
X125442000Y-85265207D01*
X125411257Y-85110649D01*
X125350951Y-84965058D01*
X125263401Y-84834030D01*
X125151970Y-84722599D01*
X125020942Y-84635049D01*
X124875351Y-84574743D01*
X124720793Y-84544000D01*
X124563207Y-84544000D01*
X124408649Y-84574743D01*
X124263058Y-84635049D01*
X124132030Y-84722599D01*
X124020599Y-84834030D01*
X123933049Y-84965058D01*
X123872743Y-85110649D01*
X123842000Y-85265207D01*
X123842000Y-85422793D01*
X123872743Y-85577351D01*
X123933049Y-85722942D01*
X124020599Y-85853970D01*
X124132030Y-85965401D01*
X124263058Y-86052951D01*
X124270419Y-86056000D01*
X122809000Y-86056000D01*
X122799245Y-86056961D01*
X122789866Y-86059806D01*
X122781221Y-86064427D01*
X122773645Y-86070645D01*
X122138645Y-86705645D01*
X122132427Y-86713221D01*
X122127806Y-86721866D01*
X122124961Y-86731245D01*
X122124000Y-86741000D01*
X122124000Y-89765582D01*
X121393898Y-90374000D01*
X121130190Y-90374000D01*
X121132258Y-90353000D01*
X121131000Y-90168000D01*
X121066000Y-90103000D01*
X120596000Y-90103000D01*
X120596000Y-90123000D01*
X120196000Y-90123000D01*
X120196000Y-90103000D01*
X119726000Y-90103000D01*
X119661000Y-90168000D01*
X119659742Y-90353000D01*
X119661810Y-90374000D01*
X119606190Y-90374000D01*
X119608258Y-90353000D01*
X119607000Y-90168000D01*
X119542000Y-90103000D01*
X119072000Y-90103000D01*
X119072000Y-90123000D01*
X118672000Y-90123000D01*
X118672000Y-90103000D01*
X118240710Y-90103000D01*
X118018355Y-89880645D01*
X118010779Y-89874427D01*
X118002134Y-89869806D01*
X117992755Y-89866961D01*
X117983000Y-89866000D01*
X117587439Y-89866000D01*
X117535990Y-89823778D01*
X117475187Y-89791278D01*
X117409212Y-89771265D01*
X117340600Y-89764507D01*
X113240600Y-89764507D01*
X113171988Y-89771265D01*
X113106013Y-89791278D01*
X113045210Y-89823778D01*
X112993761Y-89866000D01*
X112109597Y-89866000D01*
X112102990Y-89860578D01*
X112042187Y-89828078D01*
X111976212Y-89808065D01*
X111907600Y-89801307D01*
X111307600Y-89801307D01*
X111238988Y-89808065D01*
X111173013Y-89828078D01*
X111112210Y-89860578D01*
X111058915Y-89904315D01*
X111015178Y-89957610D01*
X110982678Y-90018413D01*
X110962665Y-90084388D01*
X110957043Y-90141471D01*
X110956427Y-90142221D01*
X110951806Y-90150866D01*
X110948961Y-90160245D01*
X110948000Y-90170000D01*
X110948000Y-92492087D01*
X110922600Y-92493000D01*
X110857600Y-92558000D01*
X110857600Y-93078000D01*
X110877600Y-93078000D01*
X110877600Y-93478000D01*
X110857600Y-93478000D01*
X110857600Y-93498000D01*
X110457600Y-93498000D01*
X110457600Y-93478000D01*
X110437600Y-93478000D01*
X110437600Y-93078000D01*
X110457600Y-93078000D01*
X110457600Y-92558000D01*
X110392600Y-92493000D01*
X110357600Y-92491742D01*
X110306631Y-92496762D01*
X110286000Y-92503020D01*
X110286000Y-91415476D01*
X110300022Y-91398390D01*
X110332522Y-91337587D01*
X110352535Y-91271612D01*
X110359293Y-91203000D01*
X110359293Y-90153000D01*
X110352535Y-90084388D01*
X110332522Y-90018413D01*
X110300022Y-89957610D01*
X110286000Y-89940524D01*
X110286000Y-89296260D01*
X112395209Y-89296260D01*
X112409175Y-89302045D01*
X112505774Y-89321260D01*
X112604266Y-89321260D01*
X112700865Y-89302045D01*
X112714831Y-89296260D01*
X117218756Y-89296260D01*
X117273437Y-89378097D01*
X117377903Y-89482563D01*
X117500742Y-89564641D01*
X117637233Y-89621178D01*
X117782131Y-89650000D01*
X117929869Y-89650000D01*
X118074767Y-89621178D01*
X118136711Y-89595520D01*
X118137000Y-89638000D01*
X118202000Y-89703000D01*
X118672000Y-89703000D01*
X118672000Y-89258000D01*
X119072000Y-89258000D01*
X119072000Y-89703000D01*
X119542000Y-89703000D01*
X119607000Y-89638000D01*
X119608258Y-89453000D01*
X119659742Y-89453000D01*
X119661000Y-89638000D01*
X119726000Y-89703000D01*
X120196000Y-89703000D01*
X120196000Y-89258000D01*
X120596000Y-89258000D01*
X120596000Y-89703000D01*
X121066000Y-89703000D01*
X121131000Y-89638000D01*
X121132258Y-89453000D01*
X121127238Y-89402031D01*
X121112371Y-89353021D01*
X121088228Y-89307853D01*
X121055737Y-89268263D01*
X121016147Y-89235772D01*
X120970979Y-89211629D01*
X120921969Y-89196762D01*
X120871000Y-89191742D01*
X120661000Y-89193000D01*
X120596000Y-89258000D01*
X120196000Y-89258000D01*
X120131000Y-89193000D01*
X119921000Y-89191742D01*
X119870031Y-89196762D01*
X119821021Y-89211629D01*
X119775853Y-89235772D01*
X119736263Y-89268263D01*
X119703772Y-89307853D01*
X119679629Y-89353021D01*
X119664762Y-89402031D01*
X119659742Y-89453000D01*
X119608258Y-89453000D01*
X119603238Y-89402031D01*
X119588371Y-89353021D01*
X119564228Y-89307853D01*
X119531737Y-89268263D01*
X119492147Y-89235772D01*
X119446979Y-89211629D01*
X119397969Y-89196762D01*
X119347000Y-89191742D01*
X119137000Y-89193000D01*
X119072000Y-89258000D01*
X118672000Y-89258000D01*
X118607000Y-89193000D01*
X118546579Y-89192638D01*
X118577178Y-89118767D01*
X118606000Y-88973869D01*
X118606000Y-88826131D01*
X118577178Y-88681233D01*
X118520641Y-88544742D01*
X118438563Y-88421903D01*
X118414000Y-88397340D01*
X118414000Y-88392000D01*
X118413039Y-88382245D01*
X118410194Y-88372866D01*
X118405573Y-88364221D01*
X118399355Y-88356645D01*
X118391779Y-88350427D01*
X118383134Y-88345806D01*
X118373755Y-88342961D01*
X118364000Y-88342000D01*
X118358660Y-88342000D01*
X118334097Y-88317437D01*
X118211258Y-88235359D01*
X118074767Y-88178822D01*
X117929869Y-88150000D01*
X117782131Y-88150000D01*
X117637233Y-88178822D01*
X117500742Y-88235359D01*
X117377903Y-88317437D01*
X117353340Y-88342000D01*
X116636000Y-88342000D01*
X116636000Y-86614000D01*
X116635039Y-86604245D01*
X116632194Y-86594866D01*
X116627573Y-86586221D01*
X116621355Y-86578645D01*
X116613779Y-86572427D01*
X116605134Y-86567806D01*
X116595755Y-86564961D01*
X116586000Y-86564000D01*
X116452527Y-86564000D01*
X116437390Y-86551578D01*
X116376587Y-86519078D01*
X116310612Y-86499065D01*
X116242000Y-86492307D01*
X115042000Y-86492307D01*
X114973388Y-86499065D01*
X114907413Y-86519078D01*
X114846610Y-86551578D01*
X114831473Y-86564000D01*
X114681000Y-86564000D01*
X114671245Y-86564961D01*
X114661866Y-86567806D01*
X114653221Y-86572427D01*
X114645645Y-86578645D01*
X114639427Y-86586221D01*
X114634806Y-86594866D01*
X114631961Y-86604245D01*
X114631000Y-86614000D01*
X114631000Y-87845880D01*
X112714831Y-87845880D01*
X112700865Y-87840095D01*
X112604266Y-87820880D01*
X112505774Y-87820880D01*
X112409175Y-87840095D01*
X112318181Y-87877786D01*
X112236289Y-87932505D01*
X112166645Y-88002149D01*
X112111926Y-88084041D01*
X112074235Y-88175035D01*
X112055020Y-88271634D01*
X112055020Y-88346260D01*
X110084071Y-88346260D01*
X110060739Y-88343962D01*
X109967623Y-88353133D01*
X109955166Y-88356912D01*
X109878086Y-88380294D01*
X109795567Y-88424401D01*
X109723239Y-88483759D01*
X109708360Y-88501889D01*
X109388229Y-88822021D01*
X109370100Y-88836899D01*
X109310742Y-88909227D01*
X109266635Y-88991746D01*
X109239473Y-89081284D01*
X109230302Y-89174400D01*
X109232601Y-89197742D01*
X109232601Y-89849679D01*
X109212210Y-89860578D01*
X109158915Y-89904315D01*
X109115178Y-89957610D01*
X109082678Y-90018413D01*
X109062665Y-90084388D01*
X109055907Y-90153000D01*
X109055907Y-91136000D01*
X108838156Y-91136000D01*
X108875147Y-91116228D01*
X108914737Y-91083737D01*
X108947228Y-91044147D01*
X108971371Y-90998979D01*
X108986238Y-90949969D01*
X108991258Y-90899000D01*
X108990000Y-90689000D01*
X108925000Y-90624000D01*
X108530000Y-90624000D01*
X108530000Y-90644000D01*
X108130000Y-90644000D01*
X108130000Y-90624000D01*
X107735000Y-90624000D01*
X107670000Y-90689000D01*
X107668742Y-90899000D01*
X107673762Y-90949969D01*
X107688629Y-90998979D01*
X107712772Y-91044147D01*
X107745263Y-91083737D01*
X107784853Y-91116228D01*
X107821844Y-91136000D01*
X107619000Y-91136000D01*
X107619000Y-89949000D01*
X107668742Y-89949000D01*
X107670000Y-90159000D01*
X107735000Y-90224000D01*
X108130000Y-90224000D01*
X108130000Y-89754000D01*
X108530000Y-89754000D01*
X108530000Y-90224000D01*
X108925000Y-90224000D01*
X108990000Y-90159000D01*
X108991258Y-89949000D01*
X108986238Y-89898031D01*
X108971371Y-89849021D01*
X108947228Y-89803853D01*
X108914737Y-89764263D01*
X108875147Y-89731772D01*
X108829979Y-89707629D01*
X108780969Y-89692762D01*
X108730000Y-89687742D01*
X108595000Y-89689000D01*
X108530000Y-89754000D01*
X108130000Y-89754000D01*
X108065000Y-89689000D01*
X107930000Y-89687742D01*
X107879031Y-89692762D01*
X107830021Y-89707629D01*
X107784853Y-89731772D01*
X107745263Y-89764263D01*
X107712772Y-89803853D01*
X107688629Y-89849021D01*
X107673762Y-89898031D01*
X107668742Y-89949000D01*
X107619000Y-89949000D01*
X107619000Y-89597652D01*
X107654021Y-89616371D01*
X107703031Y-89631238D01*
X107754000Y-89636258D01*
X107939000Y-89635000D01*
X108004000Y-89570000D01*
X108004000Y-89100000D01*
X108404000Y-89100000D01*
X108404000Y-89570000D01*
X108469000Y-89635000D01*
X108654000Y-89636258D01*
X108704969Y-89631238D01*
X108753979Y-89616371D01*
X108799147Y-89592228D01*
X108838737Y-89559737D01*
X108871228Y-89520147D01*
X108895371Y-89474979D01*
X108910238Y-89425969D01*
X108915258Y-89375000D01*
X108914000Y-89165000D01*
X108849000Y-89100000D01*
X108404000Y-89100000D01*
X108004000Y-89100000D01*
X107984000Y-89100000D01*
X107984000Y-88700000D01*
X108004000Y-88700000D01*
X108004000Y-88230000D01*
X108404000Y-88230000D01*
X108404000Y-88700000D01*
X108849000Y-88700000D01*
X108914000Y-88635000D01*
X108915258Y-88425000D01*
X108910238Y-88374031D01*
X108895371Y-88325021D01*
X108871228Y-88279853D01*
X108838737Y-88240263D01*
X108799147Y-88207772D01*
X108753979Y-88183629D01*
X108704969Y-88168762D01*
X108654000Y-88163742D01*
X108469000Y-88165000D01*
X108404000Y-88230000D01*
X108004000Y-88230000D01*
X107939000Y-88165000D01*
X107910886Y-88164809D01*
X110268540Y-86143963D01*
X110275321Y-86136885D01*
X110280590Y-86128621D01*
X110284147Y-86119487D01*
X110286000Y-86106000D01*
X110286000Y-85265207D01*
X115842000Y-85265207D01*
X115842000Y-85422793D01*
X115872743Y-85577351D01*
X115933049Y-85722942D01*
X116020599Y-85853970D01*
X116132030Y-85965401D01*
X116263058Y-86052951D01*
X116408649Y-86113257D01*
X116563207Y-86144000D01*
X116720793Y-86144000D01*
X116875351Y-86113257D01*
X117020942Y-86052951D01*
X117151970Y-85965401D01*
X117263401Y-85853970D01*
X117350951Y-85722942D01*
X117411257Y-85577351D01*
X117442000Y-85422793D01*
X117442000Y-85265207D01*
X117411257Y-85110649D01*
X117350951Y-84965058D01*
X117263401Y-84834030D01*
X117151970Y-84722599D01*
X117020942Y-84635049D01*
X116875351Y-84574743D01*
X116720793Y-84544000D01*
X116563207Y-84544000D01*
X116408649Y-84574743D01*
X116263058Y-84635049D01*
X116132030Y-84722599D01*
X116020599Y-84834030D01*
X115933049Y-84965058D01*
X115872743Y-85110649D01*
X115842000Y-85265207D01*
X110286000Y-85265207D01*
X110286000Y-84074000D01*
X110285039Y-84064245D01*
X110282194Y-84054866D01*
X110277573Y-84046221D01*
X110271355Y-84038645D01*
X110263779Y-84032427D01*
X110255134Y-84027806D01*
X110245755Y-84024961D01*
X110236000Y-84024000D01*
X109694744Y-84024000D01*
X109649014Y-84005058D01*
X109533095Y-83982000D01*
X109414905Y-83982000D01*
X109298986Y-84005058D01*
X109253256Y-84024000D01*
X104952000Y-84024000D01*
X104952000Y-83844000D01*
X116780742Y-83844000D01*
X116785762Y-83894969D01*
X116800629Y-83943979D01*
X116824772Y-83989147D01*
X116857263Y-84028737D01*
X116896853Y-84061228D01*
X116942021Y-84085371D01*
X116991031Y-84100238D01*
X117042000Y-84105258D01*
X117377000Y-84104000D01*
X117442000Y-84039000D01*
X117442000Y-83344000D01*
X117842000Y-83344000D01*
X117842000Y-84039000D01*
X117907000Y-84104000D01*
X118242000Y-84105258D01*
X118292969Y-84100238D01*
X118341979Y-84085371D01*
X118387147Y-84061228D01*
X118426737Y-84028737D01*
X118459228Y-83989147D01*
X118483371Y-83943979D01*
X118498238Y-83894969D01*
X118503258Y-83844000D01*
X118502000Y-83409000D01*
X118437000Y-83344000D01*
X117842000Y-83344000D01*
X117442000Y-83344000D01*
X116847000Y-83344000D01*
X116782000Y-83409000D01*
X116780742Y-83844000D01*
X104952000Y-83844000D01*
X104952000Y-82543799D01*
X116781030Y-82543474D01*
X116782000Y-82879000D01*
X116847000Y-82944000D01*
X117442000Y-82944000D01*
X117442000Y-82924000D01*
X117842000Y-82924000D01*
X117842000Y-82944000D01*
X118437000Y-82944000D01*
X118502000Y-82879000D01*
X118502970Y-82543426D01*
X120690307Y-82543366D01*
X120690307Y-83844000D01*
X120697065Y-83912612D01*
X120717078Y-83978587D01*
X120749578Y-84039390D01*
X120793315Y-84092685D01*
X120846610Y-84136422D01*
X120907413Y-84168922D01*
X120973388Y-84188935D01*
X121042000Y-84195693D01*
X122242000Y-84195693D01*
X122310612Y-84188935D01*
X122376587Y-84168922D01*
X122437390Y-84136422D01*
X122490685Y-84092685D01*
X122534422Y-84039390D01*
X122566922Y-83978587D01*
X122586935Y-83912612D01*
X122593693Y-83844000D01*
X122593693Y-83726000D01*
X126660385Y-83726000D01*
X126678805Y-83913017D01*
X126733355Y-84092846D01*
X126821941Y-84258578D01*
X126941157Y-84403843D01*
X127086422Y-84523059D01*
X127252154Y-84611645D01*
X127431983Y-84666195D01*
X127572144Y-84680000D01*
X128873856Y-84680000D01*
X129014017Y-84666195D01*
X129193846Y-84611645D01*
X129359578Y-84523059D01*
X129504843Y-84403843D01*
X129624059Y-84258578D01*
X129712645Y-84092846D01*
X129767195Y-83913017D01*
X129785615Y-83726000D01*
X129775915Y-83627509D01*
X132223000Y-83627509D01*
X132223000Y-83824491D01*
X132261429Y-84017689D01*
X132336811Y-84199678D01*
X132446249Y-84363463D01*
X132585537Y-84502751D01*
X132749322Y-84612189D01*
X132931311Y-84687571D01*
X133124509Y-84726000D01*
X133321491Y-84726000D01*
X133514689Y-84687571D01*
X133696678Y-84612189D01*
X133860463Y-84502751D01*
X133999751Y-84363463D01*
X134109189Y-84199678D01*
X134184571Y-84017689D01*
X134223000Y-83824491D01*
X134223000Y-83627509D01*
X134723000Y-83627509D01*
X134723000Y-83824491D01*
X134761429Y-84017689D01*
X134836811Y-84199678D01*
X134946249Y-84363463D01*
X135085537Y-84502751D01*
X135249322Y-84612189D01*
X135431311Y-84687571D01*
X135624509Y-84726000D01*
X135821491Y-84726000D01*
X136014689Y-84687571D01*
X136196678Y-84612189D01*
X136360463Y-84502751D01*
X136499751Y-84363463D01*
X136609189Y-84199678D01*
X136684571Y-84017689D01*
X136723000Y-83824491D01*
X136723000Y-83627509D01*
X136684571Y-83434311D01*
X136609189Y-83252322D01*
X136499751Y-83088537D01*
X136360463Y-82949249D01*
X136196678Y-82839811D01*
X136014689Y-82764429D01*
X135821491Y-82726000D01*
X135624509Y-82726000D01*
X135431311Y-82764429D01*
X135249322Y-82839811D01*
X135085537Y-82949249D01*
X134946249Y-83088537D01*
X134836811Y-83252322D01*
X134761429Y-83434311D01*
X134723000Y-83627509D01*
X134223000Y-83627509D01*
X134184571Y-83434311D01*
X134109189Y-83252322D01*
X133999751Y-83088537D01*
X133860463Y-82949249D01*
X133696678Y-82839811D01*
X133514689Y-82764429D01*
X133321491Y-82726000D01*
X133124509Y-82726000D01*
X132931311Y-82764429D01*
X132749322Y-82839811D01*
X132585537Y-82949249D01*
X132446249Y-83088537D01*
X132336811Y-83252322D01*
X132261429Y-83434311D01*
X132223000Y-83627509D01*
X129775915Y-83627509D01*
X129767195Y-83538983D01*
X129712645Y-83359154D01*
X129624059Y-83193422D01*
X129504843Y-83048157D01*
X129359578Y-82928941D01*
X129193846Y-82840355D01*
X129014017Y-82785805D01*
X128873856Y-82772000D01*
X127572144Y-82772000D01*
X127431983Y-82785805D01*
X127252154Y-82840355D01*
X127086422Y-82928941D01*
X126941157Y-83048157D01*
X126821941Y-83193422D01*
X126733355Y-83359154D01*
X126678805Y-83538983D01*
X126660385Y-83726000D01*
X122593693Y-83726000D01*
X122593693Y-82543314D01*
X137292933Y-82542910D01*
X137290528Y-95800818D01*
%TA.AperFunction,Conductor*%
G36*
X137290528Y-95800818D02*
G01*
X119811000Y-95792271D01*
X119811000Y-95610787D01*
X123366056Y-95610787D01*
X123426592Y-95709821D01*
X123571067Y-95749054D01*
X123720419Y-95759348D01*
X123868910Y-95740307D01*
X123969408Y-95709821D01*
X124029944Y-95610787D01*
X123698000Y-95278843D01*
X123366056Y-95610787D01*
X119811000Y-95610787D01*
X119811000Y-95018419D01*
X122934652Y-95018419D01*
X122953693Y-95166910D01*
X122984179Y-95267408D01*
X123083213Y-95327944D01*
X123415157Y-94996000D01*
X123980843Y-94996000D01*
X124312787Y-95327944D01*
X124411821Y-95267408D01*
X124451054Y-95122933D01*
X124461348Y-94973581D01*
X124442307Y-94825090D01*
X124411821Y-94724592D01*
X124312787Y-94664056D01*
X123980843Y-94996000D01*
X123415157Y-94996000D01*
X123083213Y-94664056D01*
X122984179Y-94724592D01*
X122944946Y-94869067D01*
X122934652Y-95018419D01*
X119811000Y-95018419D01*
X119811000Y-94742000D01*
X119810039Y-94732245D01*
X119807194Y-94722866D01*
X119802573Y-94714221D01*
X119796355Y-94706645D01*
X119470923Y-94381213D01*
X123366056Y-94381213D01*
X123698000Y-94713157D01*
X124029944Y-94381213D01*
X123969408Y-94282179D01*
X123824933Y-94242946D01*
X123675581Y-94232652D01*
X123527090Y-94251693D01*
X123426592Y-94282179D01*
X123366056Y-94381213D01*
X119470923Y-94381213D01*
X119415355Y-94325645D01*
X119407779Y-94319427D01*
X119399134Y-94314806D01*
X119389755Y-94311961D01*
X119380000Y-94311000D01*
X118763839Y-94311000D01*
X118781747Y-94301428D01*
X118821337Y-94268937D01*
X118853828Y-94229347D01*
X118877971Y-94184179D01*
X118892838Y-94135169D01*
X118897858Y-94084200D01*
X118896600Y-93924200D01*
X118878400Y-93906000D01*
X120933742Y-93906000D01*
X120938762Y-93956969D01*
X120953629Y-94005979D01*
X120977772Y-94051147D01*
X121010263Y-94090737D01*
X121049853Y-94123228D01*
X121095021Y-94147371D01*
X121144031Y-94162238D01*
X121195000Y-94167258D01*
X121655000Y-94166000D01*
X121720000Y-94101000D01*
X121720000Y-93606000D01*
X122120000Y-93606000D01*
X122120000Y-94101000D01*
X122185000Y-94166000D01*
X122645000Y-94167258D01*
X122695969Y-94162238D01*
X122744979Y-94147371D01*
X122790147Y-94123228D01*
X122829737Y-94090737D01*
X122862228Y-94051147D01*
X122886371Y-94005979D01*
X122901238Y-93956969D01*
X122906258Y-93906000D01*
X122905295Y-93726000D01*
X126660385Y-93726000D01*
X126678805Y-93913017D01*
X126733355Y-94092846D01*
X126821941Y-94258578D01*
X126941157Y-94403843D01*
X127086422Y-94523059D01*
X127252154Y-94611645D01*
X127431983Y-94666195D01*
X127572144Y-94680000D01*
X128873856Y-94680000D01*
X129014017Y-94666195D01*
X129193846Y-94611645D01*
X129359578Y-94523059D01*
X129504843Y-94403843D01*
X129624059Y-94258578D01*
X129712645Y-94092846D01*
X129767195Y-93913017D01*
X129785615Y-93726000D01*
X129775915Y-93627509D01*
X132223000Y-93627509D01*
X132223000Y-93824491D01*
X132261429Y-94017689D01*
X132336811Y-94199678D01*
X132446249Y-94363463D01*
X132585537Y-94502751D01*
X132749322Y-94612189D01*
X132931311Y-94687571D01*
X133124509Y-94726000D01*
X133321491Y-94726000D01*
X133514689Y-94687571D01*
X133696678Y-94612189D01*
X133860463Y-94502751D01*
X133999751Y-94363463D01*
X134109189Y-94199678D01*
X134184571Y-94017689D01*
X134223000Y-93824491D01*
X134223000Y-93627509D01*
X134723000Y-93627509D01*
X134723000Y-93824491D01*
X134761429Y-94017689D01*
X134836811Y-94199678D01*
X134946249Y-94363463D01*
X135085537Y-94502751D01*
X135249322Y-94612189D01*
X135431311Y-94687571D01*
X135624509Y-94726000D01*
X135821491Y-94726000D01*
X136014689Y-94687571D01*
X136196678Y-94612189D01*
X136360463Y-94502751D01*
X136499751Y-94363463D01*
X136609189Y-94199678D01*
X136684571Y-94017689D01*
X136723000Y-93824491D01*
X136723000Y-93627509D01*
X136684571Y-93434311D01*
X136609189Y-93252322D01*
X136499751Y-93088537D01*
X136360463Y-92949249D01*
X136196678Y-92839811D01*
X136014689Y-92764429D01*
X135821491Y-92726000D01*
X135624509Y-92726000D01*
X135431311Y-92764429D01*
X135249322Y-92839811D01*
X135085537Y-92949249D01*
X134946249Y-93088537D01*
X134836811Y-93252322D01*
X134761429Y-93434311D01*
X134723000Y-93627509D01*
X134223000Y-93627509D01*
X134184571Y-93434311D01*
X134109189Y-93252322D01*
X133999751Y-93088537D01*
X133860463Y-92949249D01*
X133696678Y-92839811D01*
X133514689Y-92764429D01*
X133321491Y-92726000D01*
X133124509Y-92726000D01*
X132931311Y-92764429D01*
X132749322Y-92839811D01*
X132585537Y-92949249D01*
X132446249Y-93088537D01*
X132336811Y-93252322D01*
X132261429Y-93434311D01*
X132223000Y-93627509D01*
X129775915Y-93627509D01*
X129767195Y-93538983D01*
X129712645Y-93359154D01*
X129624059Y-93193422D01*
X129504843Y-93048157D01*
X129359578Y-92928941D01*
X129193846Y-92840355D01*
X129014017Y-92785805D01*
X128873856Y-92772000D01*
X127572144Y-92772000D01*
X127431983Y-92785805D01*
X127252154Y-92840355D01*
X127086422Y-92928941D01*
X126941157Y-93048157D01*
X126821941Y-93193422D01*
X126733355Y-93359154D01*
X126678805Y-93538983D01*
X126660385Y-93726000D01*
X122905295Y-93726000D01*
X122905000Y-93671000D01*
X122840000Y-93606000D01*
X122120000Y-93606000D01*
X121720000Y-93606000D01*
X121000000Y-93606000D01*
X120935000Y-93671000D01*
X120933742Y-93906000D01*
X118878400Y-93906000D01*
X118831600Y-93859200D01*
X118411600Y-93859200D01*
X118411600Y-93879200D01*
X118011600Y-93879200D01*
X118011600Y-93859200D01*
X117991600Y-93859200D01*
X117991600Y-93459200D01*
X118011600Y-93459200D01*
X118011600Y-93439200D01*
X118411600Y-93439200D01*
X118411600Y-93459200D01*
X118831600Y-93459200D01*
X118896600Y-93394200D01*
X118897592Y-93268000D01*
X120904000Y-93268000D01*
X120913755Y-93267039D01*
X120923134Y-93264194D01*
X120931779Y-93259573D01*
X120939355Y-93253355D01*
X120945573Y-93245779D01*
X120950194Y-93237134D01*
X120953039Y-93227755D01*
X120954000Y-93218000D01*
X120954000Y-93171147D01*
X120957042Y-93169521D01*
X120960601Y-93166601D01*
X121000000Y-93206000D01*
X121720000Y-93206000D01*
X121720000Y-93186000D01*
X122120000Y-93186000D01*
X122120000Y-93206000D01*
X122840000Y-93206000D01*
X122905000Y-93141000D01*
X122906258Y-92906000D01*
X122901238Y-92855031D01*
X122886371Y-92806021D01*
X122862228Y-92760853D01*
X122861528Y-92760000D01*
X124333000Y-92760000D01*
X124342755Y-92759039D01*
X124352134Y-92756194D01*
X124360779Y-92751573D01*
X124368355Y-92745355D01*
X125003355Y-92110355D01*
X125009573Y-92102779D01*
X125014194Y-92094134D01*
X125017039Y-92084755D01*
X125018000Y-92075000D01*
X125018000Y-88627509D01*
X127223000Y-88627509D01*
X127223000Y-88824491D01*
X127261429Y-89017689D01*
X127336811Y-89199678D01*
X127446249Y-89363463D01*
X127585537Y-89502751D01*
X127749322Y-89612189D01*
X127931311Y-89687571D01*
X128124509Y-89726000D01*
X128321491Y-89726000D01*
X128514689Y-89687571D01*
X128696678Y-89612189D01*
X128860463Y-89502751D01*
X128999751Y-89363463D01*
X129109189Y-89199678D01*
X129184571Y-89017689D01*
X129202808Y-88926000D01*
X132359000Y-88926000D01*
X132359000Y-89530000D01*
X132414620Y-89694715D01*
X132501305Y-89845414D01*
X132615724Y-89976306D01*
X132753481Y-90082361D01*
X132893974Y-90128898D01*
X133023000Y-90103564D01*
X133023000Y-88926000D01*
X133423000Y-88926000D01*
X133423000Y-90103564D01*
X133552026Y-90128898D01*
X133692519Y-90082361D01*
X133830276Y-89976306D01*
X133944695Y-89845414D01*
X134031380Y-89694715D01*
X134087000Y-89530000D01*
X134087000Y-88926000D01*
X133423000Y-88926000D01*
X133023000Y-88926000D01*
X132359000Y-88926000D01*
X129202808Y-88926000D01*
X129223000Y-88824491D01*
X129223000Y-88627509D01*
X129184571Y-88434311D01*
X129109189Y-88252322D01*
X128999751Y-88088537D01*
X128860463Y-87949249D01*
X128819683Y-87922000D01*
X132359000Y-87922000D01*
X132359000Y-88526000D01*
X133023000Y-88526000D01*
X133023000Y-87348436D01*
X133423000Y-87348436D01*
X133423000Y-88526000D01*
X134087000Y-88526000D01*
X134087000Y-87922000D01*
X134031380Y-87757285D01*
X133944695Y-87606586D01*
X133830276Y-87475694D01*
X133692519Y-87369639D01*
X133552026Y-87323102D01*
X133423000Y-87348436D01*
X133023000Y-87348436D01*
X132893974Y-87323102D01*
X132753481Y-87369639D01*
X132615724Y-87475694D01*
X132501305Y-87606586D01*
X132414620Y-87757285D01*
X132359000Y-87922000D01*
X128819683Y-87922000D01*
X128696678Y-87839811D01*
X128514689Y-87764429D01*
X128321491Y-87726000D01*
X128124509Y-87726000D01*
X127931311Y-87764429D01*
X127749322Y-87839811D01*
X127585537Y-87949249D01*
X127446249Y-88088537D01*
X127336811Y-88252322D01*
X127261429Y-88434311D01*
X127223000Y-88627509D01*
X125018000Y-88627509D01*
X125018000Y-86741000D01*
X125017039Y-86731245D01*
X125014194Y-86721866D01*
X125009573Y-86713221D01*
X125003355Y-86705645D01*
X124411543Y-86113833D01*
X124563207Y-86144000D01*
X124720793Y-86144000D01*
X124875351Y-86113257D01*
X125020942Y-86052951D01*
X125151970Y-85965401D01*
X125263401Y-85853970D01*
X125350951Y-85722942D01*
X125411257Y-85577351D01*
X125442000Y-85422793D01*
X125442000Y-85265207D01*
X125411257Y-85110649D01*
X125350951Y-84965058D01*
X125263401Y-84834030D01*
X125151970Y-84722599D01*
X125020942Y-84635049D01*
X124875351Y-84574743D01*
X124720793Y-84544000D01*
X124563207Y-84544000D01*
X124408649Y-84574743D01*
X124263058Y-84635049D01*
X124132030Y-84722599D01*
X124020599Y-84834030D01*
X123933049Y-84965058D01*
X123872743Y-85110649D01*
X123842000Y-85265207D01*
X123842000Y-85422793D01*
X123872743Y-85577351D01*
X123933049Y-85722942D01*
X124020599Y-85853970D01*
X124132030Y-85965401D01*
X124263058Y-86052951D01*
X124270419Y-86056000D01*
X122809000Y-86056000D01*
X122799245Y-86056961D01*
X122789866Y-86059806D01*
X122781221Y-86064427D01*
X122773645Y-86070645D01*
X122138645Y-86705645D01*
X122132427Y-86713221D01*
X122127806Y-86721866D01*
X122124961Y-86731245D01*
X122124000Y-86741000D01*
X122124000Y-89765582D01*
X121393898Y-90374000D01*
X121130190Y-90374000D01*
X121132258Y-90353000D01*
X121131000Y-90168000D01*
X121066000Y-90103000D01*
X120596000Y-90103000D01*
X120596000Y-90123000D01*
X120196000Y-90123000D01*
X120196000Y-90103000D01*
X119726000Y-90103000D01*
X119661000Y-90168000D01*
X119659742Y-90353000D01*
X119661810Y-90374000D01*
X119606190Y-90374000D01*
X119608258Y-90353000D01*
X119607000Y-90168000D01*
X119542000Y-90103000D01*
X119072000Y-90103000D01*
X119072000Y-90123000D01*
X118672000Y-90123000D01*
X118672000Y-90103000D01*
X118240710Y-90103000D01*
X118018355Y-89880645D01*
X118010779Y-89874427D01*
X118002134Y-89869806D01*
X117992755Y-89866961D01*
X117983000Y-89866000D01*
X117587439Y-89866000D01*
X117535990Y-89823778D01*
X117475187Y-89791278D01*
X117409212Y-89771265D01*
X117340600Y-89764507D01*
X113240600Y-89764507D01*
X113171988Y-89771265D01*
X113106013Y-89791278D01*
X113045210Y-89823778D01*
X112993761Y-89866000D01*
X112109597Y-89866000D01*
X112102990Y-89860578D01*
X112042187Y-89828078D01*
X111976212Y-89808065D01*
X111907600Y-89801307D01*
X111307600Y-89801307D01*
X111238988Y-89808065D01*
X111173013Y-89828078D01*
X111112210Y-89860578D01*
X111058915Y-89904315D01*
X111015178Y-89957610D01*
X110982678Y-90018413D01*
X110962665Y-90084388D01*
X110957043Y-90141471D01*
X110956427Y-90142221D01*
X110951806Y-90150866D01*
X110948961Y-90160245D01*
X110948000Y-90170000D01*
X110948000Y-92492087D01*
X110922600Y-92493000D01*
X110857600Y-92558000D01*
X110857600Y-93078000D01*
X110877600Y-93078000D01*
X110877600Y-93478000D01*
X110857600Y-93478000D01*
X110857600Y-93498000D01*
X110457600Y-93498000D01*
X110457600Y-93478000D01*
X110437600Y-93478000D01*
X110437600Y-93078000D01*
X110457600Y-93078000D01*
X110457600Y-92558000D01*
X110392600Y-92493000D01*
X110357600Y-92491742D01*
X110306631Y-92496762D01*
X110286000Y-92503020D01*
X110286000Y-91415476D01*
X110300022Y-91398390D01*
X110332522Y-91337587D01*
X110352535Y-91271612D01*
X110359293Y-91203000D01*
X110359293Y-90153000D01*
X110352535Y-90084388D01*
X110332522Y-90018413D01*
X110300022Y-89957610D01*
X110286000Y-89940524D01*
X110286000Y-89296260D01*
X112395209Y-89296260D01*
X112409175Y-89302045D01*
X112505774Y-89321260D01*
X112604266Y-89321260D01*
X112700865Y-89302045D01*
X112714831Y-89296260D01*
X117218756Y-89296260D01*
X117273437Y-89378097D01*
X117377903Y-89482563D01*
X117500742Y-89564641D01*
X117637233Y-89621178D01*
X117782131Y-89650000D01*
X117929869Y-89650000D01*
X118074767Y-89621178D01*
X118136711Y-89595520D01*
X118137000Y-89638000D01*
X118202000Y-89703000D01*
X118672000Y-89703000D01*
X118672000Y-89258000D01*
X119072000Y-89258000D01*
X119072000Y-89703000D01*
X119542000Y-89703000D01*
X119607000Y-89638000D01*
X119608258Y-89453000D01*
X119659742Y-89453000D01*
X119661000Y-89638000D01*
X119726000Y-89703000D01*
X120196000Y-89703000D01*
X120196000Y-89258000D01*
X120596000Y-89258000D01*
X120596000Y-89703000D01*
X121066000Y-89703000D01*
X121131000Y-89638000D01*
X121132258Y-89453000D01*
X121127238Y-89402031D01*
X121112371Y-89353021D01*
X121088228Y-89307853D01*
X121055737Y-89268263D01*
X121016147Y-89235772D01*
X120970979Y-89211629D01*
X120921969Y-89196762D01*
X120871000Y-89191742D01*
X120661000Y-89193000D01*
X120596000Y-89258000D01*
X120196000Y-89258000D01*
X120131000Y-89193000D01*
X119921000Y-89191742D01*
X119870031Y-89196762D01*
X119821021Y-89211629D01*
X119775853Y-89235772D01*
X119736263Y-89268263D01*
X119703772Y-89307853D01*
X119679629Y-89353021D01*
X119664762Y-89402031D01*
X119659742Y-89453000D01*
X119608258Y-89453000D01*
X119603238Y-89402031D01*
X119588371Y-89353021D01*
X119564228Y-89307853D01*
X119531737Y-89268263D01*
X119492147Y-89235772D01*
X119446979Y-89211629D01*
X119397969Y-89196762D01*
X119347000Y-89191742D01*
X119137000Y-89193000D01*
X119072000Y-89258000D01*
X118672000Y-89258000D01*
X118607000Y-89193000D01*
X118546579Y-89192638D01*
X118577178Y-89118767D01*
X118606000Y-88973869D01*
X118606000Y-88826131D01*
X118577178Y-88681233D01*
X118520641Y-88544742D01*
X118438563Y-88421903D01*
X118414000Y-88397340D01*
X118414000Y-88392000D01*
X118413039Y-88382245D01*
X118410194Y-88372866D01*
X118405573Y-88364221D01*
X118399355Y-88356645D01*
X118391779Y-88350427D01*
X118383134Y-88345806D01*
X118373755Y-88342961D01*
X118364000Y-88342000D01*
X118358660Y-88342000D01*
X118334097Y-88317437D01*
X118211258Y-88235359D01*
X118074767Y-88178822D01*
X117929869Y-88150000D01*
X117782131Y-88150000D01*
X117637233Y-88178822D01*
X117500742Y-88235359D01*
X117377903Y-88317437D01*
X117353340Y-88342000D01*
X116636000Y-88342000D01*
X116636000Y-86614000D01*
X116635039Y-86604245D01*
X116632194Y-86594866D01*
X116627573Y-86586221D01*
X116621355Y-86578645D01*
X116613779Y-86572427D01*
X116605134Y-86567806D01*
X116595755Y-86564961D01*
X116586000Y-86564000D01*
X116452527Y-86564000D01*
X116437390Y-86551578D01*
X116376587Y-86519078D01*
X116310612Y-86499065D01*
X116242000Y-86492307D01*
X115042000Y-86492307D01*
X114973388Y-86499065D01*
X114907413Y-86519078D01*
X114846610Y-86551578D01*
X114831473Y-86564000D01*
X114681000Y-86564000D01*
X114671245Y-86564961D01*
X114661866Y-86567806D01*
X114653221Y-86572427D01*
X114645645Y-86578645D01*
X114639427Y-86586221D01*
X114634806Y-86594866D01*
X114631961Y-86604245D01*
X114631000Y-86614000D01*
X114631000Y-87845880D01*
X112714831Y-87845880D01*
X112700865Y-87840095D01*
X112604266Y-87820880D01*
X112505774Y-87820880D01*
X112409175Y-87840095D01*
X112318181Y-87877786D01*
X112236289Y-87932505D01*
X112166645Y-88002149D01*
X112111926Y-88084041D01*
X112074235Y-88175035D01*
X112055020Y-88271634D01*
X112055020Y-88346260D01*
X110084071Y-88346260D01*
X110060739Y-88343962D01*
X109967623Y-88353133D01*
X109955166Y-88356912D01*
X109878086Y-88380294D01*
X109795567Y-88424401D01*
X109723239Y-88483759D01*
X109708360Y-88501889D01*
X109388229Y-88822021D01*
X109370100Y-88836899D01*
X109310742Y-88909227D01*
X109266635Y-88991746D01*
X109239473Y-89081284D01*
X109230302Y-89174400D01*
X109232601Y-89197742D01*
X109232601Y-89849679D01*
X109212210Y-89860578D01*
X109158915Y-89904315D01*
X109115178Y-89957610D01*
X109082678Y-90018413D01*
X109062665Y-90084388D01*
X109055907Y-90153000D01*
X109055907Y-91136000D01*
X108838156Y-91136000D01*
X108875147Y-91116228D01*
X108914737Y-91083737D01*
X108947228Y-91044147D01*
X108971371Y-90998979D01*
X108986238Y-90949969D01*
X108991258Y-90899000D01*
X108990000Y-90689000D01*
X108925000Y-90624000D01*
X108530000Y-90624000D01*
X108530000Y-90644000D01*
X108130000Y-90644000D01*
X108130000Y-90624000D01*
X107735000Y-90624000D01*
X107670000Y-90689000D01*
X107668742Y-90899000D01*
X107673762Y-90949969D01*
X107688629Y-90998979D01*
X107712772Y-91044147D01*
X107745263Y-91083737D01*
X107784853Y-91116228D01*
X107821844Y-91136000D01*
X107619000Y-91136000D01*
X107619000Y-89949000D01*
X107668742Y-89949000D01*
X107670000Y-90159000D01*
X107735000Y-90224000D01*
X108130000Y-90224000D01*
X108130000Y-89754000D01*
X108530000Y-89754000D01*
X108530000Y-90224000D01*
X108925000Y-90224000D01*
X108990000Y-90159000D01*
X108991258Y-89949000D01*
X108986238Y-89898031D01*
X108971371Y-89849021D01*
X108947228Y-89803853D01*
X108914737Y-89764263D01*
X108875147Y-89731772D01*
X108829979Y-89707629D01*
X108780969Y-89692762D01*
X108730000Y-89687742D01*
X108595000Y-89689000D01*
X108530000Y-89754000D01*
X108130000Y-89754000D01*
X108065000Y-89689000D01*
X107930000Y-89687742D01*
X107879031Y-89692762D01*
X107830021Y-89707629D01*
X107784853Y-89731772D01*
X107745263Y-89764263D01*
X107712772Y-89803853D01*
X107688629Y-89849021D01*
X107673762Y-89898031D01*
X107668742Y-89949000D01*
X107619000Y-89949000D01*
X107619000Y-89597652D01*
X107654021Y-89616371D01*
X107703031Y-89631238D01*
X107754000Y-89636258D01*
X107939000Y-89635000D01*
X108004000Y-89570000D01*
X108004000Y-89100000D01*
X108404000Y-89100000D01*
X108404000Y-89570000D01*
X108469000Y-89635000D01*
X108654000Y-89636258D01*
X108704969Y-89631238D01*
X108753979Y-89616371D01*
X108799147Y-89592228D01*
X108838737Y-89559737D01*
X108871228Y-89520147D01*
X108895371Y-89474979D01*
X108910238Y-89425969D01*
X108915258Y-89375000D01*
X108914000Y-89165000D01*
X108849000Y-89100000D01*
X108404000Y-89100000D01*
X108004000Y-89100000D01*
X107984000Y-89100000D01*
X107984000Y-88700000D01*
X108004000Y-88700000D01*
X108004000Y-88230000D01*
X108404000Y-88230000D01*
X108404000Y-88700000D01*
X108849000Y-88700000D01*
X108914000Y-88635000D01*
X108915258Y-88425000D01*
X108910238Y-88374031D01*
X108895371Y-88325021D01*
X108871228Y-88279853D01*
X108838737Y-88240263D01*
X108799147Y-88207772D01*
X108753979Y-88183629D01*
X108704969Y-88168762D01*
X108654000Y-88163742D01*
X108469000Y-88165000D01*
X108404000Y-88230000D01*
X108004000Y-88230000D01*
X107939000Y-88165000D01*
X107910886Y-88164809D01*
X110268540Y-86143963D01*
X110275321Y-86136885D01*
X110280590Y-86128621D01*
X110284147Y-86119487D01*
X110286000Y-86106000D01*
X110286000Y-85265207D01*
X115842000Y-85265207D01*
X115842000Y-85422793D01*
X115872743Y-85577351D01*
X115933049Y-85722942D01*
X116020599Y-85853970D01*
X116132030Y-85965401D01*
X116263058Y-86052951D01*
X116408649Y-86113257D01*
X116563207Y-86144000D01*
X116720793Y-86144000D01*
X116875351Y-86113257D01*
X117020942Y-86052951D01*
X117151970Y-85965401D01*
X117263401Y-85853970D01*
X117350951Y-85722942D01*
X117411257Y-85577351D01*
X117442000Y-85422793D01*
X117442000Y-85265207D01*
X117411257Y-85110649D01*
X117350951Y-84965058D01*
X117263401Y-84834030D01*
X117151970Y-84722599D01*
X117020942Y-84635049D01*
X116875351Y-84574743D01*
X116720793Y-84544000D01*
X116563207Y-84544000D01*
X116408649Y-84574743D01*
X116263058Y-84635049D01*
X116132030Y-84722599D01*
X116020599Y-84834030D01*
X115933049Y-84965058D01*
X115872743Y-85110649D01*
X115842000Y-85265207D01*
X110286000Y-85265207D01*
X110286000Y-84074000D01*
X110285039Y-84064245D01*
X110282194Y-84054866D01*
X110277573Y-84046221D01*
X110271355Y-84038645D01*
X110263779Y-84032427D01*
X110255134Y-84027806D01*
X110245755Y-84024961D01*
X110236000Y-84024000D01*
X109694744Y-84024000D01*
X109649014Y-84005058D01*
X109533095Y-83982000D01*
X109414905Y-83982000D01*
X109298986Y-84005058D01*
X109253256Y-84024000D01*
X104952000Y-84024000D01*
X104952000Y-83844000D01*
X116780742Y-83844000D01*
X116785762Y-83894969D01*
X116800629Y-83943979D01*
X116824772Y-83989147D01*
X116857263Y-84028737D01*
X116896853Y-84061228D01*
X116942021Y-84085371D01*
X116991031Y-84100238D01*
X117042000Y-84105258D01*
X117377000Y-84104000D01*
X117442000Y-84039000D01*
X117442000Y-83344000D01*
X117842000Y-83344000D01*
X117842000Y-84039000D01*
X117907000Y-84104000D01*
X118242000Y-84105258D01*
X118292969Y-84100238D01*
X118341979Y-84085371D01*
X118387147Y-84061228D01*
X118426737Y-84028737D01*
X118459228Y-83989147D01*
X118483371Y-83943979D01*
X118498238Y-83894969D01*
X118503258Y-83844000D01*
X118502000Y-83409000D01*
X118437000Y-83344000D01*
X117842000Y-83344000D01*
X117442000Y-83344000D01*
X116847000Y-83344000D01*
X116782000Y-83409000D01*
X116780742Y-83844000D01*
X104952000Y-83844000D01*
X104952000Y-82543799D01*
X116781030Y-82543474D01*
X116782000Y-82879000D01*
X116847000Y-82944000D01*
X117442000Y-82944000D01*
X117442000Y-82924000D01*
X117842000Y-82924000D01*
X117842000Y-82944000D01*
X118437000Y-82944000D01*
X118502000Y-82879000D01*
X118502970Y-82543426D01*
X120690307Y-82543366D01*
X120690307Y-83844000D01*
X120697065Y-83912612D01*
X120717078Y-83978587D01*
X120749578Y-84039390D01*
X120793315Y-84092685D01*
X120846610Y-84136422D01*
X120907413Y-84168922D01*
X120973388Y-84188935D01*
X121042000Y-84195693D01*
X122242000Y-84195693D01*
X122310612Y-84188935D01*
X122376587Y-84168922D01*
X122437390Y-84136422D01*
X122490685Y-84092685D01*
X122534422Y-84039390D01*
X122566922Y-83978587D01*
X122586935Y-83912612D01*
X122593693Y-83844000D01*
X122593693Y-83726000D01*
X126660385Y-83726000D01*
X126678805Y-83913017D01*
X126733355Y-84092846D01*
X126821941Y-84258578D01*
X126941157Y-84403843D01*
X127086422Y-84523059D01*
X127252154Y-84611645D01*
X127431983Y-84666195D01*
X127572144Y-84680000D01*
X128873856Y-84680000D01*
X129014017Y-84666195D01*
X129193846Y-84611645D01*
X129359578Y-84523059D01*
X129504843Y-84403843D01*
X129624059Y-84258578D01*
X129712645Y-84092846D01*
X129767195Y-83913017D01*
X129785615Y-83726000D01*
X129775915Y-83627509D01*
X132223000Y-83627509D01*
X132223000Y-83824491D01*
X132261429Y-84017689D01*
X132336811Y-84199678D01*
X132446249Y-84363463D01*
X132585537Y-84502751D01*
X132749322Y-84612189D01*
X132931311Y-84687571D01*
X133124509Y-84726000D01*
X133321491Y-84726000D01*
X133514689Y-84687571D01*
X133696678Y-84612189D01*
X133860463Y-84502751D01*
X133999751Y-84363463D01*
X134109189Y-84199678D01*
X134184571Y-84017689D01*
X134223000Y-83824491D01*
X134223000Y-83627509D01*
X134723000Y-83627509D01*
X134723000Y-83824491D01*
X134761429Y-84017689D01*
X134836811Y-84199678D01*
X134946249Y-84363463D01*
X135085537Y-84502751D01*
X135249322Y-84612189D01*
X135431311Y-84687571D01*
X135624509Y-84726000D01*
X135821491Y-84726000D01*
X136014689Y-84687571D01*
X136196678Y-84612189D01*
X136360463Y-84502751D01*
X136499751Y-84363463D01*
X136609189Y-84199678D01*
X136684571Y-84017689D01*
X136723000Y-83824491D01*
X136723000Y-83627509D01*
X136684571Y-83434311D01*
X136609189Y-83252322D01*
X136499751Y-83088537D01*
X136360463Y-82949249D01*
X136196678Y-82839811D01*
X136014689Y-82764429D01*
X135821491Y-82726000D01*
X135624509Y-82726000D01*
X135431311Y-82764429D01*
X135249322Y-82839811D01*
X135085537Y-82949249D01*
X134946249Y-83088537D01*
X134836811Y-83252322D01*
X134761429Y-83434311D01*
X134723000Y-83627509D01*
X134223000Y-83627509D01*
X134184571Y-83434311D01*
X134109189Y-83252322D01*
X133999751Y-83088537D01*
X133860463Y-82949249D01*
X133696678Y-82839811D01*
X133514689Y-82764429D01*
X133321491Y-82726000D01*
X133124509Y-82726000D01*
X132931311Y-82764429D01*
X132749322Y-82839811D01*
X132585537Y-82949249D01*
X132446249Y-83088537D01*
X132336811Y-83252322D01*
X132261429Y-83434311D01*
X132223000Y-83627509D01*
X129775915Y-83627509D01*
X129767195Y-83538983D01*
X129712645Y-83359154D01*
X129624059Y-83193422D01*
X129504843Y-83048157D01*
X129359578Y-82928941D01*
X129193846Y-82840355D01*
X129014017Y-82785805D01*
X128873856Y-82772000D01*
X127572144Y-82772000D01*
X127431983Y-82785805D01*
X127252154Y-82840355D01*
X127086422Y-82928941D01*
X126941157Y-83048157D01*
X126821941Y-83193422D01*
X126733355Y-83359154D01*
X126678805Y-83538983D01*
X126660385Y-83726000D01*
X122593693Y-83726000D01*
X122593693Y-82543314D01*
X137292933Y-82542910D01*
X137290528Y-95800818D01*
G37*
%TD.AperFunction*%
%TD*%
M02*
