%TF.GenerationSoftware,KiCad,Pcbnew,(5.1.10)-1*%
%TF.CreationDate,2021-10-05T14:24:33+02:00*%
%TF.ProjectId,Masterproef ultrasonic transducer,4d617374-6572-4707-926f-656620756c74,rev?*%
%TF.SameCoordinates,Original*%
%TF.FileFunction,Paste,Bot*%
%TF.FilePolarity,Positive*%
%FSLAX46Y46*%
G04 Gerber Fmt 4.6, Leading zero omitted, Abs format (unit mm)*
G04 Created by KiCad (PCBNEW (5.1.10)-1) date 2021-10-05 14:24:33*
%MOMM*%
%LPD*%
G01*
G04 APERTURE LIST*
%ADD10R,0.896000X0.976000*%
%ADD11R,0.960000X1.120000*%
%ADD12R,3.280000X1.480000*%
%ADD13R,0.480000X0.840000*%
G04 APERTURE END LIST*
D10*
%TO.C,D1*%
X111506000Y-95123000D03*
X108406000Y-95123000D03*
%TD*%
D11*
%TO.C,S1*%
X123642000Y-87544000D03*
X115642000Y-87544000D03*
X121642000Y-83144000D03*
X117642000Y-83144000D03*
%TD*%
D12*
%TO.C,L1*%
X115290600Y-94691200D03*
X115290600Y-91041200D03*
%TD*%
D13*
%TO.C,IC1*%
X111607600Y-90678000D03*
X109707600Y-90678000D03*
X109707600Y-93278000D03*
X110657600Y-93278000D03*
X111607600Y-93278000D03*
%TD*%
%TO.C,R3*%
G36*
G01*
X107000000Y-90204000D02*
X107000000Y-90644000D01*
G75*
G02*
X106840000Y-90804000I-160000J0D01*
G01*
X106520000Y-90804000D01*
G75*
G02*
X106360000Y-90644000I0J160000D01*
G01*
X106360000Y-90204000D01*
G75*
G02*
X106520000Y-90044000I160000J0D01*
G01*
X106840000Y-90044000D01*
G75*
G02*
X107000000Y-90204000I0J-160000D01*
G01*
G37*
G36*
G01*
X108650000Y-90204000D02*
X108650000Y-90644000D01*
G75*
G02*
X108490000Y-90804000I-160000J0D01*
G01*
X108170000Y-90804000D01*
G75*
G02*
X108010000Y-90644000I0J160000D01*
G01*
X108010000Y-90204000D01*
G75*
G02*
X108170000Y-90044000I160000J0D01*
G01*
X108490000Y-90044000D01*
G75*
G02*
X108650000Y-90204000I0J-160000D01*
G01*
G37*
%TD*%
%TO.C,C2*%
G36*
G01*
X107844000Y-89100000D02*
X107844000Y-88700000D01*
G75*
G02*
X108024000Y-88520000I180000J0D01*
G01*
X108384000Y-88520000D01*
G75*
G02*
X108564000Y-88700000I0J-180000D01*
G01*
X108564000Y-89100000D01*
G75*
G02*
X108384000Y-89280000I-180000J0D01*
G01*
X108024000Y-89280000D01*
G75*
G02*
X107844000Y-89100000I0J180000D01*
G01*
G37*
G36*
G01*
X106294000Y-89100000D02*
X106294000Y-88700000D01*
G75*
G02*
X106474000Y-88520000I180000J0D01*
G01*
X106834000Y-88520000D01*
G75*
G02*
X107014000Y-88700000I0J-180000D01*
G01*
X107014000Y-89100000D01*
G75*
G02*
X106834000Y-89280000I-180000J0D01*
G01*
X106474000Y-89280000D01*
G75*
G02*
X106294000Y-89100000I0J180000D01*
G01*
G37*
%TD*%
%TO.C,R2*%
G36*
G01*
X108010000Y-92168000D02*
X108010000Y-91728000D01*
G75*
G02*
X108170000Y-91568000I160000J0D01*
G01*
X108490000Y-91568000D01*
G75*
G02*
X108650000Y-91728000I0J-160000D01*
G01*
X108650000Y-92168000D01*
G75*
G02*
X108490000Y-92328000I-160000J0D01*
G01*
X108170000Y-92328000D01*
G75*
G02*
X108010000Y-92168000I0J160000D01*
G01*
G37*
G36*
G01*
X106360000Y-92168000D02*
X106360000Y-91728000D01*
G75*
G02*
X106520000Y-91568000I160000J0D01*
G01*
X106840000Y-91568000D01*
G75*
G02*
X107000000Y-91728000I0J-160000D01*
G01*
X107000000Y-92168000D01*
G75*
G02*
X106840000Y-92328000I-160000J0D01*
G01*
X106520000Y-92328000D01*
G75*
G02*
X106360000Y-92168000I0J160000D01*
G01*
G37*
%TD*%
%TO.C,R1*%
G36*
G01*
X107884000Y-93692000D02*
X107884000Y-93252000D01*
G75*
G02*
X108044000Y-93092000I160000J0D01*
G01*
X108364000Y-93092000D01*
G75*
G02*
X108524000Y-93252000I0J-160000D01*
G01*
X108524000Y-93692000D01*
G75*
G02*
X108364000Y-93852000I-160000J0D01*
G01*
X108044000Y-93852000D01*
G75*
G02*
X107884000Y-93692000I0J160000D01*
G01*
G37*
G36*
G01*
X106234000Y-93692000D02*
X106234000Y-93252000D01*
G75*
G02*
X106394000Y-93092000I160000J0D01*
G01*
X106714000Y-93092000D01*
G75*
G02*
X106874000Y-93252000I0J-160000D01*
G01*
X106874000Y-93692000D01*
G75*
G02*
X106714000Y-93852000I-160000J0D01*
G01*
X106394000Y-93852000D01*
G75*
G02*
X106234000Y-93692000I0J160000D01*
G01*
G37*
%TD*%
%TO.C,C4*%
G36*
G01*
X120596000Y-90263000D02*
X120196000Y-90263000D01*
G75*
G02*
X120016000Y-90083000I0J180000D01*
G01*
X120016000Y-89723000D01*
G75*
G02*
X120196000Y-89543000I180000J0D01*
G01*
X120596000Y-89543000D01*
G75*
G02*
X120776000Y-89723000I0J-180000D01*
G01*
X120776000Y-90083000D01*
G75*
G02*
X120596000Y-90263000I-180000J0D01*
G01*
G37*
G36*
G01*
X120596000Y-91813000D02*
X120196000Y-91813000D01*
G75*
G02*
X120016000Y-91633000I0J180000D01*
G01*
X120016000Y-91273000D01*
G75*
G02*
X120196000Y-91093000I180000J0D01*
G01*
X120596000Y-91093000D01*
G75*
G02*
X120776000Y-91273000I0J-180000D01*
G01*
X120776000Y-91633000D01*
G75*
G02*
X120596000Y-91813000I-180000J0D01*
G01*
G37*
%TD*%
%TO.C,C3*%
G36*
G01*
X121540000Y-93006000D02*
X122300000Y-93006000D01*
G75*
G02*
X122500000Y-93206000I0J-200000D01*
G01*
X122500000Y-93606000D01*
G75*
G02*
X122300000Y-93806000I-200000J0D01*
G01*
X121540000Y-93806000D01*
G75*
G02*
X121340000Y-93606000I0J200000D01*
G01*
X121340000Y-93206000D01*
G75*
G02*
X121540000Y-93006000I200000J0D01*
G01*
G37*
G36*
G01*
X121540000Y-91106000D02*
X122300000Y-91106000D01*
G75*
G02*
X122500000Y-91306000I0J-200000D01*
G01*
X122500000Y-91706000D01*
G75*
G02*
X122300000Y-91906000I-200000J0D01*
G01*
X121540000Y-91906000D01*
G75*
G02*
X121340000Y-91706000I0J200000D01*
G01*
X121340000Y-91306000D01*
G75*
G02*
X121540000Y-91106000I200000J0D01*
G01*
G37*
%TD*%
%TO.C,C1*%
G36*
G01*
X119072000Y-90263000D02*
X118672000Y-90263000D01*
G75*
G02*
X118492000Y-90083000I0J180000D01*
G01*
X118492000Y-89723000D01*
G75*
G02*
X118672000Y-89543000I180000J0D01*
G01*
X119072000Y-89543000D01*
G75*
G02*
X119252000Y-89723000I0J-180000D01*
G01*
X119252000Y-90083000D01*
G75*
G02*
X119072000Y-90263000I-180000J0D01*
G01*
G37*
G36*
G01*
X119072000Y-91813000D02*
X118672000Y-91813000D01*
G75*
G02*
X118492000Y-91633000I0J180000D01*
G01*
X118492000Y-91273000D01*
G75*
G02*
X118672000Y-91093000I180000J0D01*
G01*
X119072000Y-91093000D01*
G75*
G02*
X119252000Y-91273000I0J-180000D01*
G01*
X119252000Y-91633000D01*
G75*
G02*
X119072000Y-91813000I-180000J0D01*
G01*
G37*
%TD*%
M02*
