%TF.GenerationSoftware,KiCad,Pcbnew,(5.1.10)-1*%
%TF.CreationDate,2021-10-05T14:24:33+02:00*%
%TF.ProjectId,Masterproef ultrasonic transducer,4d617374-6572-4707-926f-656620756c74,rev?*%
%TF.SameCoordinates,Original*%
%TF.FileFunction,Soldermask,Top*%
%TF.FilePolarity,Negative*%
%FSLAX46Y46*%
G04 Gerber Fmt 4.6, Leading zero omitted, Abs format (unit mm)*
G04 Created by KiCad (PCBNEW (5.1.10)-1) date 2021-10-05 14:24:33*
%MOMM*%
%LPD*%
G01*
G04 APERTURE LIST*
%ADD10C,1.200000*%
%ADD11C,0.100000*%
%ADD12O,0.952000X0.952000*%
%ADD13O,1.310000X2.518000*%
%ADD14O,2.518000X1.310000*%
%ADD15C,1.402000*%
%ADD16C,1.002000*%
%ADD17C,1.102000*%
%ADD18C,0.408000*%
G04 APERTURE END LIST*
D10*
%TO.C,X1*%
X103858000Y-91904000D03*
D11*
G36*
X99888491Y-86952079D02*
G01*
X99869732Y-86946388D01*
X99852443Y-86937147D01*
X99837289Y-86924711D01*
X99824853Y-86909557D01*
X99815612Y-86892268D01*
X99809921Y-86873509D01*
X99808000Y-86854000D01*
X99808000Y-85954000D01*
X99809921Y-85934491D01*
X99815612Y-85915732D01*
X99824853Y-85898443D01*
X99837289Y-85883289D01*
X99852443Y-85870853D01*
X99869732Y-85861612D01*
X99888491Y-85855921D01*
X99908000Y-85854000D01*
X100808000Y-85854000D01*
X100827509Y-85855921D01*
X100846268Y-85861612D01*
X100863557Y-85870853D01*
X100878711Y-85883289D01*
X100891147Y-85898443D01*
X100900388Y-85915732D01*
X100906079Y-85934491D01*
X100908000Y-85954000D01*
X100908000Y-86404000D01*
X100907458Y-86412416D01*
X100907458Y-86426080D01*
X100906976Y-86435883D01*
X100902647Y-86479832D01*
X100901208Y-86489537D01*
X100892593Y-86532849D01*
X100890209Y-86542366D01*
X100889071Y-86546118D01*
X100888669Y-86545996D01*
X100886644Y-86553605D01*
X100886786Y-86553648D01*
X100885537Y-86557765D01*
X100885431Y-86558164D01*
X100885375Y-86558300D01*
X100877389Y-86584627D01*
X100874083Y-86593869D01*
X100857183Y-86634669D01*
X100852988Y-86643539D01*
X100840672Y-86666581D01*
X100840431Y-86667165D01*
X100839518Y-86668741D01*
X100838331Y-86670961D01*
X100838255Y-86670920D01*
X100833816Y-86678578D01*
X100834160Y-86678762D01*
X100832173Y-86682480D01*
X100827125Y-86690903D01*
X100802590Y-86727622D01*
X100796745Y-86735504D01*
X100768730Y-86769641D01*
X100762139Y-86776913D01*
X100747980Y-86791072D01*
X100747599Y-86790691D01*
X100744691Y-86793599D01*
X100745072Y-86793980D01*
X100730913Y-86808139D01*
X100723641Y-86814730D01*
X100689504Y-86842745D01*
X100681622Y-86848590D01*
X100644903Y-86873125D01*
X100636480Y-86878173D01*
X100632762Y-86880160D01*
X100632578Y-86879816D01*
X100624920Y-86884255D01*
X100624961Y-86884331D01*
X100622741Y-86885518D01*
X100621165Y-86886431D01*
X100620581Y-86886672D01*
X100597539Y-86898988D01*
X100588669Y-86903183D01*
X100547869Y-86920083D01*
X100538627Y-86923389D01*
X100512300Y-86931375D01*
X100512164Y-86931431D01*
X100511765Y-86931537D01*
X100507648Y-86932786D01*
X100507605Y-86932644D01*
X100499996Y-86934669D01*
X100500118Y-86935071D01*
X100496366Y-86936209D01*
X100486849Y-86938593D01*
X100443537Y-86947208D01*
X100433832Y-86948647D01*
X100389883Y-86952976D01*
X100380080Y-86953458D01*
X100366416Y-86953458D01*
X100358000Y-86954000D01*
X99908000Y-86954000D01*
X99888491Y-86952079D01*
G37*
%TD*%
D12*
%TO.C,J1*%
X118211600Y-92659200D03*
G36*
G01*
X118687600Y-93234200D02*
X118687600Y-94084200D01*
G75*
G02*
X118636600Y-94135200I-51000J0D01*
G01*
X117786600Y-94135200D01*
G75*
G02*
X117735600Y-94084200I0J51000D01*
G01*
X117735600Y-93234200D01*
G75*
G02*
X117786600Y-93183200I51000J0D01*
G01*
X118636600Y-93183200D01*
G75*
G02*
X118687600Y-93234200I0J-51000D01*
G01*
G37*
%TD*%
D11*
%TO.C,JP3*%
G36*
X118743050Y-87287020D02*
G01*
X118733483Y-87284118D01*
X118724666Y-87279405D01*
X118716938Y-87273062D01*
X118710565Y-87265290D01*
X118210565Y-86515290D01*
X118205862Y-86506468D01*
X118202970Y-86496897D01*
X118202000Y-86486947D01*
X118202990Y-86476998D01*
X118205903Y-86467434D01*
X118210565Y-86458710D01*
X118710565Y-85708710D01*
X118716900Y-85700975D01*
X118724622Y-85694625D01*
X118733434Y-85689903D01*
X118742998Y-85686990D01*
X118753000Y-85686000D01*
X119753000Y-85686000D01*
X119762950Y-85686980D01*
X119772517Y-85689882D01*
X119781334Y-85694595D01*
X119789062Y-85700938D01*
X119795405Y-85708666D01*
X119800118Y-85717483D01*
X119803020Y-85727050D01*
X119804000Y-85737000D01*
X119804000Y-87237000D01*
X119803020Y-87246950D01*
X119800118Y-87256517D01*
X119795405Y-87265334D01*
X119789062Y-87273062D01*
X119781334Y-87279405D01*
X119772517Y-87284118D01*
X119762950Y-87287020D01*
X119753000Y-87288000D01*
X118753000Y-87288000D01*
X118743050Y-87287020D01*
G37*
G36*
X117293050Y-87287020D02*
G01*
X117283483Y-87284118D01*
X117274666Y-87279405D01*
X117266938Y-87273062D01*
X117260595Y-87265334D01*
X117255882Y-87256517D01*
X117252980Y-87246950D01*
X117252000Y-87237000D01*
X117252000Y-85737000D01*
X117252980Y-85727050D01*
X117255882Y-85717483D01*
X117260595Y-85708666D01*
X117266938Y-85700938D01*
X117274666Y-85694595D01*
X117283483Y-85689882D01*
X117293050Y-85686980D01*
X117303000Y-85686000D01*
X118453000Y-85686000D01*
X118462950Y-85686980D01*
X118472517Y-85689882D01*
X118481334Y-85694595D01*
X118489062Y-85700938D01*
X118495405Y-85708666D01*
X118500118Y-85717483D01*
X118503020Y-85727050D01*
X118504000Y-85737000D01*
X118503020Y-85746950D01*
X118500118Y-85756517D01*
X118495435Y-85765290D01*
X118014295Y-86487000D01*
X118495435Y-87208710D01*
X118500138Y-87217532D01*
X118503030Y-87227103D01*
X118504000Y-87237053D01*
X118503010Y-87247002D01*
X118500097Y-87256566D01*
X118495375Y-87265378D01*
X118489025Y-87273100D01*
X118481290Y-87279435D01*
X118472468Y-87284138D01*
X118462897Y-87287030D01*
X118453000Y-87288000D01*
X117303000Y-87288000D01*
X117293050Y-87287020D01*
G37*
%TD*%
%TO.C,JP2*%
G36*
X122288380Y-84289050D02*
G01*
X122291282Y-84279483D01*
X122295995Y-84270666D01*
X122302338Y-84262938D01*
X122310110Y-84256565D01*
X123060110Y-83756565D01*
X123068932Y-83751862D01*
X123078503Y-83748970D01*
X123088453Y-83748000D01*
X123098402Y-83748990D01*
X123107966Y-83751903D01*
X123116690Y-83756565D01*
X123866690Y-84256565D01*
X123874425Y-84262900D01*
X123880775Y-84270622D01*
X123885497Y-84279434D01*
X123888410Y-84288998D01*
X123889400Y-84299000D01*
X123889400Y-85299000D01*
X123888420Y-85308950D01*
X123885518Y-85318517D01*
X123880805Y-85327334D01*
X123874462Y-85335062D01*
X123866734Y-85341405D01*
X123857917Y-85346118D01*
X123848350Y-85349020D01*
X123838400Y-85350000D01*
X122338400Y-85350000D01*
X122328450Y-85349020D01*
X122318883Y-85346118D01*
X122310066Y-85341405D01*
X122302338Y-85335062D01*
X122295995Y-85327334D01*
X122291282Y-85318517D01*
X122288380Y-85308950D01*
X122287400Y-85299000D01*
X122287400Y-84299000D01*
X122288380Y-84289050D01*
G37*
G36*
X122288380Y-82839050D02*
G01*
X122291282Y-82829483D01*
X122295995Y-82820666D01*
X122302338Y-82812938D01*
X122310066Y-82806595D01*
X122318883Y-82801882D01*
X122328450Y-82798980D01*
X122338400Y-82798000D01*
X123838400Y-82798000D01*
X123848350Y-82798980D01*
X123857917Y-82801882D01*
X123866734Y-82806595D01*
X123874462Y-82812938D01*
X123880805Y-82820666D01*
X123885518Y-82829483D01*
X123888420Y-82839050D01*
X123889400Y-82849000D01*
X123889400Y-83999000D01*
X123888420Y-84008950D01*
X123885518Y-84018517D01*
X123880805Y-84027334D01*
X123874462Y-84035062D01*
X123866734Y-84041405D01*
X123857917Y-84046118D01*
X123848350Y-84049020D01*
X123838400Y-84050000D01*
X123828450Y-84049020D01*
X123818883Y-84046118D01*
X123810110Y-84041435D01*
X123088400Y-83560295D01*
X122366690Y-84041435D01*
X122357868Y-84046138D01*
X122348297Y-84049030D01*
X122338347Y-84050000D01*
X122328398Y-84049010D01*
X122318834Y-84046097D01*
X122310022Y-84041375D01*
X122302300Y-84035025D01*
X122295965Y-84027290D01*
X122291262Y-84018468D01*
X122288370Y-84008897D01*
X122287400Y-83999000D01*
X122287400Y-82849000D01*
X122288380Y-82839050D01*
G37*
%TD*%
%TO.C,JP1*%
G36*
X117728750Y-82638980D02*
G01*
X117738317Y-82641882D01*
X117747134Y-82646595D01*
X117754862Y-82652938D01*
X117761235Y-82660710D01*
X118261235Y-83410710D01*
X118265938Y-83419532D01*
X118268830Y-83429103D01*
X118269800Y-83439053D01*
X118268810Y-83449002D01*
X118265897Y-83458566D01*
X118261235Y-83467290D01*
X117761235Y-84217290D01*
X117754900Y-84225025D01*
X117747178Y-84231375D01*
X117738366Y-84236097D01*
X117728802Y-84239010D01*
X117718800Y-84240000D01*
X116718800Y-84240000D01*
X116708850Y-84239020D01*
X116699283Y-84236118D01*
X116690466Y-84231405D01*
X116682738Y-84225062D01*
X116676395Y-84217334D01*
X116671682Y-84208517D01*
X116668780Y-84198950D01*
X116667800Y-84189000D01*
X116667800Y-82689000D01*
X116668780Y-82679050D01*
X116671682Y-82669483D01*
X116676395Y-82660666D01*
X116682738Y-82652938D01*
X116690466Y-82646595D01*
X116699283Y-82641882D01*
X116708850Y-82638980D01*
X116718800Y-82638000D01*
X117718800Y-82638000D01*
X117728750Y-82638980D01*
G37*
G36*
X119178750Y-82638980D02*
G01*
X119188317Y-82641882D01*
X119197134Y-82646595D01*
X119204862Y-82652938D01*
X119211205Y-82660666D01*
X119215918Y-82669483D01*
X119218820Y-82679050D01*
X119219800Y-82689000D01*
X119219800Y-84189000D01*
X119218820Y-84198950D01*
X119215918Y-84208517D01*
X119211205Y-84217334D01*
X119204862Y-84225062D01*
X119197134Y-84231405D01*
X119188317Y-84236118D01*
X119178750Y-84239020D01*
X119168800Y-84240000D01*
X118018800Y-84240000D01*
X118008850Y-84239020D01*
X117999283Y-84236118D01*
X117990466Y-84231405D01*
X117982738Y-84225062D01*
X117976395Y-84217334D01*
X117971682Y-84208517D01*
X117968780Y-84198950D01*
X117967800Y-84189000D01*
X117968780Y-84179050D01*
X117971682Y-84169483D01*
X117976365Y-84160710D01*
X118457505Y-83439000D01*
X117976365Y-82717290D01*
X117971662Y-82708468D01*
X117968770Y-82698897D01*
X117967800Y-82688947D01*
X117968790Y-82678998D01*
X117971703Y-82669434D01*
X117976425Y-82660622D01*
X117982775Y-82652900D01*
X117990510Y-82646565D01*
X117999332Y-82641862D01*
X118008903Y-82638970D01*
X118018800Y-82638000D01*
X119168800Y-82638000D01*
X119178750Y-82638980D01*
G37*
%TD*%
%TO.C,D2*%
G36*
G01*
X109858800Y-92804600D02*
X109858800Y-91986600D01*
G75*
G02*
X109909800Y-91935600I51000J0D01*
G01*
X110409800Y-91935600D01*
G75*
G02*
X110460800Y-91986600I0J-51000D01*
G01*
X110460800Y-92804600D01*
G75*
G02*
X110409800Y-92855600I-51000J0D01*
G01*
X109909800Y-92855600D01*
G75*
G02*
X109858800Y-92804600I0J51000D01*
G01*
G37*
G36*
G01*
X109858800Y-91188600D02*
X109858800Y-90370600D01*
G75*
G02*
X109909800Y-90319600I51000J0D01*
G01*
X110409800Y-90319600D01*
G75*
G02*
X110460800Y-90370600I0J-51000D01*
G01*
X110460800Y-91188600D01*
G75*
G02*
X110409800Y-91239600I-51000J0D01*
G01*
X109909800Y-91239600D01*
G75*
G02*
X109858800Y-91188600I0J51000D01*
G01*
G37*
%TD*%
%TO.C,R7*%
G36*
G01*
X123120800Y-86364300D02*
X123120800Y-86965300D01*
G75*
G02*
X122895300Y-87190800I-225500J0D01*
G01*
X122444300Y-87190800D01*
G75*
G02*
X122218800Y-86965300I0J225500D01*
G01*
X122218800Y-86364300D01*
G75*
G02*
X122444300Y-86138800I225500J0D01*
G01*
X122895300Y-86138800D01*
G75*
G02*
X123120800Y-86364300I0J-225500D01*
G01*
G37*
G36*
G01*
X124770800Y-86364300D02*
X124770800Y-86965300D01*
G75*
G02*
X124545300Y-87190800I-225500J0D01*
G01*
X124094300Y-87190800D01*
G75*
G02*
X123868800Y-86965300I0J225500D01*
G01*
X123868800Y-86364300D01*
G75*
G02*
X124094300Y-86138800I225500J0D01*
G01*
X124545300Y-86138800D01*
G75*
G02*
X124770800Y-86364300I0J-225500D01*
G01*
G37*
%TD*%
%TO.C,C10*%
G36*
G01*
X121009500Y-86151400D02*
X121560500Y-86151400D01*
G75*
G02*
X121811000Y-86401900I0J-250500D01*
G01*
X121811000Y-86902900D01*
G75*
G02*
X121560500Y-87153400I-250500J0D01*
G01*
X121009500Y-87153400D01*
G75*
G02*
X120759000Y-86902900I0J250500D01*
G01*
X120759000Y-86401900D01*
G75*
G02*
X121009500Y-86151400I250500J0D01*
G01*
G37*
G36*
G01*
X121009500Y-84601400D02*
X121560500Y-84601400D01*
G75*
G02*
X121811000Y-84851900I0J-250500D01*
G01*
X121811000Y-85352900D01*
G75*
G02*
X121560500Y-85603400I-250500J0D01*
G01*
X121009500Y-85603400D01*
G75*
G02*
X120759000Y-85352900I0J250500D01*
G01*
X120759000Y-84851900D01*
G75*
G02*
X121009500Y-84601400I250500J0D01*
G01*
G37*
%TD*%
D13*
%TO.C,J2*%
X133223000Y-88726000D03*
D14*
X128223000Y-83726000D03*
X128223000Y-93726000D03*
D15*
X128223000Y-88726000D03*
X133223000Y-83726000D03*
X133223000Y-93726000D03*
X135723000Y-93726000D03*
X135723000Y-83726000D03*
%TD*%
D16*
%TO.C,S1*%
X124642000Y-85344000D03*
X116642000Y-85344000D03*
%TD*%
D17*
%TO.C,9*%
X123698000Y-91440000D03*
%TD*%
%TO.C,7*%
X114429540Y-85242400D03*
%TD*%
%TO.C,6*%
X111455200Y-90500200D03*
%TD*%
%TO.C,4*%
X105867200Y-87579200D03*
%TD*%
%TO.C,3*%
X105765600Y-83235800D03*
%TD*%
%TO.C,2*%
X123698000Y-88900000D03*
%TD*%
%TO.C,1*%
X120954800Y-83413600D03*
%TD*%
%TO.C,L2*%
G36*
G01*
X112833600Y-91995000D02*
X112833600Y-94695000D01*
G75*
G02*
X112782600Y-94746000I-51000J0D01*
G01*
X111382600Y-94746000D01*
G75*
G02*
X111331600Y-94695000I0J51000D01*
G01*
X111331600Y-91995000D01*
G75*
G02*
X111382600Y-91944000I51000J0D01*
G01*
X112782600Y-91944000D01*
G75*
G02*
X112833600Y-91995000I0J-51000D01*
G01*
G37*
G36*
G01*
X115533600Y-91995000D02*
X115533600Y-94695000D01*
G75*
G02*
X115482600Y-94746000I-51000J0D01*
G01*
X114082600Y-94746000D01*
G75*
G02*
X114031600Y-94695000I0J51000D01*
G01*
X114031600Y-91995000D01*
G75*
G02*
X114082600Y-91944000I51000J0D01*
G01*
X115482600Y-91944000D01*
G75*
G02*
X115533600Y-91995000I0J-51000D01*
G01*
G37*
%TD*%
D18*
%TO.C,IC2*%
X113055020Y-89322340D03*
X112555020Y-89322340D03*
X112055020Y-89322340D03*
X113055020Y-88822340D03*
X112555020Y-88822340D03*
X112055020Y-88822340D03*
X113055020Y-88322340D03*
X112555020Y-88322340D03*
X112055020Y-88322340D03*
X113055020Y-87822340D03*
X112555020Y-87822340D03*
X112055020Y-87822340D03*
%TD*%
%TO.C,R6*%
G36*
G01*
X107413940Y-83491560D02*
X107413940Y-84092560D01*
G75*
G02*
X107188440Y-84318060I-225500J0D01*
G01*
X106737440Y-84318060D01*
G75*
G02*
X106511940Y-84092560I0J225500D01*
G01*
X106511940Y-83491560D01*
G75*
G02*
X106737440Y-83266060I225500J0D01*
G01*
X107188440Y-83266060D01*
G75*
G02*
X107413940Y-83491560I0J-225500D01*
G01*
G37*
G36*
G01*
X109063940Y-83491560D02*
X109063940Y-84092560D01*
G75*
G02*
X108838440Y-84318060I-225500J0D01*
G01*
X108387440Y-84318060D01*
G75*
G02*
X108161940Y-84092560I0J225500D01*
G01*
X108161940Y-83491560D01*
G75*
G02*
X108387440Y-83266060I225500J0D01*
G01*
X108838440Y-83266060D01*
G75*
G02*
X109063940Y-83491560I0J-225500D01*
G01*
G37*
%TD*%
%TO.C,R5*%
G36*
G01*
X108215280Y-85735940D02*
X108215280Y-85134940D01*
G75*
G02*
X108440780Y-84909440I225500J0D01*
G01*
X108891780Y-84909440D01*
G75*
G02*
X109117280Y-85134940I0J-225500D01*
G01*
X109117280Y-85735940D01*
G75*
G02*
X108891780Y-85961440I-225500J0D01*
G01*
X108440780Y-85961440D01*
G75*
G02*
X108215280Y-85735940I0J225500D01*
G01*
G37*
G36*
G01*
X106565280Y-85735940D02*
X106565280Y-85134940D01*
G75*
G02*
X106790780Y-84909440I225500J0D01*
G01*
X107241780Y-84909440D01*
G75*
G02*
X107467280Y-85134940I0J-225500D01*
G01*
X107467280Y-85735940D01*
G75*
G02*
X107241780Y-85961440I-225500J0D01*
G01*
X106790780Y-85961440D01*
G75*
G02*
X106565280Y-85735940I0J225500D01*
G01*
G37*
%TD*%
%TO.C,R4*%
G36*
G01*
X109910100Y-84986480D02*
X110511100Y-84986480D01*
G75*
G02*
X110736600Y-85211980I0J-225500D01*
G01*
X110736600Y-85662980D01*
G75*
G02*
X110511100Y-85888480I-225500J0D01*
G01*
X109910100Y-85888480D01*
G75*
G02*
X109684600Y-85662980I0J225500D01*
G01*
X109684600Y-85211980D01*
G75*
G02*
X109910100Y-84986480I225500J0D01*
G01*
G37*
G36*
G01*
X109910100Y-83336480D02*
X110511100Y-83336480D01*
G75*
G02*
X110736600Y-83561980I0J-225500D01*
G01*
X110736600Y-84012980D01*
G75*
G02*
X110511100Y-84238480I-225500J0D01*
G01*
X109910100Y-84238480D01*
G75*
G02*
X109684600Y-84012980I0J225500D01*
G01*
X109684600Y-83561980D01*
G75*
G02*
X109910100Y-83336480I225500J0D01*
G01*
G37*
%TD*%
%TO.C,C9*%
G36*
G01*
X115744640Y-88550660D02*
X115744640Y-87999660D01*
G75*
G02*
X115995140Y-87749160I250500J0D01*
G01*
X116496140Y-87749160D01*
G75*
G02*
X116746640Y-87999660I0J-250500D01*
G01*
X116746640Y-88550660D01*
G75*
G02*
X116496140Y-88801160I-250500J0D01*
G01*
X115995140Y-88801160D01*
G75*
G02*
X115744640Y-88550660I0J250500D01*
G01*
G37*
G36*
G01*
X114194640Y-88550660D02*
X114194640Y-87999660D01*
G75*
G02*
X114445140Y-87749160I250500J0D01*
G01*
X114946140Y-87749160D01*
G75*
G02*
X115196640Y-87999660I0J-250500D01*
G01*
X115196640Y-88550660D01*
G75*
G02*
X114946140Y-88801160I-250500J0D01*
G01*
X114445140Y-88801160D01*
G75*
G02*
X114194640Y-88550660I0J250500D01*
G01*
G37*
%TD*%
%TO.C,C8*%
G36*
G01*
X110142200Y-87927300D02*
X110142200Y-86926300D01*
G75*
G02*
X110417700Y-86650800I275500J0D01*
G01*
X110968700Y-86650800D01*
G75*
G02*
X111244200Y-86926300I0J-275500D01*
G01*
X111244200Y-87927300D01*
G75*
G02*
X110968700Y-88202800I-275500J0D01*
G01*
X110417700Y-88202800D01*
G75*
G02*
X110142200Y-87927300I0J275500D01*
G01*
G37*
G36*
G01*
X108242200Y-87927300D02*
X108242200Y-86926300D01*
G75*
G02*
X108517700Y-86650800I275500J0D01*
G01*
X109068700Y-86650800D01*
G75*
G02*
X109344200Y-86926300I0J-275500D01*
G01*
X109344200Y-87927300D01*
G75*
G02*
X109068700Y-88202800I-275500J0D01*
G01*
X108517700Y-88202800D01*
G75*
G02*
X108242200Y-87927300I0J275500D01*
G01*
G37*
%TD*%
%TO.C,C7*%
G36*
G01*
X111518580Y-85135940D02*
X112519580Y-85135940D01*
G75*
G02*
X112795080Y-85411440I0J-275500D01*
G01*
X112795080Y-85962440D01*
G75*
G02*
X112519580Y-86237940I-275500J0D01*
G01*
X111518580Y-86237940D01*
G75*
G02*
X111243080Y-85962440I0J275500D01*
G01*
X111243080Y-85411440D01*
G75*
G02*
X111518580Y-85135940I275500J0D01*
G01*
G37*
G36*
G01*
X111518580Y-83235940D02*
X112519580Y-83235940D01*
G75*
G02*
X112795080Y-83511440I0J-275500D01*
G01*
X112795080Y-84062440D01*
G75*
G02*
X112519580Y-84337940I-275500J0D01*
G01*
X111518580Y-84337940D01*
G75*
G02*
X111243080Y-84062440I0J275500D01*
G01*
X111243080Y-83511440D01*
G75*
G02*
X111518580Y-83235940I275500J0D01*
G01*
G37*
%TD*%
%TO.C,C6*%
G36*
G01*
X115186480Y-86595040D02*
X115186480Y-87146040D01*
G75*
G02*
X114935980Y-87396540I-250500J0D01*
G01*
X114434980Y-87396540D01*
G75*
G02*
X114184480Y-87146040I0J250500D01*
G01*
X114184480Y-86595040D01*
G75*
G02*
X114434980Y-86344540I250500J0D01*
G01*
X114935980Y-86344540D01*
G75*
G02*
X115186480Y-86595040I0J-250500D01*
G01*
G37*
G36*
G01*
X116736480Y-86595040D02*
X116736480Y-87146040D01*
G75*
G02*
X116485980Y-87396540I-250500J0D01*
G01*
X115984980Y-87396540D01*
G75*
G02*
X115734480Y-87146040I0J250500D01*
G01*
X115734480Y-86595040D01*
G75*
G02*
X115984980Y-86344540I250500J0D01*
G01*
X116485980Y-86344540D01*
G75*
G02*
X116736480Y-86595040I0J-250500D01*
G01*
G37*
%TD*%
%TO.C,C5*%
G36*
G01*
X109093020Y-89183300D02*
X109093020Y-89734300D01*
G75*
G02*
X108842520Y-89984800I-250500J0D01*
G01*
X108341520Y-89984800D01*
G75*
G02*
X108091020Y-89734300I0J250500D01*
G01*
X108091020Y-89183300D01*
G75*
G02*
X108341520Y-88932800I250500J0D01*
G01*
X108842520Y-88932800D01*
G75*
G02*
X109093020Y-89183300I0J-250500D01*
G01*
G37*
G36*
G01*
X110643020Y-89183300D02*
X110643020Y-89734300D01*
G75*
G02*
X110392520Y-89984800I-250500J0D01*
G01*
X109891520Y-89984800D01*
G75*
G02*
X109641020Y-89734300I0J250500D01*
G01*
X109641020Y-89183300D01*
G75*
G02*
X109891520Y-88932800I250500J0D01*
G01*
X110392520Y-88932800D01*
G75*
G02*
X110643020Y-89183300I0J-250500D01*
G01*
G37*
%TD*%
D11*
G36*
X117858448Y-92973144D02*
G01*
X117910903Y-93025599D01*
X117988162Y-93077222D01*
X118074006Y-93112780D01*
X118165143Y-93130908D01*
X118258057Y-93130908D01*
X118349194Y-93112780D01*
X118435038Y-93077222D01*
X118512297Y-93025599D01*
X118564752Y-92973144D01*
X118566684Y-92972626D01*
X118568098Y-92974040D01*
X118567712Y-92975827D01*
X118556186Y-92989871D01*
X118544821Y-93011135D01*
X118537821Y-93034210D01*
X118535458Y-93058201D01*
X118537821Y-93082192D01*
X118544821Y-93105267D01*
X118556186Y-93126531D01*
X118571481Y-93145168D01*
X118590118Y-93160463D01*
X118611382Y-93171828D01*
X118634457Y-93178828D01*
X118658644Y-93181210D01*
X118660270Y-93182375D01*
X118660074Y-93184365D01*
X118658448Y-93185200D01*
X117764752Y-93185200D01*
X117763020Y-93184200D01*
X117763020Y-93182200D01*
X117764556Y-93181210D01*
X117788743Y-93178828D01*
X117811818Y-93171828D01*
X117833082Y-93160463D01*
X117851719Y-93145168D01*
X117867014Y-93126531D01*
X117878379Y-93105267D01*
X117885379Y-93082192D01*
X117887742Y-93058201D01*
X117885379Y-93034210D01*
X117878379Y-93011135D01*
X117867014Y-92989871D01*
X117855488Y-92975827D01*
X117855162Y-92973853D01*
X117856708Y-92972585D01*
X117858448Y-92973144D01*
G37*
G36*
X112215842Y-89194075D02*
G01*
X112217973Y-89196206D01*
X112236690Y-89211567D01*
X112257954Y-89222932D01*
X112281029Y-89229932D01*
X112305020Y-89232295D01*
X112329011Y-89229932D01*
X112352086Y-89222932D01*
X112373350Y-89211567D01*
X112392067Y-89196206D01*
X112394198Y-89194075D01*
X112396130Y-89193557D01*
X112397544Y-89194971D01*
X112397275Y-89196600D01*
X112376881Y-89227122D01*
X112361728Y-89263704D01*
X112354002Y-89302544D01*
X112354002Y-89342136D01*
X112361728Y-89380976D01*
X112376881Y-89417558D01*
X112397275Y-89448080D01*
X112397406Y-89450076D01*
X112395743Y-89451187D01*
X112394198Y-89450605D01*
X112392067Y-89448474D01*
X112373350Y-89433113D01*
X112352086Y-89421748D01*
X112329011Y-89414748D01*
X112305020Y-89412385D01*
X112281029Y-89414748D01*
X112257954Y-89421748D01*
X112236690Y-89433113D01*
X112217973Y-89448474D01*
X112215842Y-89450605D01*
X112213910Y-89451123D01*
X112212496Y-89449709D01*
X112212765Y-89448080D01*
X112233159Y-89417558D01*
X112248312Y-89380976D01*
X112256038Y-89342136D01*
X112256038Y-89302544D01*
X112248312Y-89263704D01*
X112233159Y-89227122D01*
X112212765Y-89196600D01*
X112212634Y-89194604D01*
X112214297Y-89193493D01*
X112215842Y-89194075D01*
G37*
G36*
X112715842Y-89194075D02*
G01*
X112717973Y-89196206D01*
X112736690Y-89211567D01*
X112757954Y-89222932D01*
X112781029Y-89229932D01*
X112805020Y-89232295D01*
X112829011Y-89229932D01*
X112852086Y-89222932D01*
X112873350Y-89211567D01*
X112892067Y-89196206D01*
X112894198Y-89194075D01*
X112896130Y-89193557D01*
X112897544Y-89194971D01*
X112897275Y-89196600D01*
X112876881Y-89227122D01*
X112861728Y-89263704D01*
X112854002Y-89302544D01*
X112854002Y-89342136D01*
X112861728Y-89380976D01*
X112876881Y-89417558D01*
X112897275Y-89448080D01*
X112897406Y-89450076D01*
X112895743Y-89451187D01*
X112894198Y-89450605D01*
X112892067Y-89448474D01*
X112873350Y-89433113D01*
X112852086Y-89421748D01*
X112829011Y-89414748D01*
X112805020Y-89412385D01*
X112781029Y-89414748D01*
X112757954Y-89421748D01*
X112736690Y-89433113D01*
X112717973Y-89448474D01*
X112715842Y-89450605D01*
X112713910Y-89451123D01*
X112712496Y-89449709D01*
X112712765Y-89448080D01*
X112733159Y-89417558D01*
X112748312Y-89380976D01*
X112756038Y-89342136D01*
X112756038Y-89302544D01*
X112748312Y-89263704D01*
X112733159Y-89227122D01*
X112712765Y-89196600D01*
X112712634Y-89194604D01*
X112714297Y-89193493D01*
X112715842Y-89194075D01*
G37*
G36*
X112429280Y-88980085D02*
G01*
X112459802Y-89000479D01*
X112496384Y-89015632D01*
X112535224Y-89023358D01*
X112574816Y-89023358D01*
X112613656Y-89015632D01*
X112650238Y-89000479D01*
X112680760Y-88980085D01*
X112682756Y-88979954D01*
X112683867Y-88981617D01*
X112683285Y-88983162D01*
X112681154Y-88985293D01*
X112665793Y-89004010D01*
X112654428Y-89025274D01*
X112647428Y-89048349D01*
X112645065Y-89072340D01*
X112647428Y-89096331D01*
X112654428Y-89119406D01*
X112665793Y-89140670D01*
X112681154Y-89159387D01*
X112683285Y-89161518D01*
X112683803Y-89163450D01*
X112682389Y-89164864D01*
X112680760Y-89164595D01*
X112650238Y-89144201D01*
X112613656Y-89129048D01*
X112574816Y-89121322D01*
X112535224Y-89121322D01*
X112496384Y-89129048D01*
X112459802Y-89144201D01*
X112429280Y-89164595D01*
X112427284Y-89164726D01*
X112426173Y-89163063D01*
X112426755Y-89161518D01*
X112428886Y-89159387D01*
X112444247Y-89140670D01*
X112455612Y-89119406D01*
X112462612Y-89096331D01*
X112464975Y-89072340D01*
X112462612Y-89048349D01*
X112455612Y-89025274D01*
X112444247Y-89004010D01*
X112428886Y-88985293D01*
X112426755Y-88983162D01*
X112426237Y-88981230D01*
X112427651Y-88979816D01*
X112429280Y-88980085D01*
G37*
G36*
X111929280Y-88980085D02*
G01*
X111959802Y-89000479D01*
X111996384Y-89015632D01*
X112035224Y-89023358D01*
X112074816Y-89023358D01*
X112113656Y-89015632D01*
X112150238Y-89000479D01*
X112180760Y-88980085D01*
X112182756Y-88979954D01*
X112183867Y-88981617D01*
X112183285Y-88983162D01*
X112181154Y-88985293D01*
X112165793Y-89004010D01*
X112154428Y-89025274D01*
X112147428Y-89048349D01*
X112145065Y-89072340D01*
X112147428Y-89096331D01*
X112154428Y-89119406D01*
X112165793Y-89140670D01*
X112181154Y-89159387D01*
X112183285Y-89161518D01*
X112183803Y-89163450D01*
X112182389Y-89164864D01*
X112180760Y-89164595D01*
X112150238Y-89144201D01*
X112113656Y-89129048D01*
X112074816Y-89121322D01*
X112035224Y-89121322D01*
X111996384Y-89129048D01*
X111959802Y-89144201D01*
X111929280Y-89164595D01*
X111927284Y-89164726D01*
X111926173Y-89163063D01*
X111926755Y-89161518D01*
X111928886Y-89159387D01*
X111944247Y-89140670D01*
X111955612Y-89119406D01*
X111962612Y-89096331D01*
X111964975Y-89072340D01*
X111962612Y-89048349D01*
X111955612Y-89025274D01*
X111944247Y-89004010D01*
X111928886Y-88985293D01*
X111926755Y-88983162D01*
X111926237Y-88981230D01*
X111927651Y-88979816D01*
X111929280Y-88980085D01*
G37*
G36*
X112929280Y-88980085D02*
G01*
X112959802Y-89000479D01*
X112996384Y-89015632D01*
X113035224Y-89023358D01*
X113074816Y-89023358D01*
X113113656Y-89015632D01*
X113150238Y-89000479D01*
X113180760Y-88980085D01*
X113182756Y-88979954D01*
X113183867Y-88981617D01*
X113183285Y-88983162D01*
X113181154Y-88985293D01*
X113165793Y-89004010D01*
X113154428Y-89025274D01*
X113147428Y-89048349D01*
X113145065Y-89072340D01*
X113147428Y-89096331D01*
X113154428Y-89119406D01*
X113165793Y-89140670D01*
X113181154Y-89159387D01*
X113183285Y-89161518D01*
X113183803Y-89163450D01*
X113182389Y-89164864D01*
X113180760Y-89164595D01*
X113150238Y-89144201D01*
X113113656Y-89129048D01*
X113074816Y-89121322D01*
X113035224Y-89121322D01*
X112996384Y-89129048D01*
X112959802Y-89144201D01*
X112929280Y-89164595D01*
X112927284Y-89164726D01*
X112926173Y-89163063D01*
X112926755Y-89161518D01*
X112928886Y-89159387D01*
X112944247Y-89140670D01*
X112955612Y-89119406D01*
X112962612Y-89096331D01*
X112964975Y-89072340D01*
X112962612Y-89048349D01*
X112955612Y-89025274D01*
X112944247Y-89004010D01*
X112928886Y-88985293D01*
X112926755Y-88983162D01*
X112926237Y-88981230D01*
X112927651Y-88979816D01*
X112929280Y-88980085D01*
G37*
G36*
X112215842Y-88694075D02*
G01*
X112217973Y-88696206D01*
X112236690Y-88711567D01*
X112257954Y-88722932D01*
X112281029Y-88729932D01*
X112305020Y-88732295D01*
X112329011Y-88729932D01*
X112352086Y-88722932D01*
X112373350Y-88711567D01*
X112392067Y-88696206D01*
X112394198Y-88694075D01*
X112396130Y-88693557D01*
X112397544Y-88694971D01*
X112397275Y-88696600D01*
X112376881Y-88727122D01*
X112361728Y-88763704D01*
X112354002Y-88802544D01*
X112354002Y-88842136D01*
X112361728Y-88880976D01*
X112376881Y-88917558D01*
X112397275Y-88948080D01*
X112397406Y-88950076D01*
X112395743Y-88951187D01*
X112394198Y-88950605D01*
X112392067Y-88948474D01*
X112373350Y-88933113D01*
X112352086Y-88921748D01*
X112329011Y-88914748D01*
X112305020Y-88912385D01*
X112281029Y-88914748D01*
X112257954Y-88921748D01*
X112236690Y-88933113D01*
X112217973Y-88948474D01*
X112215842Y-88950605D01*
X112213910Y-88951123D01*
X112212496Y-88949709D01*
X112212765Y-88948080D01*
X112233159Y-88917558D01*
X112248312Y-88880976D01*
X112256038Y-88842136D01*
X112256038Y-88802544D01*
X112248312Y-88763704D01*
X112233159Y-88727122D01*
X112212765Y-88696600D01*
X112212634Y-88694604D01*
X112214297Y-88693493D01*
X112215842Y-88694075D01*
G37*
G36*
X112715842Y-88694075D02*
G01*
X112717973Y-88696206D01*
X112736690Y-88711567D01*
X112757954Y-88722932D01*
X112781029Y-88729932D01*
X112805020Y-88732295D01*
X112829011Y-88729932D01*
X112852086Y-88722932D01*
X112873350Y-88711567D01*
X112892067Y-88696206D01*
X112894198Y-88694075D01*
X112896130Y-88693557D01*
X112897544Y-88694971D01*
X112897275Y-88696600D01*
X112876881Y-88727122D01*
X112861728Y-88763704D01*
X112854002Y-88802544D01*
X112854002Y-88842136D01*
X112861728Y-88880976D01*
X112876881Y-88917558D01*
X112897275Y-88948080D01*
X112897406Y-88950076D01*
X112895743Y-88951187D01*
X112894198Y-88950605D01*
X112892067Y-88948474D01*
X112873350Y-88933113D01*
X112852086Y-88921748D01*
X112829011Y-88914748D01*
X112805020Y-88912385D01*
X112781029Y-88914748D01*
X112757954Y-88921748D01*
X112736690Y-88933113D01*
X112717973Y-88948474D01*
X112715842Y-88950605D01*
X112713910Y-88951123D01*
X112712496Y-88949709D01*
X112712765Y-88948080D01*
X112733159Y-88917558D01*
X112748312Y-88880976D01*
X112756038Y-88842136D01*
X112756038Y-88802544D01*
X112748312Y-88763704D01*
X112733159Y-88727122D01*
X112712765Y-88696600D01*
X112712634Y-88694604D01*
X112714297Y-88693493D01*
X112715842Y-88694075D01*
G37*
G36*
X112429280Y-88480085D02*
G01*
X112459802Y-88500479D01*
X112496384Y-88515632D01*
X112535224Y-88523358D01*
X112574816Y-88523358D01*
X112613656Y-88515632D01*
X112650238Y-88500479D01*
X112680760Y-88480085D01*
X112682756Y-88479954D01*
X112683867Y-88481617D01*
X112683285Y-88483162D01*
X112681154Y-88485293D01*
X112665793Y-88504010D01*
X112654428Y-88525274D01*
X112647428Y-88548349D01*
X112645065Y-88572340D01*
X112647428Y-88596331D01*
X112654428Y-88619406D01*
X112665793Y-88640670D01*
X112681154Y-88659387D01*
X112683285Y-88661518D01*
X112683803Y-88663450D01*
X112682389Y-88664864D01*
X112680760Y-88664595D01*
X112650238Y-88644201D01*
X112613656Y-88629048D01*
X112574816Y-88621322D01*
X112535224Y-88621322D01*
X112496384Y-88629048D01*
X112459802Y-88644201D01*
X112429280Y-88664595D01*
X112427284Y-88664726D01*
X112426173Y-88663063D01*
X112426755Y-88661518D01*
X112428886Y-88659387D01*
X112444247Y-88640670D01*
X112455612Y-88619406D01*
X112462612Y-88596331D01*
X112464975Y-88572340D01*
X112462612Y-88548349D01*
X112455612Y-88525274D01*
X112444247Y-88504010D01*
X112428886Y-88485293D01*
X112426755Y-88483162D01*
X112426237Y-88481230D01*
X112427651Y-88479816D01*
X112429280Y-88480085D01*
G37*
G36*
X111929280Y-88480085D02*
G01*
X111959802Y-88500479D01*
X111996384Y-88515632D01*
X112035224Y-88523358D01*
X112074816Y-88523358D01*
X112113656Y-88515632D01*
X112150238Y-88500479D01*
X112180760Y-88480085D01*
X112182756Y-88479954D01*
X112183867Y-88481617D01*
X112183285Y-88483162D01*
X112181154Y-88485293D01*
X112165793Y-88504010D01*
X112154428Y-88525274D01*
X112147428Y-88548349D01*
X112145065Y-88572340D01*
X112147428Y-88596331D01*
X112154428Y-88619406D01*
X112165793Y-88640670D01*
X112181154Y-88659387D01*
X112183285Y-88661518D01*
X112183803Y-88663450D01*
X112182389Y-88664864D01*
X112180760Y-88664595D01*
X112150238Y-88644201D01*
X112113656Y-88629048D01*
X112074816Y-88621322D01*
X112035224Y-88621322D01*
X111996384Y-88629048D01*
X111959802Y-88644201D01*
X111929280Y-88664595D01*
X111927284Y-88664726D01*
X111926173Y-88663063D01*
X111926755Y-88661518D01*
X111928886Y-88659387D01*
X111944247Y-88640670D01*
X111955612Y-88619406D01*
X111962612Y-88596331D01*
X111964975Y-88572340D01*
X111962612Y-88548349D01*
X111955612Y-88525274D01*
X111944247Y-88504010D01*
X111928886Y-88485293D01*
X111926755Y-88483162D01*
X111926237Y-88481230D01*
X111927651Y-88479816D01*
X111929280Y-88480085D01*
G37*
G36*
X112929280Y-88480085D02*
G01*
X112959802Y-88500479D01*
X112996384Y-88515632D01*
X113035224Y-88523358D01*
X113074816Y-88523358D01*
X113113656Y-88515632D01*
X113150238Y-88500479D01*
X113180760Y-88480085D01*
X113182756Y-88479954D01*
X113183867Y-88481617D01*
X113183285Y-88483162D01*
X113181154Y-88485293D01*
X113165793Y-88504010D01*
X113154428Y-88525274D01*
X113147428Y-88548349D01*
X113145065Y-88572340D01*
X113147428Y-88596331D01*
X113154428Y-88619406D01*
X113165793Y-88640670D01*
X113181154Y-88659387D01*
X113183285Y-88661518D01*
X113183803Y-88663450D01*
X113182389Y-88664864D01*
X113180760Y-88664595D01*
X113150238Y-88644201D01*
X113113656Y-88629048D01*
X113074816Y-88621322D01*
X113035224Y-88621322D01*
X112996384Y-88629048D01*
X112959802Y-88644201D01*
X112929280Y-88664595D01*
X112927284Y-88664726D01*
X112926173Y-88663063D01*
X112926755Y-88661518D01*
X112928886Y-88659387D01*
X112944247Y-88640670D01*
X112955612Y-88619406D01*
X112962612Y-88596331D01*
X112964975Y-88572340D01*
X112962612Y-88548349D01*
X112955612Y-88525274D01*
X112944247Y-88504010D01*
X112928886Y-88485293D01*
X112926755Y-88483162D01*
X112926237Y-88481230D01*
X112927651Y-88479816D01*
X112929280Y-88480085D01*
G37*
G36*
X112715842Y-88194075D02*
G01*
X112717973Y-88196206D01*
X112736690Y-88211567D01*
X112757954Y-88222932D01*
X112781029Y-88229932D01*
X112805020Y-88232295D01*
X112829011Y-88229932D01*
X112852086Y-88222932D01*
X112873350Y-88211567D01*
X112892067Y-88196206D01*
X112894198Y-88194075D01*
X112896130Y-88193557D01*
X112897544Y-88194971D01*
X112897275Y-88196600D01*
X112876881Y-88227122D01*
X112861728Y-88263704D01*
X112854002Y-88302544D01*
X112854002Y-88342136D01*
X112861728Y-88380976D01*
X112876881Y-88417558D01*
X112897275Y-88448080D01*
X112897406Y-88450076D01*
X112895743Y-88451187D01*
X112894198Y-88450605D01*
X112892067Y-88448474D01*
X112873350Y-88433113D01*
X112852086Y-88421748D01*
X112829011Y-88414748D01*
X112805020Y-88412385D01*
X112781029Y-88414748D01*
X112757954Y-88421748D01*
X112736690Y-88433113D01*
X112717973Y-88448474D01*
X112715842Y-88450605D01*
X112713910Y-88451123D01*
X112712496Y-88449709D01*
X112712765Y-88448080D01*
X112733159Y-88417558D01*
X112748312Y-88380976D01*
X112756038Y-88342136D01*
X112756038Y-88302544D01*
X112748312Y-88263704D01*
X112733159Y-88227122D01*
X112712765Y-88196600D01*
X112712634Y-88194604D01*
X112714297Y-88193493D01*
X112715842Y-88194075D01*
G37*
G36*
X112215842Y-88194075D02*
G01*
X112217973Y-88196206D01*
X112236690Y-88211567D01*
X112257954Y-88222932D01*
X112281029Y-88229932D01*
X112305020Y-88232295D01*
X112329011Y-88229932D01*
X112352086Y-88222932D01*
X112373350Y-88211567D01*
X112392067Y-88196206D01*
X112394198Y-88194075D01*
X112396130Y-88193557D01*
X112397544Y-88194971D01*
X112397275Y-88196600D01*
X112376881Y-88227122D01*
X112361728Y-88263704D01*
X112354002Y-88302544D01*
X112354002Y-88342136D01*
X112361728Y-88380976D01*
X112376881Y-88417558D01*
X112397275Y-88448080D01*
X112397406Y-88450076D01*
X112395743Y-88451187D01*
X112394198Y-88450605D01*
X112392067Y-88448474D01*
X112373350Y-88433113D01*
X112352086Y-88421748D01*
X112329011Y-88414748D01*
X112305020Y-88412385D01*
X112281029Y-88414748D01*
X112257954Y-88421748D01*
X112236690Y-88433113D01*
X112217973Y-88448474D01*
X112215842Y-88450605D01*
X112213910Y-88451123D01*
X112212496Y-88449709D01*
X112212765Y-88448080D01*
X112233159Y-88417558D01*
X112248312Y-88380976D01*
X112256038Y-88342136D01*
X112256038Y-88302544D01*
X112248312Y-88263704D01*
X112233159Y-88227122D01*
X112212765Y-88196600D01*
X112212634Y-88194604D01*
X112214297Y-88193493D01*
X112215842Y-88194075D01*
G37*
G36*
X112929280Y-87980085D02*
G01*
X112959802Y-88000479D01*
X112996384Y-88015632D01*
X113035224Y-88023358D01*
X113074816Y-88023358D01*
X113113656Y-88015632D01*
X113150238Y-88000479D01*
X113180760Y-87980085D01*
X113182756Y-87979954D01*
X113183867Y-87981617D01*
X113183285Y-87983162D01*
X113181154Y-87985293D01*
X113165793Y-88004010D01*
X113154428Y-88025274D01*
X113147428Y-88048349D01*
X113145065Y-88072340D01*
X113147428Y-88096331D01*
X113154428Y-88119406D01*
X113165793Y-88140670D01*
X113181154Y-88159387D01*
X113183285Y-88161518D01*
X113183803Y-88163450D01*
X113182389Y-88164864D01*
X113180760Y-88164595D01*
X113150238Y-88144201D01*
X113113656Y-88129048D01*
X113074816Y-88121322D01*
X113035224Y-88121322D01*
X112996384Y-88129048D01*
X112959802Y-88144201D01*
X112929280Y-88164595D01*
X112927284Y-88164726D01*
X112926173Y-88163063D01*
X112926755Y-88161518D01*
X112928886Y-88159387D01*
X112944247Y-88140670D01*
X112955612Y-88119406D01*
X112962612Y-88096331D01*
X112964975Y-88072340D01*
X112962612Y-88048349D01*
X112955612Y-88025274D01*
X112944247Y-88004010D01*
X112928886Y-87985293D01*
X112926755Y-87983162D01*
X112926237Y-87981230D01*
X112927651Y-87979816D01*
X112929280Y-87980085D01*
G37*
G36*
X112429280Y-87980085D02*
G01*
X112459802Y-88000479D01*
X112496384Y-88015632D01*
X112535224Y-88023358D01*
X112574816Y-88023358D01*
X112613656Y-88015632D01*
X112650238Y-88000479D01*
X112680760Y-87980085D01*
X112682756Y-87979954D01*
X112683867Y-87981617D01*
X112683285Y-87983162D01*
X112681154Y-87985293D01*
X112665793Y-88004010D01*
X112654428Y-88025274D01*
X112647428Y-88048349D01*
X112645065Y-88072340D01*
X112647428Y-88096331D01*
X112654428Y-88119406D01*
X112665793Y-88140670D01*
X112681154Y-88159387D01*
X112683285Y-88161518D01*
X112683803Y-88163450D01*
X112682389Y-88164864D01*
X112680760Y-88164595D01*
X112650238Y-88144201D01*
X112613656Y-88129048D01*
X112574816Y-88121322D01*
X112535224Y-88121322D01*
X112496384Y-88129048D01*
X112459802Y-88144201D01*
X112429280Y-88164595D01*
X112427284Y-88164726D01*
X112426173Y-88163063D01*
X112426755Y-88161518D01*
X112428886Y-88159387D01*
X112444247Y-88140670D01*
X112455612Y-88119406D01*
X112462612Y-88096331D01*
X112464975Y-88072340D01*
X112462612Y-88048349D01*
X112455612Y-88025274D01*
X112444247Y-88004010D01*
X112428886Y-87985293D01*
X112426755Y-87983162D01*
X112426237Y-87981230D01*
X112427651Y-87979816D01*
X112429280Y-87980085D01*
G37*
G36*
X111929280Y-87980085D02*
G01*
X111959802Y-88000479D01*
X111996384Y-88015632D01*
X112035224Y-88023358D01*
X112074816Y-88023358D01*
X112113656Y-88015632D01*
X112150238Y-88000479D01*
X112180760Y-87980085D01*
X112182756Y-87979954D01*
X112183867Y-87981617D01*
X112183285Y-87983162D01*
X112181154Y-87985293D01*
X112165793Y-88004010D01*
X112154428Y-88025274D01*
X112147428Y-88048349D01*
X112145065Y-88072340D01*
X112147428Y-88096331D01*
X112154428Y-88119406D01*
X112165793Y-88140670D01*
X112181154Y-88159387D01*
X112183285Y-88161518D01*
X112183803Y-88163450D01*
X112182389Y-88164864D01*
X112180760Y-88164595D01*
X112150238Y-88144201D01*
X112113656Y-88129048D01*
X112074816Y-88121322D01*
X112035224Y-88121322D01*
X111996384Y-88129048D01*
X111959802Y-88144201D01*
X111929280Y-88164595D01*
X111927284Y-88164726D01*
X111926173Y-88163063D01*
X111926755Y-88161518D01*
X111928886Y-88159387D01*
X111944247Y-88140670D01*
X111955612Y-88119406D01*
X111962612Y-88096331D01*
X111964975Y-88072340D01*
X111962612Y-88048349D01*
X111955612Y-88025274D01*
X111944247Y-88004010D01*
X111928886Y-87985293D01*
X111926755Y-87983162D01*
X111926237Y-87981230D01*
X111927651Y-87979816D01*
X111929280Y-87980085D01*
G37*
G36*
X112215842Y-87694075D02*
G01*
X112217973Y-87696206D01*
X112236690Y-87711567D01*
X112257954Y-87722932D01*
X112281029Y-87729932D01*
X112305020Y-87732295D01*
X112329011Y-87729932D01*
X112352086Y-87722932D01*
X112373350Y-87711567D01*
X112392067Y-87696206D01*
X112394198Y-87694075D01*
X112396130Y-87693557D01*
X112397544Y-87694971D01*
X112397275Y-87696600D01*
X112376881Y-87727122D01*
X112361728Y-87763704D01*
X112354002Y-87802544D01*
X112354002Y-87842136D01*
X112361728Y-87880976D01*
X112376881Y-87917558D01*
X112397275Y-87948080D01*
X112397406Y-87950076D01*
X112395743Y-87951187D01*
X112394198Y-87950605D01*
X112392067Y-87948474D01*
X112373350Y-87933113D01*
X112352086Y-87921748D01*
X112329011Y-87914748D01*
X112305020Y-87912385D01*
X112281029Y-87914748D01*
X112257954Y-87921748D01*
X112236690Y-87933113D01*
X112217973Y-87948474D01*
X112215842Y-87950605D01*
X112213910Y-87951123D01*
X112212496Y-87949709D01*
X112212765Y-87948080D01*
X112233159Y-87917558D01*
X112248312Y-87880976D01*
X112256038Y-87842136D01*
X112256038Y-87802544D01*
X112248312Y-87763704D01*
X112233159Y-87727122D01*
X112212765Y-87696600D01*
X112212634Y-87694604D01*
X112214297Y-87693493D01*
X112215842Y-87694075D01*
G37*
G36*
X112715842Y-87694075D02*
G01*
X112717973Y-87696206D01*
X112736690Y-87711567D01*
X112757954Y-87722932D01*
X112781029Y-87729932D01*
X112805020Y-87732295D01*
X112829011Y-87729932D01*
X112852086Y-87722932D01*
X112873350Y-87711567D01*
X112892067Y-87696206D01*
X112894198Y-87694075D01*
X112896130Y-87693557D01*
X112897544Y-87694971D01*
X112897275Y-87696600D01*
X112876881Y-87727122D01*
X112861728Y-87763704D01*
X112854002Y-87802544D01*
X112854002Y-87842136D01*
X112861728Y-87880976D01*
X112876881Y-87917558D01*
X112897275Y-87948080D01*
X112897406Y-87950076D01*
X112895743Y-87951187D01*
X112894198Y-87950605D01*
X112892067Y-87948474D01*
X112873350Y-87933113D01*
X112852086Y-87921748D01*
X112829011Y-87914748D01*
X112805020Y-87912385D01*
X112781029Y-87914748D01*
X112757954Y-87921748D01*
X112736690Y-87933113D01*
X112717973Y-87948474D01*
X112715842Y-87950605D01*
X112713910Y-87951123D01*
X112712496Y-87949709D01*
X112712765Y-87948080D01*
X112733159Y-87917558D01*
X112748312Y-87880976D01*
X112756038Y-87842136D01*
X112756038Y-87802544D01*
X112748312Y-87763704D01*
X112733159Y-87727122D01*
X112712765Y-87696600D01*
X112712634Y-87694604D01*
X112714297Y-87693493D01*
X112715842Y-87694075D01*
G37*
G36*
X118498406Y-85710120D02*
G01*
X118499875Y-85711909D01*
X118499992Y-85712067D01*
X118507526Y-85723343D01*
X118524574Y-85740389D01*
X118544621Y-85753784D01*
X118566895Y-85763010D01*
X118590545Y-85767714D01*
X118614651Y-85767714D01*
X118638302Y-85763009D01*
X118660575Y-85753783D01*
X118680623Y-85740388D01*
X118697702Y-85723307D01*
X118704993Y-85713467D01*
X118706828Y-85712671D01*
X118708435Y-85713862D01*
X118708264Y-85715767D01*
X118212286Y-86459734D01*
X118207759Y-86468206D01*
X118204960Y-86477392D01*
X118204010Y-86486946D01*
X118204942Y-86496507D01*
X118207720Y-86505702D01*
X118212286Y-86514267D01*
X118708259Y-87258226D01*
X118708388Y-87260221D01*
X118706724Y-87261331D01*
X118705048Y-87260602D01*
X118689649Y-87241798D01*
X118671027Y-87226483D01*
X118649773Y-87215093D01*
X118626710Y-87208070D01*
X118602722Y-87205683D01*
X118578718Y-87208021D01*
X118555646Y-87214994D01*
X118534365Y-87226341D01*
X118515753Y-87241582D01*
X118504421Y-87256829D01*
X118504104Y-87256966D01*
X118498377Y-87263929D01*
X118496504Y-87264632D01*
X118494959Y-87263362D01*
X118495069Y-87261714D01*
X118498242Y-87255793D01*
X118501040Y-87246608D01*
X118501990Y-87237053D01*
X118501058Y-87227493D01*
X118498280Y-87218298D01*
X118493714Y-87209733D01*
X118012631Y-86488109D01*
X118012631Y-86485891D01*
X118493717Y-85764263D01*
X118498260Y-85755751D01*
X118501050Y-85746555D01*
X118501991Y-85737000D01*
X118501050Y-85727445D01*
X118498261Y-85718252D01*
X118495096Y-85712332D01*
X118495162Y-85710333D01*
X118496925Y-85709390D01*
X118498406Y-85710120D01*
G37*
G36*
X123811137Y-84039717D02*
G01*
X123819649Y-84044260D01*
X123828845Y-84047050D01*
X123838400Y-84047991D01*
X123847955Y-84047050D01*
X123857148Y-84044261D01*
X123863068Y-84041096D01*
X123865067Y-84041162D01*
X123866010Y-84042925D01*
X123865280Y-84044406D01*
X123863491Y-84045875D01*
X123863333Y-84045992D01*
X123852057Y-84053526D01*
X123835011Y-84070574D01*
X123821616Y-84090621D01*
X123812390Y-84112895D01*
X123807686Y-84136545D01*
X123807686Y-84160651D01*
X123812391Y-84184302D01*
X123821617Y-84206575D01*
X123835012Y-84226623D01*
X123852093Y-84243702D01*
X123861926Y-84250988D01*
X123862722Y-84252823D01*
X123861531Y-84254430D01*
X123859626Y-84254259D01*
X123115666Y-83758286D01*
X123107194Y-83753759D01*
X123098008Y-83750960D01*
X123088454Y-83750010D01*
X123078893Y-83750942D01*
X123069698Y-83753720D01*
X123061133Y-83758286D01*
X122317174Y-84254259D01*
X122315179Y-84254388D01*
X122314069Y-84252724D01*
X122314798Y-84251048D01*
X122333602Y-84235649D01*
X122348917Y-84217027D01*
X122360307Y-84195773D01*
X122367330Y-84172710D01*
X122369717Y-84148721D01*
X122367379Y-84124718D01*
X122360406Y-84101646D01*
X122349059Y-84080365D01*
X122333818Y-84061753D01*
X122318571Y-84050421D01*
X122318434Y-84050104D01*
X122311471Y-84044377D01*
X122310768Y-84042504D01*
X122312038Y-84040959D01*
X122313686Y-84041069D01*
X122319607Y-84044242D01*
X122328792Y-84047040D01*
X122338346Y-84047990D01*
X122347907Y-84047058D01*
X122357102Y-84044280D01*
X122365667Y-84039714D01*
X123087291Y-83558631D01*
X123089509Y-83558631D01*
X123811137Y-84039717D01*
G37*
G36*
X117976841Y-82662638D02*
G01*
X117976731Y-82664286D01*
X117973558Y-82670207D01*
X117970760Y-82679392D01*
X117969810Y-82688946D01*
X117970742Y-82698507D01*
X117973520Y-82707702D01*
X117978086Y-82716267D01*
X118459169Y-83437891D01*
X118459169Y-83440109D01*
X117978083Y-84161737D01*
X117973540Y-84170249D01*
X117970750Y-84179445D01*
X117969809Y-84189000D01*
X117970750Y-84198555D01*
X117973539Y-84207748D01*
X117976704Y-84213668D01*
X117976638Y-84215667D01*
X117974875Y-84216610D01*
X117973394Y-84215880D01*
X117971925Y-84214091D01*
X117971808Y-84213933D01*
X117964274Y-84202657D01*
X117947226Y-84185611D01*
X117927179Y-84172216D01*
X117904905Y-84162990D01*
X117881255Y-84158286D01*
X117857149Y-84158286D01*
X117833498Y-84162991D01*
X117811225Y-84172217D01*
X117791177Y-84185612D01*
X117774098Y-84202693D01*
X117766810Y-84212529D01*
X117764975Y-84213325D01*
X117763368Y-84212134D01*
X117763539Y-84210229D01*
X118259514Y-83466266D01*
X118264041Y-83457794D01*
X118266840Y-83448608D01*
X118267790Y-83439053D01*
X118266858Y-83429493D01*
X118264080Y-83420298D01*
X118259514Y-83411733D01*
X117763541Y-82667774D01*
X117763412Y-82665779D01*
X117765076Y-82664669D01*
X117766752Y-82665398D01*
X117782151Y-82684202D01*
X117800773Y-82699517D01*
X117822027Y-82710907D01*
X117845090Y-82717930D01*
X117869078Y-82720317D01*
X117893082Y-82717979D01*
X117916154Y-82711006D01*
X117937435Y-82699659D01*
X117956047Y-82684418D01*
X117967379Y-82669171D01*
X117967696Y-82669034D01*
X117973423Y-82662071D01*
X117975296Y-82661368D01*
X117976841Y-82662638D01*
G37*
M02*
